<svg xmlns="http://www.w3.org/2000/svg" xmlns:xlink="http://www.w3.org/1999/xlink" xmlns:lucid="lucid" width="1182" height="877"><g transform="translate(-539 -40)" lucid:page-tab-id="0_0"><path d="M0 0h1870.4v1323.2H0z" fill="#fff"/><g filter="url(#a)"><path d="M1380 320c0-22.1 17.9-40 40-40h240c22.1 0 40 17.9 40 40v280c0 22.1-17.9 40-40 40h-240c-22.1 0-40-17.9-40-40z" stroke="#5e5e5e" stroke-width="3" fill="#fff"/><use xlink:href="#b" transform="matrix(1,0,0,1,1385,285) translate(14.01 17.77777777777778)"/><use xlink:href="#c" transform="matrix(1,0,0,1,1385,285) translate(65.80012345679013 17.77777777777778)"/></g><g filter="url(#a)"><path d="M920 320c0-22.1 17.9-40 40-40h240c22.1 0 40 17.9 40 40v280c0 22.1-17.9 40-40 40H960c-22.1 0-40-17.9-40-40z" stroke="#5e5e5e" stroke-width="3" fill="#fff"/><use xlink:href="#b" transform="matrix(1,0,0,1,925,285) translate(14.01 17.77777777777778)"/><use xlink:href="#d" transform="matrix(1,0,0,1,925,285) translate(65.80012345679013 17.77777777777778)"/></g><g filter="url(#a)"><path d="M560 320c0-22.1 17.9-40 40-40h240c22.1 0 40 17.9 40 40v280c0 22.1-17.9 40-40 40H600c-22.1 0-40-17.9-40-40z" stroke="#5e5e5e" stroke-width="3" fill="#fff"/><use xlink:href="#b" transform="matrix(1,0,0,1,565,285) translate(14.01 17.77777777777778)"/><use xlink:href="#e" transform="matrix(1,0,0,1,565,285) translate(65.80012345679013 17.77777777777778)"/></g><path d="M708 60c17.67 0 32 17.9 32 40s-14.33 40-32 40h-96c-17.67 0-32-17.9-32-40s14.33-40 32-40z" stroke="#5e5e5e" stroke-width="3" fill="#c1e4f7"/><use xlink:href="#f" transform="matrix(1,0,0,1,585,65) translate(18.95061728395062 39.65277777777778)"/><use xlink:href="#g" transform="matrix(1,0,0,1,585,65) translate(79.32098765432099 39.65277777777778)"/><path d="M1608 63c17.67 0 32 17.9 32 40s-14.33 40-32 40h-96c-17.67 0-32-17.9-32-40s14.33-40 32-40z" stroke="#5e5e5e" stroke-width="3" fill="#c1e4f7"/><use xlink:href="#f" transform="matrix(1,0,0,1,1485,68) translate(7.870370370370381 39.65277777777778)"/><use xlink:href="#h" transform="matrix(1,0,0,1,1485,68) translate(68.24074074074075 39.65277777777778)"/><use xlink:href="#c" transform="matrix(1,0,0,1,1485,68) translate(126.14197530864197 39.65277777777778)"/><path d="M700 360c0 22.1-17.9 40-40 40s-40-17.9-40-40 17.9-40 40-40 40 17.9 40 40z" stroke="#5e5e5e" stroke-width="3" fill="#b2b2b2"/><use xlink:href="#i" transform="matrix(1,0,0,1,625,325) translate(17.098765432098766 39.65277777777778)"/><path d="M1058.5 360c0 22.1-17.9 40-40 40s-40-17.9-40-40 17.9-40 40-40 40 17.9 40 40z" stroke="#5e5e5e" stroke-width="3" fill="#a3d977"/><use xlink:href="#i" transform="matrix(1,0,0,1,983.4990644204674,325) translate(17.098765432098766 39.65277777777778)"/><path d="M732.7 360H945.8" stroke="#5e5e5e" stroke-width="8" fill="none"/><path d="M714.45 360l14.26-4.64v9.28zM964.05 360l-14.26 4.64v-9.28z" stroke="#5e5e5e" stroke-width="8" fill="#5e5e5e"/><path d="M580 506c0-3.3 2.7-6 6-6h148c3.3 0 6 2.7 6 6v68c0 3.3-2.7 6-6 6H586c-3.3 0-6-2.7-6-6z" stroke="#5e5e5e" stroke-width="3" fill="#b2b2b2"/><use xlink:href="#j" transform="matrix(1,0,0,1,592,512) translate(14.97530864197531 31.77777777777778)"/><use xlink:href="#e" transform="matrix(1,0,0,1,592,512) translate(108.67901234567901 31.77777777777778)"/><path d="M1518.5 360c0 22.1-17.9 40-40 40s-40-17.9-40-40 17.9-40 40-40 40 17.9 40 40z" stroke="#5e5e5e" stroke-width="3" fill="#b2b2b2"/><use xlink:href="#i" transform="matrix(1,0,0,1,1443.4990644204672,325) translate(17.098765432098766 39.65277777777778)"/><path d="M1091.2 360h314.6" stroke="#5e5e5e" stroke-width="8" fill="none"/><path d="M1072.94 360l14.27-4.64v9.28zM1424.05 360l-14.26 4.64v-9.28z" stroke="#5e5e5e" stroke-width="8" fill="#5e5e5e"/><path d="M680 426.33c0-3.3 2.7-6 6-6h148c3.3 0 6 2.7 6 6V474c0 3.3-2.7 6-6 6H686c-3.3 0-6-2.7-6-6z" stroke="#5e5e5e" stroke-width="3" fill="#b2b2b2"/><use xlink:href="#k" transform="matrix(1,0,0,1,692,432.3333333333333) translate(3.864197530864189 17.77777777777778)"/><use xlink:href="#l" transform="matrix(1,0,0,1,692,432.3333333333333) translate(119.79012345679013 17.77777777777778)"/><use xlink:href="#m" transform="matrix(1,0,0,1,692,432.3333333333333) translate(32.19753086419753 44.44444444444444)"/><path d="M1188 60c17.67 0 32 17.9 32 40s-14.33 40-32 40h-96c-17.67 0-32-17.9-32-40s14.33-40 32-40z" stroke="#5e5e5e" stroke-width="3" fill="#c1e4f7"/><use xlink:href="#f" transform="matrix(1,0,0,1,1065,65) translate(18.95061728395062 39.65277777777778)"/><use xlink:href="#g" transform="matrix(1,0,0,1,1065,65) translate(79.32098765432099 39.65277777777778)"/><path d="M938.5 506c0-3.3 2.7-6 6-6h148c3.3 0 6 2.7 6 6v68c0 3.3-2.7 6-6 6h-148c-3.3 0-6-2.7-6-6z" stroke="#5e5e5e" stroke-width="3" fill="#a3d977"/><use xlink:href="#j" transform="matrix(1,0,0,1,950.4990644204674,512) translate(14.97530864197531 31.77777777777778)"/><use xlink:href="#d" transform="matrix(1,0,0,1,950.4990644204674,512) translate(108.67901234567901 31.77777777777778)"/><path d="M1398.5 506c0-3.3 2.7-6 6-6h148c3.3 0 6 2.7 6 6v68c0 3.3-2.7 6-6 6h-148c-3.3 0-6-2.7-6-6z" stroke="#5e5e5e" stroke-width="3" fill="#b2b2b2"/><use xlink:href="#j" transform="matrix(1,0,0,1,1410.4990644204672,512) translate(13.154320987654323 31.77777777777778)"/><use xlink:href="#c" transform="matrix(1,0,0,1,1410.4990644204672,512) translate(106.85802469135803 31.77777777777778)"/><path d="M660 402.5V480" stroke="#5e5e5e" stroke-width="2" fill="none"/><path d="M659.98 401.5l1.02-.03v1.06h-2v-1.1z" fill="#5e5e5e"/><path d="M660 495.26L655.36 481h9.28z" stroke="#5e5e5e" stroke-width="2" fill="#5e5e5e"/><path d="M1018.5 402.5V480" stroke="#5e5e5e" stroke-width="2" fill="none"/><path d="M1018.48 401.5l1.02-.03v1.06h-2v-1.1z" fill="#5e5e5e"/><path d="M1018.5 495.26l-4.64-14.26h9.27z" stroke="#5e5e5e" stroke-width="2" fill="#5e5e5e"/><path d="M1478.5 402.5V480" stroke="#5e5e5e" stroke-width="2" fill="none"/><path d="M1478.48 401.5l1.02-.03v1.06h-2v-1.1z" fill="#5e5e5e"/><path d="M1478.5 495.26l-4.64-14.26h9.27z" stroke="#5e5e5e" stroke-width="2" fill="#5e5e5e"/><path d="M560 823c0-3.3 2.7-6 6-6h148c3.3 0 6 2.7 6 6v68c0 3.3-2.7 6-6 6H566c-3.3 0-6-2.7-6-6z" stroke="#5e5e5e" stroke-width="3" fill="#ff8f80"/><use xlink:href="#n" transform="matrix(1,0,0,1,572,829) translate(40.90123456790124 17.77777777777778)"/><use xlink:href="#o" transform="matrix(1,0,0,1,572,829) translate(18.648148148148145 44.44444444444444)"/><use xlink:href="#e" transform="matrix(1,0,0,1,572,829) translate(105.00617283950618 44.44444444444444)"/><path d="M740 823c0-3.3 2.7-6 6-6h148c3.3 0 6 2.7 6 6v68c0 3.3-2.7 6-6 6H746c-3.3 0-6-2.7-6-6z" stroke="#5e5e5e" stroke-width="3" fill="#ff8f80"/><use xlink:href="#n" transform="matrix(1,0,0,1,752,829) translate(40.90123456790124 17.77777777777778)"/><use xlink:href="#o" transform="matrix(1,0,0,1,752,829) translate(18.648148148148145 44.44444444444444)"/><use xlink:href="#d" transform="matrix(1,0,0,1,752,829) translate(105.00617283950618 44.44444444444444)"/><path d="M920 823c0-3.3 2.7-6 6-6h148c3.3 0 6 2.7 6 6v68c0 3.3-2.7 6-6 6H926c-3.3 0-6-2.7-6-6z" stroke="#5e5e5e" stroke-width="3" fill="#ff8f80"/><use xlink:href="#n" transform="matrix(1,0,0,1,932,829) translate(40.90123456790124 17.77777777777778)"/><use xlink:href="#o" transform="matrix(1,0,0,1,932,829) translate(18.648148148148145 44.44444444444444)"/><use xlink:href="#p" transform="matrix(1,0,0,1,932,829) translate(105.00617283950618 44.44444444444444)"/><path d="M1480 823c0-3.3 2.7-6 6-6h148c3.3 0 6 2.7 6 6v68c0 3.3-2.7 6-6 6h-148c-3.3 0-6-2.7-6-6z" stroke="#5e5e5e" stroke-width="3" fill="#ff8f80"/><use xlink:href="#n" transform="matrix(1,0,0,1,1492,829) translate(40.90123456790124 17.77777777777778)"/><use xlink:href="#o" transform="matrix(1,0,0,1,1492,829) translate(18.648148148148145 44.44444444444444)"/><use xlink:href="#q" transform="matrix(1,0,0,1,1492,829) translate(105.00617283950618 44.44444444444444)"/><path d="M1058.5 426c0-3.3 2.7-6 6-6h148c3.3 0 6 2.7 6 6v47.67c0 3.3-2.7 6-6 6h-148c-3.3 0-6-2.7-6-6z" stroke="#5e5e5e" stroke-width="3" fill="#a3d977"/><use xlink:href="#k" transform="matrix(1,0,0,1,1070.4990644204674,432) translate(3.864197530864189 17.77777777777778)"/><use xlink:href="#r" transform="matrix(1,0,0,1,1070.4990644204674,432) translate(119.79012345679013 17.77777777777778)"/><use xlink:href="#s" transform="matrix(1,0,0,1,1070.4990644204674,432) translate(34.11111111111111 44.44444444444444)"/><path d="M1518.5 426c0-3.3 2.7-6 6-6h148c3.3 0 6 2.7 6 6v47.67c0 3.3-2.7 6-6 6h-148c-3.3 0-6-2.7-6-6z" stroke="#5e5e5e" stroke-width="3" fill="#b2b2b2"/><use xlink:href="#k" transform="matrix(1,0,0,1,1530.4990644204672,432) translate(2.0432098765432016 17.77777777777778)"/><use xlink:href="#t" transform="matrix(1,0,0,1,1530.4990644204672,432) translate(117.96913580246914 17.77777777777778)"/><use xlink:href="#m" transform="matrix(1,0,0,1,1530.4990644204672,432) translate(32.19753086419753 44.44444444444444)"/><path d="M1138.5 417.5v-5.74c0-3.3-2.7-6-6-6h-83.23" stroke="#5e5e5e" stroke-width="2" fill="none"/><path d="M1139.5 418.5h-2v-1.03h2z" fill="#5e5e5e"/><path d="M1044.84 395.98l10.1 11.08-8.44 3.83z" stroke="#5e5e5e" stroke-width="2" fill="#5e5e5e"/><path d="M1598.5 417.5v-6.98c0-3.3-2.7-6-6-6H1511" stroke="#5e5e5e" stroke-width="2" fill="none"/><path d="M1599.5 418.5h-2v-1.03h2z" fill="#5e5e5e"/><path d="M1507.48 393.63l8.8 12.14-8.82 2.86z" stroke="#5e5e5e" stroke-width="2" fill="#5e5e5e"/><path d="M760 417.83V406c0-3.3-2.7-6-6-6h-56.86" stroke="#5e5e5e" stroke-width="2" fill="none"/><path d="M761 418.83h-2v-1.02h2z" fill="#5e5e5e"/><path d="M691.67 391.43l11.58 9.54-7.82 4.98z" stroke="#5e5e5e" stroke-width="2" fill="#5e5e5e"/><path d="M659.9 582.5L641.6 797.07" stroke="#b2b2b2" stroke-width="2" fill="none"/><path d="M660.9 582.6l-1.98-.16.08-.94h2z" fill="#b2b2b2"/><path d="M640.28 812.28l-3.4-14.6 9.23.78z" stroke="#b2b2b2" stroke-width="2" fill="#b2b2b2"/><path d="M660.56 582.33l149 217.9" stroke="#b2b2b2" stroke-width="2" fill="none"/><path d="M661.4 581.78l-1.65 1.13-.96-1.4h2.4z" fill="#b2b2b2"/><path d="M818.17 812.83l-11.87-9.16 7.65-5.23z" stroke="#b2b2b2" stroke-width="2" fill="#b2b2b2"/><path d="M660.82 582.07L984.76 805" stroke="#b2b2b2" stroke-width="2" fill="none"/><path d="M660.28 582.9l-2.04-1.4h3z" fill="#b2b2b2"/><path d="M997.33 813.67l-14.38-4.27 5.26-7.64z" stroke="#b2b2b2" stroke-width="2" fill="#b2b2b2"/><path d="M660.97 581.75l881.12 229.1" stroke="#b2b2b2" stroke-width="2" fill="none"/><path d="M660.74 582.73l-3.9-1.02.06-.2h4.16z" fill="#b2b2b2"/><path d="M1556.87 814.7l-14.98.88 2.33-8.97z" stroke="#b2b2b2" stroke-width="2" fill="#b2b2b2"/><path d="M1017.65 582.03l-361.9 223.74" stroke="#a3d977" stroke-width="2" fill="none"/><path d="M1018.15 582.9l-.86-1.4h3.1z" fill="#a3d977"/><path d="M642.75 813.8l9.7-11.45 4.87 7.9z" stroke="#a3d977" stroke-width="2" fill="#a3d977"/><path d="M1017.85 582.26L831.97 801.4" stroke="#a3d977" stroke-width="2" fill="none"/><path d="M1018.6 582.93l-1.53-1.3.12-.13h2.6z" fill="#a3d977"/><path d="M822.1 813.03l5.7-13.88 7.06 6z" stroke="#a3d977" stroke-width="2" fill="#a3d977"/><path d="M1018.4 582.5l-18.24 213.6" stroke="#a3d977" stroke-width="2" fill="none"/><path d="M1019.4 582.6l-1.98-.16.08-.94h2z" fill="#a3d977"/><path d="M998.86 811.3l-3.4-14.6 9.23.78z" stroke="#a3d977" stroke-width="2" fill="#a3d977"/><path d="M1019.42 581.9l523.6 226.26" stroke="#a3d977" stroke-width="2" fill="none"/><path d="M1019.04 582.82l-3.06-1.32h3.64z" fill="#a3d977"/><path d="M1557.03 814.22l-14.93-1.4 3.67-8.52z" stroke="#a3d977" stroke-width="2" fill="#a3d977"/><path d="M1477.54 581.77L657.82 810.53" stroke="#b2b2b2" stroke-width="2" fill="none"/><path d="M1481.66 581.66l-3.88 1.08-.35-1.24h4.18z" fill="#b2b2b2"/><path d="M643.12 814.63l12.5-8.3 2.48 8.93z" stroke="#b2b2b2" stroke-width="2" fill="#b2b2b2"/><path d="M1477.56 581.83L837.43 809.3" stroke="#b2b2b2" stroke-width="2" fill="none"/><path d="M1477.87 582.8l-.46-1.3h4.1z" fill="#b2b2b2"/><path d="M823.05 814.42l11.9-9.15 3.1 8.74z" stroke="#b2b2b2" stroke-width="2" fill="#b2b2b2"/><path d="M1477.6 581.94l-460.98 225.43" stroke="#b2b2b2" stroke-width="2" fill="none"/><path d="M1478.02 582.85l-.66-1.35h3.42z" fill="#b2b2b2"/><path d="M1002.9 814.08l10.8-10.43 4.06 8.33z" stroke="#b2b2b2" stroke-width="2" fill="#b2b2b2"/><path d="M1478.83 582.44l75.08 215.6" stroke="#b2b2b2" stroke-width="2" fill="none"/><path d="M1479.78 582.14l-1.9.66-.44-1.3h2.12z" fill="#b2b2b2"/><path d="M1558.94 812.44l-9.07-11.94 8.75-3.05z" stroke="#b2b2b2" stroke-width="2" fill="#b2b2b2"/><path d="M860 450.14l178.5-.28" stroke="#a3d977" stroke-width="2" fill="none"/><path d="M844.74 450.16L859 445.5v9.27zM1053.76 449.84l-14.26 4.66v-9.27z" stroke="#a3d977" stroke-width="2" fill="#a3d977"/><path d="M1238.5 449.5h260" stroke="#a3d977" stroke-width="2" fill="none"/><path d="M1223.24 449.5l14.26-4.64v9.28zM1513.76 449.5l-14.26 4.64v-9.28z" stroke="#a3d977" stroke-width="2" fill="#a3d977"/><path d="M1140 142.5v81.7c0 3.3-2.7 6-6 6h-103.9c-3.3 0-6 2.68-6 6v64.2" stroke="#5e5e5e" stroke-width="2" fill="none"/><path d="M1141 142.53h-2v-1.03h2z" fill="#5e5e5e"/><path d="M1024.1 315.66l-4.63-14.27h9.27z" stroke="#5e5e5e" stroke-width="2" fill="#5e5e5e"/><path d="M1560 145.5v80c0 3.3-2.7 6-6 6h-529.5c-3.3 0-6 2.7-6 6V300" stroke="#5e5e5e" stroke-width="2" fill="none"/><path d="M1561 145.53h-2v-1.03h2z" fill="#5e5e5e"/><path d="M1018.5 315.26l-4.64-14.26h9.27z" stroke="#5e5e5e" stroke-width="2" fill="#5e5e5e"/><path d="M660 142.5V224c0 3.3 2.7 6 6 6h346.5c3.3 0 6 2.7 6 6v64" stroke="#5e5e5e" stroke-width="2" fill="none"/><path d="M661 142.53h-2v-1.03h2z" fill="#5e5e5e"/><path d="M1018.5 315.26l-4.64-14.26h9.27z" stroke="#5e5e5e" stroke-width="2" fill="#5e5e5e"/><path d="M1250.5 400c0 2.5-2 4.5-4.5 4.5s-4.5-2-4.5-4.5 2-4.5 4.5-4.5 4.5 2 4.5 4.5zm18.3 0c0 2.5-2.03 4.5-4.5 4.5-2.5 0-4.5-2-4.5-4.5s2-4.5 4.5-4.5c2.47 0 4.5 2 4.5 4.5zm18.27 0c0 2.5-2 4.5-4.5 4.5-2.48 0-4.5-2-4.5-4.5s2.02-4.5 4.5-4.5c2.5 0 4.5 2 4.5 4.5zm18.3 0c0 2.5-2.03 4.5-4.5 4.5-2.5 0-4.5-2-4.5-4.5s2-4.5 4.5-4.5c2.47 0 4.5 2 4.5 4.5zm18.27 0c0 2.5-2 4.5-4.5 4.5-2.48 0-4.5-2-4.5-4.5s2.02-4.5 4.5-4.5c2.5 0 4.5 2 4.5 4.5zm18.3 0c0 2.5-2.03 4.5-4.5 4.5-2.5 0-4.5-2-4.5-4.5s2-4.5 4.5-4.5c2.47 0 4.5 2 4.5 4.5zm18.27 0c0 2.5-2 4.5-4.5 4.5-2.47 0-4.5-2-4.5-4.5s2.03-4.5 4.5-4.5c2.5 0 4.5 2 4.5 4.5zm18.3 0c0 2.5-2 4.5-4.5 4.5s-4.5-2-4.5-4.5 2-4.5 4.5-4.5 4.5 2 4.5 4.5z" fill="#5e5e5e"/><path d="M1246.12 404.5h-4.62v-9h4.62zM1378.5 404.5h-4.62v-9h4.62zM1090.5 858.5c0 2.5-2 4.5-4.5 4.5s-4.5-2-4.5-4.5 2-4.5 4.5-4.5 4.5 2 4.5 4.5zm17.64 0c0 2.5-2.02 4.5-4.5 4.5-2.5 0-4.5-2-4.5-4.5s2-4.5 4.5-4.5c2.48 0 4.5 2 4.5 4.5zm17.63 0c0 2.5-2 4.5-4.5 4.5-2.48 0-4.5-2-4.5-4.5s2.02-4.5 4.5-4.5c2.5 0 4.5 2 4.5 4.5zm17.64 0c0 2.5-2 4.5-4.5 4.5-2.48 0-4.5-2-4.5-4.5s2.02-4.5 4.5-4.5c2.5 0 4.5 2 4.5 4.5zm17.65 0c0 2.5-2.02 4.5-4.5 4.5-2.5 0-4.5-2-4.5-4.5s2-4.5 4.5-4.5c2.48 0 4.5 2 4.5 4.5zm17.63 0c0 2.5-2 4.5-4.5 4.5-2.48 0-4.5-2-4.5-4.5s2.02-4.5 4.5-4.5c2.5 0 4.5 2 4.5 4.5zm17.64 0c0 2.5-2.02 4.5-4.5 4.5-2.5 0-4.5-2-4.5-4.5s2-4.5 4.5-4.5c2.48 0 4.5 2 4.5 4.5zm17.63 0c0 2.5-2 4.5-4.5 4.5-2.48 0-4.5-2-4.5-4.5s2.02-4.5 4.5-4.5c2.5 0 4.5 2 4.5 4.5zm17.64 0c0 2.5-2.02 4.5-4.5 4.5-2.5 0-4.5-2-4.5-4.5s2-4.5 4.5-4.5c2.48 0 4.5 2 4.5 4.5zm17.63 0c0 2.5-2.02 4.5-4.5 4.5-2.5 0-4.5-2-4.5-4.5s2-4.5 4.5-4.5c2.48 0 4.5 2 4.5 4.5zm17.63 0c0 2.5-2 4.5-4.5 4.5-2.48 0-4.5-2-4.5-4.5s2.02-4.5 4.5-4.5c2.5 0 4.5 2 4.5 4.5zm17.64 0c0 2.5-2 4.5-4.5 4.5s-4.5-2-4.5-4.5 2-4.5 4.5-4.5 4.5 2 4.5 4.5zm17.64 0c0 2.5-2.02 4.5-4.5 4.5-2.5 0-4.5-2-4.5-4.5s2-4.5 4.5-4.5c2.48 0 4.5 2 4.5 4.5zm17.63 0c0 2.5-2 4.5-4.5 4.5-2.48 0-4.5-2-4.5-4.5s2.02-4.5 4.5-4.5c2.5 0 4.5 2 4.5 4.5zm17.64 0c0 2.5-2 4.5-4.5 4.5-2.48 0-4.5-2-4.5-4.5s2.02-4.5 4.5-4.5c2.5 0 4.5 2 4.5 4.5zm17.65 0c0 2.5-2.02 4.5-4.5 4.5-2.5 0-4.5-2-4.5-4.5s2-4.5 4.5-4.5c2.48 0 4.5 2 4.5 4.5zm17.63 0c0 2.5-2 4.5-4.5 4.5-2.48 0-4.5-2-4.5-4.5s2.02-4.5 4.5-4.5c2.5 0 4.5 2 4.5 4.5zm17.64 0c0 2.5-2.02 4.5-4.5 4.5-2.5 0-4.5-2-4.5-4.5s2-4.5 4.5-4.5c2.48 0 4.5 2 4.5 4.5zm17.63 0c0 2.5-2 4.5-4.5 4.5-2.48 0-4.5-2-4.5-4.5s2.02-4.5 4.5-4.5c2.5 0 4.5 2 4.5 4.5zm17.64 0c0 2.5-2.02 4.5-4.5 4.5-2.5 0-4.5-2-4.5-4.5s2-4.5 4.5-4.5c2.48 0 4.5 2 4.5 4.5zm17.63 0c0 2.5-2.02 4.5-4.5 4.5-2.5 0-4.5-2-4.5-4.5s2-4.5 4.5-4.5c2.48 0 4.5 2 4.5 4.5zm17.63 0c0 2.5-2 4.5-4.5 4.5-2.48 0-4.5-2-4.5-4.5s2.02-4.5 4.5-4.5c2.5 0 4.5 2 4.5 4.5zm17.64 0c0 2.5-2 4.5-4.5 4.5s-4.5-2-4.5-4.5 2-4.5 4.5-4.5 4.5 2 4.5 4.5z" fill="#5e5e5e"/><path d="M1086.12 863h-4.62v-9h4.62zM1478.5 863h-4.62v-9h4.62z" fill="#5e5e5e"/><path d="M742.5 540H754c3.3 0 6-2.7 6-6v-34" stroke="#5e5e5e" stroke-width="2" fill="none"/><path d="M742.53 541h-1.03v-2h1.03z" fill="#5e5e5e"/><path d="M760 484.74l4.64 14.26h-9.28z" stroke="#5e5e5e" stroke-width="2" fill="#5e5e5e"/><path d="M1101 540h31.5c3.3 0 6-2.7 6-6v-34.33" stroke="#5e5e5e" stroke-width="2" fill="none"/><path d="M1101.02 541H1100v-2h1.02z" fill="#5e5e5e"/><path d="M1138.5 484.4l4.63 14.27h-9.27z" stroke="#5e5e5e" stroke-width="2" fill="#5e5e5e"/><path d="M1561 540h31.5c3.3 0 6-2.7 6-6v-34.33" stroke="#5e5e5e" stroke-width="2" fill="none"/><path d="M1561.02 541H1560v-2h1.02z" fill="#5e5e5e"/><path d="M1598.5 484.4l4.63 14.27h-9.27z" stroke="#5e5e5e" stroke-width="2" fill="#5e5e5e"/><defs><path fill="#333" d="M197 0v-115H63V0H30v-248h33v105h134v-105h34V0h-34" id="u"/><path fill="#333" d="M100-194c62-1 85 37 85 99 1 63-27 99-86 99S16-35 15-95c0-66 28-99 85-99zM99-20c44 1 53-31 53-75 0-43-8-75-51-75s-53 32-53 75 10 74 51 75" id="v"/><path fill="#333" d="M135-143c-3-34-86-38-87 0 15 53 115 12 119 90S17 21 10-45l28-5c4 36 97 45 98 0-10-56-113-15-118-90-4-57 82-63 122-42 12 7 21 19 24 35" id="w"/><path fill="#333" d="M59-47c-2 24 18 29 38 22v24C64 9 27 4 27-40v-127H5v-23h24l9-43h21v43h35v23H59v120" id="x"/><g id="b"><use transform="matrix(0.06172839506172839,0,0,0.06172839506172839,0,0)" xlink:href="#u"/><use transform="matrix(0.06172839506172839,0,0,0.06172839506172839,15.987654320987653,0)" xlink:href="#v"/><use transform="matrix(0.06172839506172839,0,0,0.06172839506172839,28.333333333333332,0)" xlink:href="#w"/><use transform="matrix(0.06172839506172839,0,0,0.06172839506172839,39.44444444444444,0)" xlink:href="#x"/></g><path fill="#333" d="M190 0L58-211 59 0H30v-248h39L202-35l-2-213h31V0h-41" id="y"/><use transform="matrix(0.06172839506172839,0,0,0.06172839506172839,0,0)" xlink:href="#y" id="c"/><filter id="a" filterUnits="objectBoundingBox" x="-.03" y="-.01" width="1.06" height="1.06"><feOffset result="offOut" in="SourceAlpha" dy="6"/><feGaussianBlur result="blurOut" in="offOut" stdDeviation="5"/><feColorMatrix result="colorOut" in="blurOut" values="0 0 0 0 0 0 0 0 0 0 0 0 0 0 0 0 0 0 0.5019607843137255 0"/><feBlend in="SourceGraphic" in2="colorOut"/></filter><path fill="#333" d="M101-251c82-7 93 87 43 132L82-64C71-53 59-42 53-27h129V0H18c2-99 128-94 128-182 0-28-16-43-45-43s-46 15-49 41l-32-3c6-41 34-60 81-64" id="z"/><use transform="matrix(0.06172839506172839,0,0,0.06172839506172839,0,0)" xlink:href="#z" id="d"/><path fill="#333" d="M27 0v-27h64v-190l-56 39v-29l58-41h29v221h61V0H27" id="A"/><use transform="matrix(0.06172839506172839,0,0,0.06172839506172839,0,0)" xlink:href="#A" id="e"/><path fill="#333" d="M233-177c-1 41-23 64-60 70L243 0h-38l-65-103H63V0H30v-248c88 3 205-21 203 71zM63-129c60-2 137 13 137-47 0-61-80-42-137-45v92" id="B"/><path fill="#333" d="M143 4C61 4 22-44 18-125c-5-107 100-154 193-111 17 8 29 25 37 43l-32 9c-13-25-37-40-76-40-61 0-88 39-88 99 0 61 29 100 91 101 35 0 62-11 79-27v-45h-74v-28h105v86C228-13 192 4 143 4" id="C"/><path fill="#333" d="M266 0h-40l-56-210L115 0H75L2-248h35L96-30l15-64 43-154h32l59 218 59-218h35" id="D"/><g id="f"><use transform="matrix(0.06172839506172839,0,0,0.06172839506172839,0,0)" xlink:href="#B"/><use transform="matrix(0.06172839506172839,0,0,0.06172839506172839,15.987654320987653,0)" xlink:href="#C"/><use transform="matrix(0.06172839506172839,0,0,0.06172839506172839,33.2716049382716,0)" xlink:href="#D"/></g><path fill="#333" d="M96-169c-40 0-48 33-48 73s9 75 48 75c24 0 41-14 43-38l32 2c-6 37-31 61-74 61-59 0-76-41-82-99-10-93 101-131 147-64 4 7 5 14 7 22l-32 3c-4-21-16-35-41-35" id="E"/><path fill="#333" d="M24 0v-261h32V0H24" id="F"/><path fill="#333" d="M24-231v-30h32v30H24zM24 0v-190h32V0H24" id="G"/><path fill="#333" d="M100-194c63 0 86 42 84 106H49c0 40 14 67 53 68 26 1 43-12 49-29l28 8c-11 28-37 45-77 45C44 4 14-33 15-96c1-61 26-98 85-98zm52 81c6-60-76-77-97-28-3 7-6 17-6 28h103" id="H"/><path fill="#333" d="M117-194c89-4 53 116 60 194h-32v-121c0-31-8-49-39-48C34-167 62-67 57 0H25l-1-190h30c1 10-1 24 2 32 11-22 29-35 61-36" id="I"/><g id="g"><use transform="matrix(0.06172839506172839,0,0,0.06172839506172839,0,0)" xlink:href="#E"/><use transform="matrix(0.06172839506172839,0,0,0.06172839506172839,11.11111111111111,0)" xlink:href="#F"/><use transform="matrix(0.06172839506172839,0,0,0.06172839506172839,15.987654320987653,0)" xlink:href="#G"/><use transform="matrix(0.06172839506172839,0,0,0.06172839506172839,20.864197530864196,0)" xlink:href="#H"/><use transform="matrix(0.06172839506172839,0,0,0.06172839506172839,33.20987654320987,0)" xlink:href="#I"/><use transform="matrix(0.06172839506172839,0,0,0.06172839506172839,45.55555555555555,0)" xlink:href="#x"/></g><g id="h"><use transform="matrix(0.06172839506172839,0,0,0.06172839506172839,0,0)" xlink:href="#E"/><use transform="matrix(0.06172839506172839,0,0,0.06172839506172839,11.11111111111111,0)" xlink:href="#F"/><use transform="matrix(0.06172839506172839,0,0,0.06172839506172839,15.987654320987653,0)" xlink:href="#G"/><use transform="matrix(0.06172839506172839,0,0,0.06172839506172839,20.864197530864196,0)" xlink:href="#H"/><use transform="matrix(0.06172839506172839,0,0,0.06172839506172839,33.20987654320987,0)" xlink:href="#I"/><use transform="matrix(0.06172839506172839,0,0,0.06172839506172839,45.55555555555555,0)" xlink:href="#x"/></g><path fill="#333" d="M137 0h-34L2-248h35l83 218 83-218h36" id="J"/><path fill="#333" d="M33 0v-248h34V0H33" id="K"/><path fill="#333" d="M30-248c87 1 191-15 191 75 0 78-77 80-158 76V0H30v-248zm33 125c57 0 124 11 124-50 0-59-68-47-124-48v98" id="L"/><g id="i"><use transform="matrix(0.06172839506172839,0,0,0.06172839506172839,0,0)" xlink:href="#J"/><use transform="matrix(0.06172839506172839,0,0,0.06172839506172839,14.814814814814813,0)" xlink:href="#K"/><use transform="matrix(0.06172839506172839,0,0,0.06172839506172839,20.98765432098765,0)" xlink:href="#L"/></g><path fill="#333" d="M205 0l-28-72H64L36 0H1l101-248h38L239 0h-34zm-38-99l-47-123c-12 45-31 82-46 123h93" id="M"/><path fill="#333" d="M114-163C36-179 61-72 57 0H25l-1-190h30c1 12-1 29 2 39 6-27 23-49 58-41v29" id="N"/><path fill="#333" d="M141 0L90-78 38 0H4l68-98-65-92h35l48 74 47-74h35l-64 92 68 98h-35" id="O"/><path fill="#333" d="M179-190L93 31C79 59 56 82 12 73V49c39 6 53-20 64-50L1-190h34L92-34l54-156h33" id="P"/><g id="j"><use transform="matrix(0.06172839506172839,0,0,0.06172839506172839,0,0)" xlink:href="#u"/><use transform="matrix(0.06172839506172839,0,0,0.06172839506172839,15.987654320987653,0)" xlink:href="#M"/><use transform="matrix(0.06172839506172839,0,0,0.06172839506172839,30.80246913580247,0)" xlink:href="#L"/><use transform="matrix(0.06172839506172839,0,0,0.06172839506172839,45.61728395061728,0)" xlink:href="#N"/><use transform="matrix(0.06172839506172839,0,0,0.06172839506172839,52.962962962962955,0)" xlink:href="#v"/><use transform="matrix(0.06172839506172839,0,0,0.06172839506172839,65.30864197530863,0)" xlink:href="#O"/><use transform="matrix(0.06172839506172839,0,0,0.06172839506172839,76.41975308641975,0)" xlink:href="#P"/></g><path fill="#333" d="M194 0L95-120 63-95V0H30v-248h33v124l119-124h40L117-140 236 0h-42" id="Q"/><path fill="#333" d="M115-194c55 1 70 41 70 98S169 2 115 4C84 4 66-9 55-30l1 105H24l-1-265h31l2 30c10-21 28-34 59-34zm-8 174c40 0 45-34 45-75s-6-73-45-74c-42 0-51 32-51 76 0 43 10 73 51 73" id="R"/><path fill="#333" d="M141-36C126-15 110 5 73 4 37 3 15-17 15-53c-1-64 63-63 125-63 3-35-9-54-41-54-24 1-41 7-42 31l-33-3c5-37 33-52 76-52 45 0 72 20 72 64v82c-1 20 7 32 28 27v20c-31 9-61-2-59-35zM48-53c0 20 12 33 32 33 41-3 63-29 60-74-43 2-92-5-92 41" id="S"/><path fill="#333" d="M108 0H70L1-190h34L89-25l56-165h34" id="T"/><path fill="#333" d="M85-194c31 0 48 13 60 33l-1-100h32l1 261h-30c-2-10 0-23-3-31C134-8 116 4 85 4 32 4 16-35 15-94c0-66 23-100 70-100zm9 24c-40 0-46 34-46 75 0 40 6 74 45 74 42 0 51-32 51-76 0-42-9-74-50-73" id="U"/><g id="k"><use transform="matrix(0.06172839506172839,0,0,0.06172839506172839,0,0)" xlink:href="#Q"/><use transform="matrix(0.06172839506172839,0,0,0.06172839506172839,14.814814814814813,0)" xlink:href="#H"/><use transform="matrix(0.06172839506172839,0,0,0.06172839506172839,27.160493827160494,0)" xlink:href="#H"/><use transform="matrix(0.06172839506172839,0,0,0.06172839506172839,39.50617283950617,0)" xlink:href="#R"/><use transform="matrix(0.06172839506172839,0,0,0.06172839506172839,51.85185185185185,0)" xlink:href="#S"/><use transform="matrix(0.06172839506172839,0,0,0.06172839506172839,64.19753086419753,0)" xlink:href="#F"/><use transform="matrix(0.06172839506172839,0,0,0.06172839506172839,69.07407407407408,0)" xlink:href="#G"/><use transform="matrix(0.06172839506172839,0,0,0.06172839506172839,73.95061728395062,0)" xlink:href="#T"/><use transform="matrix(0.06172839506172839,0,0,0.06172839506172839,85.06172839506173,0)" xlink:href="#H"/><use transform="matrix(0.06172839506172839,0,0,0.06172839506172839,97.40740740740742,0)" xlink:href="#U"/></g><use transform="matrix(0.06172839506172839,0,0,0.06172839506172839,0,0)" xlink:href="#A" id="l"/><path fill="#333" d="M115-194c53 0 69 39 70 98 0 66-23 100-70 100C84 3 66-7 56-30L54 0H23l1-261h32v101c10-23 28-34 59-34zm-8 174c40 0 45-34 45-75 0-40-5-75-45-74-42 0-51 32-51 76 0 43 10 73 51 73" id="V"/><path fill="#333" d="M143 0L79-87 56-68V0H24v-261h32v163l83-92h37l-77 82L181 0h-38" id="W"/><path fill="#333" d="M84 4C-5 8 30-112 23-190h32v120c0 31 7 50 39 49 72-2 45-101 50-169h31l1 190h-30c-1-10 1-25-2-33-11 22-28 36-60 37" id="X"/><g id="m"><use transform="matrix(0.06172839506172839,0,0,0.06172839506172839,0,0)" xlink:href="#V"/><use transform="matrix(0.06172839506172839,0,0,0.06172839506172839,12.345679012345679,0)" xlink:href="#S"/><use transform="matrix(0.06172839506172839,0,0,0.06172839506172839,24.691358024691358,0)" xlink:href="#E"/><use transform="matrix(0.06172839506172839,0,0,0.06172839506172839,35.80246913580247,0)" xlink:href="#W"/><use transform="matrix(0.06172839506172839,0,0,0.06172839506172839,46.91358024691358,0)" xlink:href="#X"/><use transform="matrix(0.06172839506172839,0,0,0.06172839506172839,59.25925925925926,0)" xlink:href="#R"/></g><g id="n"><use transform="matrix(0.06172839506172839,0,0,0.06172839506172839,0,0)" xlink:href="#B"/><use transform="matrix(0.06172839506172839,0,0,0.06172839506172839,15.987654320987653,0)" xlink:href="#C"/><use transform="matrix(0.06172839506172839,0,0,0.06172839506172839,33.2716049382716,0)" xlink:href="#D"/></g><path fill="#333" d="M210-169c-67 3-38 105-44 169h-31v-121c0-29-5-50-35-48C34-165 62-65 56 0H25l-1-190h30c1 10-1 24 2 32 10-44 99-50 107 0 11-21 27-35 58-36 85-2 47 119 55 194h-31v-121c0-29-5-49-35-48" id="Y"/><g id="o"><use transform="matrix(0.06172839506172839,0,0,0.06172839506172839,0,0)" xlink:href="#U"/><use transform="matrix(0.06172839506172839,0,0,0.06172839506172839,12.345679012345679,0)" xlink:href="#S"/><use transform="matrix(0.06172839506172839,0,0,0.06172839506172839,24.691358024691358,0)" xlink:href="#H"/><use transform="matrix(0.06172839506172839,0,0,0.06172839506172839,37.03703703703704,0)" xlink:href="#Y"/><use transform="matrix(0.06172839506172839,0,0,0.06172839506172839,55.49382716049382,0)" xlink:href="#v"/><use transform="matrix(0.06172839506172839,0,0,0.06172839506172839,67.8395061728395,0)" xlink:href="#I"/></g><path fill="#333" d="M126-127c33 6 58 20 58 59 0 88-139 92-164 29-3-8-5-16-6-25l32-3c6 27 21 44 54 44 32 0 52-15 52-46 0-38-36-46-79-43v-28c39 1 72-4 72-42 0-27-17-43-46-43-28 0-47 15-49 41l-32-3c6-42 35-63 81-64 48-1 79 21 79 65 0 36-21 52-52 59" id="Z"/><use transform="matrix(0.06172839506172839,0,0,0.06172839506172839,0,0)" xlink:href="#Z" id="p"/><use transform="matrix(0.06172839506172839,0,0,0.06172839506172839,0,0)" xlink:href="#I" id="q"/><use transform="matrix(0.06172839506172839,0,0,0.06172839506172839,0,0)" xlink:href="#z" id="r"/><g id="s"><use transform="matrix(0.06172839506172839,0,0,0.06172839506172839,0,0)" xlink:href="#Y"/><use transform="matrix(0.06172839506172839,0,0,0.06172839506172839,18.456790123456788,0)" xlink:href="#S"/><use transform="matrix(0.06172839506172839,0,0,0.06172839506172839,30.80246913580247,0)" xlink:href="#w"/><use transform="matrix(0.06172839506172839,0,0,0.06172839506172839,41.91358024691358,0)" xlink:href="#x"/><use transform="matrix(0.06172839506172839,0,0,0.06172839506172839,48.086419753086425,0)" xlink:href="#H"/><use transform="matrix(0.06172839506172839,0,0,0.06172839506172839,60.4320987654321,0)" xlink:href="#N"/></g><use transform="matrix(0.06172839506172839,0,0,0.06172839506172839,0,0)" xlink:href="#y" id="t"/></defs></g></svg>