<?xml version="1.0" encoding="UTF-8" standalone="no"?>
<svg
   xmlns:dc="http://purl.org/dc/elements/1.1/"
   xmlns:cc="http://creativecommons.org/ns#"
   xmlns:rdf="http://www.w3.org/1999/02/22-rdf-syntax-ns#"
   xmlns:svg="http://www.w3.org/2000/svg"
   xmlns="http://www.w3.org/2000/svg"
   xmlns:sodipodi="http://sodipodi.sourceforge.net/DTD/sodipodi-0.dtd"
   xmlns:inkscape="http://www.inkscape.org/namespaces/inkscape"
   sodipodi:docname="Ceph_Ceph_Logo_white.svg"
   inkscape:version="1.0 (4035a4fb49, 2020-05-01)"
   xml:space="preserve"
   id="svg3023"
   height="84.821152"
   width="309.90601"
   version="1.1"><sodipodi:namedview
     inkscape:window-maximized="1"
     inkscape:window-y="1080"
     inkscape:window-x="3840"
     inkscape:snap-grids="true"
     inkscape:document-rotation="0"
     inkscape:current-layer="svg3023"
     inkscape:cy="40.664131"
     inkscape:cx="174.44199"
     inkscape:zoom="4"
     fit-margin-bottom="0"
     fit-margin-right="0"
     fit-margin-left="0"
     fit-margin-top="0"
     showgrid="true"
     id="namedview18"
     inkscape:window-height="1051"
     inkscape:window-width="1920"
     inkscape:pageshadow="2"
     inkscape:pageopacity="0"
     guidetolerance="10"
     gridtolerance="10"
     objecttolerance="10"
     borderopacity="1"
     bordercolor="#666666"
     pagecolor="#000000"><inkscape:grid
       id="grid12"
       type="xygrid" /></sodipodi:namedview><metadata
     id="metadata3029"><rdf:RDF><cc:Work
         rdf:about=""><dc:format>image/svg+xml</dc:format><dc:type
           rdf:resource="http://purl.org/dc/dcmitype/StillImage" /><dc:title></dc:title></cc:Work></rdf:RDF></metadata><defs
     id="defs3027" /><g
     transform="matrix(1.2645281,0,0,1.2645281,-331.87054,-100.71194)"
     id="g7238"><path
       inkscape:connector-curvature="0"
       d="m 381.9911,121.40232 c 0,8.86025 -0.7935,11.31 -2.92775,13.4477 -1.26475,1.26514 -3.24375,2.13379 -6.963,2.13379 l -13.05023,0 c -4.19238,0 -6.72071,-0.7124 -8.46338,-2.45019 -2.76562,-2.77005 -3.55664,-6.0923 -3.55664,-18.9038 0,-12.8135 0.79102,-16.137245 3.55664,-18.90387 1.74267,-1.73975 4.271,-2.449625 8.46338,-2.449625 l 12.97361,0 c 3.87262,0 5.61237,0.787625 6.95799,2.13475 2.05525,2.055125 2.84863,4.902875 2.84863,12.888625 l -7.98725,0 c -0.16013,-5.53612 -0.47562,-6.48338 -0.95162,-6.9585 -0.47563,-0.47363 -1.10701,-0.71138 -2.92588,-0.71138 l -9.88712,0 c -2.45073,0 -3.08353,0.23775 -3.63627,0.7915 -0.79101,0.78863 -1.1875,2.2925 -1.1875,13.2085 0,10.91263 0.39649,12.4165 1.1875,13.2075 0.55274,0.55375 1.18554,0.7915 3.63627,0.7915 l 9.96437,0 c 1.74162,0 2.53563,-0.15775 3.08537,-0.71137 0.55475,-0.55525 0.87213,-2.13775 0.87213,-7.51513 l 7.99075,0"
       id="path3049-5"
       style="fill:#ffffff;fill-opacity:1;fill-rule:nonzero;stroke:none" /><path
       inkscape:connector-curvature="0"
       d="m 395.91147,111.75232 19.45601,0 c 0,-7.19625 -0.476,-8.77875 -1.18363,-9.49112 -0.478,-0.47363 -1.1875,-0.78863 -3.63763,-0.78863 l -9.81099,0 c -2.45076,0 -3.08351,0.23738 -3.71738,0.86863 -0.71238,0.71387 -1.02537,2.13387 -1.10638,9.41112 z m 0,6.5665 c 0.081,8.38225 0.55225,10.04338 1.1875,10.67625 0.63376,0.63375 1.1855,0.7925 3.63626,0.7925 l 11.07324,0 c 1.82076,0 2.37538,-0.3165 2.851,-0.7925 0.54988,-0.55375 0.70801,-1.5025 0.87013,-5.29887 l 7.98537,0 c -0.15724,6.64262 -0.791,9.01612 -2.92775,11.15382 -1.34325,1.34473 -3.16212,2.13379 -6.95799,2.13379 l -13.84088,0 c -4.19287,0 -6.72363,-0.7124 -8.46388,-2.45019 -2.77049,-2.77005 -3.55662,-6.0923 -3.55662,-18.9038 0,-12.8135 0.78613,-16.137245 3.55662,-18.90387 1.74025,-1.73975 4.27101,-2.449625 8.46388,-2.449625 l 11.70462,0 c 4.19438,0 6.88138,0.787625 8.46588,2.370125 2.76512,2.7685 3.55612,6.09225 3.55612,18.58838 l 0,2.13525 c 0,0.62987 -0.23637,0.94875 -0.95075,0.94875 l -26.65275,0"
       id="path3051-2"
       style="fill:#ffffff;fill-opacity:1;fill-rule:nonzero;stroke:none" /><path
       inkscape:connector-curvature="0"
       d="m 455.71123,128.68007 c -0.71038,0.711 -1.74313,1.02738 -4.34813,1.02738 l -6.17338,0 c -2.53174,0 -4.73137,-0.71388 -7.75137,-2.25 -0.18412,-0.0937 -0.35987,-0.18113 -0.55275,-0.27875 l 0,-23.25637 c 3.165,-1.58113 5.37838,-2.37113 7.99075,-2.37113 l 6.48675,0 c 2.605,0 3.63775,0.31637 4.34813,1.02738 1.18512,1.185 1.50249,3.47749 1.50249,13.05124 0,9.57275 -0.31737,11.86275 -1.50249,13.05025 z m -2.37688,-34.487745 -5.76913,0 c -3.562,0 -5.30124,0.793875 -10.67962,5.222625 l 0,-5.138625 -8.22463,0 0,52.149875 c 2.96238,0 8.22463,0 8.22463,0 l 0,-14.5025 c 5.37838,4.34771 7.11762,5.13872 10.67962,5.13872 l 5.76913,0 c 4.59225,0 6.88475,-0.79101 8.7035,-2.60741 2.29162,-2.29494 3.401,-5.53756 3.401,-18.82518 0,-13.28863 -1.10938,-16.533755 -3.401,-18.824755 -1.81875,-1.818875 -4.11125,-2.61275 -8.7035,-2.61275"
       id="path3053-7"
       style="fill:#ffffff;fill-opacity:1;fill-rule:nonzero;stroke:none" /><path
       inkscape:connector-curvature="0"
       d="m 504.98885,96.64645 c -1.5825,-1.5825 -3.6375,-2.454125 -7.35625,-2.454125 l -6.72125,0 c -3.56,0 -5.29875,0.793875 -10.68,5.222625 l 0,-16.27875 c -2.5525,-1.401375 -5.2175,-2.42875 -8.16625,-3.061125 -0.0212,0.001 -0.037,0.01375 -0.0589,0.021 l 0,56.887735 8.22512,0 0,-33.06148 c 0.6025,-0.30126 1.165,-0.56351 1.7075,-0.80713 2.30875,-1.03662 4.16875,-1.564 6.28125,-1.564 l 5.5375,0 c 2.7675,0 3.55875,0.31638 4.42875,1.1875 0.79125,0.79 1.10625,2.05375 1.10625,4.11138 l 0,30.13373 8.23,0 0,-30.68749 c 0,-5.93262 -0.8725,-7.988745 -2.53375,-9.64987"
       id="path3055-0"
       style="fill:#ffffff;fill-opacity:1;fill-rule:nonzero;stroke:none" /></g><path
     inkscape:connector-curvature="0"
     id="path3043-5"
     d="M 43.19186,0 C 37.36219,0 31.70629,1.141324 26.37804,3.39468 21.23468,5.571233 16.61428,8.684145 12.65087,12.650872 8.68303,16.615226 5.56986,21.235109 3.3922,26.376813 1.13908,31.706162 0,37.366518 0,43.193098 c 0,3.32935 0.37705,6.64748 1.13073,9.86362 0.73215,3.12905 1.81822,6.1817 3.22891,9.07187 2.60102,5.32555 6.81748,10.63499 11.58571,14.60924 3.1098,-1.70006 4.87424,-3.57439 5.24913,-5.57944 0.3612,-1.9259 -0.48432,-4.0003 -2.6623,-6.52213 -5.16814,-5.92976 -8.01412,-13.54295 -8.01412,-21.44316 0,-18.015755 14.65559,-32.676271 32.6738,-32.676271 0.0308,0 0.14845,0.0025 0.14845,0.0025 0,0 0.11535,-0.0025 0.14475,-0.0025 18.01758,0 32.67503,14.660516 32.67503,32.676271 0,7.90021 -2.84531,15.51346 -8.01164,21.44067 -2.16191,2.50521 -3.02941,4.66768 -2.65365,6.61121 0.38972,2.0072 2.15042,3.8552 5.23306,5.49533 4.77471,-3.9752 8.98849,-9.28404 11.58942,-14.61172 1.41251,-2.89017 2.49856,-5.94282 3.23014,-9.07187 0.75139,-3.21614 1.13321,-6.53427 1.13321,-9.86362 0,-5.82658 -1.14257,-11.486936 -3.39592,-16.816285 C 81.10817,21.235109 77.99288,16.615226 74.02852,12.650872 70.06329,8.684145 65.44312,5.571233 60.30133,3.39468 54.9724,1.141324 49.31472,0 43.48506,0 L 43.3366,0 43.19186,0 Z m -0.0161,17.469488 c -1.2167,0 -2.43464,0.0826 -3.62355,0.253612 -3.51067,0.500394 -6.95483,1.753604 -9.96012,3.628497 -2.86856,1.78859 -5.42084,4.190352 -7.37823,6.946476 -2.02335,2.84876 -3.47542,6.160065 -4.19387,9.574135 -0.78068,3.70308 -0.73174,7.60532 0.14227,11.28385 0.80411,3.3832 2.32825,6.64075 4.40789,9.41825 0.55734,0.74822 1.18117,1.43073 1.83961,2.15385 0.21932,0.23815 0.44287,0.48311 0.66805,0.73362 0.006,0.008 0.0128,0.0119 0.0172,0.0185 0.0263,0.0266 0.0614,0.0596 0.0953,0.10018 2.29215,2.66356 3.4553,5.53278 3.4553,8.52381 0,4.52017 -2.51013,8.66702 -6.45904,10.79148 2.29705,1.27489 4.71435,2.33969 7.19637,3.17199 0.82454,0.27617 1.66303,0.52855 2.50394,0.75341 0.50254,-0.31575 2.21572,-1.59095 3.89078,-3.90686 1.60181,-2.21297 3.48965,-5.88375 3.38973,-10.80013 -0.0587,-2.95889 -0.65446,-5.84073 -1.76538,-8.56091 -1.10357,-2.69684 -2.68426,-5.16818 -4.70357,-7.34236 l -0.009,-0.0161 c -0.15122,-0.17261 -0.29697,-0.34443 -0.4466,-0.51466 -0.76111,-0.88281 -1.54703,-1.79373 -2.17735,-2.86024 -0.77165,-1.31115 -1.33423,-2.68927 -1.66765,-4.0986 -0.51868,-2.17655 -0.54614,-4.48642 -0.0865,-6.67801 0.42898,-2.01504 1.28202,-3.96792 2.47797,-5.65121 1.15796,-1.631028 2.66974,-3.054071 4.3683,-4.113449 1.77252,-1.106091 3.8069,-1.84649 5.8776,-2.140233 0.69928,-0.100552 1.42303,-0.152167 2.14766,-0.152167 l 0.15463,0 0.15588,0 c 0.72613,0 1.44862,0.05161 2.15013,0.152167 2.07189,0.293743 4.10574,1.034142 5.87636,2.140233 1.69888,1.059378 3.20816,2.482421 4.36706,4.113449 1.19628,1.68329 2.05272,3.63617 2.47797,5.65121 0.46088,2.19159 0.43084,4.50146 -0.0841,6.67801 -0.33469,1.40933 -0.8969,2.78745 -1.67012,4.0986 -0.62716,1.06651 -1.41399,1.97743 -2.17488,2.86024 -0.14996,0.17023 -0.29692,0.34205 -0.44537,0.51466 l -0.0124,0.0161 c -2.01591,2.17418 -3.59885,4.64552 -4.70232,7.34236 -1.11164,2.72018 -1.7048,5.60202 -1.76662,8.56091 -0.0986,4.91638 1.78857,8.58716 3.39221,10.80013 1.67165,2.31591 3.38632,3.59111 3.88828,3.90686 0.84031,-0.22486 1.68344,-0.47724 2.50767,-0.75341 2.48201,-0.8323 4.89961,-1.8971 7.19761,-3.17199 -3.95326,-2.12446 -6.46275,-6.27131 -6.46275,-10.79148 0,-2.9505 1.12948,-5.73844 3.45282,-8.51886 0.0319,-0.0442 0.0689,-0.0786 0.0953,-0.10512 0.008,-0.007 0.0133,-0.0127 0.021,-0.0185 0.22574,-0.25051 0.44787,-0.49547 0.66435,-0.73362 0.66096,-0.72312 1.28257,-1.40563 1.84085,-2.15385 2.08241,-2.7775 3.6041,-6.03505 4.41035,-9.41825 0.87158,-3.67853 0.92134,-7.58077 0.1435,-11.28384 -0.72129,-3.41408 -2.17301,-6.725384 -4.1951,-9.574144 C 62.50747,25.54196 59.95551,23.140198 57.08696,21.351608 54.08135,19.476714 50.63753,18.223505 47.12559,17.723112 45.93826,17.552091 44.71783,17.4695 43.50081,17.4695 l -0.15464,0 -0.17074,0 z m 0.16206,17.60557 c -4.70109,0 -8.52752,3.8257 -8.52752,8.52877 0,4.70227 3.82643,8.52752 8.52752,8.52752 4.70108,0 8.52629,-3.82525 8.52629,-8.52752 0,-4.70307 -3.82521,-8.52877 -8.52629,-8.52877 z"
     style="fill:#ffffff;fill-opacity:1;fill-rule:nonzero;stroke:none" /></svg>
