<?xml version="1.0" encoding="utf-8"?>
<!-- Generator: Adobe Illustrator 22.1.0, SVG Export Plug-In . SVG Version: 6.00 Build 0)  -->
<svg version="1.1" id="Ebene_1" xmlns="http://www.w3.org/2000/svg" xmlns:xlink="http://www.w3.org/1999/xlink" x="0px" y="0px"
	 viewBox="0 0 500 500" style="enable-background:new 0 0 500 500;" xml:space="preserve">
<style type="text/css">
	.st0{fill:#00C081;}
</style>
<g>
	<path class="st0" d="M348.5,229.1c2.8,0.1,5.4-0.9,7.5-2.8c2-1.9,3.2-4.5,3.3-7.2c0.2-5.7-4.3-10.6-10.1-10.8
		c-2.8-0.1-5.4,0.9-7.4,2.8c-2,1.9-3.2,4.5-3.3,7.2C338.3,224.1,342.8,228.9,348.5,229.1z M350.9,213.6c2.6,0,4.6,1.4,4.6,3.1
		c0,1.7-2.1,3.1-4.6,3.1s-4.6-1.4-4.6-3.1S348.4,213.6,350.9,213.6z"/>
</g>
<path class="st0" d="M373.8,233c0.4-0.3,1.7-1.2,1.4-2.3c-1.3-4.7-5.9-20.3-9.8-24.2c-1.1-1.2-2-2.3-3.8-3.3
	c-14.7-8.6-49.5-13.7-51.1-14c0,0-0.4-0.1-0.4,0.3c0,0-0.1,7.2-0.1,8c-3.5-1.2-29.4-9.5-53.7-10.4c-20.5-0.7-48.6-1.7-88.3,22.7
	l-1.2,0.7c-18.7,11.6-31.5,26-38.3,42.7c-2.1,5.2-5,17.1-2.1,28.2c1.2,4.9,3.5,9.7,6.5,14.1c6.9,9.9,18.4,16.5,30.9,17.6
	c17.6,1.6,30.9-6.3,35.6-21.1c3.2-10.2,0-25.2-12.5-32.8c-10.1-6.2-21.1-4.8-27.4-0.6c-5.5,3.7-8.6,9.3-8.5,15.5
	c0.1,11,9.6,16.9,16.4,16.9c2,0,4-0.3,6.2-1.1c0.8-0.3,1.5-0.5,2.4-1.1l0.3-0.2l0.2-0.1h-0.1c1.6-1.1,2.5-2.8,2.5-4.6
	c0-0.5-0.1-1-0.2-1.5c-0.8-2.8-3.6-4.5-6.4-3.9l-0.4,0.1l-0.5,0.2l-0.8,0.3c-1.6,0.4-2.7,0.4-3,0.4c-0.8-0.1-4.8-1.2-4.8-5.5l0,0
	c0-1.6,0.7-2.7,1-3.3c1.2-1.9,4.6-3.8,9.1-3.4c5.9,0.5,10.2,3.5,13.1,9.3c2.6,5.3,2,11.9-1.8,16.7c-3.7,4.8-10.3,6.8-19,5.9
	c-8.8-1-16.3-6-20.4-13.9c-4.1-7.7-4.3-16.9-0.6-23.9c8.9-16.8,25.8-16.7,35-15.1c13.1,2.3,33,14,40.5,41.3h18.2
	c-2.2-6.9-3.5-27,16.9-27c22.4,0,25.2,15.8,31.6,27h19.2c-5.1-7.2-8.6-15.3-7.5-22.1c1.7-10,9.6-9.1,20.6-7.9
	c3.6,0.4,7.7,0.9,11.9,1c11.9,0.1,22.6-2.1,30.5-5.5c5.1-2.2,8.3-3.7,10.4-5.5c0.7-0.6,1.1-1.6,1.5-2.6l0.3-0.7
	c0.3-0.9,0.7-2.7,1-3.7c0.5-2-1.3-0.9-1.3-0.9c-3.4,2.1-12.1,6-20.2,6.2c-10,0.2-30.2-10.1-32.3-11.2l-0.2-0.2
	c-0.5-1.2-3.5-8.4-4.2-9.9c14.5,9.6,26.6,14.9,35.8,15.7C362.3,241,370.3,235.4,373.8,233z M333.9,218.4c0.2-4,1.8-7.7,4.7-10.4
	c2.9-2.7,6.7-4.1,10.7-4c8.2,0.3,14.7,7.2,14.4,15.4c-0.2,4-1.8,7.7-4.7,10.4c-2.9,2.7-6.7,4.1-10.7,4
	C340.1,233.5,333.7,226.6,333.9,218.4z"/>
</svg>
