<?xml version="1.0" encoding="utf-8"?>
<!-- Generator: Adobe Illustrator 22.1.0, SVG Export Plug-In . SVG Version: 6.00 Build 0)  -->
<svg version="1.1" id="Ebene_1" xmlns="http://www.w3.org/2000/svg" xmlns:xlink="http://www.w3.org/1999/xlink" x="0px" y="0px"
	 viewBox="0 0 500 500" style="enable-background:new 0 0 500 500;" xml:space="preserve">
<style type="text/css">
	.st0{fill:#0C2C40;}
	.st1{fill:#39B07D;}
</style>
<g>
	<g>
		<g>
			<g>
				<path class="st0" d="M176.7,278.6h0.7l2.2,6.6l2.3-6.6h0.9l-2.8,8h-0.8l-2.2-6.4l-2.2,6.4h-0.7l-2.8-8h1l2.3,6.6L176.7,278.6z"
					/>
				<path class="st0" d="M186,286c0.8,0,1.4-0.3,1.8-0.8l0.5,0.5c-0.6,0.7-1.3,1.1-2.4,1.1c-1.6,0-2.9-1.2-2.9-3.1
					c0-1.7,1.2-3.1,2.8-3.1c1.7,0,2.7,1.4,2.7,3.1c0,0.1,0,0.2,0,0.3h-4.6C184.1,285.2,185,286,186,286z M187.7,283.3
					c-0.1-1.1-0.7-2-1.9-2c-1,0-1.8,0.8-1.9,2H187.7z"/>
				<path class="st0" d="M193.5,281.8l-0.3-0.7c0.6-0.3,1.3-0.5,2.1-0.5c1.6,0,2.5,0.8,2.5,2.4v3.6H197v-0.9c-0.4,0.5-1.1,1-2.1,1
					c-1.1,0-2.2-0.6-2.2-1.8c0-1.2,1-1.9,2.5-1.9c0.7,0,1.3,0.1,1.8,0.2V283c0-1.1-0.6-1.6-1.7-1.6
					C194.6,281.4,194.1,281.6,193.5,281.8z M193.6,284.8c0,0.7,0.7,1.2,1.5,1.2c1.1,0,2-0.7,2-1.6v-0.6c-0.4-0.1-1-0.2-1.7-0.2
					C194.2,283.6,193.6,284.1,193.6,284.8z"/>
				<path class="st0" d="M204.3,286.6v-1.2c-0.5,0.7-1.2,1.3-2.2,1.3c-1.4,0-2.8-1.1-2.8-3c0-1.9,1.4-3.1,2.8-3.1
					c1.1,0,1.8,0.6,2.2,1.2v-3.5h0.9v8.3H204.3z M202.2,281.4c-1.1,0-2.1,0.8-2.1,2.3c0,1.4,1,2.3,2.1,2.3c1.1,0,2.1-0.9,2.1-2.3
					C204.3,282.3,203.3,281.4,202.2,281.4z"/>
				<path class="st0" d="M207.2,281.8l-0.3-0.7c0.6-0.3,1.3-0.5,2.1-0.5c1.6,0,2.5,0.8,2.5,2.4v3.6h-0.8v-0.9c-0.4,0.5-1.1,1-2.1,1
					c-1.1,0-2.2-0.6-2.2-1.8c0-1.2,1-1.9,2.5-1.9c0.7,0,1.3,0.1,1.8,0.2V283c0-1.1-0.6-1.6-1.7-1.6
					C208.3,281.4,207.8,281.6,207.2,281.8z M207.3,284.8c0,0.7,0.7,1.2,1.5,1.2c1.1,0,2-0.7,2-1.6v-0.6c-0.4-0.1-1-0.2-1.7-0.2
					C208,283.6,207.3,284.1,207.3,284.8z"/>
				<path class="st0" d="M216.4,286.7c-1.1,0-1.8-0.6-2.2-1.2v2.9h-0.9v-7.7h0.9v1.2c0.5-0.7,1.2-1.3,2.2-1.3c1.4,0,2.8,1.1,2.8,3
					C219.2,285.6,217.8,286.7,216.4,286.7z M216.2,281.4c-1.1,0-2.1,0.9-2.1,2.3c0,1.4,1,2.3,2.1,2.3c1.1,0,2.1-0.8,2.1-2.3
					C218.3,282.3,217.4,281.4,216.2,281.4z"/>
				<path class="st0" d="M221.8,284.9c0,0.7,0.4,1,1,1c0.3,0,0.5-0.1,0.8-0.2v0.7c-0.3,0.2-0.6,0.2-1.1,0.2c-0.9,0-1.7-0.5-1.7-1.7
					v-3.5h-0.8v-0.8h0.8V279h0.9v1.8h1.9v0.8h-1.9V284.9z"/>
				<path class="st0" d="M224.9,286.6v-1.2h1v1.2H224.9z"/>
				<path class="st0" d="M233,286.6h-0.9v-3.1l-3.3-4.8h1.1l2.7,4l2.7-4h1l-3.3,4.8V286.6z"/>
				<path class="st0" d="M238.8,286.7c-1.8,0-3-1.4-3-3c0-1.7,1.3-3.1,3.1-3.1c1.8,0,3,1.4,3,3C241.9,285.3,240.6,286.7,238.8,286.7
					z M238.8,281.4c-1.3,0-2.1,1-2.1,2.3c0,1.3,0.9,2.3,2.2,2.3c1.3,0,2.2-1,2.2-2.3C241,282.4,240.1,281.4,238.8,281.4z"/>
				<path class="st0" d="M247.5,280.7h0.9v5.9h-0.9v-1c-0.4,0.6-1,1.1-2,1.1c-1.4,0-2.2-1-2.2-2.3v-3.6h0.9v3.4
					c0,1.1,0.6,1.8,1.6,1.8c1,0,1.8-0.7,1.8-1.8V280.7z"/>
				<path class="st0" d="M255.3,286.7c-0.8,0-1.8-0.3-2.4-0.9l0.4-0.6c0.6,0.5,1.3,0.7,2,0.7c0.7,0,1.2-0.4,1.2-0.9v0
					c0-0.6-0.7-0.8-1.5-1c-0.9-0.3-1.9-0.6-1.9-1.7v0c0-1,0.8-1.7,2-1.7c0.7,0,1.5,0.2,2.1,0.6l-0.4,0.7c-0.5-0.4-1.2-0.6-1.7-0.6
					c-0.7,0-1.1,0.4-1.1,0.9v0c0,0.6,0.7,0.8,1.5,1c0.9,0.3,1.9,0.6,1.9,1.7v0C257.4,286.1,256.5,286.7,255.3,286.7z"/>
				<path class="st0" d="M263,280.7h0.9v5.9H263v-1c-0.4,0.6-1,1.1-2,1.1c-1.4,0-2.2-1-2.2-2.3v-3.6h0.9v3.4c0,1.1,0.6,1.8,1.6,1.8
					c1,0,1.8-0.7,1.8-1.8V280.7z"/>
				<path class="st0" d="M268.3,286.7c-1.7,0-3-1.4-3-3c0-1.7,1.3-3.1,3-3.1c1.1,0,1.8,0.5,2.3,1l-0.6,0.6c-0.5-0.5-1-0.9-1.8-0.9
					c-1.2,0-2.1,1-2.1,2.3c0,1.3,0.9,2.3,2.2,2.3c0.7,0,1.3-0.4,1.8-0.9l0.6,0.5C270.1,286.2,269.4,286.7,268.3,286.7z"/>
				<path class="st0" d="M274.4,286.7c-1.7,0-3-1.4-3-3c0-1.7,1.3-3.1,3-3.1c1.1,0,1.8,0.5,2.3,1l-0.6,0.6c-0.5-0.5-1-0.9-1.8-0.9
					c-1.2,0-2.1,1-2.1,2.3c0,1.3,0.9,2.3,2.2,2.3c0.7,0,1.3-0.4,1.8-0.9l0.6,0.5C276.2,286.2,275.5,286.7,274.4,286.7z"/>
				<path class="st0" d="M280.5,286c0.8,0,1.4-0.3,1.8-0.8l0.5,0.5c-0.6,0.7-1.3,1.1-2.4,1.1c-1.6,0-2.9-1.2-2.9-3.1
					c0-1.7,1.2-3.1,2.8-3.1c1.7,0,2.7,1.4,2.7,3.1c0,0.1,0,0.2,0,0.3h-4.6C278.5,285.2,279.4,286,280.5,286z M282.2,283.3
					c-0.1-1.1-0.7-2-1.9-2c-1,0-1.8,0.8-1.9,2H282.2z"/>
				<path class="st0" d="M287,286c0.8,0,1.4-0.3,1.8-0.8l0.5,0.5c-0.6,0.7-1.3,1.1-2.4,1.1c-1.6,0-2.9-1.2-2.9-3.1
					c0-1.7,1.2-3.1,2.8-3.1c1.7,0,2.7,1.4,2.7,3.1c0,0.1,0,0.2,0,0.3h-4.6C285.1,285.2,286,286,287,286z M288.7,283.3
					c-0.1-1.1-0.7-2-1.9-2c-1,0-1.8,0.8-1.9,2H288.7z"/>
				<path class="st0" d="M295.6,286.6v-1.2c-0.5,0.7-1.2,1.3-2.2,1.3c-1.4,0-2.8-1.1-2.8-3c0-1.9,1.4-3.1,2.8-3.1
					c1.1,0,1.8,0.6,2.2,1.2v-3.5h0.9v8.3H295.6z M293.6,281.4c-1.1,0-2.1,0.8-2.1,2.3c0,1.4,1,2.3,2.1,2.3c1.1,0,2.1-0.9,2.1-2.3
					C295.7,282.3,294.6,281.4,293.6,281.4z"/>
				<path class="st0" d="M298.2,286.6v-1.2h1v1.2H298.2z"/>
			</g>
		</g>
		<g>
			<path class="st0" d="M275.8,260.4c0,5.6-4.6,10.7-11.2,10.7c-0.2,0-20.9,0-20.9,0v-7.8h21c1.3,0,2.9-1,2.9-2.8
				c0-1.8-1.1-2.9-3.4-3.3c-0.1,0-12.8-1.9-12.9-1.9c-6.8-1-9.7-6.1-9.7-11.1c0-5.6,4.6-10.7,11.2-10.7c0.2,0,20.9,0,20.9,0v7.8h-21
				c-1.3,0-2.8,1-2.8,2.8c0,1.8,1.1,2.9,3.4,3.3c0.1,0,12.8,1.9,12.9,1.9C272.9,250.4,275.8,255.5,275.8,260.4z M231,233.5v22.3
				c0,4.7-3.8,8.5-8.4,8.5c-4.7,0-8.5-3.8-8.5-8.5v-22.3h-8.1v21.9c0,9.2,7.4,16.6,16.6,16.6c9.2,0,16.6-7.4,16.6-16.6v-21.9H231z
				 M319,268.5c0-1.4-1.1-2.5-2.6-2.5c-1.5,0-2.6,1.2-2.6,2.6c0,1.4,1.1,2.6,2.6,2.6C317.8,271.1,319,269.9,319,268.5z M318.4,268.5
				c0,1.1-0.9,2-2.1,2c-1.2,0-2.1-0.9-2.1-2c0-1.1,0.9-2,2.1-2C317.5,266.5,318.4,267.4,318.4,268.5z M317.5,268.1
				c0-0.5-0.4-0.8-1-0.8h-1.1v2.4h0.5v-0.8h0.4l0.5,0.8h0.6l-0.6-0.9C317.3,268.7,317.5,268.5,317.5,268.1z M316.9,268.1
				c0,0.2-0.1,0.4-0.4,0.4H316v-0.7h0.5C316.8,267.7,316.9,267.9,316.9,268.1z M305.5,241.4c3.1-0.1,6.4-2.5,6.4-7.1
				c0-0.2,0-0.4,0-0.7h-22.7c-6.6,0-11.2,5.1-11.2,10.7l0,0c0,0,0,16.1,0,16.2c0,5.6,4.6,10.7,11.2,10.7c0.2,0,22.7,0,22.7,0
				c0-0.3,0-0.5,0-0.7c0-4.7-3.3-7-6.4-7.1v0h-16.4c-1.3,0-2.8-1-2.8-2.8c0-1.8,1.2-3.3,3.4-3.3s7,0,7.1,0c6.2,0,9.8-3.9,11-8.2
				h-17.1c-3.1,0-4.4,2.4-4.4,2.4v-7.1c0-1.8,1.6-2.8,2.8-2.8H305.5z M194.2,249.4c-0.1,0-12.8-1.9-12.9-1.9
				c-2.2-0.4-3.4-1.4-3.4-3.3c0-1.8,1.6-2.8,2.8-2.8h21v-7.8c0,0-20.7,0-20.9,0c-6.6,0-11.2,5.1-11.2,10.7c0,4.9,3,10,9.7,11.1
				c0.1,0,12.8,1.9,12.9,1.9c2.2,0.3,3.4,1.4,3.4,3.3c0,1.8-1.6,2.8-2.9,2.8h-15.3v0c-3.1,0.1-6.4,2.5-6.4,7.1c0,0.2,0,0.4,0,0.7
				c0,0,21.6,0,21.7,0c6.6,0,11.2-5.1,11.2-10.7C203.9,255.5,200.9,250.4,194.2,249.4z"/>
		</g>
	</g>
	<g>
		<path class="st1" d="M215.2,189.3c0,0-0.1,3-0.1,3.3c-1.5-0.5-12.1-3.9-22.1-4.3c-8.5-0.3-20.1-0.7-36.4,9.4l-0.5,0.3
			c-7.7,4.8-13,10.7-15.8,17.6c-0.9,2.2-2,7.1-0.9,11.6c0.5,2,1.4,4,2.7,5.8c2.8,4.1,7.6,6.8,12.8,7.3c7.3,0.6,12.7-2.6,14.7-8.7
			c1.3-4.2,0-10.4-5.1-13.5c-4.2-2.6-8.7-2-11.3-0.3c-2.3,1.5-3.6,3.8-3.5,6.4c0.1,4.5,4,7,6.8,7c0.8,0,1.6-0.1,2.6-0.4
			c0.3-0.1,0.6-0.2,1-0.4l0.1-0.1l0.1,0l0,0c0.6-0.4,1-1.1,1-1.9c0-0.2,0-0.4-0.1-0.6c-0.3-1.1-1.5-1.8-2.6-1.6l-0.2,0l-0.2,0.1
			l-0.3,0.1c-0.6,0.2-1.1,0.2-1.2,0.2c-0.3,0-2-0.5-2-2.3v0c0-0.7,0.3-1.1,0.4-1.4c0.5-0.8,1.9-1.6,3.8-1.4c2.4,0.2,4.2,1.5,5.4,3.8
			c1.1,2.2,0.8,4.9-0.7,6.9c-1.5,2-4.2,2.8-7.8,2.4c-3.6-0.4-6.7-2.5-8.4-5.8c-1.7-3.2-1.8-7-0.2-9.9c3.7-6.9,10.6-6.9,14.5-6.2
			c5.4,0.9,13.6,5.8,16.7,17h7.5c-0.9-2.9-1.5-11.2,7-11.2c9.3,0,10.4,6.5,13,11.2h7.9c-2.1-3-3.6-6.3-3.1-9.1
			c0.7-4.1,4-3.8,8.5-3.2c1.5,0.2,3.2,0.4,4.9,0.4c4.9,0,9.3-0.9,12.6-2.3c2.1-0.9,3.4-1.5,4.3-2.3c0.3-0.2,0.5-0.7,0.6-1.1l0.1-0.3
			c0.1-0.4,0.3-1.1,0.4-1.5c0.2-0.8-0.5-0.4-0.5-0.4c-1.4,0.9-5,2.5-8.3,2.5c-4.1,0.1-12.5-4.2-13.3-4.6l-0.1-0.1
			c-0.2-0.5-1.5-3.5-1.7-4.1c6,3.9,11,6.1,14.8,6.5c4.2,0.4,7.5-1.9,9-2.9c0.1-0.1,0.7-0.5,0.6-0.9c-0.6-1.9-2.5-8.4-4-10
			c-0.5-0.5-0.8-0.9-1.6-1.4c-6.1-3.5-20.4-5.7-21.1-5.8C215.4,189.2,215.2,189.1,215.2,189.3z M225.1,201.2
			c0.1-1.6,0.7-3.2,1.9-4.3c1.2-1.1,2.8-1.7,4.4-1.6c3.4,0.1,6,3,5.9,6.4c-0.1,1.6-0.8,3.2-2,4.3c-1.2,1.1-2.8,1.7-4.4,1.6
			C227.7,207.4,225,204.6,225.1,201.2z"/>
		<path class="st1" d="M231.4,197.1c-1.1,0-2.2,0.4-3.1,1.1c-0.8,0.8-1.3,1.8-1.4,3c-0.1,2.4,1.8,4.4,4.1,4.4c1.1,0,2.2-0.4,3.1-1.1
			c0.8-0.8,1.3-1.8,1.4-3C235.6,199.1,233.8,197.2,231.4,197.1z M232.1,201.8c-1.1,0-1.9-0.6-1.9-1.3c0-0.7,0.8-1.3,1.9-1.3
			c1.1,0,1.9,0.6,1.9,1.3C234,201.2,233.2,201.8,232.1,201.8z"/>
	</g>
</g>
</svg>
