<?xml version="1.0" encoding="UTF-8" standalone="no"?>
<svg
   xmlns:dc="http://purl.org/dc/elements/1.1/"
   xmlns:cc="http://creativecommons.org/ns#"
   xmlns:rdf="http://www.w3.org/1999/02/22-rdf-syntax-ns#"
   xmlns:svg="http://www.w3.org/2000/svg"
   xmlns="http://www.w3.org/2000/svg"
   xmlns:sodipodi="http://sodipodi.sourceforge.net/DTD/sodipodi-0.dtd"
   xmlns:inkscape="http://www.inkscape.org/namespaces/inkscape"
   version="1.1"
   x="0"
   y="0"
   width="212"
   height="40"
   viewBox="0 0 212 40"
   id="svg928"
   sodipodi:docname="SUSE_Logo-hor_L_White-neg_sRGB-small.svg"
   inkscape:version="0.92.2 5c3e80d, 2017-08-06">
  <metadata
     id="metadata934">
    <rdf:RDF>
      <cc:Work
         rdf:about="">
        <dc:format>image/svg+xml</dc:format>
        <dc:type
           rdf:resource="http://purl.org/dc/dcmitype/StillImage" />
        <dc:title></dc:title>
      </cc:Work>
    </rdf:RDF>
  </metadata>
  <defs
     id="defs932" />
  <sodipodi:namedview
     pagecolor="#ffffff"
     bordercolor="#666666"
     borderopacity="1"
     objecttolerance="10"
     gridtolerance="10"
     guidetolerance="10"
     inkscape:pageopacity="0"
     inkscape:pageshadow="2"
     inkscape:window-width="1377"
     inkscape:window-height="788"
     id="namedview930"
     showgrid="false"
     inkscape:zoom="3.928371"
     inkscape:cx="88.575497"
     inkscape:cy="8.0371231"
     inkscape:window-x="2087"
     inkscape:window-y="74"
     inkscape:window-maximized="0"
     inkscape:current-layer="svg928" />
  <g
     id="Layer_1"
     transform="matrix(0.99914855,0,0,0.99914855,-29.494278,-27.623314)">
    <g
       id="g925">
      <path
         d="m 224.908,59.781 c -3.285,0 -5.958,-2.672 -5.958,-5.957 V 36.165 c 0,-3.285 2.673,-5.959 5.958,-5.959 h 13.555 c 1.062,0 1.926,0.864 1.926,1.925 0,1.061 -0.864,1.924 -1.926,1.924 h -13.555 c -1.162,0 -2.107,0.947 -2.107,2.11 v 6.95 h 13.294 c 1.006,0 1.824,0.819 1.824,1.825 0,1.006 -0.818,1.824 -1.824,1.824 h -13.294 v 7.06 c 0,1.163 0.945,2.107 2.107,2.107 h 13.555 c 1.062,0 1.926,0.865 1.926,1.926 0,1.062 -0.864,1.924 -1.926,1.924 z m -60.782,0.389 c -3.909,0 -6.92,-0.992 -8.95,-2.95 -2.028,-1.954 -3.056,-4.894 -3.056,-8.739 V 32.053 c 0,-1.231 1,-2.232 2.23,-2.232 1.231,0 2.232,1.001 2.232,2.232 v 15.839 c 0,2.877 0.62,5.034 1.843,6.408 1.229,1.384 3.146,2.085 5.701,2.085 2.553,0 4.472,-0.701 5.701,-2.085 1.222,-1.375 1.841,-3.531 1.841,-6.408 V 32.053 c 0,-1.231 1.002,-2.232 2.233,-2.232 1.231,0 2.232,1.001 2.232,2.232 v 16.428 c 0,3.843 -1.03,6.783 -3.059,8.739 -2.03,1.958 -5.039,2.95 -8.948,2.95 m 33.526,0 c -5.033,0 -8.868,-1.43 -11.394,-4.25 -0.731,-0.816 -0.685,-2.075 0.106,-2.865 l 0.008,-0.009 0.008,-0.008 c 0.401,-0.398 0.933,-0.616 1.499,-0.616 0.599,0 1.163,0.255 1.55,0.703 0.704,0.813 1.509,1.475 2.396,1.966 1.547,0.859 3.493,1.294 5.783,1.294 2.173,0 3.907,-0.383 5.154,-1.14 1.284,-0.776 1.936,-1.895 1.936,-3.327 0,-1.158 -0.59,-2.103 -1.754,-2.805 -1.132,-0.681 -3.042,-1.266 -5.84,-1.791 -2.718,-0.507 -4.909,-1.141 -6.513,-1.885 -1.586,-0.734 -2.751,-1.651 -3.464,-2.731 -0.713,-1.072 -1.074,-2.403 -1.074,-3.956 0,-1.639 0.46,-3.153 1.367,-4.498 0.909,-1.348 2.242,-2.435 3.963,-3.229 1.73,-0.798 3.778,-1.202 6.088,-1.202 2.7,0 5.034,0.494 6.941,1.47 1.28,0.654 2.439,1.556 3.448,2.68 0.77,0.861 0.698,2.194 -0.163,2.971 -0.388,0.349 -0.889,0.541 -1.409,0.541 -0.659,0 -1.269,-0.3 -1.671,-0.821 -0.572,-0.744 -1.216,-1.35 -1.917,-1.8 -1.296,-0.833 -3.039,-1.255 -5.183,-1.255 -2.116,0 -3.787,0.432 -4.966,1.284 -1.199,0.867 -1.808,1.999 -1.808,3.362 0,1.279 0.596,2.306 1.773,3.052 1.143,0.727 3.122,1.337 6.049,1.863 2.656,0.477 4.792,1.089 6.35,1.816 1.54,0.717 2.677,1.621 3.377,2.686 0.697,1.061 1.05,2.399 1.05,3.977 0,1.696 -0.488,3.207 -1.45,4.491 -0.97,1.291 -2.348,2.295 -4.093,2.984 -1.762,0.695 -3.829,1.048 -6.147,1.048 m -66.83,0.008 c -5.035,0 -8.868,-1.431 -11.395,-4.251 -0.731,-0.815 -0.684,-2.074 0.106,-2.865 l 0.012,-0.012 c 0.402,-0.4 0.936,-0.62 1.504,-0.62 0.6,0 1.165,0.256 1.549,0.703 0.702,0.812 1.507,1.474 2.395,1.966 1.548,0.86 3.494,1.295 5.784,1.295 2.172,0 3.906,-0.383 5.155,-1.14 1.284,-0.776 1.935,-1.895 1.935,-3.326 0,-1.16 -0.591,-2.103 -1.754,-2.805 -1.133,-0.683 -3.044,-1.269 -5.841,-1.794 -2.717,-0.506 -4.908,-1.141 -6.513,-1.883 -1.585,-0.735 -2.752,-1.654 -3.464,-2.731 -0.712,-1.073 -1.073,-2.404 -1.073,-3.956 0,-1.64 0.46,-3.152 1.366,-4.497 0.909,-1.35 2.243,-2.436 3.964,-3.23 1.728,-0.797 3.776,-1.202 6.088,-1.202 2.7,0 5.036,0.495 6.94,1.47 1.282,0.655 2.441,1.557 3.447,2.68 0.772,0.861 0.698,2.192 -0.161,2.97 -0.388,0.349 -0.889,0.541 -1.41,0.541 -0.659,0 -1.268,-0.299 -1.67,-0.82 -0.569,-0.743 -1.216,-1.35 -1.917,-1.801 -1.297,-0.834 -3.04,-1.256 -5.183,-1.256 -2.117,0 -3.787,0.433 -4.968,1.285 -1.198,0.87 -1.806,2.001 -1.806,3.362 0,1.279 0.596,2.306 1.772,3.053 1.144,0.727 3.122,1.336 6.051,1.863 2.653,0.475 4.79,1.086 6.351,1.815 1.54,0.72 2.674,1.624 3.374,2.685 0.698,1.06 1.052,2.398 1.052,3.979 0,1.697 -0.488,3.207 -1.452,4.489 -0.97,1.292 -2.347,2.297 -4.094,2.986 -1.761,0.695 -3.828,1.047 -6.144,1.047"
         id="path921"
         inkscape:connector-curvature="0"
         style="fill:#ffffff" />
      <path
         d="m 101.177,40.296 c -0.461,-0.475 -1.218,-0.475 -1.677,0 -0.516,0.515 -0.455,1.405 0.186,1.83 0.39,0.259 0.913,0.259 1.305,0 0.638,-0.425 0.701,-1.315 0.186,-1.83 m -1.554,-4.188 c -3.283,-0.768 -6.232,2.181 -5.463,5.463 0.392,1.672 1.72,2.999 3.392,3.392 3.284,0.772 6.236,-2.182 5.463,-5.465 -0.394,-1.672 -1.721,-3 -3.392,-3.39 M 44.808,66.576 C 40.913,66.577 37.028,65 34.667,62.465 c -2.913,-3.13 -4.671,-6.274 -4.436,-12.271 0.148,-3.779 2.246,-7.929 5.613,-11.099 4.855,-4.578 11.356,-7.891 18.303,-9.332 2.679,-0.553 5.453,-0.834 8.245,-0.834 1.385,0 2.789,0.07 4.172,0.208 3.862,0.384 7.493,1.097 10.795,2.12 1.791,0.556 3.51,1.211 5.11,1.947 0.225,0.103 0.461,0.207 0.703,0.315 1.327,0.588 2.828,1.254 3.769,2.212 l 0.363,0.37 -0.001,-0.519 c 0,-1.121 -0.022,-2.279 -0.044,-3.401 -0.018,-0.967 -0.036,-1.88 -0.036,-2.634 0,-0.393 0.329,-0.637 0.636,-0.637 0.09,0 0.178,0.019 0.261,0.059 0.766,0.356 1.868,0.873 3.135,1.466 2.722,1.277 6.11,2.865 8.67,4.035 2.206,1.008 3.681,2.715 4.505,5.217 0.719,2.178 0.862,4.637 0.955,7.175 0.003,0.084 0.006,0.164 -0.018,0.211 -0.012,0.026 -0.094,0.137 -0.674,0.137 -0.091,0 -0.179,-0.002 -0.257,-0.004 -0.065,-0.003 -0.125,-0.005 -0.174,-0.005 l -0.031,10e-4 c -0.154,0.001 -0.331,0.003 -0.517,0.004 -0.541,0.003 -1.155,0.006 -1.606,0.024 -0.46,0.021 -0.92,0.032 -1.406,0.032 -0.662,0 -1.369,-0.02 -2.161,-0.06 -1.995,-0.098 -4.127,-0.943 -5.703,-2.261 -0.138,-0.117 -0.394,-0.198 -0.62,-0.198 -0.206,0 -0.378,0.065 -0.496,0.189 -0.313,0.322 -0.224,0.822 -0.026,1.024 0.836,0.843 1.734,1.391 2.824,1.954 1.293,0.665 2.664,0.864 4.322,0.961 0.618,0.036 1.238,0.055 1.844,0.055 0.985,0 1.964,-0.049 2.908,-0.147 l 0.233,-0.024 c 0.208,-0.022 0.386,-0.04 0.526,-0.05 -0.124,0.105 -0.308,0.249 -0.552,0.43 -1.001,0.743 -2.254,1.372 -3.725,1.866 -1.815,0.618 -3.796,0.96 -5.889,1.019 -0.205,0.005 -0.413,0.007 -0.619,0.007 -0.994,0 -2.006,-0.065 -3.007,-0.194 -0.259,-0.033 -0.521,-0.072 -0.776,-0.11 -0.361,-0.053 -0.736,-0.109 -1.11,-0.148 -0.086,-0.008 -0.173,-0.019 -0.26,-0.029 -0.258,-0.029 -0.525,-0.059 -0.793,-0.059 -0.206,0 -0.391,0.018 -0.563,0.055 -0.531,0.116 -0.993,0.402 -1.304,0.805 -0.458,0.599 -0.582,2.118 -0.337,2.775 0.485,1.309 1.57,2.04 2.549,2.624 0.317,0.189 0.66,0.341 0.99,0.491 0.816,0.365 1.526,0.683 1.757,1.414 -0.304,0.079 -1.216,0.136 -2.226,0.136 h -0.122 -3.173 c -0.005,0 -0.113,0.002 -0.286,0.002 -0.956,0 -1.698,-0.07 -2.034,-0.191 l -0.011,-0.005 c -0.005,-0.002 -0.011,-0.006 -0.019,-0.009 -0.288,-0.155 -0.429,-0.579 -0.544,-0.92 l -0.005,-0.017 c -0.162,-0.479 -0.436,-0.983 -0.891,-1.635 -0.894,-1.275 -2.038,-2.262 -3.06,-2.64 -1.477,-0.547 -2.359,-0.647 -3.563,-0.647 -0.346,0 -0.717,0.008 -1.146,0.019 -0.324,0.006 -0.678,0.014 -1.071,0.02 -0.304,0.003 -0.561,0.005 -0.788,0.005 -0.525,0 -0.875,-0.009 -1.28,-0.019 -0.492,-0.011 -1.05,-0.026 -2.058,-0.026 -0.324,0 -0.564,0.348 -0.642,0.932 -0.146,1.077 0.291,2.858 2.09,3.353 0.163,0.046 0.328,0.088 0.493,0.13 0.875,0.225 1.779,0.456 2.412,1.104 0.207,0.211 0.266,0.396 0.24,0.455 -0.012,0.031 -0.103,0.089 -0.353,0.089 h -6.219 c -1.042,0 -1.832,-0.043 -2.494,-0.605 -1.115,-0.94 -1.66,-2.204 -2.237,-3.54 l -0.093,-0.217 c -0.741,-1.712 -1.415,-3.072 -2.118,-4.281 -1.827,-3.137 -4.04,-5.419 -6.578,-6.779 -2.001,-1.072 -4.492,-1.688 -6.833,-1.688 -2.825,0 -5.45,0.869 -7.59,2.514 -2.151,1.649 -3.351,4.054 -3.381,6.77 -0.034,3.034 1.429,6.113 3.819,8.036 1.519,1.221 3.538,1.895 5.688,1.895 0.204,0 0.412,-0.006 0.618,-0.019 2.403,-0.14 4.516,-1.169 5.793,-2.827 1.046,-1.357 1.433,-3.044 1.089,-4.749 -0.29,-1.436 -1.14,-2.691 -2.273,-3.357 -0.765,-0.448 -1.719,-0.677 -2.837,-0.678 h -0.018 c -1.294,0 -2.289,0.327 -2.957,0.973 -0.934,0.906 -1.086,2.509 -0.338,3.575 0.099,0.143 0.215,0.279 0.326,0.41 0.323,0.383 0.601,0.715 0.535,1.155 -0.055,0.369 -0.368,0.677 -0.779,0.768 -0.103,0.024 -0.208,0.036 -0.313,0.036 -0.651,0 -1.218,-0.444 -1.579,-0.817 -1.339,-1.38 -1.76,-3.583 -1.023,-5.359 1.016,-2.454 3.744,-3.552 5.996,-3.552 0.078,0 0.156,10e-4 0.233,0.003 3.275,0.112 6.403,2.248 7.782,5.316 1.34,2.982 0.977,6.704 -0.923,9.48 -1.881,2.748 -5.222,4.326 -9.165,4.326 m 57.07,-26.042 c 0,1.824 -1.476,3.301 -3.299,3.301 -1.824,0 -3.3,-1.477 -3.3,-3.301 0,-1.823 1.476,-3.3 3.3,-3.3 1.823,0 3.299,1.477 3.299,3.3"
         id="path923"
         inkscape:connector-curvature="0"
         style="fill:#ffffff" />
    </g>
  </g>
</svg>
