<?xml version="1.0" standalone="no"?><!DOCTYPE svg PUBLIC "-//W3C//DTD SVG 1.1//EN" "http://www.w3.org/Graphics/SVG/1.1/DTD/svg11.dtd" ><svg version="1.1" xmlns="http://www.w3.org/2000/svg"><defs><font horiz-adv-x="0" id="font"><font-face ascent="750" bbox="-58 -263 1350 1250" cap-height="750" descent="-250" font-family="Apex Sans Medium" font-stretch="normal" font-style="normal" font-weight="500" units-per-em="1000" x-height="500" /><missing-glyph d="M151 632V118L408 375ZM759 118V632L502 375ZM193 66H717L455 328ZM455 422 717 684H193ZM80 750H830V0H80Z" horiz-adv-x="910" /><glyph d="M343 590 249 296H435ZM40 0 306 763H379L645 0H530L466 199H218L155 0Z" glyph-name="A" horiz-adv-x="685" unicode="A" /><glyph d="M499 438V585L405 438ZM-1 0 492 750H951V650H604V438H917V338H604V100H951V0H499V338H341L124 0Z" glyph-name="AE" horiz-adv-x="1020" unicode="&#198;" /><glyph d="M315 825 395 1000H516L371 825ZM343 590 249 296H435ZM40 0 306 763H379L645 0H530L466 199H218L155 0Z" glyph-name="Aacute" horiz-adv-x="685" unicode="&#193;" /><glyph d="M343 822Q307 822 277 832.5Q247 843 224.5 864.5Q202 886 189 919.5Q176 953 175 1000H242Q243 973 248 955.5Q253 938 264.5 927.5Q276 917 295 912.5Q314 908 343 908Q372 908 391 912.5Q410 917 421.5 927.5Q433 938 438 955.5Q443 973 444 1000H511Q510 953 497 919.5Q484 886 461.5 864.5Q439 843 409 832.5Q379 822 343 822ZM342 1072Q306 1072 276 1082.5Q246 1093 223.5 1114.5Q201 1136 188 1169.5Q175 1203 174 1250H241Q242 1223 247 1205.5Q252 1188 263.5 1177.5Q275 1167 294 1162.5Q313 1158 342 1158Q371 1158 390 1162.5Q409 1167 420.5 1177.5Q432 1188 437 1205.5Q442 1223 443 1250H510Q509 1203 496 1169.5Q483 1136 460.5 1114.5Q438 1093 408 1082.5Q378 1072 342 1072ZM343 590 249 296H435ZM40 0 306 763H379L645 0H530L466 199H218L155 0Z" glyph-name="Abreve" horiz-adv-x="685" unicode="&#258;" /><glyph d="M343 590 249 296H435ZM465 825 343 930 221 825H165L290 1000H396L521 825ZM40 0 306 763H379L645 0H530L466 199H218L155 0Z" glyph-name="Acircumflex" horiz-adv-x="685" unicode="&#194;" /><glyph d="M383 917Q383 946 403.5 966.5Q424 987 453 987Q482 987 502.5 966.5Q523 946 523 917Q523 888 502.5 867.5Q482 847 453 847Q424 847 403.5 867.5Q383 888 383 917ZM163 917Q163 946 183.5 966.5Q204 987 233 987Q262 987 282.5 966.5Q303 946 303 917Q303 888 282.5 867.5Q262 847 233 847Q204 847 183.5 867.5Q163 888 163 917ZM343 590 249 296H435ZM40 0 306 763H379L645 0H530L466 199H218L155 0Z" glyph-name="Adieresis" horiz-adv-x="685" unicode="&#196;" /><glyph d="M315 825 170 1000H291L371 825ZM343 590 249 296H435ZM40 0 306 763H379L645 0H530L466 199H218L155 0Z" glyph-name="Agrave" horiz-adv-x="685" unicode="&#192;" /><glyph d="M206 891V982H480V891ZM205 1141V1232H479V1141ZM343 590 249 296H435ZM40 0 306 763H379L645 0H530L466 199H218L155 0Z" glyph-name="Amacron" horiz-adv-x="685" unicode="&#256;" /><glyph d="M343 590 249 296H435ZM40 0 306 763H379L645 0Q603 -19 573.5 -46Q544 -73 544 -110Q544 -133 558 -144.5Q572 -156 595 -156Q616 -156 632.5 -153Q649 -150 658 -147V-215Q646 -220 625.5 -225Q605 -230 573 -230Q550 -230 529 -224Q508 -218 491.5 -205Q475 -192 465 -172.5Q455 -153 455 -126Q455 -99 470 -66.5Q485 -34 530 -2L466 199H218L155 0Z" glyph-name="Aogonek" horiz-adv-x="685" unicode="&#260;" /><glyph d="M387 912Q387 938 375.5 947.5Q364 957 343 957Q321 957 310 947.5Q299 938 299 912Q299 888 310 878.5Q321 869 343 869Q364 869 375.5 878.5Q387 888 387 912ZM343 590 249 296H435ZM444 912Q444 860 416 836Q388 812 343 812Q297 812 269 836Q241 860 241 912Q241 965 269 989Q297 1013 343 1013Q388 1013 416 989Q444 965 444 912ZM40 0 306 763H379L645 0H530L466 199H218L155 0Z" glyph-name="Aring" horiz-adv-x="685" unicode="&#197;" /><glyph d="M538 974Q537 834 413 837Q382 837 363 847Q344 857 330 868.5Q316 880 303.5 889.5Q291 899 273 899Q258 899 249 894Q240 889 235.5 881.5Q231 874 229.5 864Q228 854 228 844L148 851Q150 923 180 956.5Q210 990 273 989Q304 988 323 978Q342 968 356 956.5Q370 945 382.5 935.5Q395 926 413 926Q428 926 437 931Q446 936 450.5 944Q455 952 456.5 961.5Q458 971 458 981ZM343 590 249 296H435ZM40 0 306 763H379L645 0H530L466 199H218L155 0Z" glyph-name="Atilde" horiz-adv-x="685" unicode="&#195;" /><glyph d="M457 544Q457 564 452.5 583Q448 602 435 617Q422 632 397.5 641Q373 650 334 650H191V438H342Q376 438 398.5 447Q421 456 434 471Q447 486 452 505Q457 524 457 544ZM191 100H340Q384 100 411.5 110.5Q439 121 454.5 137.5Q470 154 475.5 175Q481 196 481 218Q481 281 450 309.5Q419 338 342 338H191ZM85 750H330Q397 750 443 733.5Q489 717 517.5 689Q546 661 558 623.5Q570 586 570 544Q570 502 551.5 462Q533 422 497 395Q548 370 571 321.5Q594 273 594 218Q594 173 580.5 133Q567 93 537 63.5Q507 34 457.5 17Q408 0 336 0H85Z" glyph-name="B" horiz-adv-x="649" unicode="B" /><glyph d="M70 375Q70 455 85 525.5Q100 596 134.5 649Q169 702 226.5 732.5Q284 763 370 763Q438 763 488.5 752Q539 741 574 726V619Q543 632 517 640.5Q491 649 467 654Q443 659 419 661Q395 663 370 663Q317 663 280.5 641Q244 619 221.5 580Q199 541 189 488.5Q179 436 179 375Q179 314 189 261.5Q199 209 221.5 170Q244 131 280.5 109Q317 87 370 87Q395 87 419 89Q443 91 467 96Q491 101 517 109.5Q543 118 574 131V24Q539 9 488.5 -2Q438 -13 370 -13Q284 -13 226.5 17.5Q169 48 134.5 101Q100 154 85 224.5Q70 295 70 375Z" glyph-name="C" horiz-adv-x="644" unicode="C" /><glyph d="M334 825 414 1000H535L390 825ZM70 375Q70 455 85 525.5Q100 596 134.5 649Q169 702 226.5 732.5Q284 763 370 763Q438 763 488.5 752Q539 741 574 726V619Q543 632 517 640.5Q491 649 467 654Q443 659 419 661Q395 663 370 663Q317 663 280.5 641Q244 619 221.5 580Q199 541 189 488.5Q179 436 179 375Q179 314 189 261.5Q199 209 221.5 170Q244 131 280.5 109Q317 87 370 87Q395 87 419 89Q443 91 467 96Q491 101 517 109.5Q543 118 574 131V24Q539 9 488.5 -2Q438 -13 370 -13Q284 -13 226.5 17.5Q169 48 134.5 101Q100 154 85 224.5Q70 295 70 375Z" glyph-name="Cacute" horiz-adv-x="644" unicode="&#262;" /><glyph d="M540 1000 415 825H309L184 1000H240L362 895L484 1000ZM70 375Q70 455 85 525.5Q100 596 134.5 649Q169 702 226.5 732.5Q284 763 370 763Q438 763 488.5 752Q539 741 574 726V619Q543 632 517 640.5Q491 649 467 654Q443 659 419 661Q395 663 370 663Q317 663 280.5 641Q244 619 221.5 580Q199 541 189 488.5Q179 436 179 375Q179 314 189 261.5Q199 209 221.5 170Q244 131 280.5 109Q317 87 370 87Q395 87 419 89Q443 91 467 96Q491 101 517 109.5Q543 118 574 131V24Q539 9 488.5 -2Q438 -13 370 -13Q284 -13 226.5 17.5Q169 48 134.5 101Q100 154 85 224.5Q70 295 70 375Z" glyph-name="Ccaron" horiz-adv-x="644" unicode="&#268;" /><glyph d="M70 375Q70 455 85 525.5Q100 596 134.5 649Q169 702 226.5 732.5Q284 763 370 763Q438 763 488.5 752Q539 741 574 726V619Q543 632 517 640.5Q491 649 467 654Q443 659 419 661Q395 663 370 663Q317 663 280.5 641Q244 619 221.5 580Q199 541 189 488.5Q179 436 179 375Q179 314 189 261.5Q199 209 221.5 170Q244 131 280.5 109Q317 87 370 87Q395 87 419 89Q443 91 467 96Q491 101 517 109.5Q543 118 574 131V24Q542 10 497.5 0Q453 -10 394 -12Q384 -27 383 -42.5Q382 -58 405 -71Q430 -85 437 -101Q444 -117 441 -133Q438 -149 428.5 -162.5Q419 -176 410 -185H308Q318 -176 327 -165Q336 -154 340.5 -142.5Q345 -131 343.5 -121.5Q342 -112 332 -106Q314 -97 308 -84.5Q302 -72 303.5 -58.5Q305 -45 311.5 -32.5Q318 -20 325 -10Q253 -2 204 31Q155 64 125 116Q95 168 82.5 234.5Q70 301 70 375Z" glyph-name="Ccedilla" horiz-adv-x="644" unicode="&#199;" /><glyph d="M484 825 362 930 240 825H184L309 1000H415L540 825ZM70 375Q70 455 85 525.5Q100 596 134.5 649Q169 702 226.5 732.5Q284 763 370 763Q438 763 488.5 752Q539 741 574 726V619Q543 632 517 640.5Q491 649 467 654Q443 659 419 661Q395 663 370 663Q317 663 280.5 641Q244 619 221.5 580Q199 541 189 488.5Q179 436 179 375Q179 314 189 261.5Q199 209 221.5 170Q244 131 280.5 109Q317 87 370 87Q395 87 419 89Q443 91 467 96Q491 101 517 109.5Q543 118 574 131V24Q539 9 488.5 -2Q438 -13 370 -13Q284 -13 226.5 17.5Q169 48 134.5 101Q100 154 85 224.5Q70 295 70 375Z" glyph-name="Ccircumflex" horiz-adv-x="644" unicode="&#264;" /><glyph d="M292 917Q292 946 312.5 966.5Q333 987 362 987Q391 987 411.5 966.5Q432 946 432 917Q432 888 411.5 867.5Q391 847 362 847Q333 847 312.5 867.5Q292 888 292 917ZM70 375Q70 455 85 525.5Q100 596 134.5 649Q169 702 226.5 732.5Q284 763 370 763Q438 763 488.5 752Q539 741 574 726V619Q543 632 517 640.5Q491 649 467 654Q443 659 419 661Q395 663 370 663Q317 663 280.5 641Q244 619 221.5 580Q199 541 189 488.5Q179 436 179 375Q179 314 189 261.5Q199 209 221.5 170Q244 131 280.5 109Q317 87 370 87Q395 87 419 89Q443 91 467 96Q491 101 517 109.5Q543 118 574 131V24Q539 9 488.5 -2Q438 -13 370 -13Q284 -13 226.5 17.5Q169 48 134.5 101Q100 154 85 224.5Q70 295 70 375Z" glyph-name="Cdotaccent" horiz-adv-x="644" unicode="&#266;" /><glyph d="M190 100H302Q360 100 399.5 120.5Q439 141 462.5 177.5Q486 214 496 264.5Q506 315 506 375Q506 435 496 485.5Q486 536 462.5 572.5Q439 609 399.5 629.5Q360 650 302 650H190ZM85 0V750H298Q391 750 452.5 721.5Q514 693 550.5 642.5Q587 592 602 523.5Q617 455 617 375Q617 295 602 226.5Q587 158 550.5 107.5Q514 57 452.5 28.5Q391 0 298 0Z" glyph-name="D" horiz-adv-x="687" unicode="D" /><glyph d="M491 1000 366 825H260L135 1000H191L313 895L435 1000ZM190 100H302Q360 100 399.5 120.5Q439 141 462.5 177.5Q486 214 496 264.5Q506 315 506 375Q506 435 496 485.5Q486 536 462.5 572.5Q439 609 399.5 629.5Q360 650 302 650H190ZM85 0V750H298Q391 750 452.5 721.5Q514 693 550.5 642.5Q587 592 602 523.5Q617 455 617 375Q617 295 602 226.5Q587 158 550.5 107.5Q514 57 452.5 28.5Q391 0 298 0Z" glyph-name="Dcaron" horiz-adv-x="687" unicode="&#270;" /><glyph d="M220 418H355V336H220V100H332Q390 100 429.5 120.5Q469 141 492.5 177.5Q516 214 526 264.5Q536 315 536 375Q536 435 526 485.5Q516 536 492.5 572.5Q469 609 429.5 629.5Q390 650 332 650H220ZM328 750Q421 750 482.5 721.5Q544 693 580.5 642.5Q617 592 632 523.5Q647 455 647 375Q647 295 632 226.5Q617 158 580.5 107.5Q544 57 482.5 28.5Q421 0 328 0H115V336H25V418H115V750Z" glyph-name="Dcroat" horiz-adv-x="717" unicode="&#272;" /><glyph d="M67 250Q67 304 87.5 352Q108 400 144 436Q180 472 228 492.5Q276 513 330 513Q384 513 432 492.5Q480 472 516 436Q552 400 572.5 352Q593 304 593 250Q593 196 572.5 148Q552 100 516 64Q480 28 432 7.5Q384 -13 330 -13Q276 -13 228 7.5Q180 28 144 64Q108 100 87.5 148Q67 196 67 250Z" glyph-name="Delta" horiz-adv-x="660" unicode="&#8710;" /><glyph d="M503 338H190V100H536V0H85V750H536V650H190V438H503Z" glyph-name="E" horiz-adv-x="606" unicode="E" /><glyph d="M283 825 363 1000H484L339 825ZM503 338H190V100H536V0H85V750H536V650H190V438H503Z" glyph-name="Eacute" horiz-adv-x="606" unicode="&#201;" /><glyph d="M311 822Q275 822 245 832.5Q215 843 192.5 864.5Q170 886 157 919.5Q144 953 143 1000H210Q211 973 216 955.5Q221 938 232.5 927.5Q244 917 263 912.5Q282 908 311 908Q340 908 359 912.5Q378 917 389.5 927.5Q401 938 406 955.5Q411 973 412 1000H479Q478 953 465 919.5Q452 886 429.5 864.5Q407 843 377 832.5Q347 822 311 822ZM503 338H190V100H536V0H85V750H536V650H190V438H503Z" glyph-name="Ebreve" horiz-adv-x="606" unicode="&#276;" /><glyph d="M189 1000 311 895 433 1000H489L364 825H258L133 1000ZM503 338H190V100H536V0H85V750H536V650H190V438H503Z" glyph-name="Ecaron" horiz-adv-x="606" unicode="&#282;" /><glyph d="M433 825 311 930 189 825H133L258 1000H364L489 825ZM503 338H190V100H536V0H85V750H536V650H190V438H503Z" glyph-name="Ecircumflex" horiz-adv-x="606" unicode="&#202;" /><glyph d="M131 917Q131 946 151.5 966.5Q172 987 201 987Q230 987 250.5 966.5Q271 946 271 917Q271 888 250.5 867.5Q230 847 201 847Q172 847 151.5 867.5Q131 888 131 917ZM351 917Q351 946 371.5 966.5Q392 987 421 987Q450 987 470.5 966.5Q491 946 491 917Q491 888 470.5 867.5Q450 847 421 847Q392 847 371.5 867.5Q351 888 351 917ZM503 338H190V100H536V0H85V750H536V650H190V438H503Z" glyph-name="Edieresis" horiz-adv-x="606" unicode="&#203;" /><glyph d="M241 917Q241 946 261.5 966.5Q282 987 311 987Q340 987 360.5 966.5Q381 946 381 917Q381 888 360.5 867.5Q340 847 311 847Q282 847 261.5 867.5Q241 888 241 917ZM503 338H190V100H536V0H85V750H536V650H190V438H503Z" glyph-name="Edotaccent" horiz-adv-x="606" unicode="&#278;" /><glyph d="M283 825 138 1000H259L339 825ZM503 338H190V100H536V0H85V750H536V650H190V438H503Z" glyph-name="Egrave" horiz-adv-x="606" unicode="&#200;" /><glyph d="M174 891V982H448V891ZM503 338H190V100H536V0H85V750H536V650H190V438H503Z" glyph-name="Emacron" horiz-adv-x="606" unicode="&#274;" /><glyph d="M397 -168Q418 -165 439 -159.5Q460 -154 477 -143.5Q494 -133 505 -117Q516 -101 516 -79V28L185 544L187 0H85V750H168L517 206L515 750H617V-88Q617 -129 597 -160Q577 -191 545.5 -212.5Q514 -234 474.5 -246Q435 -258 397 -260Z" glyph-name="Eng" horiz-adv-x="702" unicode="&#330;" /><glyph d="M503 338H190V100H536V0Q494 -19 464.5 -46Q435 -73 435 -110Q435 -133 449 -144.5Q463 -156 486 -156Q507 -156 523.5 -153Q540 -150 549 -147V-215Q537 -220 516.5 -225Q496 -230 464 -230Q441 -230 420 -224Q399 -218 382.5 -205Q366 -192 356 -172.5Q346 -153 346 -126Q346 -98 362 -65Q378 -32 425 0H85V750H536V650H190V438H503Z" glyph-name="Eogonek" horiz-adv-x="606" unicode="&#280;" /><glyph d="M220 418H355V336H220V100H332Q390 100 429.5 120.5Q469 141 492.5 177.5Q516 214 526 264.5Q536 315 536 375Q536 435 526 485.5Q516 536 492.5 572.5Q469 609 429.5 629.5Q390 650 332 650H220ZM328 750Q421 750 482.5 721.5Q544 693 580.5 642.5Q617 592 632 523.5Q647 455 647 375Q647 295 632 226.5Q617 158 580.5 107.5Q544 57 482.5 28.5Q421 0 328 0H115V336H25V418H115V750Z" glyph-name="Eth" horiz-adv-x="717" unicode="&#208;" /><glyph d="M35 401V500H96Q103 564 120 613.5Q137 663 168 696Q199 729 246 746Q293 763 360 763Q395 763 436.5 758Q478 753 517 736V639Q480 651 443.5 658Q407 665 360 665Q286 665 250 623.5Q214 582 203 500H463L430 401H196V349H413L380 250H203Q214 167 250 126Q286 85 360 85Q407 85 443.5 92Q480 99 517 111V14Q478 -3 436.5 -8Q395 -13 360 -13Q293 -13 246 4Q199 21 168 54Q137 87 120 136Q103 185 96 250H35V349H90V401Z" glyph-name="Euro" horiz-adv-x="546" unicode="&#8364;" /><glyph d="M35 262V361H106Q128 428 181.5 470.5Q235 513 328 513Q363 513 404.5 508Q446 503 485 486V392Q448 404 411 411.5Q374 419 327 419Q286 419 259.5 403Q233 387 218 361H426L393 262H192V238H383L350 139H218Q233 113 259.5 97Q286 81 327 81Q374 81 411 88.5Q448 96 485 108V14Q446 -3 404.5 -8Q363 -13 328 -13Q235 -13 181.5 29Q128 71 106 139H35V238H90V262Z" glyph-name="Euro.OP" horiz-adv-x="546" /><glyph d="M494 338H191V0H85V750H528V650H191V438H494Z" glyph-name="F" horiz-adv-x="588" unicode="F" /><glyph d="M370 -13Q284 -13 226.5 17.5Q169 48 134.5 101Q100 154 85 224.5Q70 295 70 375Q70 455 85 525.5Q100 596 134.5 649Q169 702 226.5 732.5Q284 763 370 763Q446 763 500 749Q554 735 589 718V612Q555 626 527 635.5Q499 645 473 651Q447 657 422 660Q397 663 370 663Q316 663 279.5 641Q243 619 220.5 580Q198 541 188 488.5Q178 436 178 375Q178 314 188 261.5Q198 209 220.5 170Q243 131 279.5 109Q316 87 370 87Q403 87 440 90.5Q477 94 502 102V312H355V412H607V33Q564 13 506 0Q448 -13 370 -13Z" glyph-name="G" horiz-adv-x="692" unicode="G" /><glyph d="M366 822Q330 822 300 832.5Q270 843 247.5 864.5Q225 886 212 919.5Q199 953 198 1000H265Q266 973 271 955.5Q276 938 287.5 927.5Q299 917 318 912.5Q337 908 366 908Q395 908 414 912.5Q433 917 444.5 927.5Q456 938 461 955.5Q466 973 467 1000H534Q533 953 520 919.5Q507 886 484.5 864.5Q462 843 432 832.5Q402 822 366 822ZM370 -13Q284 -13 226.5 17.5Q169 48 134.5 101Q100 154 85 224.5Q70 295 70 375Q70 455 85 525.5Q100 596 134.5 649Q169 702 226.5 732.5Q284 763 370 763Q446 763 500 749Q554 735 589 718V612Q555 626 527 635.5Q499 645 473 651Q447 657 422 660Q397 663 370 663Q316 663 279.5 641Q243 619 220.5 580Q198 541 188 488.5Q178 436 178 375Q178 314 188 261.5Q198 209 220.5 170Q243 131 279.5 109Q316 87 370 87Q403 87 440 90.5Q477 94 502 102V312H355V412H607V33Q564 13 506 0Q448 -13 370 -13Z" glyph-name="Gbreve" horiz-adv-x="692" unicode="&#286;" /><glyph d="M488 825 366 930 244 825H188L313 1000H419L544 825ZM370 -13Q284 -13 226.5 17.5Q169 48 134.5 101Q100 154 85 224.5Q70 295 70 375Q70 455 85 525.5Q100 596 134.5 649Q169 702 226.5 732.5Q284 763 370 763Q446 763 500 749Q554 735 589 718V612Q555 626 527 635.5Q499 645 473 651Q447 657 422 660Q397 663 370 663Q316 663 279.5 641Q243 619 220.5 580Q198 541 188 488.5Q178 436 178 375Q178 314 188 261.5Q198 209 220.5 170Q243 131 279.5 109Q316 87 370 87Q403 87 440 90.5Q477 94 502 102V312H355V412H607V33Q564 13 506 0Q448 -13 370 -13Z" glyph-name="Gcircumflex" horiz-adv-x="692" unicode="&#284;" /><glyph d="M323 -250 337 -184Q318 -176 307 -159Q296 -142 296 -120Q296 -91 316.5 -70.5Q337 -50 366 -50Q395 -50 415.5 -70.5Q436 -91 436 -120Q436 -138 428 -154L384 -250ZM370 -13Q284 -13 226.5 17.5Q169 48 134.5 101Q100 154 85 224.5Q70 295 70 375Q70 455 85 525.5Q100 596 134.5 649Q169 702 226.5 732.5Q284 763 370 763Q446 763 500 749Q554 735 589 718V612Q555 626 527 635.5Q499 645 473 651Q447 657 422 660Q397 663 370 663Q316 663 279.5 641Q243 619 220.5 580Q198 541 188 488.5Q178 436 178 375Q178 314 188 261.5Q198 209 220.5 170Q243 131 279.5 109Q316 87 370 87Q403 87 440 90.5Q477 94 502 102V312H355V412H607V33Q564 13 506 0Q448 -13 370 -13Z" glyph-name="Gcommaaccent" horiz-adv-x="692" unicode="&#290;" /><glyph d="M296 917Q296 946 316.5 966.5Q337 987 366 987Q395 987 415.5 966.5Q436 946 436 917Q436 888 415.5 867.5Q395 847 366 847Q337 847 316.5 867.5Q296 888 296 917ZM370 -13Q284 -13 226.5 17.5Q169 48 134.5 101Q100 154 85 224.5Q70 295 70 375Q70 455 85 525.5Q100 596 134.5 649Q169 702 226.5 732.5Q284 763 370 763Q446 763 500 749Q554 735 589 718V612Q555 626 527 635.5Q499 645 473 651Q447 657 422 660Q397 663 370 663Q316 663 279.5 641Q243 619 220.5 580Q198 541 188 488.5Q178 436 178 375Q178 314 188 261.5Q198 209 220.5 170Q243 131 279.5 109Q316 87 370 87Q403 87 440 90.5Q477 94 502 102V312H355V412H607V33Q564 13 506 0Q448 -13 370 -13Z" glyph-name="Gdotaccent" horiz-adv-x="692" unicode="&#288;" /><glyph d="M504 0V338H190V0H85V750H190V438H504V750H609V0Z" glyph-name="H" horiz-adv-x="694" unicode="H" /><glyph d="M504 438V540H190V438ZM504 0V338H190V0H85V750H190V638H504V750H609V0Z" glyph-name="Hbar" horiz-adv-x="694" unicode="&#294;" /><glyph d="M469 825 347 930 225 825H169L294 1000H400L525 825ZM504 0V338H190V0H85V750H190V438H504V750H609V0Z" glyph-name="Hcircumflex" horiz-adv-x="694" unicode="&#292;" /><glyph d="M107 0V750H212V0Z" glyph-name="I" horiz-adv-x="319" unicode="I" /><glyph d="M364 98Q392 91 409.5 88.5Q427 86 450 86Q488 86 511.5 99Q535 112 535 147V750H640V149Q640 71 595 29Q550 -13 450 -13Q434 -13 411.5 -10Q389 -7 364 -1ZM107 0V750H212V0Z" glyph-name="IJ" horiz-adv-x="747" unicode="&#306;" /><glyph d="M132 825 212 1000H333L188 825ZM107 0V750H212V0Z" glyph-name="Iacute" horiz-adv-x="319" unicode="&#205;" /><glyph d="M160 822Q124 822 94 832.5Q64 843 41.5 864.5Q19 886 6 919.5Q-7 953 -8 1000H59Q60 973 65 955.5Q70 938 81.5 927.5Q93 917 112 912.5Q131 908 160 908Q189 908 208 912.5Q227 917 238.5 927.5Q250 938 255 955.5Q260 973 261 1000H328Q327 953 314 919.5Q301 886 278.5 864.5Q256 843 226 832.5Q196 822 160 822ZM107 0V750H212V0Z" glyph-name="Ibreve" horiz-adv-x="319" unicode="&#300;" /><glyph d="M282 825 160 930 38 825H-18L107 1000H213L338 825ZM107 0V750H212V0Z" glyph-name="Icircumflex" horiz-adv-x="319" unicode="&#206;" /><glyph d="M-20 917Q-20 946 0.5 966.5Q21 987 50 987Q79 987 99.5 966.5Q120 946 120 917Q120 888 99.5 867.5Q79 847 50 847Q21 847 0.5 867.5Q-20 888 -20 917ZM200 917Q200 946 220.5 966.5Q241 987 270 987Q299 987 319.5 966.5Q340 946 340 917Q340 888 319.5 867.5Q299 847 270 847Q241 847 220.5 867.5Q200 888 200 917ZM107 0V750H212V0Z" glyph-name="Idieresis" horiz-adv-x="319" unicode="&#207;" /><glyph d="M90 917Q90 946 110.5 966.5Q131 987 160 987Q189 987 209.5 966.5Q230 946 230 917Q230 888 209.5 867.5Q189 847 160 847Q131 847 110.5 867.5Q90 888 90 917ZM107 0V750H212V0Z" glyph-name="Idotaccent" horiz-adv-x="319" unicode="&#304;" /><glyph d="M132 825 -13 1000H108L188 825ZM107 0V750H212V0Z" glyph-name="Igrave" horiz-adv-x="319" unicode="&#204;" /><glyph d="M23 891V982H297V891ZM107 0V750H212V0Z" glyph-name="Imacron" horiz-adv-x="319" /><glyph d="M212 0Q199 -9 184.5 -20.5Q170 -32 158 -46Q146 -60 138.5 -76Q131 -92 131 -110Q131 -133 145 -144.5Q159 -156 182 -156Q203 -156 219.5 -153Q236 -150 245 -147V-215Q233 -220 212.5 -225Q192 -230 160 -230Q137 -230 116 -224Q95 -218 78.5 -205Q62 -192 52 -172.5Q42 -153 42 -126Q42 -113 44 -97.5Q46 -82 52.5 -66.5Q59 -51 72 -34.5Q85 -18 107 -2V750H212Z" glyph-name="Iogonek" horiz-adv-x="319" unicode="&#302;" /><glyph d="M355 974Q354 834 230 837Q199 837 180 847Q161 857 147 868.5Q133 880 120.5 889.5Q108 899 90 899Q75 899 66 894Q57 889 52.5 881.5Q48 874 46.5 864Q45 854 45 844L-35 851Q-33 923 -3 956.5Q27 990 90 989Q121 988 140 978Q159 968 173 956.5Q187 945 199.5 935.5Q212 926 230 926Q245 926 254 931Q263 936 267.5 944Q272 952 273.5 961.5Q275 971 275 981ZM107 0V750H212V0Z" glyph-name="Itilde" horiz-adv-x="319" unicode="&#296;" /><glyph d="M45 98Q73 91 90.5 88.5Q108 86 131 86Q169 86 192.5 99Q216 112 216 147V750H321V149Q321 71 276 29Q231 -13 131 -13Q115 -13 92.5 -10Q70 -7 45 -1Z" glyph-name="J" horiz-adv-x="428" unicode="J" /><glyph d="M391 825 269 930 147 825H91L216 1000H322L447 825ZM45 98Q73 91 90.5 88.5Q108 86 131 86Q169 86 192.5 99Q216 112 216 147V750H321V149Q321 71 276 29Q231 -13 131 -13Q115 -13 92.5 -10Q70 -7 45 -1Z" glyph-name="Jcircumflex" horiz-adv-x="428" unicode="&#308;" /><glyph d="M188 277V0H85V750H188V413L453 750H591L298 406L618 0H480L230 326Z" glyph-name="K" horiz-adv-x="648" unicode="K" /><glyph d="M276 -250 290 -184Q271 -176 260 -159Q249 -142 249 -120Q249 -91 269.5 -70.5Q290 -50 319 -50Q348 -50 368.5 -70.5Q389 -91 389 -120Q389 -138 381 -154L337 -250ZM188 277V0H85V750H188V413L453 750H591L298 406L618 0H480L230 326Z" glyph-name="Kcommaaccent" horiz-adv-x="648" unicode="&#310;" /><glyph d="M190 100H518V0H85V750H190Z" glyph-name="L" horiz-adv-x="568" unicode="L" /><glyph d="M110 825 190 1000H311L166 825ZM190 100H518V0H85V750H190Z" glyph-name="Lacute" horiz-adv-x="568" unicode="&#313;" /><glyph d="M364 750 316 550H260L276 750ZM190 100H518V0H85V750H190Z" glyph-name="Lcaron" horiz-adv-x="568" unicode="&#317;" /><glyph d="M256 -250 270 -184Q251 -176 240 -159Q229 -142 229 -120Q229 -91 249.5 -70.5Q270 -50 299 -50Q328 -50 348.5 -70.5Q369 -91 369 -120Q369 -138 361 -154L317 -250ZM190 100H518V0H85V750H190Z" glyph-name="Lcommaaccent" horiz-adv-x="568" unicode="&#315;" /><glyph d="M352 375Q352 404 372.5 424.5Q393 445 422 445Q451 445 471.5 424.5Q492 404 492 375Q492 346 471.5 325.5Q451 305 422 305Q393 305 372.5 325.5Q352 346 352 375ZM190 100H518V0H85V750H190Z" glyph-name="Ldot" horiz-adv-x="568" unicode="&#319;" /><glyph d="M220 297V100H548V0H115V244L25 198V287L115 333V750H220V386L442 500V411Z" glyph-name="Lslash" horiz-adv-x="598" unicode="&#321;" /><glyph d="M472 100H392L183 583L188 0H85V750H212L432 236L652 750H779V0H676L681 583Z" glyph-name="M" horiz-adv-x="864" unicode="M" /><glyph d="M534 0 185 544 187 0H85V750H168L517 206L515 750H617V0Z" glyph-name="N" horiz-adv-x="702" unicode="N" /><glyph d="M323 825 403 1000H524L379 825ZM534 0 185 544 187 0H85V750H168L517 206L515 750H617V0Z" glyph-name="Nacute" horiz-adv-x="702" unicode="&#323;" /><glyph d="M529 1000 404 825H298L173 1000H229L351 895L473 1000ZM534 0 185 544 187 0H85V750H168L517 206L515 750H617V0Z" glyph-name="Ncaron" horiz-adv-x="702" unicode="&#327;" /><glyph d="M308 -250 322 -184Q303 -176 292 -159Q281 -142 281 -120Q281 -91 301.5 -70.5Q322 -50 351 -50Q380 -50 400.5 -70.5Q421 -91 421 -120Q421 -138 413 -154L369 -250ZM534 0 185 544 187 0H85V750H168L517 206L515 750H617V0Z" glyph-name="Ncommaaccent" horiz-adv-x="702" unicode="&#325;" /><glyph d="M546 974Q545 834 421 837Q390 837 371 847Q352 857 338 868.5Q324 880 311.5 889.5Q299 899 281 899Q266 899 257 894Q248 889 243.5 881.5Q239 874 237.5 864Q236 854 236 844L156 851Q158 923 188 956.5Q218 990 281 989Q312 988 331 978Q350 968 364 956.5Q378 945 390.5 935.5Q403 926 421 926Q436 926 445 931Q454 936 458.5 944Q463 952 464.5 961.5Q466 971 466 981ZM534 0 185 544 187 0H85V750H168L517 206L515 750H617V0Z" glyph-name="Ntilde" horiz-adv-x="702" unicode="&#209;" /><glyph d="M532 375Q532 433 526 485.5Q520 538 501.5 577.5Q483 617 448 640Q413 663 355 663Q297 663 262 640Q227 617 208.5 577.5Q190 538 184 485.5Q178 433 178 375Q178 317 184 264.5Q190 212 208.5 172.5Q227 133 262 110Q297 87 355 87Q413 87 448 110Q483 133 501.5 172.5Q520 212 526 264.5Q532 317 532 375ZM640 375Q640 301 631 231.5Q622 162 592 107.5Q562 53 505.5 20Q449 -13 355 -13Q261 -13 204.5 20Q148 53 118 107.5Q88 162 79 231.5Q70 301 70 375Q70 448 79 518Q88 588 118 642.5Q148 697 204.5 730Q261 763 355 763Q449 763 505.5 730Q562 697 592 642.5Q622 588 631 518Q640 448 640 375Z" glyph-name="O" horiz-adv-x="710" unicode="O" /><glyph d="M447 650H385Q326 650 287 629.5Q248 609 224.5 572.5Q201 536 191 485.5Q181 435 181 375Q181 315 191 264.5Q201 214 224.5 177.5Q248 141 287 120.5Q326 100 385 100H447ZM825 338H552V100H858V0H389Q296 0 234.5 28.5Q173 57 136.5 107.5Q100 158 85 226.5Q70 295 70 375Q70 455 85 523.5Q100 592 136.5 642.5Q173 693 234.5 721.5Q296 750 389 750H858V650H552V438H825Z" glyph-name="OE" horiz-adv-x="928" unicode="&#338;" /><glyph d="M327 825 407 1000H528L383 825ZM532 375Q532 433 526 485.5Q520 538 501.5 577.5Q483 617 448 640Q413 663 355 663Q297 663 262 640Q227 617 208.5 577.5Q190 538 184 485.5Q178 433 178 375Q178 317 184 264.5Q190 212 208.5 172.5Q227 133 262 110Q297 87 355 87Q413 87 448 110Q483 133 501.5 172.5Q520 212 526 264.5Q532 317 532 375ZM640 375Q640 301 631 231.5Q622 162 592 107.5Q562 53 505.5 20Q449 -13 355 -13Q261 -13 204.5 20Q148 53 118 107.5Q88 162 79 231.5Q70 301 70 375Q70 448 79 518Q88 588 118 642.5Q148 697 204.5 730Q261 763 355 763Q449 763 505.5 730Q562 697 592 642.5Q622 588 631 518Q640 448 640 375Z" glyph-name="Oacute" horiz-adv-x="710" unicode="&#211;" /><glyph d="M355 822Q319 822 289 832.5Q259 843 236.5 864.5Q214 886 201 919.5Q188 953 187 1000H254Q255 973 260 955.5Q265 938 276.5 927.5Q288 917 307 912.5Q326 908 355 908Q384 908 403 912.5Q422 917 433.5 927.5Q445 938 450 955.5Q455 973 456 1000H523Q522 953 509 919.5Q496 886 473.5 864.5Q451 843 421 832.5Q391 822 355 822ZM532 375Q532 433 526 485.5Q520 538 501.5 577.5Q483 617 448 640Q413 663 355 663Q297 663 262 640Q227 617 208.5 577.5Q190 538 184 485.5Q178 433 178 375Q178 317 184 264.5Q190 212 208.5 172.5Q227 133 262 110Q297 87 355 87Q413 87 448 110Q483 133 501.5 172.5Q520 212 526 264.5Q532 317 532 375ZM640 375Q640 301 631 231.5Q622 162 592 107.5Q562 53 505.5 20Q449 -13 355 -13Q261 -13 204.5 20Q148 53 118 107.5Q88 162 79 231.5Q70 301 70 375Q70 448 79 518Q88 588 118 642.5Q148 697 204.5 730Q261 763 355 763Q449 763 505.5 730Q562 697 592 642.5Q622 588 631 518Q640 448 640 375Z" glyph-name="Obreve" horiz-adv-x="710" unicode="&#334;" /><glyph d="M477 825 355 930 233 825H177L302 1000H408L533 825ZM532 375Q532 433 526 485.5Q520 538 501.5 577.5Q483 617 448 640Q413 663 355 663Q297 663 262 640Q227 617 208.5 577.5Q190 538 184 485.5Q178 433 178 375Q178 317 184 264.5Q190 212 208.5 172.5Q227 133 262 110Q297 87 355 87Q413 87 448 110Q483 133 501.5 172.5Q520 212 526 264.5Q532 317 532 375ZM640 375Q640 301 631 231.5Q622 162 592 107.5Q562 53 505.5 20Q449 -13 355 -13Q261 -13 204.5 20Q148 53 118 107.5Q88 162 79 231.5Q70 301 70 375Q70 448 79 518Q88 588 118 642.5Q148 697 204.5 730Q261 763 355 763Q449 763 505.5 730Q562 697 592 642.5Q622 588 631 518Q640 448 640 375Z" glyph-name="Ocircumflex" horiz-adv-x="710" unicode="&#212;" /><glyph d="M395 917Q395 946 415.5 966.5Q436 987 465 987Q494 987 514.5 966.5Q535 946 535 917Q535 888 514.5 867.5Q494 847 465 847Q436 847 415.5 867.5Q395 888 395 917ZM175 917Q175 946 195.5 966.5Q216 987 245 987Q274 987 294.5 966.5Q315 946 315 917Q315 888 294.5 867.5Q274 847 245 847Q216 847 195.5 867.5Q175 888 175 917ZM532 375Q532 433 526 485.5Q520 538 501.5 577.5Q483 617 448 640Q413 663 355 663Q297 663 262 640Q227 617 208.5 577.5Q190 538 184 485.5Q178 433 178 375Q178 317 184 264.5Q190 212 208.5 172.5Q227 133 262 110Q297 87 355 87Q413 87 448 110Q483 133 501.5 172.5Q520 212 526 264.5Q532 317 532 375ZM640 375Q640 301 631 231.5Q622 162 592 107.5Q562 53 505.5 20Q449 -13 355 -13Q261 -13 204.5 20Q148 53 118 107.5Q88 162 79 231.5Q70 301 70 375Q70 448 79 518Q88 588 118 642.5Q148 697 204.5 730Q261 763 355 763Q449 763 505.5 730Q562 697 592 642.5Q622 588 631 518Q640 448 640 375Z" glyph-name="Odieresis" horiz-adv-x="710" unicode="&#214;" /><glyph d="M327 825 182 1000H303L383 825ZM532 375Q532 433 526 485.5Q520 538 501.5 577.5Q483 617 448 640Q413 663 355 663Q297 663 262 640Q227 617 208.5 577.5Q190 538 184 485.5Q178 433 178 375Q178 317 184 264.5Q190 212 208.5 172.5Q227 133 262 110Q297 87 355 87Q413 87 448 110Q483 133 501.5 172.5Q520 212 526 264.5Q532 317 532 375ZM640 375Q640 301 631 231.5Q622 162 592 107.5Q562 53 505.5 20Q449 -13 355 -13Q261 -13 204.5 20Q148 53 118 107.5Q88 162 79 231.5Q70 301 70 375Q70 448 79 518Q88 588 118 642.5Q148 697 204.5 730Q261 763 355 763Q449 763 505.5 730Q562 697 592 642.5Q622 588 631 518Q640 448 640 375Z" glyph-name="Ograve" horiz-adv-x="710" unicode="&#210;" /><glyph d="M413 825 493 1000H614L469 825ZM236 825 316 1000H438L293 825ZM532 375Q532 433 526 485.5Q520 538 501.5 577.5Q483 617 448 640Q413 663 355 663Q297 663 262 640Q227 617 208.5 577.5Q190 538 184 485.5Q178 433 178 375Q178 317 184 264.5Q190 212 208.5 172.5Q227 133 262 110Q297 87 355 87Q413 87 448 110Q483 133 501.5 172.5Q520 212 526 264.5Q532 317 532 375ZM640 375Q640 301 631 231.5Q622 162 592 107.5Q562 53 505.5 20Q449 -13 355 -13Q261 -13 204.5 20Q148 53 118 107.5Q88 162 79 231.5Q70 301 70 375Q70 448 79 518Q88 588 118 642.5Q148 697 204.5 730Q261 763 355 763Q449 763 505.5 730Q562 697 592 642.5Q622 588 631 518Q640 448 640 375Z" glyph-name="Ohungarumlaut" horiz-adv-x="710" unicode="&#336;" /><glyph d="M218 891V982H492V891ZM532 375Q532 433 526 485.5Q520 538 501.5 577.5Q483 617 448 640Q413 663 355 663Q297 663 262 640Q227 617 208.5 577.5Q190 538 184 485.5Q178 433 178 375Q178 317 184 264.5Q190 212 208.5 172.5Q227 133 262 110Q297 87 355 87Q413 87 448 110Q483 133 501.5 172.5Q520 212 526 264.5Q532 317 532 375ZM640 375Q640 301 631 231.5Q622 162 592 107.5Q562 53 505.5 20Q449 -13 355 -13Q261 -13 204.5 20Q148 53 118 107.5Q88 162 79 231.5Q70 301 70 375Q70 448 79 518Q88 588 118 642.5Q148 697 204.5 730Q261 763 355 763Q449 763 505.5 730Q562 697 592 642.5Q622 588 631 518Q640 448 640 375Z" glyph-name="Omacron" horiz-adv-x="710" unicode="&#332;" /><glyph d="M229 459Q260 459 288 463.5Q316 468 343 475V382Q309 374 280 370.5Q251 367 229 367Q135 367 94 417.5Q53 468 53 565Q53 662 94 712.5Q135 763 229 763Q251 763 280 759.5Q309 756 343 748V655Q316 662 288 666.5Q260 671 229 671Q185 671 167 647Q149 623 149 565Q149 507 167 483Q185 459 229 459Z" glyph-name="Omega" horiz-adv-x="396" unicode="&#8486;" /><glyph d="M532 375Q532 416 529.5 453.5Q527 491 519 524L261 110Q298 87 355 87Q413 87 448 110Q483 133 501.5 172.5Q520 212 526 264.5Q532 317 532 375ZM178 375Q178 332 181 292.5Q184 253 192 218L453 636Q434 649 410 656Q386 663 355 663Q297 663 262 640Q227 617 208.5 577.5Q190 538 184 485.5Q178 433 178 375ZM592 642Q622 587 631 517.5Q640 448 640 375Q640 301 631 231.5Q622 162 592 107.5Q562 53 505.5 20Q449 -13 355 -13Q307 -13 270 -4.5Q233 4 204 20L192 0H56L120 103Q88 158 79 229Q70 300 70 375Q70 448 79 518Q88 588 118 642.5Q148 697 204.5 730Q261 763 355 763Q404 763 442.5 753.5Q481 744 510 727L524 750H660Z" glyph-name="Oslash" horiz-adv-x="710" unicode="&#216;" /><glyph d="M550 974Q549 834 425 837Q394 837 375 847Q356 857 342 868.5Q328 880 315.5 889.5Q303 899 285 899Q270 899 261 894Q252 889 247.5 881.5Q243 874 241.5 864Q240 854 240 844L160 851Q162 923 192 956.5Q222 990 285 989Q316 988 335 978Q354 968 368 956.5Q382 945 394.5 935.5Q407 926 425 926Q440 926 449 931Q458 936 462.5 944Q467 952 468.5 961.5Q470 971 470 981ZM532 375Q532 433 526 485.5Q520 538 501.5 577.5Q483 617 448 640Q413 663 355 663Q297 663 262 640Q227 617 208.5 577.5Q190 538 184 485.5Q178 433 178 375Q178 317 184 264.5Q190 212 208.5 172.5Q227 133 262 110Q297 87 355 87Q413 87 448 110Q483 133 501.5 172.5Q520 212 526 264.5Q532 317 532 375ZM640 375Q640 301 631 231.5Q622 162 592 107.5Q562 53 505.5 20Q449 -13 355 -13Q261 -13 204.5 20Q148 53 118 107.5Q88 162 79 231.5Q70 301 70 375Q70 448 79 518Q88 588 118 642.5Q148 697 204.5 730Q261 763 355 763Q449 763 505.5 730Q562 697 592 642.5Q622 588 631 518Q640 448 640 375Z" glyph-name="Otilde" horiz-adv-x="710" unicode="&#213;" /><glyph d="M191 385H326Q371 385 398.5 397.5Q426 410 441 429Q456 448 461.5 471.5Q467 495 467 518Q467 540 461.5 563.5Q456 587 441 606.5Q426 626 398.5 638Q371 650 326 650H191ZM191 0H85V750H323Q395 750 444.5 731Q494 712 524 679.5Q554 647 567.5 605Q581 563 581 518Q581 472 567.5 430Q554 388 524 355.5Q494 323 444.5 304Q395 285 323 285H191Z" glyph-name="P" horiz-adv-x="626" unicode="P" /><glyph d="M532 375Q532 433 526 485.5Q520 538 501.5 577.5Q483 617 448 640Q413 663 355 663Q297 663 262 640Q227 617 208.5 577.5Q190 538 184 485.5Q178 433 178 375Q178 317 184 264.5Q190 212 208.5 172.5Q227 133 262 110Q297 87 355 87Q413 87 448 110Q483 133 501.5 172.5Q520 212 526 264.5Q532 317 532 375ZM514 26 738 -14V-124L265 -1Q201 16 162.5 53Q124 90 103.5 140Q83 190 76.5 250.5Q70 311 70 375Q70 448 79 518Q88 588 118 642.5Q148 697 204.5 730Q261 763 355 763Q449 763 505.5 730Q562 697 592 642.5Q622 588 631 518Q640 448 640 375Q640 321 635.5 269Q631 217 617.5 171Q604 125 579 88Q554 51 514 27Z" glyph-name="Q" horiz-adv-x="710" unicode="Q" /><glyph d="M190 412H341Q382 412 407 421.5Q432 431 445.5 447Q459 463 463 485Q467 507 467 532Q467 556 463 577.5Q459 599 445.5 615Q432 631 407 640.5Q382 650 341 650H190ZM190 0H85V750H327Q399 750 448 735Q497 720 526 691.5Q555 663 567.5 622.5Q580 582 580 532Q580 458 553 406.5Q526 355 456 330Q477 291 499.5 249Q522 207 544.5 164.5Q567 122 589 80Q611 38 631 0H501L348 312H190Z" glyph-name="R" horiz-adv-x="671" unicode="R" /><glyph d="M287 825 367 1000H488L343 825ZM190 412H341Q382 412 407 421.5Q432 431 445.5 447Q459 463 463 485Q467 507 467 532Q467 556 463 577.5Q459 599 445.5 615Q432 631 407 640.5Q382 650 341 650H190ZM190 0H85V750H327Q399 750 448 735Q497 720 526 691.5Q555 663 567.5 622.5Q580 582 580 532Q580 458 553 406.5Q526 355 456 330Q477 291 499.5 249Q522 207 544.5 164.5Q567 122 589 80Q611 38 631 0H501L348 312H190Z" glyph-name="Racute" horiz-adv-x="671" unicode="&#340;" /><glyph d="M493 1000 368 825H262L137 1000H193L315 895L437 1000ZM190 412H341Q382 412 407 421.5Q432 431 445.5 447Q459 463 463 485Q467 507 467 532Q467 556 463 577.5Q459 599 445.5 615Q432 631 407 640.5Q382 650 341 650H190ZM190 0H85V750H327Q399 750 448 735Q497 720 526 691.5Q555 663 567.5 622.5Q580 582 580 532Q580 458 553 406.5Q526 355 456 330Q477 291 499.5 249Q522 207 544.5 164.5Q567 122 589 80Q611 38 631 0H501L348 312H190Z" glyph-name="Rcaron" horiz-adv-x="671" unicode="&#344;" /><glyph d="M292 -250 306 -184Q287 -176 276 -159Q265 -142 265 -120Q265 -91 285.5 -70.5Q306 -50 335 -50Q364 -50 384.5 -70.5Q405 -91 405 -120Q405 -138 397 -154L353 -250ZM190 412H341Q382 412 407 421.5Q432 431 445.5 447Q459 463 463 485Q467 507 467 532Q467 556 463 577.5Q459 599 445.5 615Q432 631 407 640.5Q382 650 341 650H190ZM190 0H85V750H327Q399 750 448 735Q497 720 526 691.5Q555 663 567.5 622.5Q580 582 580 532Q580 458 553 406.5Q526 355 456 330Q477 291 499.5 249Q522 207 544.5 164.5Q567 122 589 80Q611 38 631 0H501L348 312H190Z" glyph-name="Rcommaaccent" horiz-adv-x="671" unicode="&#342;" /><glyph d="M323 663Q276 663 246 653Q216 643 199.5 626.5Q183 610 177 588Q171 566 171 542Q171 512 181.5 493.5Q192 475 212 464.5Q232 454 261 448.5Q290 443 328 438Q385 431 429 417.5Q473 404 504 379.5Q535 355 551 317Q567 279 567 224Q567 184 554.5 142Q542 100 510.5 65.5Q479 31 423.5 9Q368 -13 283 -13Q257 -13 227.5 -9.5Q198 -6 168.5 0Q139 6 111.5 14.5Q84 23 64 32V135Q90 125 112 116Q134 107 158.5 100.5Q183 94 213 90.5Q243 87 284 87Q334 87 367.5 98Q401 109 421 127.5Q441 146 449 171Q457 196 457 224Q457 254 449 274Q441 294 423.5 306.5Q406 319 377.5 326Q349 333 309 338H310Q242 347 195.5 362Q149 377 119.5 401Q90 425 77 460Q64 495 64 543Q64 577 74 615.5Q84 654 112.5 687Q141 720 191.5 741.5Q242 763 323 763Q391 763 442 751Q493 739 528 722V616Q497 630 471 639Q445 648 420.5 653.5Q396 659 372 661Q348 663 323 663Z" glyph-name="S" horiz-adv-x="631" unicode="S" /><glyph d="M290 825 370 1000H491L346 825ZM323 663Q276 663 246 653Q216 643 199.5 626.5Q183 610 177 588Q171 566 171 542Q171 512 181.5 493.5Q192 475 212 464.5Q232 454 261 448.5Q290 443 328 438Q385 431 429 417.5Q473 404 504 379.5Q535 355 551 317Q567 279 567 224Q567 184 554.5 142Q542 100 510.5 65.5Q479 31 423.5 9Q368 -13 283 -13Q257 -13 227.5 -9.5Q198 -6 168.5 0Q139 6 111.5 14.5Q84 23 64 32V135Q90 125 112 116Q134 107 158.5 100.5Q183 94 213 90.5Q243 87 284 87Q334 87 367.5 98Q401 109 421 127.5Q441 146 449 171Q457 196 457 224Q457 254 449 274Q441 294 423.5 306.5Q406 319 377.5 326Q349 333 309 338H310Q242 347 195.5 362Q149 377 119.5 401Q90 425 77 460Q64 495 64 543Q64 577 74 615.5Q84 654 112.5 687Q141 720 191.5 741.5Q242 763 323 763Q391 763 442 751Q493 739 528 722V616Q497 630 471 639Q445 648 420.5 653.5Q396 659 372 661Q348 663 323 663Z" glyph-name="Sacute" horiz-adv-x="631" unicode="&#346;" /><glyph d="M496 1000 371 825H265L140 1000H196L318 895L440 1000ZM323 663Q276 663 246 653Q216 643 199.5 626.5Q183 610 177 588Q171 566 171 542Q171 512 181.5 493.5Q192 475 212 464.5Q232 454 261 448.5Q290 443 328 438Q385 431 429 417.5Q473 404 504 379.5Q535 355 551 317Q567 279 567 224Q567 184 554.5 142Q542 100 510.5 65.5Q479 31 423.5 9Q368 -13 283 -13Q257 -13 227.5 -9.5Q198 -6 168.5 0Q139 6 111.5 14.5Q84 23 64 32V135Q90 125 112 116Q134 107 158.5 100.5Q183 94 213 90.5Q243 87 284 87Q334 87 367.5 98Q401 109 421 127.5Q441 146 449 171Q457 196 457 224Q457 254 449 274Q441 294 423.5 306.5Q406 319 377.5 326Q349 333 309 338H310Q242 347 195.5 362Q149 377 119.5 401Q90 425 77 460Q64 495 64 543Q64 577 74 615.5Q84 654 112.5 687Q141 720 191.5 741.5Q242 763 323 763Q391 763 442 751Q493 739 528 722V616Q497 630 471 639Q445 648 420.5 653.5Q396 659 372 661Q348 663 323 663Z" glyph-name="Scaron" horiz-adv-x="631" unicode="&#352;" /><glyph d="M239 -185Q249 -176 258 -165Q267 -154 271.5 -142.5Q276 -131 274.5 -121.5Q273 -112 263 -106Q246 -97 240 -84.5Q234 -72 235 -59.5Q236 -47 242 -34.5Q248 -22 255 -12Q231 -10 204.5 -6Q178 -2 152.5 3.5Q127 9 104.5 16.5Q82 24 64 32V135Q90 125 112 116Q134 107 158.5 100.5Q183 94 213 90.5Q243 87 284 87Q334 87 367.5 98Q401 109 421 127.5Q441 146 449 171Q457 196 457 224Q457 254 449 274Q441 294 423.5 306.5Q406 319 377.5 326Q349 333 309 338H310Q242 347 195.5 362Q149 377 119.5 401Q90 425 77 460Q64 495 64 543Q64 577 74 615.5Q84 654 112.5 687Q141 720 191.5 741.5Q242 763 323 763Q391 763 442 751Q493 739 528 722V616Q497 630 471 639Q445 648 420.5 653.5Q396 659 372 661Q348 663 323 663Q276 663 246 653Q216 643 199.5 626.5Q183 610 177 588Q171 566 171 542Q171 512 181.5 493.5Q192 475 212 464.5Q232 454 261 448.5Q290 443 328 438Q385 431 429 417.5Q473 404 504 379.5Q535 355 551 317Q567 279 567 224Q567 187 556.5 147.5Q546 108 518.5 75Q491 42 444.5 18.5Q398 -5 326 -11Q321 -19 318 -26.5Q315 -34 315 -41.5Q315 -49 320 -56.5Q325 -64 336 -71Q361 -85 368 -101Q375 -117 372 -133Q369 -149 359.5 -162.5Q350 -176 341 -185Z" glyph-name="Scedilla" horiz-adv-x="631" unicode="&#350;" /><glyph d="M440 825 318 930 196 825H140L265 1000H371L496 825ZM323 663Q276 663 246 653Q216 643 199.5 626.5Q183 610 177 588Q171 566 171 542Q171 512 181.5 493.5Q192 475 212 464.5Q232 454 261 448.5Q290 443 328 438Q385 431 429 417.5Q473 404 504 379.5Q535 355 551 317Q567 279 567 224Q567 184 554.5 142Q542 100 510.5 65.5Q479 31 423.5 9Q368 -13 283 -13Q257 -13 227.5 -9.5Q198 -6 168.5 0Q139 6 111.5 14.5Q84 23 64 32V135Q90 125 112 116Q134 107 158.5 100.5Q183 94 213 90.5Q243 87 284 87Q334 87 367.5 98Q401 109 421 127.5Q441 146 449 171Q457 196 457 224Q457 254 449 274Q441 294 423.5 306.5Q406 319 377.5 326Q349 333 309 338H310Q242 347 195.5 362Q149 377 119.5 401Q90 425 77 460Q64 495 64 543Q64 577 74 615.5Q84 654 112.5 687Q141 720 191.5 741.5Q242 763 323 763Q391 763 442 751Q493 739 528 722V616Q497 630 471 639Q445 648 420.5 653.5Q396 659 372 661Q348 663 323 663Z" glyph-name="Scircumflex" horiz-adv-x="631" unicode="&#348;" /><glyph d="M241 -250 255 -184Q236 -176 225 -159Q214 -142 214 -120Q214 -91 234.5 -70.5Q255 -50 284 -50Q313 -50 333.5 -70.5Q354 -91 354 -120Q354 -138 346 -154L302 -250ZM323 663Q276 663 246 653Q216 643 199.5 626.5Q183 610 177 588Q171 566 171 542Q171 512 181.5 493.5Q192 475 212 464.5Q232 454 261 448.5Q290 443 328 438Q385 431 429 417.5Q473 404 504 379.5Q535 355 551 317Q567 279 567 224Q567 184 554.5 142Q542 100 510.5 65.5Q479 31 423.5 9Q368 -13 283 -13Q257 -13 227.5 -9.5Q198 -6 168.5 0Q139 6 111.5 14.5Q84 23 64 32V135Q90 125 112 116Q134 107 158.5 100.5Q183 94 213 90.5Q243 87 284 87Q334 87 367.5 98Q401 109 421 127.5Q441 146 449 171Q457 196 457 224Q457 254 449 274Q441 294 423.5 306.5Q406 319 377.5 326Q349 333 309 338H310Q242 347 195.5 362Q149 377 119.5 401Q90 425 77 460Q64 495 64 543Q64 577 74 615.5Q84 654 112.5 687Q141 720 191.5 741.5Q242 763 323 763Q391 763 442 751Q493 739 528 722V616Q497 630 471 639Q445 648 420.5 653.5Q396 659 372 661Q348 663 323 663Z" glyph-name="Scommaaccent" horiz-adv-x="631" unicode="&#536;" /><glyph d="M345 650V0H240V650H42V750H543V650Z" glyph-name="T" horiz-adv-x="585" unicode="T" /><glyph d="M471 339H345V0H240V339H114V437H240V650H42V750H543V650H345V437H471Z" glyph-name="Tbar" horiz-adv-x="585" unicode="&#358;" /><glyph d="M470 1000 345 825H239L114 1000H170L292 895L414 1000ZM345 650V0H240V650H42V750H543V650Z" glyph-name="Tcaron" horiz-adv-x="585" unicode="&#356;" /><glyph d="M250 -250 264 -184Q245 -176 234 -159Q223 -142 223 -120Q223 -91 243.5 -70.5Q264 -50 293 -50Q322 -50 342.5 -70.5Q363 -91 363 -120Q363 -138 355 -154L311 -250ZM345 650V0H240V650H42V750H543V650Z" glyph-name="Tcommaaccent" horiz-adv-x="585" unicode="&#354;" /><glyph d="M191 242H326Q371 242 398.5 254.5Q426 267 441 286Q456 305 461.5 328.5Q467 352 467 375Q467 397 461.5 420.5Q456 444 441 463.5Q426 483 398.5 495Q371 507 326 507H191ZM191 0H85V750H191V607H323Q395 607 444.5 588Q494 569 524 536.5Q554 504 567.5 462Q581 420 581 375Q581 329 567.5 287Q554 245 524 212.5Q494 180 444.5 161Q395 142 323 142H191Z" glyph-name="Thorn" horiz-adv-x="626" unicode="&#222;" /><glyph d="M351 88Q372 88 401 92Q430 96 455.5 112.5Q481 129 499 162Q517 195 517 252V750H622V239Q622 184 608.5 144.5Q595 105 572.5 77Q550 49 521 31.5Q492 14 462 4Q432 -6 403 -9.5Q374 -13 351 -13Q328 -13 299 -9.5Q270 -6 240 4Q210 14 181 31.5Q152 49 129.5 77Q107 105 93.5 145Q80 185 80 239V750H185V252Q185 195 203 162Q221 129 246.5 112.5Q272 96 301 92Q330 88 351 88Z" glyph-name="U" horiz-adv-x="702" unicode="U" /><glyph d="M323 825 403 1000H524L379 825ZM351 88Q372 88 401 92Q430 96 455.5 112.5Q481 129 499 162Q517 195 517 252V750H622V239Q622 184 608.5 144.5Q595 105 572.5 77Q550 49 521 31.5Q492 14 462 4Q432 -6 403 -9.5Q374 -13 351 -13Q328 -13 299 -9.5Q270 -6 240 4Q210 14 181 31.5Q152 49 129.5 77Q107 105 93.5 145Q80 185 80 239V750H185V252Q185 195 203 162Q221 129 246.5 112.5Q272 96 301 92Q330 88 351 88Z" glyph-name="Uacute" horiz-adv-x="702" unicode="&#218;" /><glyph d="M351 822Q315 822 285 832.5Q255 843 232.5 864.5Q210 886 197 919.5Q184 953 183 1000H250Q251 973 256 955.5Q261 938 272.5 927.5Q284 917 303 912.5Q322 908 351 908Q380 908 399 912.5Q418 917 429.5 927.5Q441 938 446 955.5Q451 973 452 1000H519Q518 953 505 919.5Q492 886 469.5 864.5Q447 843 417 832.5Q387 822 351 822ZM351 88Q372 88 401 92Q430 96 455.5 112.5Q481 129 499 162Q517 195 517 252V750H622V239Q622 184 608.5 144.5Q595 105 572.5 77Q550 49 521 31.5Q492 14 462 4Q432 -6 403 -9.5Q374 -13 351 -13Q328 -13 299 -9.5Q270 -6 240 4Q210 14 181 31.5Q152 49 129.5 77Q107 105 93.5 145Q80 185 80 239V750H185V252Q185 195 203 162Q221 129 246.5 112.5Q272 96 301 92Q330 88 351 88Z" glyph-name="Ubreve" horiz-adv-x="702" unicode="&#364;" /><glyph d="M473 825 351 930 229 825H173L298 1000H404L529 825ZM351 88Q372 88 401 92Q430 96 455.5 112.5Q481 129 499 162Q517 195 517 252V750H622V239Q622 184 608.5 144.5Q595 105 572.5 77Q550 49 521 31.5Q492 14 462 4Q432 -6 403 -9.5Q374 -13 351 -13Q328 -13 299 -9.5Q270 -6 240 4Q210 14 181 31.5Q152 49 129.5 77Q107 105 93.5 145Q80 185 80 239V750H185V252Q185 195 203 162Q221 129 246.5 112.5Q272 96 301 92Q330 88 351 88Z" glyph-name="Ucircumflex" horiz-adv-x="702" unicode="&#219;" /><glyph d="M171 917Q171 946 191.5 966.5Q212 987 241 987Q270 987 290.5 966.5Q311 946 311 917Q311 888 290.5 867.5Q270 847 241 847Q212 847 191.5 867.5Q171 888 171 917ZM391 917Q391 946 411.5 966.5Q432 987 461 987Q490 987 510.5 966.5Q531 946 531 917Q531 888 510.5 867.5Q490 847 461 847Q432 847 411.5 867.5Q391 888 391 917ZM351 88Q372 88 401 92Q430 96 455.5 112.5Q481 129 499 162Q517 195 517 252V750H622V239Q622 184 608.5 144.5Q595 105 572.5 77Q550 49 521 31.5Q492 14 462 4Q432 -6 403 -9.5Q374 -13 351 -13Q328 -13 299 -9.5Q270 -6 240 4Q210 14 181 31.5Q152 49 129.5 77Q107 105 93.5 145Q80 185 80 239V750H185V252Q185 195 203 162Q221 129 246.5 112.5Q272 96 301 92Q330 88 351 88Z" glyph-name="Udieresis" horiz-adv-x="702" unicode="&#220;" /><glyph d="M323 825 178 1000H299L379 825ZM351 88Q372 88 401 92Q430 96 455.5 112.5Q481 129 499 162Q517 195 517 252V750H622V239Q622 184 608.5 144.5Q595 105 572.5 77Q550 49 521 31.5Q492 14 462 4Q432 -6 403 -9.5Q374 -13 351 -13Q328 -13 299 -9.5Q270 -6 240 4Q210 14 181 31.5Q152 49 129.5 77Q107 105 93.5 145Q80 185 80 239V750H185V252Q185 195 203 162Q221 129 246.5 112.5Q272 96 301 92Q330 88 351 88Z" glyph-name="Ugrave" horiz-adv-x="702" unicode="&#217;" /><glyph d="M409 825 489 1000H610L465 825ZM232 825 312 1000H434L289 825ZM351 88Q372 88 401 92Q430 96 455.5 112.5Q481 129 499 162Q517 195 517 252V750H622V239Q622 184 608.5 144.5Q595 105 572.5 77Q550 49 521 31.5Q492 14 462 4Q432 -6 403 -9.5Q374 -13 351 -13Q328 -13 299 -9.5Q270 -6 240 4Q210 14 181 31.5Q152 49 129.5 77Q107 105 93.5 145Q80 185 80 239V750H185V252Q185 195 203 162Q221 129 246.5 112.5Q272 96 301 92Q330 88 351 88Z" glyph-name="Uhungarumlaut" horiz-adv-x="702" unicode="&#368;" /><glyph d="M214 891V982H488V891ZM351 88Q372 88 401 92Q430 96 455.5 112.5Q481 129 499 162Q517 195 517 252V750H622V239Q622 184 608.5 144.5Q595 105 572.5 77Q550 49 521 31.5Q492 14 462 4Q432 -6 403 -9.5Q374 -13 351 -13Q328 -13 299 -9.5Q270 -6 240 4Q210 14 181 31.5Q152 49 129.5 77Q107 105 93.5 145Q80 185 80 239V750H185V252Q185 195 203 162Q221 129 246.5 112.5Q272 96 301 92Q330 88 351 88Z" glyph-name="Umacron" horiz-adv-x="702" unicode="&#362;" /><glyph d="M351 88Q372 88 401 92Q430 96 455.5 112.5Q481 129 499 162Q517 195 517 252V750H622V239Q622 181 607 140Q592 99 567 70.5Q542 42 511 25.5Q480 9 448 0Q406 -19 377 -46Q348 -73 348 -110Q348 -133 362 -144.5Q376 -156 399 -156Q420 -156 436.5 -153Q453 -150 462 -147V-215Q450 -220 429.5 -225Q409 -230 377 -230Q354 -230 333 -224Q312 -218 295.5 -205Q279 -192 269 -172.5Q259 -153 259 -126Q259 -101 271.5 -71.5Q284 -42 322 -12Q286 -9 243.5 2.5Q201 14 165 42Q129 70 104.5 117.5Q80 165 80 239V750H185V252Q185 195 203 162Q221 129 246.5 112.5Q272 96 301 92Q330 88 351 88Z" glyph-name="Uogonek" horiz-adv-x="702" unicode="&#370;" /><glyph d="M395 912Q395 938 383.5 947.5Q372 957 351 957Q329 957 318 947.5Q307 938 307 912Q307 888 318 878.5Q329 869 351 869Q372 869 383.5 878.5Q395 888 395 912ZM452 912Q452 860 424 836Q396 812 351 812Q305 812 277 836Q249 860 249 912Q249 965 277 989Q305 1013 351 1013Q396 1013 424 989Q452 965 452 912ZM351 88Q372 88 401 92Q430 96 455.5 112.5Q481 129 499 162Q517 195 517 252V750H622V239Q622 184 608.5 144.5Q595 105 572.5 77Q550 49 521 31.5Q492 14 462 4Q432 -6 403 -9.5Q374 -13 351 -13Q328 -13 299 -9.5Q270 -6 240 4Q210 14 181 31.5Q152 49 129.5 77Q107 105 93.5 145Q80 185 80 239V750H185V252Q185 195 203 162Q221 129 246.5 112.5Q272 96 301 92Q330 88 351 88Z" glyph-name="Uring" horiz-adv-x="702" unicode="&#366;" /><glyph d="M546 974Q545 834 421 837Q390 837 371 847Q352 857 338 868.5Q324 880 311.5 889.5Q299 899 281 899Q266 899 257 894Q248 889 243.5 881.5Q239 874 237.5 864Q236 854 236 844L156 851Q158 923 188 956.5Q218 990 281 989Q312 988 331 978Q350 968 364 956.5Q378 945 390.5 935.5Q403 926 421 926Q436 926 445 931Q454 936 458.5 944Q463 952 464.5 961.5Q466 971 466 981ZM351 88Q372 88 401 92Q430 96 455.5 112.5Q481 129 499 162Q517 195 517 252V750H622V239Q622 184 608.5 144.5Q595 105 572.5 77Q550 49 521 31.5Q492 14 462 4Q432 -6 403 -9.5Q374 -13 351 -13Q328 -13 299 -9.5Q270 -6 240 4Q210 14 181 31.5Q152 49 129.5 77Q107 105 93.5 145Q80 185 80 239V750H185V252Q185 195 203 162Q221 129 246.5 112.5Q272 96 301 92Q330 88 351 88Z" glyph-name="Utilde" horiz-adv-x="702" unicode="&#360;" /><glyph d="M530 750H645L379 -13H306L40 750H155L343 163Z" glyph-name="V" horiz-adv-x="685" unicode="V" /><glyph d="M403 750H504L650 180L755 750H868L702 -13H605L454 580L302 -13H206L40 750H153L258 181Z" glyph-name="W" horiz-adv-x="908" unicode="W" /><glyph d="M576 825 454 930 332 825H276L401 1000H507L632 825ZM403 750H504L650 180L755 750H868L702 -13H605L454 580L302 -13H206L40 750H153L258 181Z" glyph-name="Wcircumflex" horiz-adv-x="908" unicode="&#372;" /><glyph d="M524 750H652L409 380L657 0H526L346 300L166 0H35L283 380L40 750H168L346 457Z" glyph-name="X" horiz-adv-x="692" unicode="X" /><glyph d="M415 309V0H311V309L40 750H166L363 400L560 750H686Z" glyph-name="Y" horiz-adv-x="726" unicode="Y" /><glyph d="M335 825 415 1000H536L391 825ZM415 309V0H311V309L40 750H166L363 400L560 750H686Z" glyph-name="Yacute" horiz-adv-x="726" unicode="&#221;" /><glyph d="M485 825 363 930 241 825H185L310 1000H416L541 825ZM415 309V0H311V309L40 750H166L363 400L560 750H686Z" glyph-name="Ycircumflex" horiz-adv-x="726" unicode="&#374;" /><glyph d="M183 917Q183 946 203.5 966.5Q224 987 253 987Q282 987 302.5 966.5Q323 946 323 917Q323 888 302.5 867.5Q282 847 253 847Q224 847 203.5 867.5Q183 888 183 917ZM403 917Q403 946 423.5 966.5Q444 987 473 987Q502 987 522.5 966.5Q543 946 543 917Q543 888 522.5 867.5Q502 847 473 847Q444 847 423.5 867.5Q403 888 403 917ZM415 309V0H311V309L40 750H166L363 400L560 750H686Z" glyph-name="Ydieresis" horiz-adv-x="726" unicode="&#376;" /><glyph d="M50 0V68L436 650H69V750H578V682L191 100H592V0Z" glyph-name="Z" horiz-adv-x="642" unicode="Z" /><glyph d="M288 825 368 1000H489L344 825ZM50 0V68L436 650H69V750H578V682L191 100H592V0Z" glyph-name="Zacute" horiz-adv-x="642" unicode="&#377;" /><glyph d="M494 1000 369 825H263L138 1000H194L316 895L438 1000ZM50 0V68L436 650H69V750H578V682L191 100H592V0Z" glyph-name="Zcaron" horiz-adv-x="642" unicode="&#381;" /><glyph d="M246 917Q246 946 266.5 966.5Q287 987 316 987Q345 987 365.5 966.5Q386 946 386 917Q386 888 365.5 867.5Q345 847 316 847Q287 847 266.5 867.5Q246 888 246 917ZM50 0V68L436 650H69V750H578V682L191 100H592V0Z" glyph-name="Zdotaccent" horiz-adv-x="642" unicode="&#379;" /><glyph d="M239 234Q215 232 199.5 224.5Q184 217 175 206.5Q166 196 162 183.5Q158 171 158 158Q158 145 160.5 131.5Q163 118 171 107Q179 96 195.5 89Q212 82 239 82Q271 82 302 91.5Q333 101 353 113V244ZM353 338Q353 379 334 398.5Q315 418 261 418Q239 418 214.5 415.5Q190 413 167 408.5Q144 404 123.5 398.5Q103 393 90 388V483Q105 490 126.5 495.5Q148 501 172 505Q196 509 219.5 511Q243 513 261 513Q319 513 356.5 500.5Q394 488 416 465Q438 442 446.5 410Q455 378 455 339V0H386L377 26Q346 7 308 -3Q270 -13 237 -13Q185 -13 150 1.5Q115 16 94 40Q73 64 64 94.5Q55 125 55 158Q55 188 63 215Q71 242 92 263.5Q113 285 148.5 299.5Q184 314 240 319L353 328Z" glyph-name="a" horiz-adv-x="525" unicode="a" /><glyph d="M223 197H348L286 362ZM424 0 381 112H190L148 0H40L251 513H321L532 0Z" glyph-name="a.smcp" horiz-adv-x="572" /><glyph d="M233 575 313 750H434L289 575ZM239 234Q215 232 199.5 224.5Q184 217 175 206.5Q166 196 162 183.5Q158 171 158 158Q158 145 160.5 131.5Q163 118 171 107Q179 96 195.5 89Q212 82 239 82Q271 82 302 91.5Q333 101 353 113V244ZM353 338Q353 379 334 398.5Q315 418 261 418Q239 418 214.5 415.5Q190 413 167 408.5Q144 404 123.5 398.5Q103 393 90 388V483Q105 490 126.5 495.5Q148 501 172 505Q196 509 219.5 511Q243 513 261 513Q319 513 356.5 500.5Q394 488 416 465Q438 442 446.5 410Q455 378 455 339V0H386L377 26Q346 7 308 -3Q270 -13 237 -13Q185 -13 150 1.5Q115 16 94 40Q73 64 64 94.5Q55 125 55 158Q55 188 63 215Q71 242 92 263.5Q113 285 148.5 299.5Q184 314 240 319L353 328Z" glyph-name="aacute" horiz-adv-x="525" unicode="&#225;" /><glyph d="M223 197H348L286 362ZM258 575 338 750H459L314 575ZM424 0 381 112H190L148 0H40L251 513H321L532 0Z" glyph-name="aacute.smcp" horiz-adv-x="572" /><glyph d="M261 572Q225 572 195 582.5Q165 593 142.5 614.5Q120 636 107 669.5Q94 703 93 750H160Q161 723 166 705.5Q171 688 182.5 677.5Q194 667 213 662.5Q232 658 261 658Q290 658 309 662.5Q328 667 339.5 677.5Q351 688 356 705.5Q361 723 362 750H429Q428 703 415 669.5Q402 636 379.5 614.5Q357 593 327 582.5Q297 572 261 572ZM239 234Q215 232 199.5 224.5Q184 217 175 206.5Q166 196 162 183.5Q158 171 158 158Q158 145 160.5 131.5Q163 118 171 107Q179 96 195.5 89Q212 82 239 82Q271 82 302 91.5Q333 101 353 113V244ZM353 338Q353 379 334 398.5Q315 418 261 418Q239 418 214.5 415.5Q190 413 167 408.5Q144 404 123.5 398.5Q103 393 90 388V483Q105 490 126.5 495.5Q148 501 172 505Q196 509 219.5 511Q243 513 261 513Q319 513 356.5 500.5Q394 488 416 465Q438 442 446.5 410Q455 378 455 339V0H386L377 26Q346 7 308 -3Q270 -13 237 -13Q185 -13 150 1.5Q115 16 94 40Q73 64 64 94.5Q55 125 55 158Q55 188 63 215Q71 242 92 263.5Q113 285 148.5 299.5Q184 314 240 319L353 328Z" glyph-name="abreve" horiz-adv-x="525" unicode="&#259;" /><glyph d="M286 572Q250 572 220 582.5Q190 593 167.5 614.5Q145 636 132 669.5Q119 703 118 750H185Q186 723 191 705.5Q196 688 207.5 677.5Q219 667 238 662.5Q257 658 286 658Q315 658 334 662.5Q353 667 364.5 677.5Q376 688 381 705.5Q386 723 387 750H454Q453 703 440 669.5Q427 636 404.5 614.5Q382 593 352 582.5Q322 572 286 572ZM223 197H348L286 362ZM424 0 381 112H190L148 0H40L251 513H321L532 0Z" glyph-name="abreve.smcp" horiz-adv-x="572" /><glyph d="M239 234Q215 232 199.5 224.5Q184 217 175 206.5Q166 196 162 183.5Q158 171 158 158Q158 145 160.5 131.5Q163 118 171 107Q179 96 195.5 89Q212 82 239 82Q271 82 302 91.5Q333 101 353 113V244ZM383 575 261 680 139 575H83L208 750H314L439 575ZM353 338Q353 379 334 398.5Q315 418 261 418Q239 418 214.5 415.5Q190 413 167 408.5Q144 404 123.5 398.5Q103 393 90 388V483Q105 490 126.5 495.5Q148 501 172 505Q196 509 219.5 511Q243 513 261 513Q319 513 356.5 500.5Q394 488 416 465Q438 442 446.5 410Q455 378 455 339V0H386L377 26Q346 7 308 -3Q270 -13 237 -13Q185 -13 150 1.5Q115 16 94 40Q73 64 64 94.5Q55 125 55 158Q55 188 63 215Q71 242 92 263.5Q113 285 148.5 299.5Q184 314 240 319L353 328Z" glyph-name="acircumflex" horiz-adv-x="525" unicode="&#226;" /><glyph d="M223 197H348L286 362ZM408 575 286 680 164 575H108L233 750H339L464 575ZM424 0 381 112H190L148 0H40L251 513H321L532 0Z" glyph-name="acircumflex.smcp" horiz-adv-x="572" /><glyph d="M252 575 332 750H453L308 575Z" glyph-name="acute" horiz-adv-x="540" unicode="&#180;" /><glyph d="M301 667Q301 696 321.5 716.5Q342 737 371 737Q400 737 420.5 716.5Q441 696 441 667Q441 638 420.5 617.5Q400 597 371 597Q342 597 321.5 617.5Q301 638 301 667ZM81 667Q81 696 101.5 716.5Q122 737 151 737Q180 737 200.5 716.5Q221 696 221 667Q221 638 200.5 617.5Q180 597 151 597Q122 597 101.5 617.5Q81 638 81 667ZM239 234Q215 232 199.5 224.5Q184 217 175 206.5Q166 196 162 183.5Q158 171 158 158Q158 145 160.5 131.5Q163 118 171 107Q179 96 195.5 89Q212 82 239 82Q271 82 302 91.5Q333 101 353 113V244ZM353 338Q353 379 334 398.5Q315 418 261 418Q239 418 214.5 415.5Q190 413 167 408.5Q144 404 123.5 398.5Q103 393 90 388V483Q105 490 126.5 495.5Q148 501 172 505Q196 509 219.5 511Q243 513 261 513Q319 513 356.5 500.5Q394 488 416 465Q438 442 446.5 410Q455 378 455 339V0H386L377 26Q346 7 308 -3Q270 -13 237 -13Q185 -13 150 1.5Q115 16 94 40Q73 64 64 94.5Q55 125 55 158Q55 188 63 215Q71 242 92 263.5Q113 285 148.5 299.5Q184 314 240 319L353 328Z" glyph-name="adieresis" horiz-adv-x="525" unicode="&#228;" /><glyph d="M223 197H348L286 362ZM106 667Q106 696 126.5 716.5Q147 737 176 737Q205 737 225.5 716.5Q246 696 246 667Q246 638 225.5 617.5Q205 597 176 597Q147 597 126.5 617.5Q106 638 106 667ZM326 667Q326 696 346.5 716.5Q367 737 396 737Q425 737 445.5 716.5Q466 696 466 667Q466 638 445.5 617.5Q425 597 396 597Q367 597 346.5 617.5Q326 638 326 667ZM424 0 381 112H190L148 0H40L251 513H321L532 0Z" glyph-name="adieresis.smcp" horiz-adv-x="572" /><glyph d="M571 416Q540 416 519.5 406.5Q499 397 487 380.5Q475 364 469 342.5Q463 321 460 297H664Q663 321 659.5 343Q656 365 646.5 381Q637 397 619 406.5Q601 416 571 416ZM235 207Q187 207 170 191Q153 175 153 149Q153 136 157 124.5Q161 113 171 104Q181 95 199 89.5Q217 84 246 84Q281 84 313 94.5Q345 105 365 122L372 126Q367 144 363.5 165.5Q360 187 358 207ZM357 336Q357 378 334 397Q311 416 254 416Q207 416 165.5 406.5Q124 397 88 385V479Q126 496 172 503Q218 510 254 510Q317 510 356.5 497.5Q396 485 419 457Q445 483 481 496.5Q517 510 571 510Q637 510 675.5 489.5Q714 469 734 434Q754 399 760 351.5Q766 304 766 250V207H460Q462 182 467.5 160Q473 138 485.5 121Q498 104 518.5 94Q539 84 571 84Q619 84 657.5 92Q696 100 743 120V24Q695 2 650.5 -4Q606 -10 571 -10Q517 -10 479.5 4.5Q442 19 416 45L401 34Q367 10 324.5 0Q282 -10 244 -10Q192 -10 155.5 2Q119 14 95.5 35.5Q72 57 61 86Q50 115 50 149Q50 179 58 206Q66 233 87.5 253.5Q109 274 146 285.5Q183 297 240 297H357Z" glyph-name="ae" horiz-adv-x="826" unicode="&#230;" /><glyph d="M363 303V390L307 303ZM677 209H462V94H710V0H363V209H246L112 0H-1L328 500H710V406H462V303H677Z" glyph-name="ae.smcp" horiz-adv-x="780" /><glyph d="M1140 292H60V390H1140Z" glyph-name="afii00208" horiz-adv-x="1200" unicode="&#8213;" /><glyph d="M233 575 88 750H209L289 575ZM239 234Q215 232 199.5 224.5Q184 217 175 206.5Q166 196 162 183.5Q158 171 158 158Q158 145 160.5 131.5Q163 118 171 107Q179 96 195.5 89Q212 82 239 82Q271 82 302 91.5Q333 101 353 113V244ZM353 338Q353 379 334 398.5Q315 418 261 418Q239 418 214.5 415.5Q190 413 167 408.5Q144 404 123.5 398.5Q103 393 90 388V483Q105 490 126.5 495.5Q148 501 172 505Q196 509 219.5 511Q243 513 261 513Q319 513 356.5 500.5Q394 488 416 465Q438 442 446.5 410Q455 378 455 339V0H386L377 26Q346 7 308 -3Q270 -13 237 -13Q185 -13 150 1.5Q115 16 94 40Q73 64 64 94.5Q55 125 55 158Q55 188 63 215Q71 242 92 263.5Q113 285 148.5 299.5Q184 314 240 319L353 328Z" glyph-name="agrave" horiz-adv-x="525" unicode="&#224;" /><glyph d="M223 197H348L286 362ZM258 575 113 750H234L314 575ZM424 0 381 112H190L148 0H40L251 513H321L532 0Z" glyph-name="agrave.smcp" horiz-adv-x="572" /><glyph d="M124 641V732H398V641ZM239 234Q215 232 199.5 224.5Q184 217 175 206.5Q166 196 162 183.5Q158 171 158 158Q158 145 160.5 131.5Q163 118 171 107Q179 96 195.5 89Q212 82 239 82Q271 82 302 91.5Q333 101 353 113V244ZM353 338Q353 379 334 398.5Q315 418 261 418Q239 418 214.5 415.5Q190 413 167 408.5Q144 404 123.5 398.5Q103 393 90 388V483Q105 490 126.5 495.5Q148 501 172 505Q196 509 219.5 511Q243 513 261 513Q319 513 356.5 500.5Q394 488 416 465Q438 442 446.5 410Q455 378 455 339V0H386L377 26Q346 7 308 -3Q270 -13 237 -13Q185 -13 150 1.5Q115 16 94 40Q73 64 64 94.5Q55 125 55 158Q55 188 63 215Q71 242 92 263.5Q113 285 148.5 299.5Q184 314 240 319L353 328Z" glyph-name="amacron" horiz-adv-x="525" unicode="&#257;" /><glyph d="M149 641V732H423V641ZM223 197H348L286 362ZM424 0 381 112H190L148 0H40L251 513H321L532 0Z" glyph-name="amacron.smcp" horiz-adv-x="572" /><glyph d="M335 82Q346 82 358.5 83Q371 84 379 86V87Q316 135 273 199Q230 263 201 332Q182 318 168 291.5Q154 265 154 228Q154 189 167.5 161.5Q181 134 205 116.5Q229 99 262.5 90.5Q296 82 335 82ZM392 574Q397 589 399.5 602Q402 615 402 626Q402 633 400 640Q398 647 391 652.5Q384 658 372 661.5Q360 665 339 665Q313 665 297 655.5Q281 646 272 631Q263 616 259.5 598.5Q256 581 256 565Q256 521 269 461Q282 401 311 339.5Q340 278 385.5 223Q431 168 496 133Q530 156 551.5 195.5Q573 235 573 289Q573 359 544.5 387.5Q516 416 473 416Q433 416 403.5 410.5Q374 405 339 392V490Q381 504 411.5 508.5Q442 513 473 513Q517 513 554.5 500Q592 487 619 460Q646 433 661.5 390.5Q677 348 677 289Q677 229 655.5 180Q634 131 601 96V95Q638 89 691 89V-13Q631 -13 583.5 -4Q536 5 496 21Q416 -13 335 -13Q273 -13 221 0Q169 13 131 42Q93 71 71.5 117Q50 163 50 228Q50 265 59.5 296.5Q69 328 85.5 353.5Q102 379 124 398Q146 417 170 431Q161 468 157 499.5Q153 531 153 565Q153 597 162 632Q171 667 193 696Q215 725 250.5 744Q286 763 339 763Q387 763 418.5 752Q450 741 468.5 722Q487 703 494 678Q501 653 501 626Q501 615 498.5 600Q496 585 492 574Z" glyph-name="ampersand" horiz-adv-x="731" unicode="&amp;" /><glyph d="M239 234Q215 232 199.5 224.5Q184 217 175 206.5Q166 196 162 183.5Q158 171 158 158Q158 145 160.5 131.5Q163 118 171 107Q179 96 195.5 89Q212 82 239 82Q271 82 302 91.5Q333 101 353 113V244ZM353 338Q353 379 334 398.5Q315 418 261 418Q239 418 214.5 415.5Q190 413 167 408.5Q144 404 123.5 398.5Q103 393 90 388V483Q105 490 126.5 495.5Q148 501 172 505Q196 509 219.5 511Q243 513 261 513Q319 513 356.5 500.5Q394 488 416 465Q438 442 446.5 410Q455 378 455 339V0Q413 -19 383.5 -46Q354 -73 354 -110Q354 -133 368 -144.5Q382 -156 405 -156Q426 -156 442.5 -153Q459 -150 468 -147V-215Q456 -220 435.5 -225Q415 -230 383 -230Q360 -230 339 -224Q318 -218 301.5 -205Q285 -192 275 -172.5Q265 -153 265 -126Q265 -89 291 -52Q317 -15 380 17L377 26Q346 7 308 -3Q270 -13 237 -13Q185 -13 150 1.5Q115 16 94 40Q73 64 64 94.5Q55 125 55 158Q55 188 63 215Q71 242 92 263.5Q113 285 148.5 299.5Q184 314 240 319L353 328Z" glyph-name="aogonek" horiz-adv-x="525" unicode="&#261;" /><glyph d="M223 197H348L286 362ZM532 0Q490 -19 460.5 -46Q431 -73 431 -110Q431 -133 445 -144.5Q459 -156 482 -156Q503 -156 519.5 -153Q536 -150 545 -147V-215Q533 -220 512.5 -225Q492 -230 460 -230Q437 -230 416 -224Q395 -218 378.5 -205Q362 -192 352 -172.5Q342 -153 342 -126Q342 -98 358.5 -65Q375 -32 423 1L381 112H190L148 0H40L251 513H321Z" glyph-name="aogonek.smcp" horiz-adv-x="572" /><glyph d="M204 193 261 250 204 307 273 376 330 319 387 376 456 307 399 250 456 193 387 124 330 181 273 124ZM185 400V100H475V400ZM80 500H580V0H80Z" glyph-name="approxequal" horiz-adv-x="660" unicode="&#8776;" /><glyph d="M305 662Q305 688 293.5 697.5Q282 707 261 707Q239 707 228 697.5Q217 688 217 662Q217 638 228 628.5Q239 619 261 619Q282 619 293.5 628.5Q305 638 305 662ZM239 234Q215 232 199.5 224.5Q184 217 175 206.5Q166 196 162 183.5Q158 171 158 158Q158 145 160.5 131.5Q163 118 171 107Q179 96 195.5 89Q212 82 239 82Q271 82 302 91.5Q333 101 353 113V244ZM362 662Q362 610 334 586Q306 562 261 562Q215 562 187 586Q159 610 159 662Q159 715 187 739Q215 763 261 763Q306 763 334 739Q362 715 362 662ZM353 338Q353 379 334 398.5Q315 418 261 418Q239 418 214.5 415.5Q190 413 167 408.5Q144 404 123.5 398.5Q103 393 90 388V483Q105 490 126.5 495.5Q148 501 172 505Q196 509 219.5 511Q243 513 261 513Q319 513 356.5 500.5Q394 488 416 465Q438 442 446.5 410Q455 378 455 339V0H386L377 26Q346 7 308 -3Q270 -13 237 -13Q185 -13 150 1.5Q115 16 94 40Q73 64 64 94.5Q55 125 55 158Q55 188 63 215Q71 242 92 263.5Q113 285 148.5 299.5Q184 314 240 319L353 328Z" glyph-name="aring" horiz-adv-x="525" unicode="&#229;" /><glyph d="M330 662Q330 688 318.5 697.5Q307 707 286 707Q264 707 253 697.5Q242 688 242 662Q242 638 253 628.5Q264 619 286 619Q307 619 318.5 628.5Q330 638 330 662ZM223 197H348L286 362ZM387 662Q387 610 359 586Q331 562 286 562Q240 562 212 586Q184 610 184 662Q184 715 212 739Q240 763 286 763Q331 763 359 739Q387 715 387 662ZM424 0 381 112H190L148 0H40L251 513H321L532 0Z" glyph-name="aring.smcp" horiz-adv-x="572" /><glyph d="M333 750 513 500H447L280 677L113 500H47L227 750Z" glyph-name="asciicircum" horiz-adv-x="540" unicode="^" /><glyph d="M335 327Q316 341 298.5 347.5Q281 354 260 354Q241 354 226.5 344Q212 334 197 322Q182 310 163 300Q144 290 116 290Q90 290 68.5 302Q47 314 35 326V404Q54 390 71.5 383.5Q89 377 110 377Q129 377 143.5 387Q158 397 173 409Q188 421 207 431Q226 441 254 441Q280 441 301.5 429Q323 417 335 405Z" glyph-name="asciitilde" horiz-adv-x="370" unicode="~" /><glyph d="M250 617 373 676 404 566 275 543 368 445 274 381 211 497 148 378 57 447 146 543 16 566 51 675 172 617 153 750H269Z" glyph-name="asterisk" horiz-adv-x="420" unicode="*" /><glyph d="M600 394Q578 405 551 411.5Q524 418 487 418Q450 418 428 404.5Q406 391 394 368Q382 345 378 314.5Q374 284 374 250Q374 216 378 185.5Q382 155 394 132Q406 109 428 95.5Q450 82 487 82Q524 82 551 88.5Q578 95 600 106ZM634 0 624 28Q590 9 556.5 -2Q523 -13 487 -13Q424 -13 382 6Q340 25 315 59.5Q290 94 280 142.5Q270 191 270 250Q270 309 280 357.5Q290 406 315 440.5Q340 475 382 494Q424 513 487 513Q523 513 556.5 502Q590 491 624 472L634 500H701V95Q746 98 775 116Q804 134 821 165Q838 196 844.5 239.5Q851 283 851 338Q851 407 841 467Q831 527 796 571.5Q761 616 693.5 641Q626 666 511 666Q434 666 378 649.5Q322 633 283 604Q244 575 220.5 535.5Q197 496 183.5 450Q170 404 165.5 353Q161 302 161 250Q161 198 165.5 147Q170 96 183.5 50Q197 4 220.5 -35.5Q244 -75 283 -104Q322 -133 378 -149.5Q434 -166 511 -166Q591 -166 653 -152.5Q715 -139 766 -114L767 -224Q715 -243 652 -253Q589 -263 511 -263Q414 -263 342.5 -243Q271 -223 220.5 -187.5Q170 -152 137.5 -103.5Q105 -55 87 2Q69 59 62 122Q55 185 55 250Q55 315 62 378Q69 441 87 498Q105 555 137.5 603.5Q170 652 220.5 687.5Q271 723 342.5 743Q414 763 511 763Q608 763 678.5 748Q749 733 798.5 705.5Q848 678 879 639.5Q910 601 927.5 554Q945 507 951 452Q957 397 957 338Q957 261 945 199Q933 137 903.5 92.5Q874 48 823.5 24Q773 0 696 0Z" glyph-name="at" horiz-adv-x="1012" unicode="@" /><glyph d="M461 724Q460 584 336 587Q305 587 286 597Q267 607 253 618.5Q239 630 226.5 639.5Q214 649 196 649Q181 649 172 644Q163 639 158.5 631.5Q154 624 152.5 614Q151 604 151 594L71 601Q73 673 103 706.5Q133 740 196 739Q227 738 246 728Q265 718 279 706.5Q293 695 305.5 685.5Q318 676 336 676Q351 676 360 681Q369 686 373.5 694Q378 702 379.5 711.5Q381 721 381 731ZM239 234Q215 232 199.5 224.5Q184 217 175 206.5Q166 196 162 183.5Q158 171 158 158Q158 145 160.5 131.5Q163 118 171 107Q179 96 195.5 89Q212 82 239 82Q271 82 302 91.5Q333 101 353 113V244ZM353 338Q353 379 334 398.5Q315 418 261 418Q239 418 214.5 415.5Q190 413 167 408.5Q144 404 123.5 398.5Q103 393 90 388V483Q105 490 126.5 495.5Q148 501 172 505Q196 509 219.5 511Q243 513 261 513Q319 513 356.5 500.5Q394 488 416 465Q438 442 446.5 410Q455 378 455 339V0H386L377 26Q346 7 308 -3Q270 -13 237 -13Q185 -13 150 1.5Q115 16 94 40Q73 64 64 94.5Q55 125 55 158Q55 188 63 215Q71 242 92 263.5Q113 285 148.5 299.5Q184 314 240 319L353 328Z" glyph-name="atilde" horiz-adv-x="525" unicode="&#227;" /><glyph d="M481 724Q480 584 356 587Q325 587 306 597Q287 607 273 618.5Q259 630 246.5 639.5Q234 649 216 649Q201 649 192 644Q183 639 178.5 631.5Q174 624 172.5 614Q171 604 171 594L91 601Q93 673 123 706.5Q153 740 216 739Q247 738 266 728Q285 718 299 706.5Q313 695 325.5 685.5Q338 676 356 676Q371 676 380 681Q389 686 393.5 694Q398 702 399.5 711.5Q401 721 401 731ZM223 197H348L286 362ZM424 0 381 112H190L148 0H40L251 513H321L532 0Z" glyph-name="atilde.smcp" horiz-adv-x="572" /><glyph d="M208 408Q184 402 171 395V106Q193 95 220 88.5Q247 82 284 82Q321 82 343 95.5Q365 109 377 132Q389 155 393 185.5Q397 216 397 250Q397 284 393 314.5Q389 345 377 368Q365 391 343 404.5Q321 418 284 418Q260 418 241.5 415Q223 412 208 408ZM70 750H171V486Q201 500 227.5 506.5Q254 513 284 513Q347 513 389 494Q431 475 456 440.5Q481 406 491 357.5Q501 309 501 250Q501 191 491 142.5Q481 94 456 59.5Q431 25 389 6Q347 -13 284 -13Q248 -13 214.5 -2Q181 9 147 28L137 0H70Z" glyph-name="b" horiz-adv-x="561" unicode="b" /><glyph d="M305 315Q335 315 344 327Q353 339 353 360Q353 381 343 393Q333 405 300 405H183V315ZM371 161Q371 190 358.5 208Q346 226 306 226H183V96H306Q346 96 358.5 114Q371 132 371 161ZM85 500H296Q341 500 371 491Q401 482 419 464Q437 446 444.5 420.5Q452 395 452 362Q452 338 442.5 312.5Q433 287 416 278Q444 264 459 229.5Q474 195 474 158Q474 124 465.5 95Q457 66 437 45Q417 24 384 12Q351 0 302 0H85Z" glyph-name="b.smcp" horiz-adv-x="529" /><glyph d="M351 -206 0 816H107L458 -206Z" glyph-name="backslash" horiz-adv-x="458" unicode="\" /><glyph d="M202 -206H97V816H202Z" glyph-name="bar" horiz-adv-x="299" unicode="|" /><glyph d="M185 382Q186 359 178.5 340Q171 321 157 305Q171 288 178.5 269Q186 250 185 228L167 -83Q165 -103 188 -103H222V-206H188Q159 -206 134.5 -199Q110 -192 93 -177Q76 -162 67.5 -138.5Q59 -115 61 -81L78 233Q80 252 60 254H28V356H56Q80 356 78 377L61 691Q59 725 67.5 748.5Q76 772 93 787Q110 802 134.5 809Q159 816 188 816H222V713H188Q165 713 167 693Z" glyph-name="braceleft" horiz-adv-x="262" unicode="{" /><glyph d="M95 693Q97 713 74 713H40V816H74Q103 816 127.5 809Q152 802 169 787Q186 772 194.5 748.5Q203 725 201 691L184 377Q182 356 206 356H234V254H206Q182 254 184 233L201 -81Q203 -115 194.5 -138.5Q186 -162 169 -177Q152 -192 127.5 -199Q103 -206 74 -206H40V-103H74Q97 -103 95 -83L77 228Q75 250 83 269Q91 288 104 305Q91 321 83 340Q75 359 77 382Z" glyph-name="braceright" horiz-adv-x="262" unicode="}" /><glyph d="M180 -106H244V-206H75V816H244V716H180Z" glyph-name="bracketleft" horiz-adv-x="284" unicode="[" /><glyph d="M104 716H40V816H209V-206H40V-106H104Z" glyph-name="bracketright" horiz-adv-x="284" unicode="]" /><glyph d="M270 572Q234 572 204 582.5Q174 593 151.5 614.5Q129 636 116 669.5Q103 703 102 750H169Q170 723 175 705.5Q180 688 191.5 677.5Q203 667 222 662.5Q241 658 270 658Q299 658 318 662.5Q337 667 348.5 677.5Q360 688 365 705.5Q370 723 371 750H438Q437 703 424 669.5Q411 636 388.5 614.5Q366 593 336 582.5Q306 572 270 572Z" glyph-name="breve" horiz-adv-x="540" unicode="&#728;" /><glyph d="M202 -206H97V256H202ZM97 816H202V354H97Z" glyph-name="brokenbar" horiz-adv-x="299" unicode="&#166;" /><glyph d="M65 375Q65 403 75.5 427.5Q86 452 104.5 470.5Q123 489 147.5 499.5Q172 510 200 510Q228 510 252.5 499.5Q277 489 295.5 470.5Q314 452 324.5 427.5Q335 403 335 375Q335 347 324.5 322.5Q314 298 295.5 279.5Q277 261 252.5 250.5Q228 240 200 240Q172 240 147.5 250.5Q123 261 104.5 279.5Q86 298 75.5 322.5Q65 347 65 375Z" glyph-name="bullet" horiz-adv-x="400" unicode="&#8226;" /><glyph d="M164 250Q164 216 169 185.5Q174 155 187 132Q200 109 223 95.5Q246 82 283 82Q330 82 366.5 90Q403 98 440 111V16Q405 -1 361.5 -7Q318 -13 283 -13Q220 -13 177 6Q134 25 108 59.5Q82 94 71 142.5Q60 191 60 250Q60 309 71 357.5Q82 406 108 440.5Q134 475 177 494Q220 513 283 513Q318 513 361.5 507Q405 501 440 484V389Q403 402 366.5 410Q330 418 283 418Q246 418 223 404.5Q200 391 187 368Q174 345 169 314.5Q164 284 164 250Z" glyph-name="c" horiz-adv-x="493" unicode="c" /><glyph d="M70 250Q70 304 83.5 352Q97 400 125.5 435.5Q154 471 199 492Q244 513 308 513Q343 513 384.5 509.5Q426 506 465 489V395Q428 407 391 412.5Q354 418 307 418Q268 418 242.5 403.5Q217 389 201 365Q185 341 178.5 311Q172 281 172 250Q172 219 178.5 189Q185 159 201 135Q217 111 242.5 96.5Q268 82 307 82Q354 82 391 87.5Q428 93 465 105V11Q426 -6 384.5 -9.5Q343 -13 308 -13Q244 -13 199 8Q154 29 125.5 64.5Q97 100 83.5 148Q70 196 70 250Z" glyph-name="c.smcp" horiz-adv-x="535" /><glyph d="M249 575 329 750H450L305 575ZM164 250Q164 216 169 185.5Q174 155 187 132Q200 109 223 95.5Q246 82 283 82Q330 82 366.5 90Q403 98 440 111V16Q405 -1 361.5 -7Q318 -13 283 -13Q220 -13 177 6Q134 25 108 59.5Q82 94 71 142.5Q60 191 60 250Q60 309 71 357.5Q82 406 108 440.5Q134 475 177 494Q220 513 283 513Q318 513 361.5 507Q405 501 440 484V389Q403 402 366.5 410Q330 418 283 418Q246 418 223 404.5Q200 391 187 368Q174 345 169 314.5Q164 284 164 250Z" glyph-name="cacute" horiz-adv-x="493" unicode="&#263;" /><glyph d="M272 575 352 750H473L328 575ZM70 250Q70 304 83.5 352Q97 400 125.5 435.5Q154 471 199 492Q244 513 308 513Q343 513 384.5 509.5Q426 506 465 489V395Q428 407 391 412.5Q354 418 307 418Q268 418 242.5 403.5Q217 389 201 365Q185 341 178.5 311Q172 281 172 250Q172 219 178.5 189Q185 159 201 135Q217 111 242.5 96.5Q268 82 307 82Q354 82 391 87.5Q428 93 465 105V11Q426 -6 384.5 -9.5Q343 -13 308 -13Q244 -13 199 8Q154 29 125.5 64.5Q97 100 83.5 148Q70 196 70 250Z" glyph-name="cacute.smcp" horiz-adv-x="535" /><glyph d="M458 750 333 575H227L102 750H158L280 645L402 750Z" glyph-name="caron" horiz-adv-x="540" unicode="&#711;" /><glyph d="M331 750 283 550H227L243 750Z" glyph-name="caronSlovak" horiz-adv-x="275" /><glyph d="M455 750 330 575H224L99 750H155L277 645L399 750ZM164 250Q164 216 169 185.5Q174 155 187 132Q200 109 223 95.5Q246 82 283 82Q330 82 366.5 90Q403 98 440 111V16Q405 -1 361.5 -7Q318 -13 283 -13Q220 -13 177 6Q134 25 108 59.5Q82 94 71 142.5Q60 191 60 250Q60 309 71 357.5Q82 406 108 440.5Q134 475 177 494Q220 513 283 513Q318 513 361.5 507Q405 501 440 484V389Q403 402 366.5 410Q330 418 283 418Q246 418 223 404.5Q200 391 187 368Q174 345 169 314.5Q164 284 164 250Z" glyph-name="ccaron" horiz-adv-x="493" unicode="&#269;" /><glyph d="M178 750 300 645 422 750H478L353 575H247L122 750ZM70 250Q70 304 83.5 352Q97 400 125.5 435.5Q154 471 199 492Q244 513 308 513Q343 513 384.5 509.5Q426 506 465 489V395Q428 407 391 412.5Q354 418 307 418Q268 418 242.5 403.5Q217 389 201 365Q185 341 178.5 311Q172 281 172 250Q172 219 178.5 189Q185 159 201 135Q217 111 242.5 96.5Q268 82 307 82Q354 82 391 87.5Q428 93 465 105V11Q426 -6 384.5 -9.5Q343 -13 308 -13Q244 -13 199 8Q154 29 125.5 64.5Q97 100 83.5 148Q70 196 70 250Z" glyph-name="ccaron.smcp" horiz-adv-x="535" /><glyph d="M221 -185Q231 -176 240 -165Q249 -154 253.5 -142.5Q258 -131 256.5 -121.5Q255 -112 245 -106Q227 -96 221 -83.5Q215 -71 216.5 -58Q218 -45 224.5 -32.5Q231 -20 238 -10Q188 -4 154 17.5Q120 39 99 72.5Q78 106 69 151Q60 196 60 250Q60 309 71 357.5Q82 406 108 440.5Q134 475 177 494Q220 513 283 513Q318 513 361.5 507Q405 501 440 484V389Q403 402 366.5 410Q330 418 283 418Q246 418 223 404.5Q200 391 187 368Q174 345 169 314.5Q164 284 164 250Q164 216 169 185.5Q174 155 187 132Q200 109 223 95.5Q246 82 283 82Q330 82 366.5 90Q403 98 440 111V16Q411 2 375 -4Q339 -10 307 -12Q297 -27 296 -42.5Q295 -58 318 -71Q343 -85 350 -101Q357 -117 354 -133Q351 -149 341.5 -162.5Q332 -176 323 -185Z" glyph-name="ccedilla" horiz-adv-x="490" unicode="&#231;" /><glyph d="M245 -185Q255 -176 264 -165Q273 -154 277.5 -142.5Q282 -131 280.5 -121.5Q279 -112 269 -106Q251 -96 245 -83.5Q239 -71 240.5 -58Q242 -45 248.5 -32.5Q255 -20 262 -10Q211 -3 174.5 20Q138 43 115 78Q92 113 81 157Q70 201 70 250Q70 304 83.5 352Q97 400 125.5 435.5Q154 471 199 492Q244 513 308 513Q343 513 384.5 509.5Q426 506 465 489V395Q428 407 391 412.5Q354 418 307 418Q268 418 242.5 403.5Q217 389 201 365Q185 341 178.5 311Q172 281 172 250Q172 219 178.5 189Q185 159 201 135Q217 111 242.5 96.5Q268 82 307 82Q354 82 391 87.5Q428 93 465 105V11Q432 -3 397.5 -7.5Q363 -12 331 -13Q321 -27 320 -42.5Q319 -58 342 -71Q367 -85 374 -101Q381 -117 378 -133Q375 -149 365.5 -162.5Q356 -176 347 -185Z" glyph-name="ccedilla.smcp" horiz-adv-x="535" /><glyph d="M399 575 277 680 155 575H99L224 750H330L455 575ZM164 250Q164 216 169 185.5Q174 155 187 132Q200 109 223 95.5Q246 82 283 82Q330 82 366.5 90Q403 98 440 111V16Q405 -1 361.5 -7Q318 -13 283 -13Q220 -13 177 6Q134 25 108 59.5Q82 94 71 142.5Q60 191 60 250Q60 309 71 357.5Q82 406 108 440.5Q134 475 177 494Q220 513 283 513Q318 513 361.5 507Q405 501 440 484V389Q403 402 366.5 410Q330 418 283 418Q246 418 223 404.5Q200 391 187 368Q174 345 169 314.5Q164 284 164 250Z" glyph-name="ccircumflex" horiz-adv-x="493" unicode="&#265;" /><glyph d="M422 575 300 680 178 575H122L247 750H353L478 575ZM70 250Q70 304 83.5 352Q97 400 125.5 435.5Q154 471 199 492Q244 513 308 513Q343 513 384.5 509.5Q426 506 465 489V395Q428 407 391 412.5Q354 418 307 418Q268 418 242.5 403.5Q217 389 201 365Q185 341 178.5 311Q172 281 172 250Q172 219 178.5 189Q185 159 201 135Q217 111 242.5 96.5Q268 82 307 82Q354 82 391 87.5Q428 93 465 105V11Q426 -6 384.5 -9.5Q343 -13 308 -13Q244 -13 199 8Q154 29 125.5 64.5Q97 100 83.5 148Q70 196 70 250Z" glyph-name="ccircumflex.smcp" horiz-adv-x="535" /><glyph d="M207 667Q207 696 227.5 716.5Q248 737 277 737Q306 737 326.5 716.5Q347 696 347 667Q347 638 326.5 617.5Q306 597 277 597Q248 597 227.5 617.5Q207 638 207 667ZM164 250Q164 216 169 185.5Q174 155 187 132Q200 109 223 95.5Q246 82 283 82Q330 82 366.5 90Q403 98 440 111V16Q405 -1 361.5 -7Q318 -13 283 -13Q220 -13 177 6Q134 25 108 59.5Q82 94 71 142.5Q60 191 60 250Q60 309 71 357.5Q82 406 108 440.5Q134 475 177 494Q220 513 283 513Q318 513 361.5 507Q405 501 440 484V389Q403 402 366.5 410Q330 418 283 418Q246 418 223 404.5Q200 391 187 368Q174 345 169 314.5Q164 284 164 250Z" glyph-name="cdotaccent" horiz-adv-x="493" unicode="&#267;" /><glyph d="M230 667Q230 696 250.5 716.5Q271 737 300 737Q329 737 349.5 716.5Q370 696 370 667Q370 638 349.5 617.5Q329 597 300 597Q271 597 250.5 617.5Q230 638 230 667ZM70 250Q70 304 83.5 352Q97 400 125.5 435.5Q154 471 199 492Q244 513 308 513Q343 513 384.5 509.5Q426 506 465 489V395Q428 407 391 412.5Q354 418 307 418Q268 418 242.5 403.5Q217 389 201 365Q185 341 178.5 311Q172 281 172 250Q172 219 178.5 189Q185 159 201 135Q217 111 242.5 96.5Q268 82 307 82Q354 82 391 87.5Q428 93 465 105V11Q426 -6 384.5 -9.5Q343 -13 308 -13Q244 -13 199 8Q154 29 125.5 64.5Q97 100 83.5 148Q70 196 70 250Z" glyph-name="cdotaccent.smcp" horiz-adv-x="535" /><glyph d="M218 -185Q228 -176 237 -165Q246 -154 250.5 -142.5Q255 -131 253.5 -121.5Q252 -112 242 -106Q222 -95 217 -80.5Q212 -66 215.5 -51Q219 -36 227.5 -22.5Q236 -9 243 0H314Q307 -9 301.5 -18Q296 -27 294.5 -36Q293 -45 297 -54Q301 -63 315 -71Q340 -85 347 -101Q354 -117 351 -133Q348 -149 338.5 -162.5Q329 -176 320 -185Z" glyph-name="cedilla" horiz-adv-x="602" unicode="&#184;" /><glyph d="M60 375Q60 520 132.5 585.5Q205 651 341 651H345L379 750H490L449 642Q475 638 500 632Q525 626 546 618V520Q525 528 498.5 534.5Q472 541 443.5 545Q415 549 387 551Q359 553 335 553Q300 553 269 545Q238 537 214.5 516.5Q191 496 177.5 461.5Q164 427 164 375Q164 322 177.5 288Q191 254 214.5 233.5Q238 213 269 205Q300 197 335 197Q359 197 387 199Q415 201 443.5 205Q472 209 498.5 215.5Q525 222 546 230V132Q523 123 495 116.5Q467 110 439 106Q411 102 385 100.5Q359 99 341 99H317L283 0H172L215 117Q139 142 99.5 205Q60 268 60 375Z" glyph-name="cent" horiz-adv-x="600" unicode="&#162;" /><glyph d="M164 250Q164 216 169 185.5Q174 155 187 132Q200 109 223 95.5Q246 82 283 82Q330 82 366.5 90Q403 98 440 111V16Q405 -1 361.5 -7Q318 -13 283 -13H270L234 -117H125L173 7Q110 36 85 99Q60 162 60 250Q60 308 70.5 356Q81 404 106 438.5Q131 473 172.5 492Q214 511 275 513L311 617H420L377 504Q394 500 410 495.5Q426 491 440 484V389Q403 402 366.5 410Q330 418 283 418Q246 418 223 404.5Q200 391 187 368Q174 345 169 314.5Q164 284 164 250Z" glyph-name="cent.OP" horiz-adv-x="500" /><glyph d="M402 575 280 680 158 575H102L227 750H333L458 575Z" glyph-name="circumflex" horiz-adv-x="540" unicode="&#710;" /><glyph d="M40 375Q40 404 60.5 424.5Q81 445 110 445Q139 445 159.5 424.5Q180 404 180 375Q180 346 159.5 325.5Q139 305 110 305Q81 305 60.5 325.5Q40 346 40 375ZM40 57Q40 86 60.5 106.5Q81 127 110 127Q139 127 159.5 106.5Q180 86 180 57Q180 28 159.5 7.5Q139 -13 110 -13Q81 -13 60.5 7.5Q40 28 40 57Z" glyph-name="colon" horiz-adv-x="220" unicode=":" /><glyph d="M58 -114 81 -7Q62 1 51 18Q40 35 40 57Q40 86 60.5 106.5Q81 127 110 127Q139 127 159.5 106.5Q180 86 180 57Q180 39 172 23L109 -114Z" glyph-name="comma" horiz-adv-x="220" unicode="," /><glyph d="M230 -120Q230 -91 250.5 -70.5Q271 -50 300 -50Q329 -50 349.5 -70.5Q370 -91 370 -120Q370 -149 349.5 -169.5Q329 -190 300 -190Q271 -190 250.5 -169.5Q230 -149 230 -120Z" glyph-name="commaaccent" horiz-adv-x="600" /><glyph d="M340 183Q362 183 387 188Q412 193 432 198V116Q408 111 383.5 108Q359 105 340 105Q274 105 239 137Q204 169 204 250Q204 331 239 363Q274 395 340 395Q359 395 383.5 392Q408 389 432 384V302Q412 307 387 312Q362 317 340 317Q313 317 299.5 304Q286 291 286 250Q286 209 299.5 196Q313 183 340 183ZM340 71Q379 71 412 77.5Q445 84 468.5 103Q492 122 505.5 157.5Q519 193 519 250Q519 307 505.5 342.5Q492 378 468.5 397Q445 416 412 422.5Q379 429 340 429Q301 429 268 422.5Q235 416 211.5 397Q188 378 174.5 342.5Q161 307 161 250Q161 193 174.5 157.5Q188 122 211.5 103Q235 84 268 77.5Q301 71 340 71ZM340 -13Q286 -13 237.5 -2.5Q189 8 152 37Q115 66 93.5 117.5Q72 169 72 250Q72 331 93.5 382.5Q115 434 152 463Q189 492 237.5 502.5Q286 513 340 513Q394 513 442.5 502.5Q491 492 528 463Q565 434 586.5 382.5Q608 331 608 250Q608 169 586.5 117.5Q565 66 528 37Q491 8 442.5 -2.5Q394 -13 340 -13Z" glyph-name="copyright" horiz-adv-x="680" unicode="&#169;" /><glyph d="M35 401V500H96Q103 564 120 613.5Q137 663 168 696Q199 729 246 746Q293 763 360 763Q395 763 436.5 758Q478 753 517 736V639Q480 651 443.5 658Q407 665 360 665Q286 665 250 623.5Q214 582 203 500H463L430 401H196V349H413L380 250H203Q214 167 250 126Q286 85 360 85Q407 85 443.5 92Q480 99 517 111V14Q478 -3 436.5 -8Q395 -13 360 -13Q293 -13 246 4Q199 21 168 54Q137 87 120 136Q103 185 96 250H35V349H90V401Z" glyph-name="currency" horiz-adv-x="546" unicode="&#164;" /><glyph d="M353 408Q338 412 319.5 415Q301 418 277 418Q240 418 218 404.5Q196 391 184 368Q172 345 168 314.5Q164 284 164 250Q164 216 168 185.5Q172 155 184 132Q196 109 218 95.5Q240 82 277 82Q314 82 341 88.5Q368 95 390 106V395Q377 402 353 408ZM491 0H424L414 28Q380 9 346.5 -2Q313 -13 277 -13Q214 -13 172 6Q130 25 105 59.5Q80 94 70 142.5Q60 191 60 250Q60 309 70 357.5Q80 406 105 440.5Q130 475 172 494Q214 513 277 513Q307 513 333.5 506.5Q360 500 390 486V750H491Z" glyph-name="d" horiz-adv-x="561" unicode="d" /><glyph d="M261 94Q302 94 329.5 105Q357 116 373.5 136.5Q390 157 397 186Q404 215 404 250Q404 285 397 314Q390 343 373.5 363.5Q357 384 329.5 395Q302 406 261 406H183V94ZM85 0V500H260Q325 500 371 482.5Q417 465 446.5 432.5Q476 400 489.5 353.5Q503 307 503 250Q503 193 489.5 146.5Q476 100 446.5 67.5Q417 35 371 17.5Q325 0 260 0Z" glyph-name="d.smcp" horiz-adv-x="573" /><glyph d="M240 612 379 631V516L240 535L270 295H134L164 535L25 516V631L163 612L144 750H260Z" glyph-name="dagger" horiz-adv-x="404" unicode="&#8224;" /><glyph d="M240 612 379 631V516L240 535L248 480L240 427L379 446V330L240 350L270 110H134L164 350L25 330V446L163 427L156 480L163 535L25 516V631L163 612L144 750H260Z" glyph-name="daggerdbl" horiz-adv-x="404" unicode="&#8225;" /><glyph d="M640 750 592 550H536L552 750ZM353 408Q338 412 319.5 415Q301 418 277 418Q240 418 218 404.5Q196 391 184 368Q172 345 168 314.5Q164 284 164 250Q164 216 168 185.5Q172 155 184 132Q196 109 218 95.5Q240 82 277 82Q314 82 341 88.5Q368 95 390 106V395Q377 402 353 408ZM491 0H424L414 28Q380 9 346.5 -2Q313 -13 277 -13Q214 -13 172 6Q130 25 105 59.5Q80 94 70 142.5Q60 191 60 250Q60 309 70 357.5Q80 406 105 440.5Q130 475 172 494Q214 513 277 513Q307 513 333.5 506.5Q360 500 390 486V750H491Z" glyph-name="dcaron" horiz-adv-x="561" unicode="&#271;" /><glyph d="M444 750 319 575H213L88 750H144L266 645L388 750ZM261 94Q302 94 329.5 105Q357 116 373.5 136.5Q390 157 397 186Q404 215 404 250Q404 285 397 314Q390 343 373.5 363.5Q357 384 329.5 395Q302 406 261 406H183V94ZM85 0V500H260Q325 500 371 482.5Q417 465 446.5 432.5Q476 400 489.5 353.5Q503 307 503 250Q503 193 489.5 146.5Q476 100 446.5 67.5Q417 35 371 17.5Q325 0 260 0Z" glyph-name="dcaron.smcp" horiz-adv-x="573" /><glyph d="M353 408Q338 412 319.5 415Q301 418 277 418Q240 418 218 404.5Q196 391 184 368Q172 345 168 314.5Q164 284 164 250Q164 216 168 185.5Q172 155 184 132Q196 109 218 95.5Q240 82 277 82Q314 82 341 88.5Q368 95 390 106V395Q377 402 353 408ZM491 659H583V576H491V0H424L414 28Q380 9 346.5 -2Q313 -13 277 -13Q214 -13 172 6Q130 25 105 59.5Q80 94 70 142.5Q60 191 60 250Q60 309 70 357.5Q80 406 105 440.5Q130 475 172 494Q214 513 277 513Q307 513 333.5 506.5Q360 500 390 486V576H275V659H390V750H491Z" glyph-name="dcroat" horiz-adv-x="561" unicode="&#273;" /><glyph d="M291 94Q332 94 359.5 105Q387 116 403.5 136.5Q420 157 427 186Q434 215 434 250Q434 285 427 314Q420 343 403.5 363.5Q387 384 359.5 395Q332 406 291 406H213V294H333V205H213V94ZM25 294H115V500H290Q355 500 401 482.5Q447 465 476.5 432.5Q506 400 519.5 353.5Q533 307 533 250Q533 193 519.5 146.5Q506 100 476.5 67.5Q447 35 401 17.5Q355 0 290 0H115V205H25Z" glyph-name="dcroat.smcp" horiz-adv-x="603" /><glyph d="M183 689Q154 689 137 674.5Q120 660 120 625Q120 590 137 575.5Q154 561 183 561Q212 561 229 575.5Q246 590 246 625Q246 660 229 674.5Q212 689 183 689ZM183 487Q157 487 132 493.5Q107 500 87 516Q67 532 54.5 558.5Q42 585 42 625Q42 665 54.5 692Q67 719 87 734.5Q107 750 132 756.5Q157 763 183 763Q209 763 234 756.5Q259 750 279 734.5Q299 719 311.5 692Q324 665 324 625Q324 585 311.5 558.5Q299 532 279 516Q259 500 234 493.5Q209 487 183 487Z" glyph-name="degree" horiz-adv-x="366" unicode="&#176;" /><glyph d="M320 667Q320 696 340.5 716.5Q361 737 390 737Q419 737 439.5 716.5Q460 696 460 667Q460 638 439.5 617.5Q419 597 390 597Q361 597 340.5 617.5Q320 638 320 667ZM100 667Q100 696 120.5 716.5Q141 737 170 737Q199 737 219.5 716.5Q240 696 240 667Q240 638 219.5 617.5Q199 597 170 597Q141 597 120.5 617.5Q100 638 100 667Z" glyph-name="dieresis" horiz-adv-x="540" unicode="&#168;" /><glyph d="M190 494Q190 523 210.5 543.5Q231 564 260 564Q289 564 309.5 543.5Q330 523 330 494Q330 465 309.5 444.5Q289 424 260 424Q231 424 210.5 444.5Q190 465 190 494ZM190 188Q190 217 210.5 237.5Q231 258 260 258Q289 258 309.5 237.5Q330 217 330 188Q330 159 309.5 138.5Q289 118 260 118Q231 118 210.5 138.5Q190 159 190 188ZM460 390V292H60V390Z" glyph-name="divide" horiz-adv-x="520" unicode="&#247;" /><glyph d="M166 485Q166 466 178.5 456Q191 446 211.5 441Q232 436 257 434.5Q282 433 307 431Q367 426 410 417.5Q453 409 481 392Q509 375 522 347Q535 319 535 275Q535 194 472.5 147Q410 100 287 99L253 0H142L181 105Q149 108 120 113.5Q91 119 74 127V229Q92 221 118.5 215.5Q145 210 174 206.5Q203 203 231.5 201Q260 199 282 199Q312 199 339 202Q366 205 386.5 213Q407 221 419.5 235.5Q432 250 432 274Q432 293 419.5 304Q407 315 387.5 321Q368 327 343.5 330Q319 333 295 335Q236 340 193 347.5Q150 355 121.5 370Q93 385 79 410.5Q65 436 65 478Q65 565 128 608Q191 651 309 651H315L349 750H460L419 644Q445 641 469 635Q493 629 513 621V523Q492 531 465.5 536.5Q439 542 411 545Q383 548 356.5 549.5Q330 551 308 551Q281 551 255 548Q229 545 209.5 537.5Q190 530 178 517.5Q166 505 166 485Z" glyph-name="dollar" horiz-adv-x="600" unicode="$" /><glyph d="M159 354Q159 343 162.5 334.5Q166 326 176 320Q186 314 203.5 310Q221 306 250 303Q305 298 339.5 286Q374 274 394 255Q414 236 421.5 210Q429 184 429 151Q429 122 419.5 93.5Q410 65 388 42Q366 19 329.5 4Q293 -11 240 -13L204 -117H95L138 -4Q95 2 66 15V112Q96 101 136.5 91.5Q177 82 225 82Q255 82 275 88Q295 94 307 103.5Q319 113 324 125Q329 137 329 150Q329 162 326 172.5Q323 183 313.5 191Q304 199 286 204Q268 209 239 212Q183 217 148.5 229.5Q114 242 94.5 260.5Q75 279 68 302.5Q61 326 61 354Q61 381 70 409Q79 437 100.5 459.5Q122 482 157.5 497Q193 512 245 513L281 617H390L346 503Q361 500 376 495Q391 490 406 484V389Q369 401 333 409.5Q297 418 252 418Q223 418 205 413Q187 408 176.5 399.5Q166 391 162.5 379Q159 367 159 354Z" glyph-name="dollar.OP" horiz-adv-x="490" /><glyph d="M210 667Q210 696 230.5 716.5Q251 737 280 737Q309 737 329.5 716.5Q350 696 350 667Q350 638 329.5 617.5Q309 597 280 597Q251 597 230.5 617.5Q210 638 210 667Z" glyph-name="dotaccent" horiz-adv-x="540" unicode="&#729;" /><glyph d="M257 -250 271 -184Q252 -176 241 -159Q230 -142 230 -120Q230 -91 250.5 -70.5Q271 -50 300 -50Q329 -50 349.5 -70.5Q370 -91 370 -120Q370 -138 362 -154L318 -250Z" glyph-name="dotbelow" horiz-adv-x="600" /><glyph d="M202 -13Q142 -13 111.5 14Q81 41 81 108V500H182V105Q182 91 190.5 86.5Q199 82 221 82V-13Z" glyph-name="dotlessi" horiz-adv-x="275" unicode="&#305;" /><glyph d="M154 575 9 750H130L210 575ZM330 575 185 750H307L387 575Z" glyph-name="doublegrave" horiz-adv-x="540" /><glyph d="M283 418Q251 418 229.5 408.5Q208 399 194.5 381.5Q181 364 174.5 341Q168 318 165 291H376Q376 316 373 339Q370 362 360 379.5Q350 397 332 407.5Q314 418 283 418ZM166 202Q169 176 176.5 154Q184 132 197.5 116Q211 100 232 91Q253 82 283 82Q307 82 328 84Q349 86 369.5 90Q390 94 411 101Q432 108 455 118V21Q407 -1 363 -7Q319 -13 283 -13Q220 -13 177 6Q134 25 108 59.5Q82 94 71 142.5Q60 191 60 250Q60 309 71 357.5Q82 406 108 440.5Q134 475 177 494Q220 513 283 513Q349 513 388 491.5Q427 470 448 434Q469 398 475.5 350Q482 302 482 250V202Z" glyph-name="e" horiz-adv-x="542" unicode="e" /><glyph d="M429 209H184V94H462V0H85V500H462V406H184V303H429Z" glyph-name="e.smcp" horiz-adv-x="532" /><glyph d="M255 575 335 750H456L311 575ZM283 418Q251 418 229.5 408.5Q208 399 194.5 381.5Q181 364 174.5 341Q168 318 165 291H376Q376 316 373 339Q370 362 360 379.5Q350 397 332 407.5Q314 418 283 418ZM166 202Q169 176 176.5 154Q184 132 197.5 116Q211 100 232 91Q253 82 283 82Q307 82 328 84Q349 86 369.5 90Q390 94 411 101Q432 108 455 118V21Q407 -1 363 -7Q319 -13 283 -13Q220 -13 177 6Q134 25 108 59.5Q82 94 71 142.5Q60 191 60 250Q60 309 71 357.5Q82 406 108 440.5Q134 475 177 494Q220 513 283 513Q349 513 388 491.5Q427 470 448 434Q469 398 475.5 350Q482 302 482 250V202Z" glyph-name="eacute" horiz-adv-x="542" unicode="&#233;" /><glyph d="M246 575 326 750H447L302 575ZM429 209H184V94H462V0H85V500H462V406H184V303H429Z" glyph-name="eacute.smcp" horiz-adv-x="532" /><glyph d="M283 572Q247 572 217 582.5Q187 593 164.5 614.5Q142 636 129 669.5Q116 703 115 750H182Q183 723 188 705.5Q193 688 204.5 677.5Q216 667 235 662.5Q254 658 283 658Q312 658 331 662.5Q350 667 361.5 677.5Q373 688 378 705.5Q383 723 384 750H451Q450 703 437 669.5Q424 636 401.5 614.5Q379 593 349 582.5Q319 572 283 572ZM283 418Q251 418 229.5 408.5Q208 399 194.5 381.5Q181 364 174.5 341Q168 318 165 291H376Q376 316 373 339Q370 362 360 379.5Q350 397 332 407.5Q314 418 283 418ZM166 202Q169 176 176.5 154Q184 132 197.5 116Q211 100 232 91Q253 82 283 82Q307 82 328 84Q349 86 369.5 90Q390 94 411 101Q432 108 455 118V21Q407 -1 363 -7Q319 -13 283 -13Q220 -13 177 6Q134 25 108 59.5Q82 94 71 142.5Q60 191 60 250Q60 309 71 357.5Q82 406 108 440.5Q134 475 177 494Q220 513 283 513Q349 513 388 491.5Q427 470 448 434Q469 398 475.5 350Q482 302 482 250V202Z" glyph-name="ebreve" horiz-adv-x="542" unicode="&#277;" /><glyph d="M274 572Q238 572 208 582.5Q178 593 155.5 614.5Q133 636 120 669.5Q107 703 106 750H173Q174 723 179 705.5Q184 688 195.5 677.5Q207 667 226 662.5Q245 658 274 658Q303 658 322 662.5Q341 667 352.5 677.5Q364 688 369 705.5Q374 723 375 750H442Q441 703 428 669.5Q415 636 392.5 614.5Q370 593 340 582.5Q310 572 274 572ZM429 209H184V94H462V0H85V500H462V406H184V303H429Z" glyph-name="ebreve.smcp" horiz-adv-x="532" /><glyph d="M161 750 283 645 405 750H461L336 575H230L105 750ZM283 418Q251 418 229.5 408.5Q208 399 194.5 381.5Q181 364 174.5 341Q168 318 165 291H376Q376 316 373 339Q370 362 360 379.5Q350 397 332 407.5Q314 418 283 418ZM166 202Q169 176 176.5 154Q184 132 197.5 116Q211 100 232 91Q253 82 283 82Q307 82 328 84Q349 86 369.5 90Q390 94 411 101Q432 108 455 118V21Q407 -1 363 -7Q319 -13 283 -13Q220 -13 177 6Q134 25 108 59.5Q82 94 71 142.5Q60 191 60 250Q60 309 71 357.5Q82 406 108 440.5Q134 475 177 494Q220 513 283 513Q349 513 388 491.5Q427 470 448 434Q469 398 475.5 350Q482 302 482 250V202Z" glyph-name="ecaron" horiz-adv-x="542" unicode="&#283;" /><glyph d="M452 750 327 575H221L96 750H152L274 645L396 750ZM429 209H184V94H462V0H85V500H462V406H184V303H429Z" glyph-name="ecaron.smcp" horiz-adv-x="532" /><glyph d="M283 418Q251 418 229.5 408.5Q208 399 194.5 381.5Q181 364 174.5 341Q168 318 165 291H376Q376 316 373 339Q370 362 360 379.5Q350 397 332 407.5Q314 418 283 418ZM405 575 283 680 161 575H105L230 750H336L461 575ZM166 202Q169 176 176.5 154Q184 132 197.5 116Q211 100 232 91Q253 82 283 82Q307 82 328 84Q349 86 369.5 90Q390 94 411 101Q432 108 455 118V21Q407 -1 363 -7Q319 -13 283 -13Q220 -13 177 6Q134 25 108 59.5Q82 94 71 142.5Q60 191 60 250Q60 309 71 357.5Q82 406 108 440.5Q134 475 177 494Q220 513 283 513Q349 513 388 491.5Q427 470 448 434Q469 398 475.5 350Q482 302 482 250V202Z" glyph-name="ecircumflex" horiz-adv-x="542" unicode="&#234;" /><glyph d="M396 575 274 680 152 575H96L221 750H327L452 575ZM429 209H184V94H462V0H85V500H462V406H184V303H429Z" glyph-name="ecircumflex.smcp" horiz-adv-x="532" /><glyph d="M323 667Q323 696 343.5 716.5Q364 737 393 737Q422 737 442.5 716.5Q463 696 463 667Q463 638 442.5 617.5Q422 597 393 597Q364 597 343.5 617.5Q323 638 323 667ZM103 667Q103 696 123.5 716.5Q144 737 173 737Q202 737 222.5 716.5Q243 696 243 667Q243 638 222.5 617.5Q202 597 173 597Q144 597 123.5 617.5Q103 638 103 667ZM283 418Q251 418 229.5 408.5Q208 399 194.5 381.5Q181 364 174.5 341Q168 318 165 291H376Q376 316 373 339Q370 362 360 379.5Q350 397 332 407.5Q314 418 283 418ZM166 202Q169 176 176.5 154Q184 132 197.5 116Q211 100 232 91Q253 82 283 82Q307 82 328 84Q349 86 369.5 90Q390 94 411 101Q432 108 455 118V21Q407 -1 363 -7Q319 -13 283 -13Q220 -13 177 6Q134 25 108 59.5Q82 94 71 142.5Q60 191 60 250Q60 309 71 357.5Q82 406 108 440.5Q134 475 177 494Q220 513 283 513Q349 513 388 491.5Q427 470 448 434Q469 398 475.5 350Q482 302 482 250V202Z" glyph-name="edieresis" horiz-adv-x="542" unicode="&#235;" /><glyph d="M314 667Q314 696 334.5 716.5Q355 737 384 737Q413 737 433.5 716.5Q454 696 454 667Q454 638 433.5 617.5Q413 597 384 597Q355 597 334.5 617.5Q314 638 314 667ZM94 667Q94 696 114.5 716.5Q135 737 164 737Q193 737 213.5 716.5Q234 696 234 667Q234 638 213.5 617.5Q193 597 164 597Q135 597 114.5 617.5Q94 638 94 667ZM429 209H184V94H462V0H85V500H462V406H184V303H429Z" glyph-name="edieresis.smcp" horiz-adv-x="532" /><glyph d="M213 667Q213 696 233.5 716.5Q254 737 283 737Q312 737 332.5 716.5Q353 696 353 667Q353 638 332.5 617.5Q312 597 283 597Q254 597 233.5 617.5Q213 638 213 667ZM283 418Q251 418 229.5 408.5Q208 399 194.5 381.5Q181 364 174.5 341Q168 318 165 291H376Q376 316 373 339Q370 362 360 379.5Q350 397 332 407.5Q314 418 283 418ZM166 202Q169 176 176.5 154Q184 132 197.5 116Q211 100 232 91Q253 82 283 82Q307 82 328 84Q349 86 369.5 90Q390 94 411 101Q432 108 455 118V21Q407 -1 363 -7Q319 -13 283 -13Q220 -13 177 6Q134 25 108 59.5Q82 94 71 142.5Q60 191 60 250Q60 309 71 357.5Q82 406 108 440.5Q134 475 177 494Q220 513 283 513Q349 513 388 491.5Q427 470 448 434Q469 398 475.5 350Q482 302 482 250V202Z" glyph-name="edotaccent" horiz-adv-x="542" unicode="&#279;" /><glyph d="M204 667Q204 696 224.5 716.5Q245 737 274 737Q303 737 323.5 716.5Q344 696 344 667Q344 638 323.5 617.5Q303 597 274 597Q245 597 224.5 617.5Q204 638 204 667ZM429 209H184V94H462V0H85V500H462V406H184V303H429Z" glyph-name="edotaccent.smcp" horiz-adv-x="532" /><glyph d="M255 575 110 750H231L311 575ZM283 418Q251 418 229.5 408.5Q208 399 194.5 381.5Q181 364 174.5 341Q168 318 165 291H376Q376 316 373 339Q370 362 360 379.5Q350 397 332 407.5Q314 418 283 418ZM166 202Q169 176 176.5 154Q184 132 197.5 116Q211 100 232 91Q253 82 283 82Q307 82 328 84Q349 86 369.5 90Q390 94 411 101Q432 108 455 118V21Q407 -1 363 -7Q319 -13 283 -13Q220 -13 177 6Q134 25 108 59.5Q82 94 71 142.5Q60 191 60 250Q60 309 71 357.5Q82 406 108 440.5Q134 475 177 494Q220 513 283 513Q349 513 388 491.5Q427 470 448 434Q469 398 475.5 350Q482 302 482 250V202Z" glyph-name="egrave" horiz-adv-x="542" unicode="&#232;" /><glyph d="M246 575 101 750H222L302 575ZM429 209H184V94H462V0H85V500H462V406H184V303H429Z" glyph-name="egrave.smcp" horiz-adv-x="532" /><glyph d="M300 435Q334 435 358 446Q382 457 397 473.5Q412 490 418.5 510.5Q425 531 425 550Q425 570 420 591Q415 612 401 629Q387 646 363 657Q339 668 300 668Q261 668 237 657Q213 646 199 629Q185 612 180 591Q175 570 175 550Q175 531 181.5 510.5Q188 490 203 473.5Q218 457 242 446Q266 435 300 435ZM300 341Q227 341 189.5 307Q152 273 152 212Q152 190 159 167Q166 144 182.5 125Q199 106 227.5 94Q256 82 300 82Q343 82 372 94Q401 106 417.5 125Q434 144 441 167Q448 190 448 212Q448 273 410.5 307Q373 341 300 341ZM300 -13Q229 -13 180.5 5.5Q132 24 102 55Q72 86 59 126.5Q46 167 46 212Q46 237 51.5 264Q57 291 68.5 316Q80 341 97.5 362Q115 383 139 396Q122 409 109 427Q96 445 87 465.5Q78 486 73.5 508Q69 530 69 550Q69 591 81 629.5Q93 668 120 697.5Q147 727 191 745Q235 763 300 763Q364 763 408.5 745Q453 727 480 697.5Q507 668 519 629.5Q531 591 531 550Q531 530 526 508Q521 486 512 465.5Q503 445 490 427Q477 409 461 396Q485 383 502.5 362Q520 341 531.5 316Q543 291 548.5 264Q554 237 554 212Q554 167 540.5 126.5Q527 86 497 55Q467 24 418.5 5.5Q370 -13 300 -13Z" glyph-name="eight" horiz-adv-x="600" unicode="8" /><glyph d="M300 435Q334 435 358 446Q382 457 397 473.5Q412 490 418.5 510.5Q425 531 425 550Q425 570 420 591Q415 612 401 629Q387 646 363 657Q339 668 300 668Q261 668 237 657Q213 646 199 629Q185 612 180 591Q175 570 175 550Q175 531 181.5 510.5Q188 490 203 473.5Q218 457 242 446Q266 435 300 435ZM300 341Q227 341 189.5 307Q152 273 152 212Q152 190 159 167Q166 144 182.5 125Q199 106 227.5 94Q256 82 300 82Q343 82 372 94Q401 106 417.5 125Q434 144 441 167Q448 190 448 212Q448 273 410.5 307Q373 341 300 341ZM300 -13Q229 -13 180.5 5.5Q132 24 102 55Q72 86 59 126.5Q46 167 46 212Q46 237 51.5 264Q57 291 68.5 316Q80 341 97.5 362Q115 383 139 396Q122 409 109 427Q96 445 87 465.5Q78 486 73.5 508Q69 530 69 550Q69 591 81 629.5Q93 668 120 697.5Q147 727 191 745Q235 763 300 763Q364 763 408.5 745Q453 727 480 697.5Q507 668 519 629.5Q531 591 531 550Q531 530 526 508Q521 486 512 465.5Q503 445 490 427Q477 409 461 396Q485 383 502.5 362Q520 341 531.5 316Q543 291 548.5 264Q554 237 554 212Q554 167 540.5 126.5Q527 86 497 55Q467 24 418.5 5.5Q370 -13 300 -13Z" glyph-name="eight.LP" horiz-adv-x="600" /><glyph d="M300 435Q334 435 358 446Q382 457 397 473.5Q412 490 418.5 510.5Q425 531 425 550Q425 570 420 591Q415 612 401 629Q387 646 363 657Q339 668 300 668Q261 668 237 657Q213 646 199 629Q185 612 180 591Q175 570 175 550Q175 531 181.5 510.5Q188 490 203 473.5Q218 457 242 446Q266 435 300 435ZM300 341Q227 341 189.5 307Q152 273 152 212Q152 190 159 167Q166 144 182.5 125Q199 106 227.5 94Q256 82 300 82Q343 82 372 94Q401 106 417.5 125Q434 144 441 167Q448 190 448 212Q448 273 410.5 307Q373 341 300 341ZM300 -13Q229 -13 180.5 5.5Q132 24 102 55Q72 86 59 126.5Q46 167 46 212Q46 237 51.5 264Q57 291 68.5 316Q80 341 97.5 362Q115 383 139 396Q122 409 109 427Q96 445 87 465.5Q78 486 73.5 508Q69 530 69 550Q69 591 81 629.5Q93 668 120 697.5Q147 727 191 745Q235 763 300 763Q364 763 408.5 745Q453 727 480 697.5Q507 668 519 629.5Q531 591 531 550Q531 530 526 508Q521 486 512 465.5Q503 445 490 427Q477 409 461 396Q485 383 502.5 362Q520 341 531.5 316Q543 291 548.5 264Q554 237 554 212Q554 167 540.5 126.5Q527 86 497 55Q467 24 418.5 5.5Q370 -13 300 -13Z" glyph-name="eight.OP" horiz-adv-x="600" /><glyph d="M425 57Q425 86 445.5 106.5Q466 127 495 127Q524 127 544.5 106.5Q565 86 565 57Q565 28 544.5 7.5Q524 -13 495 -13Q466 -13 445.5 7.5Q425 28 425 57ZM755 57Q755 86 775.5 106.5Q796 127 825 127Q854 127 874.5 106.5Q895 86 895 57Q895 28 874.5 7.5Q854 -13 825 -13Q796 -13 775.5 7.5Q755 28 755 57ZM95 57Q95 86 115.5 106.5Q136 127 165 127Q194 127 214.5 106.5Q235 86 235 57Q235 28 214.5 7.5Q194 -13 165 -13Q136 -13 115.5 7.5Q95 28 95 57Z" glyph-name="ellipsis" horiz-adv-x="990" unicode="&#8230;" /><glyph d="M146 641V732H420V641ZM283 418Q251 418 229.5 408.5Q208 399 194.5 381.5Q181 364 174.5 341Q168 318 165 291H376Q376 316 373 339Q370 362 360 379.5Q350 397 332 407.5Q314 418 283 418ZM166 202Q169 176 176.5 154Q184 132 197.5 116Q211 100 232 91Q253 82 283 82Q307 82 328 84Q349 86 369.5 90Q390 94 411 101Q432 108 455 118V21Q407 -1 363 -7Q319 -13 283 -13Q220 -13 177 6Q134 25 108 59.5Q82 94 71 142.5Q60 191 60 250Q60 309 71 357.5Q82 406 108 440.5Q134 475 177 494Q220 513 283 513Q349 513 388 491.5Q427 470 448 434Q469 398 475.5 350Q482 302 482 250V202Z" glyph-name="emacron" horiz-adv-x="542" unicode="&#275;" /><glyph d="M137 641V732H411V641ZM429 209H184V94H462V0H85V500H462V406H184V303H429Z" glyph-name="emacron.smcp" horiz-adv-x="532" /><glyph d="M940 292H60V390H940Z" glyph-name="emdash" horiz-adv-x="1000" unicode="&#8212;" /><glyph glyph-name="emspace" horiz-adv-x="1000" unicode="&#8195;" /><glyph d="M440 292H60V390H440Z" glyph-name="endash" horiz-adv-x="500" unicode="&#8211;" /><glyph d="M253 -168Q274 -165 294.5 -159Q315 -153 332 -142.5Q349 -132 359.5 -116Q370 -100 370 -78V354Q370 389 347 403.5Q324 418 289 418Q251 418 222 411Q193 404 173 394V0H70V500H139L149 472Q180 492 216.5 502.5Q253 513 289 513Q382 513 427.5 470.5Q473 428 473 352V-88Q473 -129 453 -160Q433 -191 401.5 -212.5Q370 -234 330.5 -246Q291 -258 253 -260Z" glyph-name="eng" horiz-adv-x="538" unicode="&#331;" /><glyph d="M293 -168Q314 -165 335.5 -158.5Q357 -152 374.5 -141Q392 -130 403.5 -113.5Q415 -97 415 -75V35L183 316L184 0H85V500H154L415 184L414 500H513V-88Q513 -129 493 -160Q473 -191 441.5 -212.5Q410 -234 370.5 -246Q331 -258 293 -260Z" glyph-name="eng.smcp" horiz-adv-x="598" /><glyph glyph-name="enspace" horiz-adv-x="500" unicode="&#8194;" /><glyph d="M283 418Q251 418 229.5 408.5Q208 399 194.5 381.5Q181 364 174.5 341Q168 318 165 291H376Q376 316 373 339Q370 362 360 379.5Q350 397 332 407.5Q314 418 283 418ZM166 202Q169 176 176.5 154Q184 132 197.5 116Q211 100 232 91Q253 82 283 82Q307 82 328 84Q349 86 369.5 90Q390 94 411 101Q432 108 455 118V21Q424 6 394 0Q352 -19 323 -46Q294 -73 294 -110Q294 -133 308 -144.5Q322 -156 345 -156Q366 -156 382.5 -153Q399 -150 408 -147V-215Q396 -220 375.5 -225Q355 -230 323 -230Q300 -230 279 -224Q258 -218 241.5 -205Q225 -192 215 -172.5Q205 -153 205 -126Q205 -101 217.5 -71.5Q230 -42 267 -13Q208 -10 168.5 9.5Q129 29 105 63.5Q81 98 70.5 145.5Q60 193 60 250Q60 309 71 357.5Q82 406 108 440.5Q134 475 177 494Q220 513 283 513Q349 513 388 491.5Q427 470 448 434Q469 398 475.5 350Q482 302 482 250V202Z" glyph-name="eogonek" horiz-adv-x="542" unicode="&#281;" /><glyph d="M429 209H184V94H462V0Q420 -19 390.5 -46Q361 -73 361 -110Q361 -133 375 -144.5Q389 -156 412 -156Q433 -156 449.5 -153Q466 -150 475 -147V-215Q463 -220 442.5 -225Q422 -230 390 -230Q367 -230 346 -224Q325 -218 308.5 -205Q292 -192 282 -172.5Q272 -153 272 -126Q272 -98 288 -65Q304 -32 351 0H85V500H462V406H184V303H429Z" glyph-name="eogonek.smcp" horiz-adv-x="532" /><glyph d="M460 209H60V308H460ZM460 374H60V473H460Z" glyph-name="equal" horiz-adv-x="520" unicode="=" /><glyph d="M387 250Q387 286 384 316.5Q381 347 369 369.5Q357 392 334 405Q311 418 272 418Q232 418 209 405Q186 392 174.5 369.5Q163 347 160 316.5Q157 286 157 250Q157 214 160 183.5Q163 153 174.5 130.5Q186 108 209 95Q232 82 272 82Q311 82 334 95Q357 108 369 130.5Q381 153 384 183.5Q387 214 387 250ZM419 666 357 634Q382 605 405 567.5Q428 530 446 484.5Q464 439 475.5 384Q487 329 488 264Q489 259 489 250Q489 191 480.5 143Q472 95 448.5 60Q425 25 382.5 6Q340 -13 272 -13Q204 -13 162 6Q120 25 96 60Q72 95 63.5 143Q55 191 55 250Q55 308 63.5 356.5Q72 405 96 440Q120 475 162 494Q204 513 272 513Q302 513 329 504Q317 528 302.5 549Q288 570 271 590L129 518V602L216 646Q177 681 137 706.5Q97 732 65 750H220Q236 740 257.5 725.5Q279 711 302 690L419 750Z" glyph-name="eth" horiz-adv-x="544" unicode="&#240;" /><glyph d="M291 94Q332 94 359.5 105Q387 116 403.5 136.5Q420 157 427 186Q434 215 434 250Q434 285 427 314Q420 343 403.5 363.5Q387 384 359.5 395Q332 406 291 406H213V294H333V205H213V94ZM25 294H115V500H290Q355 500 401 482.5Q447 465 476.5 432.5Q506 400 519.5 353.5Q533 307 533 250Q533 193 519.5 146.5Q506 100 476.5 67.5Q447 35 401 17.5Q355 0 290 0H115V205H25Z" glyph-name="eth.smcp" horiz-adv-x="603" /><glyph d="M40 57Q40 86 60.5 106.5Q81 127 110 127Q139 127 159.5 106.5Q180 86 180 57Q180 28 159.5 7.5Q139 -13 110 -13Q81 -13 60.5 7.5Q40 28 40 57ZM78 210 42 750H178L142 210Z" glyph-name="exclam" horiz-adv-x="220" unicode="!" /><glyph d="M40 443Q40 472 60.5 492.5Q81 513 110 513Q139 513 159.5 492.5Q180 472 180 443Q180 414 159.5 393.5Q139 373 110 373Q81 373 60.5 393.5Q40 414 40 443ZM142 290 178 -250H42L78 290Z" glyph-name="exclamdown" horiz-adv-x="220" unicode="&#161;" /><glyph d="M389 657Q372 662 349.5 665Q327 668 306 668Q268 668 244.5 653Q221 638 221 603V500H369V412H221V0H120V412H27V474L120 500V605Q120 681 164 722Q208 763 306 763Q313 763 324 762.5Q335 762 346.5 760.5Q358 759 369.5 757.5Q381 756 389 753Z" glyph-name="f" horiz-adv-x="409" unicode="f" /><glyph d="M420 209H183V0H85V500H452V406H183V303H420Z" glyph-name="f.smcp" horiz-adv-x="512" /><glyph d="M611 -13Q551 -13 520.5 14Q490 41 490 108V500H591V105Q591 91 599.5 86.5Q608 82 630 82V-13ZM389 657Q372 662 349.5 665Q327 668 306 668Q268 668 244.5 653Q221 638 221 603V500H369V412H221V0H120V412H27V474L120 500V605Q120 681 164 722Q208 763 306 763Q313 763 324 762.5Q335 762 346.5 760.5Q358 759 369.5 757.5Q381 756 389 753Z" glyph-name="f_dotlessi" horiz-adv-x="684" /><glyph d="M471 667Q471 696 491.5 716.5Q512 737 541 737Q570 737 590.5 716.5Q611 696 611 667Q611 638 590.5 617.5Q570 597 541 597Q512 597 491.5 617.5Q471 638 471 667ZM611 -13Q551 -13 520.5 14Q490 41 490 108V500H591V105Q591 91 599.5 86.5Q608 82 630 82V-13ZM389 657Q372 662 349.5 665Q327 668 306 668Q268 668 244.5 653Q221 638 221 603V500H369V412H221V0H120V412H27V474L120 500V605Q120 681 164 722Q208 763 306 763Q313 763 324 762.5Q335 762 346.5 760.5Q358 759 369.5 757.5Q381 756 389 753Z" glyph-name="fi" horiz-adv-x="684" unicode="&#64257;" /><glyph d="M540 292H60V390H540Z" glyph-name="figuredash" horiz-adv-x="600" unicode="&#8210;" /><glyph glyph-name="figurespace" horiz-adv-x="600" unicode="&#8199;" /><glyph d="M259 -13Q227 -13 196.5 -10.5Q166 -8 139 -4Q112 0 91 6Q70 12 57 20V119Q71 110 94.5 103Q118 96 146 91.5Q174 87 203.5 84.5Q233 82 260 82Q292 82 324.5 87.5Q357 93 383.5 109.5Q410 126 426.5 156Q443 186 443 235Q443 281 428 305.5Q413 330 388 341Q363 352 330 353.5Q297 355 261 355H79V750H533V655H179V450Q205 452 231.5 452.5Q258 453 290 453Q341 453 388 446Q435 439 470 416.5Q505 394 526 351Q547 308 547 235Q547 153 521.5 104Q496 55 455 29Q414 3 362.5 -5Q311 -13 259 -13Z" glyph-name="five" horiz-adv-x="600" unicode="5" /><glyph d="M259 -13Q227 -13 196.5 -10.5Q166 -8 139 -4Q112 0 91 6Q70 12 57 20V119Q71 110 94.5 103Q118 96 146 91.5Q174 87 203.5 84.5Q233 82 260 82Q292 82 324.5 87.5Q357 93 383.5 109.5Q410 126 426.5 156Q443 186 443 235Q443 281 428 305.5Q413 330 388 341Q363 352 330 353.5Q297 355 261 355H79V750H533V655H179V450Q205 452 231.5 452.5Q258 453 290 453Q341 453 388 446Q435 439 470 416.5Q505 394 526 351Q547 308 547 235Q547 153 521.5 104Q496 55 455 29Q414 3 362.5 -5Q311 -13 259 -13Z" glyph-name="five.LP" horiz-adv-x="600" /><glyph d="M222 -263Q168 -263 128.5 -252Q89 -241 57 -225V-125Q103 -150 141 -159Q179 -168 223 -168Q250 -168 279.5 -162.5Q309 -157 334.5 -140.5Q360 -124 376.5 -94Q393 -64 393 -15Q393 31 378.5 55.5Q364 80 341 91Q318 102 288 103.5Q258 105 228 105H79V500H483V405H179V200Q198 202 216 202.5Q234 203 249 203Q295 203 339.5 196Q384 189 419 166.5Q454 144 475.5 101Q497 58 497 -15Q497 -97 470 -146Q443 -195 402 -221Q361 -247 313 -255Q265 -263 222 -263Z" glyph-name="five.OP" horiz-adv-x="530" /><glyph d="M611 -13Q551 -13 520.5 14Q490 41 490 108V750H591V105Q591 91 599.5 86.5Q608 82 630 82V-13ZM389 657Q372 662 349.5 665Q327 668 306 668Q268 668 244.5 653Q221 638 221 603V500H369V412H221V0H120V412H27V474L120 500V605Q120 681 164 722Q208 763 306 763Q313 763 324 762.5Q335 762 346.5 760.5Q358 759 369.5 757.5Q381 756 389 753Z" glyph-name="fl" horiz-adv-x="684" unicode="&#64258;" /><glyph d="M355 763Q376 763 400.5 761.5Q425 760 450.5 756Q476 752 500 746.5Q524 741 544 732V638Q506 651 457.5 659.5Q409 668 355 668Q334 668 313 661.5Q292 655 275.5 642Q259 629 249 608.5Q239 588 239 561V438H510V350H239V0H139V350H46V411L139 438V561Q139 606 152 643Q165 680 191.5 707Q218 734 258.5 748.5Q299 763 355 763Z" glyph-name="florin" horiz-adv-x="600" unicode="&#402;" /><glyph d="M305 513Q341 513 382.5 507.5Q424 502 464 485V391Q426 404 389.5 411Q353 418 305 418Q268 418 243.5 398.5Q219 379 219 341V271H440V183H219V-250H119V183H26V244L119 271V341Q119 420 163.5 466.5Q208 513 305 513Z" glyph-name="florin.OP" horiz-adv-x="530" /><glyph d="M358 297V561L181 297ZM54 264 388 763H458V297H556V202H458V0H358V202H54Z" glyph-name="four" horiz-adv-x="600" unicode="4" /><glyph d="M358 297V561L181 297ZM54 264 388 763H458V297H556V202H458V0H358V202H54Z" glyph-name="four.LP" horiz-adv-x="600" /><glyph d="M338 95V313L188 95ZM54 62 368 513H438V95H556V0H438V-250H338V0H54Z" glyph-name="four.OP" horiz-adv-x="600" /><glyph glyph-name="fourperemspace" horiz-adv-x="250" unicode="&#8197;" /><glyph d="M-50 0 482 750H601L69 0Z" glyph-name="fraction" horiz-adv-x="551" unicode="&#8260;" /><glyph d="M225 -17Q185 -30 157.5 -49.5Q130 -69 130 -100Q130 -141 161 -154.5Q192 -168 255 -168Q286 -168 314.5 -164Q343 -160 365 -151Q387 -142 400 -126Q413 -110 413 -86Q413 -60 400 -48Q387 -36 355 -32ZM153 318Q153 298 156 280Q159 262 169.5 248.5Q180 235 200 226.5Q220 218 255 218Q289 218 309.5 226.5Q330 235 341 248.5Q352 262 355 280Q358 298 358 318Q358 337 355 355.5Q352 374 341 387.5Q330 401 309.5 409.5Q289 418 255 418Q220 418 200 409.5Q180 401 169.5 387.5Q159 374 156 355.5Q153 337 153 318ZM455 318Q455 278 445.5 242.5Q436 207 413 180.5Q390 154 351.5 138.5Q313 123 255 123Q246 123 237 123Q228 123 220 124Q211 118 203 110Q195 102 195 94Q195 85 199 81.5Q203 78 213 76L372 57Q442 49 479 16.5Q516 -16 516 -86Q516 -133 495 -166.5Q474 -200 438 -221.5Q402 -243 354.5 -253Q307 -263 255 -263Q148 -263 88 -224.5Q28 -186 28 -100Q28 -55 52.5 -26Q77 3 112 21V22Q104 33 99 47Q94 61 94 81Q94 103 104 121Q114 139 129 153Q87 179 71 222.5Q55 266 55 318Q55 358 64.5 393.5Q74 429 97 455.5Q120 482 158.5 497.5Q197 513 255 513Q281 513 303.5 509.5Q326 506 345 500H506V432L438 413Q447 392 451 368Q455 344 455 318Z" glyph-name="g" horiz-adv-x="548" unicode="g" /><glyph d="M307 82Q332 82 353.5 83.5Q375 85 395 89V183H293V277H493V23Q455 3 404 -5Q353 -13 307 -13Q243 -13 198 8Q153 29 124.5 64.5Q96 100 83 148Q70 196 70 250Q70 304 83 352Q96 400 124.5 435.5Q153 471 198 492Q243 513 307 513Q328 513 353.5 511Q379 509 403.5 505.5Q428 502 449 496Q470 490 484 482V388Q455 401 408.5 409.5Q362 418 307 418Q268 418 242.5 403.5Q217 389 201 365Q185 341 178.5 311Q172 281 172 250Q172 219 178.5 189Q185 159 201 135Q217 111 242.5 96.5Q268 82 307 82Z" glyph-name="g.smcp" horiz-adv-x="578" /><glyph d="M255 572Q219 572 189 582.5Q159 593 136.5 614.5Q114 636 101 669.5Q88 703 87 750H154Q155 723 160 705.5Q165 688 176.5 677.5Q188 667 207 662.5Q226 658 255 658Q284 658 303 662.5Q322 667 333.5 677.5Q345 688 350 705.5Q355 723 356 750H423Q422 703 409 669.5Q396 636 373.5 614.5Q351 593 321 582.5Q291 572 255 572ZM225 -17Q185 -30 157.5 -49.5Q130 -69 130 -100Q130 -141 161 -154.5Q192 -168 255 -168Q286 -168 314.5 -164Q343 -160 365 -151Q387 -142 400 -126Q413 -110 413 -86Q413 -60 400 -48Q387 -36 355 -32ZM153 318Q153 298 156 280Q159 262 169.5 248.5Q180 235 200 226.5Q220 218 255 218Q289 218 309.5 226.5Q330 235 341 248.5Q352 262 355 280Q358 298 358 318Q358 337 355 355.5Q352 374 341 387.5Q330 401 309.5 409.5Q289 418 255 418Q220 418 200 409.5Q180 401 169.5 387.5Q159 374 156 355.5Q153 337 153 318ZM455 318Q455 278 445.5 242.5Q436 207 413 180.5Q390 154 351.5 138.5Q313 123 255 123Q246 123 237 123Q228 123 220 124Q211 118 203 110Q195 102 195 94Q195 85 199 81.5Q203 78 213 76L372 57Q442 49 479 16.5Q516 -16 516 -86Q516 -133 495 -166.5Q474 -200 438 -221.5Q402 -243 354.5 -253Q307 -263 255 -263Q148 -263 88 -224.5Q28 -186 28 -100Q28 -55 52.5 -26Q77 3 112 21V22Q104 33 99 47Q94 61 94 81Q94 103 104 121Q114 139 129 153Q87 179 71 222.5Q55 266 55 318Q55 358 64.5 393.5Q74 429 97 455.5Q120 482 158.5 497.5Q197 513 255 513Q281 513 303.5 509.5Q326 506 345 500H506V432L438 413Q447 392 451 368Q455 344 455 318Z" glyph-name="gbreve" horiz-adv-x="548" unicode="&#287;" /><glyph d="M299 572Q263 572 233 582.5Q203 593 180.5 614.5Q158 636 145 669.5Q132 703 131 750H198Q199 723 204 705.5Q209 688 220.5 677.5Q232 667 251 662.5Q270 658 299 658Q328 658 347 662.5Q366 667 377.5 677.5Q389 688 394 705.5Q399 723 400 750H467Q466 703 453 669.5Q440 636 417.5 614.5Q395 593 365 582.5Q335 572 299 572ZM307 82Q332 82 353.5 83.5Q375 85 395 89V183H293V277H493V23Q455 3 404 -5Q353 -13 307 -13Q243 -13 198 8Q153 29 124.5 64.5Q96 100 83 148Q70 196 70 250Q70 304 83 352Q96 400 124.5 435.5Q153 471 198 492Q243 513 307 513Q328 513 353.5 511Q379 509 403.5 505.5Q428 502 449 496Q470 490 484 482V388Q455 401 408.5 409.5Q362 418 307 418Q268 418 242.5 403.5Q217 389 201 365Q185 341 178.5 311Q172 281 172 250Q172 219 178.5 189Q185 159 201 135Q217 111 242.5 96.5Q268 82 307 82Z" glyph-name="gbreve.smcp" horiz-adv-x="578" /><glyph d="M377 575 255 680 133 575H77L202 750H308L433 575ZM225 -17Q185 -30 157.5 -49.5Q130 -69 130 -100Q130 -141 161 -154.5Q192 -168 255 -168Q286 -168 314.5 -164Q343 -160 365 -151Q387 -142 400 -126Q413 -110 413 -86Q413 -60 400 -48Q387 -36 355 -32ZM153 318Q153 298 156 280Q159 262 169.5 248.5Q180 235 200 226.5Q220 218 255 218Q289 218 309.5 226.5Q330 235 341 248.5Q352 262 355 280Q358 298 358 318Q358 337 355 355.5Q352 374 341 387.5Q330 401 309.5 409.5Q289 418 255 418Q220 418 200 409.5Q180 401 169.5 387.5Q159 374 156 355.5Q153 337 153 318ZM455 318Q455 278 445.5 242.5Q436 207 413 180.5Q390 154 351.5 138.5Q313 123 255 123Q246 123 237 123Q228 123 220 124Q211 118 203 110Q195 102 195 94Q195 85 199 81.5Q203 78 213 76L372 57Q442 49 479 16.5Q516 -16 516 -86Q516 -133 495 -166.5Q474 -200 438 -221.5Q402 -243 354.5 -253Q307 -263 255 -263Q148 -263 88 -224.5Q28 -186 28 -100Q28 -55 52.5 -26Q77 3 112 21V22Q104 33 99 47Q94 61 94 81Q94 103 104 121Q114 139 129 153Q87 179 71 222.5Q55 266 55 318Q55 358 64.5 393.5Q74 429 97 455.5Q120 482 158.5 497.5Q197 513 255 513Q281 513 303.5 509.5Q326 506 345 500H506V432L438 413Q447 392 451 368Q455 344 455 318Z" glyph-name="gcircumflex" horiz-adv-x="548" unicode="&#285;" /><glyph d="M421 575 299 680 177 575H121L246 750H352L477 575ZM307 82Q332 82 353.5 83.5Q375 85 395 89V183H293V277H493V23Q455 3 404 -5Q353 -13 307 -13Q243 -13 198 8Q153 29 124.5 64.5Q96 100 83 148Q70 196 70 250Q70 304 83 352Q96 400 124.5 435.5Q153 471 198 492Q243 513 307 513Q328 513 353.5 511Q379 509 403.5 505.5Q428 502 449 496Q470 490 484 482V388Q455 401 408.5 409.5Q362 418 307 418Q268 418 242.5 403.5Q217 389 201 365Q185 341 178.5 311Q172 281 172 250Q172 219 178.5 189Q185 159 201 135Q217 111 242.5 96.5Q268 82 307 82Z" glyph-name="gcircumflex.smcp" horiz-adv-x="578" /><glyph d="M298 750 284 684Q303 676 314 659Q325 642 325 620Q325 591 304.5 570.5Q284 550 255 550Q226 550 205.5 570.5Q185 591 185 620Q185 638 193 654L237 750ZM225 -17Q185 -30 157.5 -49.5Q130 -69 130 -100Q130 -141 161 -154.5Q192 -168 255 -168Q286 -168 314.5 -164Q343 -160 365 -151Q387 -142 400 -126Q413 -110 413 -86Q413 -60 400 -48Q387 -36 355 -32ZM153 318Q153 298 156 280Q159 262 169.5 248.5Q180 235 200 226.5Q220 218 255 218Q289 218 309.5 226.5Q330 235 341 248.5Q352 262 355 280Q358 298 358 318Q358 337 355 355.5Q352 374 341 387.5Q330 401 309.5 409.5Q289 418 255 418Q220 418 200 409.5Q180 401 169.5 387.5Q159 374 156 355.5Q153 337 153 318ZM455 318Q455 278 445.5 242.5Q436 207 413 180.5Q390 154 351.5 138.5Q313 123 255 123Q246 123 237 123Q228 123 220 124Q211 118 203 110Q195 102 195 94Q195 85 199 81.5Q203 78 213 76L372 57Q442 49 479 16.5Q516 -16 516 -86Q516 -133 495 -166.5Q474 -200 438 -221.5Q402 -243 354.5 -253Q307 -263 255 -263Q148 -263 88 -224.5Q28 -186 28 -100Q28 -55 52.5 -26Q77 3 112 21V22Q104 33 99 47Q94 61 94 81Q94 103 104 121Q114 139 129 153Q87 179 71 222.5Q55 266 55 318Q55 358 64.5 393.5Q74 429 97 455.5Q120 482 158.5 497.5Q197 513 255 513Q281 513 303.5 509.5Q326 506 345 500H506V432L438 413Q447 392 451 368Q455 344 455 318Z" glyph-name="gcommaaccent" horiz-adv-x="548" unicode="&#291;" /><glyph d="M257 -250 271 -184Q252 -176 241 -159Q230 -142 230 -120Q230 -91 250.5 -70.5Q271 -50 300 -50Q329 -50 349.5 -70.5Q370 -91 370 -120Q370 -138 362 -154L318 -250ZM307 82Q332 82 353.5 83.5Q375 85 395 89V183H293V277H493V23Q455 3 404 -5Q353 -13 307 -13Q243 -13 198 8Q153 29 124.5 64.5Q96 100 83 148Q70 196 70 250Q70 304 83 352Q96 400 124.5 435.5Q153 471 198 492Q243 513 307 513Q328 513 353.5 511Q379 509 403.5 505.5Q428 502 449 496Q470 490 484 482V388Q455 401 408.5 409.5Q362 418 307 418Q268 418 242.5 403.5Q217 389 201 365Q185 341 178.5 311Q172 281 172 250Q172 219 178.5 189Q185 159 201 135Q217 111 242.5 96.5Q268 82 307 82Z" glyph-name="gcommaaccent.smcp" horiz-adv-x="578" /><glyph d="M185 667Q185 696 205.5 716.5Q226 737 255 737Q284 737 304.5 716.5Q325 696 325 667Q325 638 304.5 617.5Q284 597 255 597Q226 597 205.5 617.5Q185 638 185 667ZM225 -17Q185 -30 157.5 -49.5Q130 -69 130 -100Q130 -141 161 -154.5Q192 -168 255 -168Q286 -168 314.5 -164Q343 -160 365 -151Q387 -142 400 -126Q413 -110 413 -86Q413 -60 400 -48Q387 -36 355 -32ZM153 318Q153 298 156 280Q159 262 169.5 248.5Q180 235 200 226.5Q220 218 255 218Q289 218 309.5 226.5Q330 235 341 248.5Q352 262 355 280Q358 298 358 318Q358 337 355 355.5Q352 374 341 387.5Q330 401 309.5 409.5Q289 418 255 418Q220 418 200 409.5Q180 401 169.5 387.5Q159 374 156 355.5Q153 337 153 318ZM455 318Q455 278 445.5 242.5Q436 207 413 180.5Q390 154 351.5 138.5Q313 123 255 123Q246 123 237 123Q228 123 220 124Q211 118 203 110Q195 102 195 94Q195 85 199 81.5Q203 78 213 76L372 57Q442 49 479 16.5Q516 -16 516 -86Q516 -133 495 -166.5Q474 -200 438 -221.5Q402 -243 354.5 -253Q307 -263 255 -263Q148 -263 88 -224.5Q28 -186 28 -100Q28 -55 52.5 -26Q77 3 112 21V22Q104 33 99 47Q94 61 94 81Q94 103 104 121Q114 139 129 153Q87 179 71 222.5Q55 266 55 318Q55 358 64.5 393.5Q74 429 97 455.5Q120 482 158.5 497.5Q197 513 255 513Q281 513 303.5 509.5Q326 506 345 500H506V432L438 413Q447 392 451 368Q455 344 455 318Z" glyph-name="gdotaccent" horiz-adv-x="548" unicode="&#289;" /><glyph d="M229 667Q229 696 249.5 716.5Q270 737 299 737Q328 737 348.5 716.5Q369 696 369 667Q369 638 348.5 617.5Q328 597 299 597Q270 597 249.5 617.5Q229 638 229 667ZM307 82Q332 82 353.5 83.5Q375 85 395 89V183H293V277H493V23Q455 3 404 -5Q353 -13 307 -13Q243 -13 198 8Q153 29 124.5 64.5Q96 100 83 148Q70 196 70 250Q70 304 83 352Q96 400 124.5 435.5Q153 471 198 492Q243 513 307 513Q328 513 353.5 511Q379 509 403.5 505.5Q428 502 449 496Q470 490 484 482V388Q455 401 408.5 409.5Q362 418 307 418Q268 418 242.5 403.5Q217 389 201 365Q185 341 178.5 311Q172 281 172 250Q172 219 178.5 189Q185 159 201 135Q217 111 242.5 96.5Q268 82 307 82Z" glyph-name="gdotaccent.smcp" horiz-adv-x="578" /><glyph d="M304 665Q241 665 210.5 642.5Q180 620 180 588V0H80V587Q80 624 93 655.5Q106 687 133.5 710Q161 733 203.5 746.5Q246 760 304 760Q362 760 404 746.5Q446 733 474 710Q502 687 515 655.5Q528 624 528 587Q528 554 521 528.5Q514 503 498 483.5Q482 464 456.5 450.5Q431 437 394 427Q358 418 343 403.5Q328 389 328 365Q328 343 346 331.5Q364 320 417 314Q472 308 507 295Q542 282 562 262.5Q582 243 590 216.5Q598 190 598 157Q598 127 587.5 97Q577 67 553 43Q529 19 489.5 4.5Q450 -10 392 -10Q374 -10 352.5 -7.5Q331 -5 309.5 -1Q288 3 268 8Q248 13 235 19V115Q265 104 305.5 94.5Q346 85 393 85Q424 85 444 91.5Q464 98 476 108Q488 118 492.5 130.5Q497 143 497 156Q497 168 494 179Q491 190 482 199Q473 208 455.5 214Q438 220 409 223Q353 228 318 240.5Q283 253 263 271.5Q243 290 236 313.5Q229 337 229 365Q229 395 235.5 418.5Q242 442 258 460Q274 478 301.5 491.5Q329 505 371 516Q390 521 401 528.5Q412 536 418 545.5Q424 555 425.5 565.5Q427 576 427 588Q427 620 397 642.5Q367 665 304 665Z" glyph-name="germandbls" horiz-adv-x="645" unicode="&#223;" /><glyph d="M692 355Q692 328 717 318Q742 308 801 303Q855 298 892 287.5Q929 277 952 259.5Q975 242 985 215.5Q995 189 995 153Q995 120 983.5 89.5Q972 59 946.5 36.5Q921 14 878.5 0.5Q836 -13 775 -13Q756 -13 731.5 -11Q707 -9 682 -5Q657 -1 636 3.5Q615 8 604 13V107Q616 102 635.5 98Q655 94 678 90Q701 86 726.5 84Q752 82 776 82Q843 82 869.5 100.5Q896 119 896 152Q896 180 873.5 193.5Q851 207 792 212Q737 217 699.5 226.5Q662 236 638.5 252Q615 268 605 292Q595 316 595 350Q595 386 606.5 415.5Q618 445 643 467Q668 489 708 501Q748 513 805 513Q842 513 887.5 508.5Q933 504 972 487V395Q934 407 893 412.5Q852 418 804 418Q741 418 716.5 402.5Q692 387 692 355ZM162 355Q162 328 187 318Q212 308 271 303Q325 298 362 287.5Q399 277 422 259.5Q445 242 455 215.5Q465 189 465 153Q465 120 453.5 89.5Q442 59 416.5 36.5Q391 14 348.5 0.5Q306 -13 245 -13Q226 -13 201.5 -11Q177 -9 152 -5Q127 -1 106 3.5Q85 8 74 13V107Q86 102 105.5 98Q125 94 148 90Q171 86 196.5 84Q222 82 246 82Q313 82 339.5 100.5Q366 119 366 152Q366 180 343.5 193.5Q321 207 262 212Q207 217 169.5 226.5Q132 236 108.5 252Q85 268 75 292Q65 316 65 350Q65 386 76.5 415.5Q88 445 113 467Q138 489 178 501Q218 513 275 513Q312 513 357.5 508.5Q403 504 442 487V395Q404 407 363 412.5Q322 418 274 418Q211 418 186.5 402.5Q162 387 162 355Z" glyph-name="germandbls.smcp" horiz-adv-x="1060" /><glyph d="M252 575 107 750H228L308 575Z" glyph-name="grave" horiz-adv-x="540" unicode="`" /><glyph d="M50 223 205 341 50 459V562L320 382V300L50 120Z" glyph-name="greater" horiz-adv-x="365" unicode="&gt;" /><glyph d="M810 348 298 -13V113L603 314L624 326H60V424H625L604 436L298 637V763L810 402Z" glyph-name="greaterequal" horiz-adv-x="860" unicode="&#8805;" /><glyph d="M245 296 435 436V349L328 250L435 151V63L245 204ZM55 296 245 436V349L138 250L245 151V63L55 204Z" glyph-name="guillemotleft" horiz-adv-x="495" unicode="&#171;" /><glyph d="M250 204 60 63V151L167 250L60 349V436L250 296ZM440 204 250 63V151L357 250L250 349V436L440 296Z" glyph-name="guillemotright" horiz-adv-x="495" unicode="&#187;" /><glyph d="M55 296 245 436V349L138 250L245 151V63L55 204Z" glyph-name="guilsinglleft" horiz-adv-x="305" unicode="&#8249;" /><glyph d="M250 204 60 63V151L167 250L60 349V436L250 296Z" glyph-name="guilsinglright" horiz-adv-x="305" unicode="&#8250;" /><glyph d="M368 354Q368 389 345 403.5Q322 418 287 418Q249 418 220 411Q191 404 171 394V0H70V750H171V486Q198 500 228 506.5Q258 513 287 513Q380 513 425.5 470.5Q471 428 471 352V0H368Z" glyph-name="h" horiz-adv-x="536" unicode="h" /><glyph d="M414 0V209H184V0H85V500H184V303H414V500H513V0Z" glyph-name="h.smcp" horiz-adv-x="598" /><glyph glyph-name="hairspace" horiz-adv-x="50" unicode="&#8202;" /><glyph d="M368 354Q368 389 345 403.5Q322 418 287 418Q249 418 220 411Q191 404 171 394V0H70V576H-22V659H70V750H171V659H286V576H171V486Q198 500 228 506.5Q258 513 287 513Q380 513 425.5 470.5Q471 428 471 352V0H368Z" glyph-name="hbar" horiz-adv-x="536" unicode="&#295;" /><glyph d="M414 303V355H184V303ZM414 500H513V0H414V209H184V0H85V500H184V438H414Z" glyph-name="hbar.smcp" horiz-adv-x="598" /><glyph d="M243 825 121 930 -1 825H-57L68 1000H174L299 825ZM368 354Q368 389 345 403.5Q322 418 287 418Q249 418 220 411Q191 404 171 394V0H70V750H171V486Q198 500 228 506.5Q258 513 287 513Q380 513 425.5 470.5Q471 428 471 352V0H368Z" glyph-name="hcircumflex" horiz-adv-x="536" unicode="&#293;" /><glyph d="M421 575 299 680 177 575H121L246 750H352L477 575ZM414 0V209H184V0H85V500H184V303H414V500H513V0Z" glyph-name="hcircumflex.smcp" horiz-adv-x="598" /><glyph d="M330 575 410 750H531L386 575ZM153 575 233 750H355L210 575Z" glyph-name="hungarumlaut" horiz-adv-x="540" unicode="&#733;" /><glyph d="M320 292H50V390H320Z" glyph-name="hyphen" horiz-adv-x="370" unicode="-" /><glyph d="M62 667Q62 696 82.5 716.5Q103 737 132 737Q161 737 181.5 716.5Q202 696 202 667Q202 638 181.5 617.5Q161 597 132 597Q103 597 82.5 617.5Q62 638 62 667ZM202 -13Q142 -13 111.5 14Q81 41 81 108V500H182V105Q182 91 190.5 86.5Q199 82 221 82V-13Z" glyph-name="i" horiz-adv-x="275" unicode="i" /><glyph d="M107 0V500H205V0Z" glyph-name="i.smcp" horiz-adv-x="312" /><glyph d="M104 575 184 750H305L160 575ZM202 -13Q142 -13 111.5 14Q81 41 81 108V500H182V105Q182 91 190.5 86.5Q199 82 221 82V-13Z" glyph-name="iacute" horiz-adv-x="275" unicode="&#237;" /><glyph d="M129 575 209 750H330L185 575ZM107 0V500H205V0Z" glyph-name="iacute.smcp" horiz-adv-x="312" /><glyph d="M132 572Q96 572 66 582.5Q36 593 13.5 614.5Q-9 636 -22 669.5Q-35 703 -36 750H31Q32 723 37 705.5Q42 688 53.5 677.5Q65 667 84 662.5Q103 658 132 658Q161 658 180 662.5Q199 667 210.5 677.5Q222 688 227 705.5Q232 723 233 750H300Q299 703 286 669.5Q273 636 250.5 614.5Q228 593 198 582.5Q168 572 132 572ZM202 -13Q142 -13 111.5 14Q81 41 81 108V500H182V105Q182 91 190.5 86.5Q199 82 221 82V-13Z" glyph-name="ibreve" horiz-adv-x="275" unicode="&#301;" /><glyph d="M156 572Q120 572 90 582.5Q60 593 37.5 614.5Q15 636 2 669.5Q-11 703 -12 750H55Q56 723 61 705.5Q66 688 77.5 677.5Q89 667 108 662.5Q127 658 156 658Q185 658 204 662.5Q223 667 234.5 677.5Q246 688 251 705.5Q256 723 257 750H324Q323 703 310 669.5Q297 636 274.5 614.5Q252 593 222 582.5Q192 572 156 572ZM107 0V500H205V0Z" glyph-name="ibreve.smcp" horiz-adv-x="312" /><glyph d="M254 575 132 680 10 575H-46L79 750H185L310 575ZM202 -13Q142 -13 111.5 14Q81 41 81 108V500H182V105Q182 91 190.5 86.5Q199 82 221 82V-13Z" glyph-name="icircumflex" horiz-adv-x="275" unicode="&#238;" /><glyph d="M279 575 157 680 35 575H-21L104 750H210L335 575ZM107 0V500H205V0Z" glyph-name="icircumflex.smcp" horiz-adv-x="312" /><glyph d="M-48 667Q-48 696 -27.5 716.5Q-7 737 22 737Q51 737 71.5 716.5Q92 696 92 667Q92 638 71.5 617.5Q51 597 22 597Q-7 597 -27.5 617.5Q-48 638 -48 667ZM172 667Q172 696 192.5 716.5Q213 737 242 737Q271 737 291.5 716.5Q312 696 312 667Q312 638 291.5 617.5Q271 597 242 597Q213 597 192.5 617.5Q172 638 172 667ZM202 -13Q142 -13 111.5 14Q81 41 81 108V500H182V105Q182 91 190.5 86.5Q199 82 221 82V-13Z" glyph-name="idieresis" horiz-adv-x="275" unicode="&#239;" /><glyph d="M-23 667Q-23 696 -2.5 716.5Q18 737 47 737Q76 737 96.5 716.5Q117 696 117 667Q117 638 96.5 617.5Q76 597 47 597Q18 597 -2.5 617.5Q-23 638 -23 667ZM197 667Q197 696 217.5 716.5Q238 737 267 737Q296 737 316.5 716.5Q337 696 337 667Q337 638 316.5 617.5Q296 597 267 597Q238 597 217.5 617.5Q197 638 197 667ZM107 0V500H205V0Z" glyph-name="idieresis.smcp" horiz-adv-x="312" /><glyph d="M62 667Q62 696 82.5 716.5Q103 737 132 737Q161 737 181.5 716.5Q202 696 202 667Q202 638 181.5 617.5Q161 597 132 597Q103 597 82.5 617.5Q62 638 62 667ZM202 -13Q142 -13 111.5 14Q81 41 81 108V500H182V105Q182 91 190.5 86.5Q199 82 221 82V-13Z" glyph-name="idotaccent" horiz-adv-x="275" /><glyph d="M107 0V500H205V0ZM86 667Q86 696 106.5 716.5Q127 737 156 737Q185 737 205.5 716.5Q226 696 226 667Q226 638 205.5 617.5Q185 597 156 597Q127 597 106.5 617.5Q86 638 86 667Z" glyph-name="idotaccent.smcp" horiz-adv-x="312" /><glyph d="M104 575 -41 750H80L160 575ZM202 -13Q142 -13 111.5 14Q81 41 81 108V500H182V105Q182 91 190.5 86.5Q199 82 221 82V-13Z" glyph-name="igrave" horiz-adv-x="275" unicode="&#236;" /><glyph d="M129 575 -16 750H105L185 575ZM107 0V500H205V0Z" glyph-name="igrave.smcp" horiz-adv-x="312" /><glyph d="M337 667Q337 696 357.5 716.5Q378 737 407 737Q436 737 456.5 716.5Q477 696 477 667Q477 638 456.5 617.5Q436 597 407 597Q378 597 357.5 617.5Q337 638 337 667ZM237 -168Q258 -165 279 -159.5Q300 -154 317 -143.5Q334 -133 345 -117Q356 -101 356 -79V500H457V-88Q457 -129 437 -160Q417 -191 385.5 -212.5Q354 -234 314.5 -246Q275 -258 237 -260ZM62 667Q62 696 82.5 716.5Q103 737 132 737Q161 737 181.5 716.5Q202 696 202 667Q202 638 181.5 617.5Q161 597 132 597Q103 597 82.5 617.5Q62 638 62 667ZM202 -13Q142 -13 111.5 14Q81 41 81 108V500H182V105Q182 91 190.5 86.5Q199 82 221 82V-13Z" glyph-name="ij" horiz-adv-x="539" unicode="&#307;" /><glyph d="M357 94Q376 87 397.5 84.5Q419 82 441 82Q478 82 500.5 95Q523 108 523 143V500H622V145Q622 69 580 28Q538 -13 441 -13Q433 -13 422 -12.5Q411 -12 399 -10.5Q387 -9 375.5 -7Q364 -5 357 -3ZM107 0V500H205V0Z" glyph-name="ij.smcp" horiz-adv-x="729" /><glyph d="M-5 641V732H269V641ZM202 -13Q142 -13 111.5 14Q81 41 81 108V500H182V105Q182 91 190.5 86.5Q199 82 221 82V-13Z" glyph-name="imacron" horiz-adv-x="275" unicode="&#299;" /><glyph d="M19 641V732H293V641ZM107 0V500H205V0Z" glyph-name="imacron.smcp" horiz-adv-x="312" /><glyph d="M78 677Q78 664 91 659.5Q104 655 133 652Q187 647 208.5 630Q230 613 230 575Q230 541 205.5 517.5Q181 494 120 494Q111 494 99 495Q87 496 75 498Q63 500 52 502.5Q41 505 34 508V554Q50 549 73 544.5Q96 540 121 540Q154 540 167.5 548.5Q181 557 181 574Q181 589 169.5 596Q158 603 128 606Q73 611 51.5 625.5Q30 640 30 677Q30 712 54 734Q78 756 135 756Q153 756 175.5 753Q198 750 218 742V696Q200 702 178.5 706Q157 710 134 710Q102 710 90 702Q78 694 78 677ZM372 530 308 658 310 500H261V750H316L391 594L466 750H520V500H472L474 658L410 530Z" glyph-name="infinity" horiz-adv-x="575" unicode="&#8734;" /><glyph d="M185 650V100H725V650ZM80 750H830V0H80Z" glyph-name="integral" horiz-adv-x="910" unicode="&#8747;" /><glyph d="M270 760Q306 760 336 749.5Q366 739 388.5 717.5Q411 696 424 662Q437 628 438 582H371Q370 609 365 626.5Q360 644 348.5 654.5Q337 665 318 669.5Q299 674 270 674Q241 674 222 669.5Q203 665 191.5 654.5Q180 644 175 626.5Q170 609 169 582H102Q103 628 116 662Q129 696 151.5 717.5Q174 739 204 749.5Q234 760 270 760Z" glyph-name="invertedbreve" horiz-adv-x="500" /><glyph d="M62 667Q62 696 82.5 716.5Q103 737 132 737Q161 737 181.5 716.5Q202 696 202 667Q202 638 181.5 617.5Q161 597 132 597Q103 597 82.5 617.5Q62 638 62 667ZM221 -13Q189 -31 167.5 -55Q146 -79 146 -110Q146 -133 160 -144.5Q174 -156 197 -156Q218 -156 234.5 -153Q251 -150 260 -147V-215Q248 -220 227.5 -225Q207 -230 175 -230Q152 -230 131 -224Q110 -218 93.5 -205Q77 -192 67 -172.5Q57 -153 57 -126Q57 -112 60.5 -97Q64 -82 73 -66Q82 -50 97 -33.5Q112 -17 135 -1Q108 11 94.5 37Q81 63 81 108V500H182V105Q182 91 190.5 86.5Q199 82 221 82Z" glyph-name="iogonek" horiz-adv-x="275" unicode="&#303;" /><glyph d="M205 0Q192 -9 178.5 -20.5Q165 -32 154 -46Q143 -60 136 -76Q129 -92 129 -110Q129 -133 143 -144.5Q157 -156 180 -156Q201 -156 217.5 -153Q234 -150 243 -147V-215Q231 -220 210.5 -225Q190 -230 158 -230Q135 -230 114 -224Q93 -218 76.5 -205Q60 -192 50 -172.5Q40 -153 40 -126Q40 -99 54 -64Q68 -29 107 1V500H205Z" glyph-name="iogonek.smcp" horiz-adv-x="312" /><glyph d="M332 724Q331 584 207 587Q176 587 157 597Q138 607 124 618.5Q110 630 97.5 639.5Q85 649 67 649Q52 649 43 644Q34 639 29.5 631.5Q25 624 23.5 614Q22 604 22 594L-58 601Q-56 673 -26 706.5Q4 740 67 739Q98 738 117 728Q136 718 150 706.5Q164 695 176.5 685.5Q189 676 207 676Q222 676 231 681Q240 686 244.5 694Q249 702 250.5 711.5Q252 721 252 731ZM202 -13Q142 -13 111.5 14Q81 41 81 108V500H182V105Q182 91 190.5 86.5Q199 82 221 82V-13Z" glyph-name="itilde" horiz-adv-x="275" unicode="&#297;" /><glyph d="M352 724Q351 584 227 587Q196 587 177 597Q158 607 144 618.5Q130 630 117.5 639.5Q105 649 87 649Q72 649 63 644Q54 639 49.5 631.5Q45 624 43.5 614Q42 604 42 594L-38 601Q-36 673 -6 706.5Q24 740 87 739Q118 738 137 728Q156 718 170 706.5Q184 695 196.5 685.5Q209 676 227 676Q242 676 251 681Q260 686 264.5 694Q269 702 270.5 711.5Q272 721 272 731ZM107 0V500H205V0Z" glyph-name="itilde.smcp" horiz-adv-x="312" /><glyph d="M62 667Q62 696 82.5 716.5Q103 737 132 737Q161 737 181.5 716.5Q202 696 202 667Q202 638 181.5 617.5Q161 597 132 597Q103 597 82.5 617.5Q62 638 62 667ZM-38 -168Q-17 -165 4 -159.5Q25 -154 42 -143.5Q59 -133 70 -117Q81 -101 81 -79V500H182V-88Q182 -129 162 -160Q142 -191 110.5 -212.5Q79 -234 39.5 -246Q0 -258 -38 -260Z" glyph-name="j" horiz-adv-x="264" unicode="j" /><glyph d="M45 94Q64 87 85.5 84.5Q107 82 129 82Q166 82 188.5 95Q211 108 211 143V500H310V145Q310 69 268 28Q226 -13 129 -13Q121 -13 110 -12.5Q99 -12 87 -10.5Q75 -9 63.5 -7Q52 -5 45 -3Z" glyph-name="j.smcp" horiz-adv-x="417" /><glyph d="M254 575 132 680 10 575H-46L79 750H185L310 575ZM-38 -168Q-17 -165 4 -159.5Q25 -154 42 -143.5Q59 -133 70 -117Q81 -101 81 -79V500H182V-88Q182 -129 162 -160Q142 -191 110.5 -212.5Q79 -234 39.5 -246Q0 -258 -38 -260Z" glyph-name="jcircumflex" horiz-adv-x="264" unicode="&#309;" /><glyph d="M383 575 261 680 139 575H83L208 750H314L439 575ZM45 94Q64 87 85.5 84.5Q107 82 129 82Q166 82 188.5 95Q211 108 211 143V500H310V145Q310 69 268 28Q226 -13 129 -13Q121 -13 110 -12.5Q99 -12 87 -10.5Q75 -9 63.5 -7Q52 -5 45 -3Z" glyph-name="jcircumflex.smcp" horiz-adv-x="417" /><glyph d="M494 500 275 290 514 0H374L207 225L171 190V0H70V750H171V312L346 500Z" glyph-name="k" horiz-adv-x="528" unicode="k" /><glyph d="M503 500 287 290 523 0H386L219 225L183 190V0H85V500H183V312L358 500Z" glyph-name="k.smcp" horiz-adv-x="553" /><glyph d="M221 -250 235 -184Q216 -176 205 -159Q194 -142 194 -120Q194 -91 214.5 -70.5Q235 -50 264 -50Q293 -50 313.5 -70.5Q334 -91 334 -120Q334 -138 326 -154L282 -250ZM494 500 275 290 514 0H374L207 225L171 190V0H70V750H171V312L346 500Z" glyph-name="kcommaaccent" horiz-adv-x="528" unicode="&#311;" /><glyph d="M503 500 287 290 523 0H386L219 225L183 190V0H85V500H183V312L358 500ZM234 -250 248 -184Q229 -176 218 -159Q207 -142 207 -120Q207 -91 227.5 -70.5Q248 -50 277 -50Q306 -50 326.5 -70.5Q347 -91 347 -120Q347 -138 339 -154L295 -250Z" glyph-name="kcommaaccent.smcp" horiz-adv-x="553" /><glyph d="M494 500 275 290 514 0H374L207 225L171 190V0H70V500H171V312L346 500Z" glyph-name="kgreenlandic" horiz-adv-x="528" unicode="&#312;" /><glyph d="M202 -13Q142 -13 111.5 14Q81 41 81 108V750H182V105Q182 91 190.5 86.5Q199 82 221 82V-13Z" glyph-name="l" horiz-adv-x="275" unicode="l" /><glyph d="M184 94H462V0H85V500H184Z" glyph-name="l.smcp" horiz-adv-x="512" /><glyph d="M104 825 184 1000H305L160 825ZM202 -13Q142 -13 111.5 14Q81 41 81 108V750H182V105Q182 91 190.5 86.5Q199 82 221 82V-13Z" glyph-name="lacute" horiz-adv-x="275" unicode="&#314;" /><glyph d="M107 575 187 750H308L163 575ZM184 94H462V0H85V500H184Z" glyph-name="lacute.smcp" horiz-adv-x="512" /><glyph d="M331 750 283 550H227L243 750ZM202 -13Q142 -13 111.5 14Q81 41 81 108V750H182V105Q182 91 190.5 86.5Q199 82 221 82V-13Z" glyph-name="lcaron" horiz-adv-x="275" unicode="&#318;" /><glyph d="M381 600 333 400H277L293 600ZM184 94H462V0H85V500H184Z" glyph-name="lcaron.smcp" horiz-adv-x="512" /><glyph d="M110 -250 124 -184Q105 -176 94 -159Q83 -142 83 -120Q83 -91 103.5 -70.5Q124 -50 153 -50Q182 -50 202.5 -70.5Q223 -91 223 -120Q223 -138 215 -154L171 -250ZM202 -13Q142 -13 111.5 14Q81 41 81 108V750H182V105Q182 91 190.5 86.5Q199 82 221 82V-13Z" glyph-name="lcommaaccent" horiz-adv-x="275" unicode="&#316;" /><glyph d="M236 -250 250 -184Q231 -176 220 -159Q209 -142 209 -120Q209 -91 229.5 -70.5Q250 -50 279 -50Q308 -50 328.5 -70.5Q349 -91 349 -120Q349 -138 341 -154L297 -250ZM184 94H462V0H85V500H184Z" glyph-name="lcommaaccent.smcp" horiz-adv-x="512" /><glyph d="M241 300Q241 329 261.5 349.5Q282 370 311 370Q340 370 360.5 349.5Q381 329 381 300Q381 271 360.5 250.5Q340 230 311 230Q282 230 261.5 250.5Q241 271 241 300ZM202 -13Q142 -13 111.5 14Q81 41 81 108V750H182V105Q182 91 190.5 86.5Q199 82 221 82V-13Z" glyph-name="ldot" horiz-adv-x="355" unicode="&#320;" /><glyph d="M318 275Q318 304 338.5 324.5Q359 345 388 345Q417 345 437.5 324.5Q458 304 458 275Q458 246 437.5 225.5Q417 205 388 205Q359 205 338.5 225.5Q318 246 318 275ZM184 94H462V0H85V500H184Z" glyph-name="ldot.smcp" horiz-adv-x="512" /><glyph d="M315 120 45 300V382L315 562V459L160 341L315 223Z" glyph-name="less" horiz-adv-x="365" unicode="&lt;" /><glyph d="M50 402 562 763V637L256 436L235 424H800V326H236L257 314L562 113V-13L50 348Z" glyph-name="lessequal" horiz-adv-x="860" unicode="&#8804;" /><glyph d="M80 0V500H580V0Z" glyph-name="logicalnot" horiz-adv-x="660" unicode="&#172;" /><glyph d="M204 557 273 626 455 444 637 626 706 557 524 375 706 193 637 124 455 306 273 124 204 193 386 375ZM185 650V100H725V650ZM80 750H830V0H80Z" glyph-name="lozenge" horiz-adv-x="910" unicode="&#9674;" /><glyph d="M1 234V328L91 379V750H192V436L292 493V399L192 342V105Q192 91 200.5 86.5Q209 82 231 82V-13H212Q152 -13 121.5 14Q91 41 91 108V285Z" glyph-name="lslash" horiz-adv-x="310" unicode="&#322;" /><glyph d="M214 199V94H492V0H115V154L25 114V203L115 243V500H214V288L375 360V271Z" glyph-name="lslash.smcp" horiz-adv-x="542" /><glyph d="M439 472Q470 492 506 502.5Q542 513 574 513Q668 513 710.5 470Q753 427 753 352V0H650V345Q650 418 574 418Q539 418 511 411Q483 404 463 394L460 392Q463 374 463 352V0H360V345Q360 418 284 418Q249 418 221 411Q193 404 173 394V0H70V500H139L149 472Q180 492 216 502.5Q252 513 284 513Q335 513 369.5 500Q404 487 426 463Z" glyph-name="m" horiz-adv-x="818" unicode="m" /><glyph d="M306 59 179 317 182 0H85V500H194L345 189L496 500H605V0H508L511 317L384 59Z" glyph-name="m.smcp" horiz-adv-x="690" /><glyph d="M133 641V732H407V641Z" glyph-name="macron" horiz-adv-x="540" unicode="&#175;" /><glyph d="M60 390H460V292H60Z" glyph-name="minus" horiz-adv-x="520" unicode="&#8722;" /><glyph d="M65 500H168V142Q169 109 192 95.5Q215 82 249 82Q287 82 316 89Q345 96 365 106V500H468V0H399L389 28Q358 8 321.5 -2.5Q285 -13 249 -13Q204 -13 168 -2V-250H65Z" glyph-name="mu" horiz-adv-x="538" unicode="&#181;" /><glyph d="M84 234 191 341 84 448 153 517 260 410 367 517 436 448 329 341 436 234 367 165 260 272 153 165Z" glyph-name="multiply" horiz-adv-x="520" unicode="&#215;" /><glyph d="M370 354Q370 389 347 403.5Q324 418 289 418Q251 418 222 411Q193 404 173 394V0H70V500H139L149 472Q180 492 216.5 502.5Q253 513 289 513Q382 513 427.5 470.5Q473 428 473 352V0H370Z" glyph-name="n" horiz-adv-x="538" unicode="n" /><glyph d="M444 0 183 316 184 0H85V500H154L415 184L414 500H513V0Z" glyph-name="n.smcp" horiz-adv-x="598" /><glyph d="M254 575 334 750H455L310 575ZM370 354Q370 389 347 403.5Q324 418 289 418Q251 418 222 411Q193 404 173 394V0H70V500H139L149 472Q180 492 216.5 502.5Q253 513 289 513Q382 513 427.5 470.5Q473 428 473 352V0H370Z" glyph-name="nacute" horiz-adv-x="538" unicode="&#324;" /><glyph d="M271 575 351 750H472L327 575ZM444 0 183 316 184 0H85V500H154L415 184L414 500H513V0Z" glyph-name="nacute.smcp" horiz-adv-x="598" /><glyph d="M160 750 282 645 404 750H460L335 575H229L104 750ZM370 354Q370 389 347 403.5Q324 418 289 418Q251 418 222 411Q193 404 173 394V0H70V500H139L149 472Q180 492 216.5 502.5Q253 513 289 513Q382 513 427.5 470.5Q473 428 473 352V0H370Z" glyph-name="ncaron" horiz-adv-x="538" unicode="&#328;" /><glyph d="M477 750 352 575H246L121 750H177L299 645L421 750ZM444 0 183 316 184 0H85V500H154L415 184L414 500H513V0Z" glyph-name="ncaron.smcp" horiz-adv-x="598" /><glyph d="M228 -250 242 -184Q223 -176 212 -159Q201 -142 201 -120Q201 -91 221.5 -70.5Q242 -50 271 -50Q300 -50 320.5 -70.5Q341 -91 341 -120Q341 -138 333 -154L289 -250ZM370 354Q370 389 347 403.5Q324 418 289 418Q251 418 222 411Q193 404 173 394V0H70V500H139L149 472Q180 492 216.5 502.5Q253 513 289 513Q382 513 427.5 470.5Q473 428 473 352V0H370Z" glyph-name="ncommaaccent" horiz-adv-x="538" unicode="&#326;" /><glyph d="M256 -250 270 -184Q251 -176 240 -159Q229 -142 229 -120Q229 -91 249.5 -70.5Q270 -50 299 -50Q328 -50 348.5 -70.5Q369 -91 369 -120Q369 -138 361 -154L317 -250ZM444 0 183 316 184 0H85V500H154L415 184L414 500H513V0Z" glyph-name="ncommaaccent.smcp" horiz-adv-x="598" /><glyph d="M431 520Q431 545 426 571Q421 597 406 618.5Q391 640 363.5 654Q336 668 292 668Q250 668 225 652.5Q200 637 186.5 614.5Q173 592 169 566.5Q165 541 165 520Q165 499 168 473Q171 447 184 424.5Q197 402 222.5 387Q248 372 292 372Q336 372 363.5 386.5Q391 401 406 423Q421 445 426 471Q431 497 431 520ZM85 115Q127 98 171.5 91Q216 84 267 84Q316 84 348 104.5Q380 125 399 159.5Q418 194 427 239.5Q436 285 440 336Q417 311 380 294Q343 277 292 277Q214 277 168.5 301Q123 325 99.5 361Q76 397 69.5 439.5Q63 482 63 520Q63 558 71 600.5Q79 643 103.5 679Q128 715 173 739Q218 763 292 763Q373 763 421.5 738Q470 713 495.5 667Q521 621 529 556.5Q537 492 537 414Q537 324 526.5 246Q516 168 486.5 110.5Q457 53 404.5 20Q352 -13 267 -13Q210 -13 164.5 -5.5Q119 2 85 16Z" glyph-name="nine" horiz-adv-x="600" unicode="9" /><glyph d="M431 520Q431 545 426 571Q421 597 406 618.5Q391 640 363.5 654Q336 668 292 668Q250 668 225 652.5Q200 637 186.5 614.5Q173 592 169 566.5Q165 541 165 520Q165 499 168 473Q171 447 184 424.5Q197 402 222.5 387Q248 372 292 372Q336 372 363.5 386.5Q391 401 406 423Q421 445 426 471Q431 497 431 520ZM85 115Q127 98 171.5 91Q216 84 267 84Q316 84 348 104.5Q380 125 399 159.5Q418 194 427 239.5Q436 285 440 336Q417 311 380 294Q343 277 292 277Q214 277 168.5 301Q123 325 99.5 361Q76 397 69.5 439.5Q63 482 63 520Q63 558 71 600.5Q79 643 103.5 679Q128 715 173 739Q218 763 292 763Q373 763 421.5 738Q470 713 495.5 667Q521 621 529 556.5Q537 492 537 414Q537 324 526.5 246Q516 168 486.5 110.5Q457 53 404.5 20Q352 -13 267 -13Q210 -13 164.5 -5.5Q119 2 85 16Z" glyph-name="nine.LP" horiz-adv-x="600" /><glyph d="M436 270Q436 295 431 321Q426 347 411 368.5Q396 390 368.5 404Q341 418 297 418Q255 418 230 402.5Q205 387 191.5 364.5Q178 342 174 316.5Q170 291 170 270Q170 249 173 223Q176 197 189 174.5Q202 152 227.5 137Q253 122 297 122Q341 122 368.5 136.5Q396 151 411 173Q426 195 431 221Q436 247 436 270ZM90 -135Q132 -152 176.5 -159Q221 -166 272 -166Q321 -166 353 -145.5Q385 -125 404 -90.5Q423 -56 432 -10.5Q441 35 445 86Q422 61 385 44Q348 27 297 27Q219 27 173.5 51Q128 75 104.5 111Q81 147 74.5 189.5Q68 232 68 270Q68 308 76 350.5Q84 393 108.5 429Q133 465 178 489Q223 513 297 513Q378 513 426.5 488Q475 463 500.5 417Q526 371 534 306.5Q542 242 542 164Q542 74 531.5 -4Q521 -82 491.5 -139.5Q462 -197 409.5 -230Q357 -263 272 -263Q215 -263 169.5 -255.5Q124 -248 90 -234Z" glyph-name="nine.OP" horiz-adv-x="605" /><glyph d="M80 0V750H830V0Z" glyph-name="notequal" horiz-adv-x="910" unicode="&#8800;" /><glyph d="M477 724Q476 584 352 587Q321 587 302 597Q283 607 269 618.5Q255 630 242.5 639.5Q230 649 212 649Q197 649 188 644Q179 639 174.5 631.5Q170 624 168.5 614Q167 604 167 594L87 601Q89 673 119 706.5Q149 740 212 739Q243 738 262 728Q281 718 295 706.5Q309 695 321.5 685.5Q334 676 352 676Q367 676 376 681Q385 686 389.5 694Q394 702 395.5 711.5Q397 721 397 731ZM370 354Q370 389 347 403.5Q324 418 289 418Q251 418 222 411Q193 404 173 394V0H70V500H139L149 472Q180 492 216.5 502.5Q253 513 289 513Q382 513 427.5 470.5Q473 428 473 352V0H370Z" glyph-name="ntilde" horiz-adv-x="538" unicode="&#241;" /><glyph d="M494 724Q493 584 369 587Q338 587 319 597Q300 607 286 618.5Q272 630 259.5 639.5Q247 649 229 649Q214 649 205 644Q196 639 191.5 631.5Q187 624 185.5 614Q184 604 184 594L104 601Q106 673 136 706.5Q166 740 229 739Q260 738 279 728Q298 718 312 706.5Q326 695 338.5 685.5Q351 676 369 676Q384 676 393 681Q402 686 406.5 694Q411 702 412.5 711.5Q414 721 414 731ZM444 0 183 316 184 0H85V500H154L415 184L414 500H513V0Z" glyph-name="ntilde.smcp" horiz-adv-x="598" /><glyph d="M226 465H326L354 536H254ZM288 366H189L144 249H41L86 366H10L39 465H124L152 536H75L104 635H190L233 750H336L292 635H393L436 750H539L495 635H575L546 536H457L429 465H510L481 366H392L347 249H245Z" glyph-name="numbersign" horiz-adv-x="585" unicode="#" /><glyph d="M226 215H326L354 286H254ZM288 116H189L144 -1H41L86 116H10L39 215H124L152 286H75L104 385H190L233 500H336L292 385H393L436 500H539L495 385H575L546 286H457L429 215H510L481 116H392L347 -1H245Z" glyph-name="numbersign.OP" horiz-adv-x="585" /><glyph d="M392 250Q392 286 389 316.5Q386 347 374 369.5Q362 392 339 405Q316 418 277 418Q237 418 214 405Q191 392 179.5 369.5Q168 347 165 316.5Q162 286 162 250Q162 214 165 183.5Q168 153 179.5 130.5Q191 108 214 95Q237 82 277 82Q316 82 339 95Q362 108 374 130.5Q386 153 389 183.5Q392 214 392 250ZM494 250Q494 191 485.5 143Q477 95 453.5 60Q430 25 387.5 6Q345 -13 277 -13Q209 -13 167 6Q125 25 101 60Q77 95 68.5 143Q60 191 60 250Q60 308 68.5 356.5Q77 405 101 440Q125 475 167 494Q209 513 277 513Q345 513 387.5 494Q430 475 453.5 440Q477 405 485.5 356.5Q494 308 494 250Z" glyph-name="o" horiz-adv-x="554" unicode="o" /><glyph d="M436 250Q436 286 430.5 316.5Q425 347 410.5 369.5Q396 392 370 405Q344 418 303 418Q262 418 236 405Q210 392 195.5 369.5Q181 347 175.5 316.5Q170 286 170 250Q170 214 175.5 183.5Q181 153 195.5 130.5Q210 108 236 95Q262 82 303 82Q344 82 370 95Q396 108 410.5 130.5Q425 153 430.5 183.5Q436 214 436 250ZM536 250Q536 193 524 144.5Q512 96 484.5 61Q457 26 412.5 6.5Q368 -13 303 -13Q238 -13 193.5 6.5Q149 26 121.5 61Q94 96 82 144.5Q70 193 70 250Q70 307 82 355.5Q94 404 121.5 439Q149 474 193.5 493.5Q238 513 303 513Q368 513 412.5 493.5Q457 474 484.5 439Q512 404 524 355.5Q536 307 536 250Z" glyph-name="o.smcp" horiz-adv-x="606" /><glyph d="M249 575 329 750H450L305 575ZM392 250Q392 286 389 316.5Q386 347 374 369.5Q362 392 339 405Q316 418 277 418Q237 418 214 405Q191 392 179.5 369.5Q168 347 165 316.5Q162 286 162 250Q162 214 165 183.5Q168 153 179.5 130.5Q191 108 214 95Q237 82 277 82Q316 82 339 95Q362 108 374 130.5Q386 153 389 183.5Q392 214 392 250ZM494 250Q494 191 485.5 143Q477 95 453.5 60Q430 25 387.5 6Q345 -13 277 -13Q209 -13 167 6Q125 25 101 60Q77 95 68.5 143Q60 191 60 250Q60 308 68.5 356.5Q77 405 101 440Q125 475 167 494Q209 513 277 513Q345 513 387.5 494Q430 475 453.5 440Q477 405 485.5 356.5Q494 308 494 250Z" glyph-name="oacute" horiz-adv-x="554" unicode="&#243;" /><glyph d="M275 575 355 750H476L331 575ZM436 250Q436 286 430.5 316.5Q425 347 410.5 369.5Q396 392 370 405Q344 418 303 418Q262 418 236 405Q210 392 195.5 369.5Q181 347 175.5 316.5Q170 286 170 250Q170 214 175.5 183.5Q181 153 195.5 130.5Q210 108 236 95Q262 82 303 82Q344 82 370 95Q396 108 410.5 130.5Q425 153 430.5 183.5Q436 214 436 250ZM536 250Q536 193 524 144.5Q512 96 484.5 61Q457 26 412.5 6.5Q368 -13 303 -13Q238 -13 193.5 6.5Q149 26 121.5 61Q94 96 82 144.5Q70 193 70 250Q70 307 82 355.5Q94 404 121.5 439Q149 474 193.5 493.5Q238 513 303 513Q368 513 412.5 493.5Q457 474 484.5 439Q512 404 524 355.5Q536 307 536 250Z" glyph-name="oacute.smcp" horiz-adv-x="606" /><glyph d="M277 572Q241 572 211 582.5Q181 593 158.5 614.5Q136 636 123 669.5Q110 703 109 750H176Q177 723 182 705.5Q187 688 198.5 677.5Q210 667 229 662.5Q248 658 277 658Q306 658 325 662.5Q344 667 355.5 677.5Q367 688 372 705.5Q377 723 378 750H445Q444 703 431 669.5Q418 636 395.5 614.5Q373 593 343 582.5Q313 572 277 572ZM392 250Q392 286 389 316.5Q386 347 374 369.5Q362 392 339 405Q316 418 277 418Q237 418 214 405Q191 392 179.5 369.5Q168 347 165 316.5Q162 286 162 250Q162 214 165 183.5Q168 153 179.5 130.5Q191 108 214 95Q237 82 277 82Q316 82 339 95Q362 108 374 130.5Q386 153 389 183.5Q392 214 392 250ZM494 250Q494 191 485.5 143Q477 95 453.5 60Q430 25 387.5 6Q345 -13 277 -13Q209 -13 167 6Q125 25 101 60Q77 95 68.5 143Q60 191 60 250Q60 308 68.5 356.5Q77 405 101 440Q125 475 167 494Q209 513 277 513Q345 513 387.5 494Q430 475 453.5 440Q477 405 485.5 356.5Q494 308 494 250Z" glyph-name="obreve" horiz-adv-x="554" unicode="&#335;" /><glyph d="M303 572Q267 572 237 582.5Q207 593 184.5 614.5Q162 636 149 669.5Q136 703 135 750H202Q203 723 208 705.5Q213 688 224.5 677.5Q236 667 255 662.5Q274 658 303 658Q332 658 351 662.5Q370 667 381.5 677.5Q393 688 398 705.5Q403 723 404 750H471Q470 703 457 669.5Q444 636 421.5 614.5Q399 593 369 582.5Q339 572 303 572ZM436 250Q436 286 430.5 316.5Q425 347 410.5 369.5Q396 392 370 405Q344 418 303 418Q262 418 236 405Q210 392 195.5 369.5Q181 347 175.5 316.5Q170 286 170 250Q170 214 175.5 183.5Q181 153 195.5 130.5Q210 108 236 95Q262 82 303 82Q344 82 370 95Q396 108 410.5 130.5Q425 153 430.5 183.5Q436 214 436 250ZM536 250Q536 193 524 144.5Q512 96 484.5 61Q457 26 412.5 6.5Q368 -13 303 -13Q238 -13 193.5 6.5Q149 26 121.5 61Q94 96 82 144.5Q70 193 70 250Q70 307 82 355.5Q94 404 121.5 439Q149 474 193.5 493.5Q238 513 303 513Q368 513 412.5 493.5Q457 474 484.5 439Q512 404 524 355.5Q536 307 536 250Z" glyph-name="obreve.smcp" horiz-adv-x="606" /><glyph d="M399 575 277 680 155 575H99L224 750H330L455 575ZM392 250Q392 286 389 316.5Q386 347 374 369.5Q362 392 339 405Q316 418 277 418Q237 418 214 405Q191 392 179.5 369.5Q168 347 165 316.5Q162 286 162 250Q162 214 165 183.5Q168 153 179.5 130.5Q191 108 214 95Q237 82 277 82Q316 82 339 95Q362 108 374 130.5Q386 153 389 183.5Q392 214 392 250ZM494 250Q494 191 485.5 143Q477 95 453.5 60Q430 25 387.5 6Q345 -13 277 -13Q209 -13 167 6Q125 25 101 60Q77 95 68.5 143Q60 191 60 250Q60 308 68.5 356.5Q77 405 101 440Q125 475 167 494Q209 513 277 513Q345 513 387.5 494Q430 475 453.5 440Q477 405 485.5 356.5Q494 308 494 250Z" glyph-name="ocircumflex" horiz-adv-x="554" unicode="&#244;" /><glyph d="M425 575 303 680 181 575H125L250 750H356L481 575ZM436 250Q436 286 430.5 316.5Q425 347 410.5 369.5Q396 392 370 405Q344 418 303 418Q262 418 236 405Q210 392 195.5 369.5Q181 347 175.5 316.5Q170 286 170 250Q170 214 175.5 183.5Q181 153 195.5 130.5Q210 108 236 95Q262 82 303 82Q344 82 370 95Q396 108 410.5 130.5Q425 153 430.5 183.5Q436 214 436 250ZM536 250Q536 193 524 144.5Q512 96 484.5 61Q457 26 412.5 6.5Q368 -13 303 -13Q238 -13 193.5 6.5Q149 26 121.5 61Q94 96 82 144.5Q70 193 70 250Q70 307 82 355.5Q94 404 121.5 439Q149 474 193.5 493.5Q238 513 303 513Q368 513 412.5 493.5Q457 474 484.5 439Q512 404 524 355.5Q536 307 536 250Z" glyph-name="ocircumflex.smcp" horiz-adv-x="606" /><glyph d="M317 667Q317 696 337.5 716.5Q358 737 387 737Q416 737 436.5 716.5Q457 696 457 667Q457 638 436.5 617.5Q416 597 387 597Q358 597 337.5 617.5Q317 638 317 667ZM97 667Q97 696 117.5 716.5Q138 737 167 737Q196 737 216.5 716.5Q237 696 237 667Q237 638 216.5 617.5Q196 597 167 597Q138 597 117.5 617.5Q97 638 97 667ZM392 250Q392 286 389 316.5Q386 347 374 369.5Q362 392 339 405Q316 418 277 418Q237 418 214 405Q191 392 179.5 369.5Q168 347 165 316.5Q162 286 162 250Q162 214 165 183.5Q168 153 179.5 130.5Q191 108 214 95Q237 82 277 82Q316 82 339 95Q362 108 374 130.5Q386 153 389 183.5Q392 214 392 250ZM494 250Q494 191 485.5 143Q477 95 453.5 60Q430 25 387.5 6Q345 -13 277 -13Q209 -13 167 6Q125 25 101 60Q77 95 68.5 143Q60 191 60 250Q60 308 68.5 356.5Q77 405 101 440Q125 475 167 494Q209 513 277 513Q345 513 387.5 494Q430 475 453.5 440Q477 405 485.5 356.5Q494 308 494 250Z" glyph-name="odieresis" horiz-adv-x="554" unicode="&#246;" /><glyph d="M343 667Q343 696 363.5 716.5Q384 737 413 737Q442 737 462.5 716.5Q483 696 483 667Q483 638 462.5 617.5Q442 597 413 597Q384 597 363.5 617.5Q343 638 343 667ZM123 667Q123 696 143.5 716.5Q164 737 193 737Q222 737 242.5 716.5Q263 696 263 667Q263 638 242.5 617.5Q222 597 193 597Q164 597 143.5 617.5Q123 638 123 667ZM436 250Q436 286 430.5 316.5Q425 347 410.5 369.5Q396 392 370 405Q344 418 303 418Q262 418 236 405Q210 392 195.5 369.5Q181 347 175.5 316.5Q170 286 170 250Q170 214 175.5 183.5Q181 153 195.5 130.5Q210 108 236 95Q262 82 303 82Q344 82 370 95Q396 108 410.5 130.5Q425 153 430.5 183.5Q436 214 436 250ZM536 250Q536 193 524 144.5Q512 96 484.5 61Q457 26 412.5 6.5Q368 -13 303 -13Q238 -13 193.5 6.5Q149 26 121.5 61Q94 96 82 144.5Q70 193 70 250Q70 307 82 355.5Q94 404 121.5 439Q149 474 193.5 493.5Q238 513 303 513Q368 513 412.5 493.5Q457 474 484.5 439Q512 404 524 355.5Q536 307 536 250Z" glyph-name="odieresis.smcp" horiz-adv-x="606" /><glyph d="M615 418Q583 418 561.5 408.5Q540 399 526.5 381.5Q513 364 506.5 341Q500 318 497 291H708Q708 316 705 339Q702 362 692 379.5Q682 397 664 407.5Q646 418 615 418ZM277 82Q314 82 337 94Q360 106 372 127Q384 148 388 176.5Q392 205 392 238V261Q392 295 388 323.5Q384 352 372 373Q360 394 337 406Q314 418 277 418Q237 418 214 405Q191 392 179.5 369.5Q168 347 165 316.5Q162 286 162 250Q162 214 165 183.5Q168 153 179.5 130.5Q191 108 214 95Q237 82 277 82ZM498 202Q501 176 508.5 154Q516 132 529.5 116Q543 100 564 91Q585 82 615 82Q639 82 660 84Q681 86 701.5 90Q722 94 743 101Q764 108 787 118V21Q739 -1 695 -7Q651 -13 615 -13Q555 -13 514 3.5Q473 20 447 50Q422 20 381 3.5Q340 -13 277 -13Q209 -13 167 6Q125 25 101 60Q77 95 68.5 143Q60 191 60 250Q60 308 68.5 356.5Q77 405 101 440Q125 475 167 494Q209 513 277 513Q340 513 381 496.5Q422 480 447 449Q473 480 514 496.5Q555 513 615 513Q681 513 720 491.5Q759 470 780 434Q801 398 807.5 350Q814 302 814 250V202Z" glyph-name="oe" horiz-adv-x="874" unicode="&#339;" /><glyph d="M169 250Q169 215 176 186Q183 157 199.5 136.5Q216 116 243.5 105Q271 94 312 94H359V406H312Q271 406 243.5 395Q216 384 199.5 363.5Q183 343 176 314Q169 285 169 250ZM673 209H458V94H706V0H313Q248 0 202 17.5Q156 35 126.5 67.5Q97 100 83.5 146.5Q70 193 70 250Q70 307 83.5 353.5Q97 400 126.5 432.5Q156 465 202 482.5Q248 500 313 500H706V406H458V303H673Z" glyph-name="oe.smcp" horiz-adv-x="776" /><glyph d="M352 0Q310 -19 280.5 -46Q251 -73 251 -110Q251 -133 265 -144.5Q279 -156 302 -156Q323 -156 339.5 -153Q356 -150 365 -147V-215Q353 -220 332.5 -225Q312 -230 280 -230Q257 -230 236 -224Q215 -218 198.5 -205Q182 -192 172 -172.5Q162 -153 162 -126Q162 -110 167.5 -91Q173 -72 186.5 -52.5Q200 -33 224 -13Q248 7 286 26Z" glyph-name="ogonek" horiz-adv-x="526" unicode="&#731;" /><glyph d="M249 575 104 750H225L305 575ZM392 250Q392 286 389 316.5Q386 347 374 369.5Q362 392 339 405Q316 418 277 418Q237 418 214 405Q191 392 179.5 369.5Q168 347 165 316.5Q162 286 162 250Q162 214 165 183.5Q168 153 179.5 130.5Q191 108 214 95Q237 82 277 82Q316 82 339 95Q362 108 374 130.5Q386 153 389 183.5Q392 214 392 250ZM494 250Q494 191 485.5 143Q477 95 453.5 60Q430 25 387.5 6Q345 -13 277 -13Q209 -13 167 6Q125 25 101 60Q77 95 68.5 143Q60 191 60 250Q60 308 68.5 356.5Q77 405 101 440Q125 475 167 494Q209 513 277 513Q345 513 387.5 494Q430 475 453.5 440Q477 405 485.5 356.5Q494 308 494 250Z" glyph-name="ograve" horiz-adv-x="554" unicode="&#242;" /><glyph d="M275 575 130 750H251L331 575ZM436 250Q436 286 430.5 316.5Q425 347 410.5 369.5Q396 392 370 405Q344 418 303 418Q262 418 236 405Q210 392 195.5 369.5Q181 347 175.5 316.5Q170 286 170 250Q170 214 175.5 183.5Q181 153 195.5 130.5Q210 108 236 95Q262 82 303 82Q344 82 370 95Q396 108 410.5 130.5Q425 153 430.5 183.5Q436 214 436 250ZM536 250Q536 193 524 144.5Q512 96 484.5 61Q457 26 412.5 6.5Q368 -13 303 -13Q238 -13 193.5 6.5Q149 26 121.5 61Q94 96 82 144.5Q70 193 70 250Q70 307 82 355.5Q94 404 121.5 439Q149 474 193.5 493.5Q238 513 303 513Q368 513 412.5 493.5Q457 474 484.5 439Q512 404 524 355.5Q536 307 536 250Z" glyph-name="ograve.smcp" horiz-adv-x="606" /><glyph d="M335 575 415 750H536L391 575ZM158 575 238 750H360L215 575ZM392 250Q392 286 389 316.5Q386 347 374 369.5Q362 392 339 405Q316 418 277 418Q237 418 214 405Q191 392 179.5 369.5Q168 347 165 316.5Q162 286 162 250Q162 214 165 183.5Q168 153 179.5 130.5Q191 108 214 95Q237 82 277 82Q316 82 339 95Q362 108 374 130.5Q386 153 389 183.5Q392 214 392 250ZM494 250Q494 191 485.5 143Q477 95 453.5 60Q430 25 387.5 6Q345 -13 277 -13Q209 -13 167 6Q125 25 101 60Q77 95 68.5 143Q60 191 60 250Q60 308 68.5 356.5Q77 405 101 440Q125 475 167 494Q209 513 277 513Q345 513 387.5 494Q430 475 453.5 440Q477 405 485.5 356.5Q494 308 494 250Z" glyph-name="ohungarumlaut" horiz-adv-x="554" unicode="&#337;" /><glyph d="M356 575 436 750H557L412 575ZM179 575 259 750H381L236 575ZM436 250Q436 286 430.5 316.5Q425 347 410.5 369.5Q396 392 370 405Q344 418 303 418Q262 418 236 405Q210 392 195.5 369.5Q181 347 175.5 316.5Q170 286 170 250Q170 214 175.5 183.5Q181 153 195.5 130.5Q210 108 236 95Q262 82 303 82Q344 82 370 95Q396 108 410.5 130.5Q425 153 430.5 183.5Q436 214 436 250ZM536 250Q536 193 524 144.5Q512 96 484.5 61Q457 26 412.5 6.5Q368 -13 303 -13Q238 -13 193.5 6.5Q149 26 121.5 61Q94 96 82 144.5Q70 193 70 250Q70 307 82 355.5Q94 404 121.5 439Q149 474 193.5 493.5Q238 513 303 513Q368 513 412.5 493.5Q457 474 484.5 439Q512 404 524 355.5Q536 307 536 250Z" glyph-name="ohungarumlaut.smcp" horiz-adv-x="606" /><glyph d="M140 641V732H414V641ZM392 250Q392 286 389 316.5Q386 347 374 369.5Q362 392 339 405Q316 418 277 418Q237 418 214 405Q191 392 179.5 369.5Q168 347 165 316.5Q162 286 162 250Q162 214 165 183.5Q168 153 179.5 130.5Q191 108 214 95Q237 82 277 82Q316 82 339 95Q362 108 374 130.5Q386 153 389 183.5Q392 214 392 250ZM494 250Q494 191 485.5 143Q477 95 453.5 60Q430 25 387.5 6Q345 -13 277 -13Q209 -13 167 6Q125 25 101 60Q77 95 68.5 143Q60 191 60 250Q60 308 68.5 356.5Q77 405 101 440Q125 475 167 494Q209 513 277 513Q345 513 387.5 494Q430 475 453.5 440Q477 405 485.5 356.5Q494 308 494 250Z" glyph-name="omacron" horiz-adv-x="554" unicode="&#333;" /><glyph d="M166 641V732H440V641ZM436 250Q436 286 430.5 316.5Q425 347 410.5 369.5Q396 392 370 405Q344 418 303 418Q262 418 236 405Q210 392 195.5 369.5Q181 347 175.5 316.5Q170 286 170 250Q170 214 175.5 183.5Q181 153 195.5 130.5Q210 108 236 95Q262 82 303 82Q344 82 370 95Q396 108 410.5 130.5Q425 153 430.5 183.5Q436 214 436 250ZM536 250Q536 193 524 144.5Q512 96 484.5 61Q457 26 412.5 6.5Q368 -13 303 -13Q238 -13 193.5 6.5Q149 26 121.5 61Q94 96 82 144.5Q70 193 70 250Q70 307 82 355.5Q94 404 121.5 439Q149 474 193.5 493.5Q238 513 303 513Q368 513 412.5 493.5Q457 474 484.5 439Q512 404 524 355.5Q536 307 536 250Z" glyph-name="omacron.smcp" horiz-adv-x="606" /><glyph d="M490 0H105V88H244V659L90 653V704L299 763H351V88H490Z" glyph-name="one" horiz-adv-x="600" unicode="1" /><glyph d="M251 763V0H144V659L17 654V712L199 763Z" glyph-name="one.LP" horiz-adv-x="360" /><glyph d="M251 513V0H144V409L17 404V462L199 513Z" glyph-name="one.OP" horiz-adv-x="360" /><glyph d="M283 292H50V390H283Z" glyph-name="onethirdemdash" horiz-adv-x="333" /><glyph d="M186 540Q137 536 137 499Q137 482 146.5 469.5Q156 457 185 457Q201 457 217.5 461.5Q234 466 249 473V545ZM39 499Q39 555 75 587.5Q111 620 184 625L249 629Q248 652 237 662.5Q226 673 197 673Q169 673 137.5 665.5Q106 658 72 646V737Q104 751 137.5 757Q171 763 197 763Q242 763 271 753Q300 743 316.5 725Q333 707 339.5 682Q346 657 346 626V375H277L272 388Q224 367 183 367Q105 367 72 401.5Q39 436 39 499Z" glyph-name="ordfeminine" horiz-adv-x="400" unicode="&#170;" /><glyph d="M164 518H235L200 612ZM288 375 268 433H131L113 375H5L165 763H235L396 375Z" glyph-name="ordfeminine.smcp" horiz-adv-x="400" /><glyph d="M151 565Q151 507 170 483Q189 459 231 459Q276 459 297.5 483.5Q319 508 319 565Q319 622 297.5 646.5Q276 671 231 671Q189 671 170 647Q151 623 151 565ZM56 565Q56 662 97 712.5Q138 763 231 763Q325 763 369 712.5Q413 662 413 565Q413 468 369 417.5Q325 367 231 367Q138 367 97 417.5Q56 468 56 565Z" glyph-name="ordmasculine" horiz-adv-x="469" unicode="&#186;" /><glyph d="M151 565Q151 507 170 483Q189 459 231 459Q276 459 297.5 483.5Q319 508 319 565Q319 622 297.5 646.5Q276 671 231 671Q189 671 170 647Q151 623 151 565ZM56 565Q56 662 97 712.5Q138 763 231 763Q325 763 369 712.5Q413 662 413 565Q413 468 369 417.5Q325 367 231 367Q138 367 97 417.5Q56 468 56 565Z" glyph-name="ordmasculine.smcp" horiz-adv-x="469" /><glyph d="M392 250Q392 268 391 285.5Q390 303 388 319L228 89Q246 82 277 82Q316 82 339 95Q362 108 374 130.5Q386 153 389 183.5Q392 214 392 250ZM162 250Q162 229 162.5 209.5Q163 190 166 173L330 409Q319 413 306 415.5Q293 418 277 418Q237 418 214 405Q191 392 179.5 369.5Q168 347 165 316.5Q162 286 162 250ZM462 425Q480 391 487 347Q494 303 494 250Q494 191 485.5 143Q477 95 453.5 60Q430 25 387.5 6Q345 -13 277 -13Q212 -13 169 5L166 0H45L94 70Q74 105 67 150Q60 195 60 250Q60 308 68.5 356.5Q77 405 101 440Q125 475 167 494Q209 513 277 513Q344 513 389 493L394 500H515Z" glyph-name="oslash" horiz-adv-x="560" unicode="&#248;" /><glyph d="M170 250Q170 225 172 203Q174 181 180 161L354 411Q343 414 330.5 416Q318 418 303 418Q262 418 236 405Q210 392 195.5 369.5Q181 347 175.5 316.5Q170 286 170 250ZM436 250Q436 274 433.5 296Q431 318 425 338L251 89Q271 82 303 82Q344 82 370 95Q396 108 410.5 130.5Q425 153 430.5 183.5Q436 214 436 250ZM536 250Q536 193 524 144.5Q512 96 484.5 61Q457 26 412.5 6.5Q368 -13 303 -13Q270 -13 243 -8Q216 -3 193 6L189 0H68L116 69Q91 104 80.5 149.5Q70 195 70 250Q70 307 82 355.5Q94 404 121.5 439Q149 474 193.5 493.5Q238 513 303 513Q366 513 412 493L417 500H538L490 431Q514 396 525 350Q536 304 536 250Z" glyph-name="oslash.smcp" horiz-adv-x="606" /><glyph d="M472 724Q471 584 347 587Q316 587 297 597Q278 607 264 618.5Q250 630 237.5 639.5Q225 649 207 649Q192 649 183 644Q174 639 169.5 631.5Q165 624 163.5 614Q162 604 162 594L82 601Q84 673 114 706.5Q144 740 207 739Q238 738 257 728Q276 718 290 706.5Q304 695 316.5 685.5Q329 676 347 676Q362 676 371 681Q380 686 384.5 694Q389 702 390.5 711.5Q392 721 392 731ZM392 250Q392 286 389 316.5Q386 347 374 369.5Q362 392 339 405Q316 418 277 418Q237 418 214 405Q191 392 179.5 369.5Q168 347 165 316.5Q162 286 162 250Q162 214 165 183.5Q168 153 179.5 130.5Q191 108 214 95Q237 82 277 82Q316 82 339 95Q362 108 374 130.5Q386 153 389 183.5Q392 214 392 250ZM494 250Q494 191 485.5 143Q477 95 453.5 60Q430 25 387.5 6Q345 -13 277 -13Q209 -13 167 6Q125 25 101 60Q77 95 68.5 143Q60 191 60 250Q60 308 68.5 356.5Q77 405 101 440Q125 475 167 494Q209 513 277 513Q345 513 387.5 494Q430 475 453.5 440Q477 405 485.5 356.5Q494 308 494 250Z" glyph-name="otilde" horiz-adv-x="554" unicode="&#245;" /><glyph d="M498 724Q497 584 373 587Q342 587 323 597Q304 607 290 618.5Q276 630 263.5 639.5Q251 649 233 649Q218 649 209 644Q200 639 195.5 631.5Q191 624 189.5 614Q188 604 188 594L108 601Q110 673 140 706.5Q170 740 233 739Q264 738 283 728Q302 718 316 706.5Q330 695 342.5 685.5Q355 676 373 676Q388 676 397 681Q406 686 410.5 694Q415 702 416.5 711.5Q418 721 418 731ZM436 250Q436 286 430.5 316.5Q425 347 410.5 369.5Q396 392 370 405Q344 418 303 418Q262 418 236 405Q210 392 195.5 369.5Q181 347 175.5 316.5Q170 286 170 250Q170 214 175.5 183.5Q181 153 195.5 130.5Q210 108 236 95Q262 82 303 82Q344 82 370 95Q396 108 410.5 130.5Q425 153 430.5 183.5Q436 214 436 250ZM536 250Q536 193 524 144.5Q512 96 484.5 61Q457 26 412.5 6.5Q368 -13 303 -13Q238 -13 193.5 6.5Q149 26 121.5 61Q94 96 82 144.5Q70 193 70 250Q70 307 82 355.5Q94 404 121.5 439Q149 474 193.5 493.5Q238 513 303 513Q368 513 412.5 493.5Q457 474 484.5 439Q512 404 524 355.5Q536 307 536 250Z" glyph-name="otilde.smcp" horiz-adv-x="606" /><glyph d="M208 92Q223 88 241.5 85Q260 82 284 82Q321 82 343 95.5Q365 109 377 132Q389 155 393 185.5Q397 216 397 250Q397 284 393 314.5Q389 345 377 368Q365 391 343 404.5Q321 418 284 418Q247 418 220 411.5Q193 405 171 394V105Q184 98 208 92ZM70 500H137L147 472Q181 491 214.5 502Q248 513 284 513Q347 513 389 494Q431 475 456 440.5Q481 406 491 357.5Q501 309 501 250Q501 191 491 142.5Q481 94 456 59.5Q431 25 389 6Q347 -13 284 -13Q254 -13 227.5 -6.5Q201 0 171 14V-250H70Z" glyph-name="p" horiz-adv-x="561" unicode="p" /><glyph d="M362 332Q362 346 359 359Q356 372 348.5 382.5Q341 393 326.5 399.5Q312 406 290 406H184V257H290Q312 257 326.5 263.5Q341 270 348.5 280.5Q356 291 359 304.5Q362 318 362 332ZM184 164V0H85V500H292Q340 500 373.5 486.5Q407 473 427.5 450Q448 427 457 397Q466 367 466 333Q466 299 457 268.5Q448 238 427 214.5Q406 191 373 177.5Q340 164 292 164Z" glyph-name="p.smcp" horiz-adv-x="511" /><glyph d="M149 518Q149 499 152.5 479Q156 459 166 441.5Q176 424 194 410Q212 396 241 390V645Q212 639 194 625Q176 611 166 593.5Q156 576 152.5 556.5Q149 537 149 518ZM425 650H346V385H425ZM241 0V288Q184 295 144.5 316Q105 337 81 368Q57 399 46 437.5Q35 476 35 518Q35 563 48.5 605Q62 647 92 679.5Q122 712 171.5 731Q221 750 293 750H531V0H425V285H346V0Z" glyph-name="paragraph" horiz-adv-x="606" unicode="&#182;" /><glyph d="M190 -206Q171 -178 149 -130Q127 -82 108.5 -17Q90 48 77.5 129Q65 210 65 305Q65 400 77.5 481Q90 562 108.5 627Q127 692 149 740Q171 788 190 816H299Q280 788 258 740Q236 692 217 627Q198 562 185.5 481Q173 400 173 305Q173 210 185.5 129Q198 48 217 -17Q236 -82 258 -130Q280 -178 299 -206Z" glyph-name="parenleft" horiz-adv-x="344" unicode="(" /><glyph d="M45 -206Q64 -178 86 -130Q108 -82 127 -17Q146 48 158.5 129Q171 210 171 305Q171 400 158.5 481Q146 562 127 627Q108 692 86 740Q64 788 45 816H154Q173 788 195 740Q217 692 235.5 627Q254 562 266.5 481Q279 400 279 305Q279 210 266.5 129Q254 48 235.5 -17Q217 -82 195 -130Q173 -178 154 -206Z" glyph-name="parenright" horiz-adv-x="344" unicode=")" /><glyph d="M389 251Q389 287 386 317.5Q383 348 371.5 370Q360 392 337.5 404.5Q315 417 276 417Q236 417 213.5 404.5Q191 392 179.5 370Q168 348 165.5 317.5Q163 287 163 251Q163 215 165.5 184Q168 153 179.5 130.5Q191 108 213.5 95.5Q236 83 276 83Q315 83 337.5 95.5Q360 108 371.5 130.5Q383 153 386 184Q389 215 389 251ZM492 251Q492 192 483 143.5Q474 95 450 60.5Q426 26 384 6.5Q342 -13 276 -13Q210 -13 168 6.5Q126 26 102 60.5Q78 95 69 143.5Q60 192 60 251Q60 309 69 357Q78 405 102 439.5Q126 474 168 493.5Q210 513 276 513Q308 513 335 505.5Q362 498 379 487Q374 525 364.5 558Q355 591 338.5 615Q322 639 297.5 653Q273 667 239 667Q189 667 145 657Q101 647 74 633V730Q94 741 134 752Q174 763 239 763Q316 763 365 729Q414 695 442.5 629.5Q471 564 481.5 469Q492 374 492 251Z" glyph-name="partialdiff" horiz-adv-x="552" unicode="&#8706;" /><glyph d="M748 301Q704 301 684.5 276.5Q665 252 665 192Q665 132 684.5 107Q704 82 748 82Q793 82 812 107Q831 132 831 192Q831 252 812 276.5Q793 301 748 301ZM237 449Q282 449 301 473.5Q320 498 320 558Q320 618 301 643Q282 668 237 668Q192 668 173 643Q154 618 154 558Q154 498 173 473.5Q192 449 237 449ZM167 0 699 750H818L286 0ZM748 397Q845 397 887.5 345Q930 293 930 192Q930 91 887.5 39Q845 -13 748 -13Q652 -13 609.5 39Q567 91 567 192Q567 292 609.5 344.5Q652 397 748 397ZM237 353Q140 353 97.5 405Q55 457 55 558Q55 659 97.5 711Q140 763 237 763Q333 763 376 710.5Q419 658 419 558Q419 457 376 405Q333 353 237 353Z" glyph-name="percent" horiz-adv-x="985" unicode="%" /><glyph d="M40 57Q40 86 60.5 106.5Q81 127 110 127Q139 127 159.5 106.5Q180 86 180 57Q180 28 159.5 7.5Q139 -13 110 -13Q81 -13 60.5 7.5Q40 28 40 57Z" glyph-name="period" horiz-adv-x="220" unicode="." /><glyph d="M40 375Q40 404 60.5 424.5Q81 445 110 445Q139 445 159.5 424.5Q180 404 180 375Q180 346 159.5 325.5Q139 305 110 305Q81 305 60.5 325.5Q40 346 40 375Z" glyph-name="periodcentered" horiz-adv-x="220" unicode="&#183;" /><glyph d="M748 301Q704 301 684.5 276.5Q665 252 665 192Q665 132 684.5 107Q704 82 748 82Q793 82 812 107Q831 132 831 192Q831 252 812 276.5Q793 301 748 301ZM1168 301Q1124 301 1104.5 276.5Q1085 252 1085 192Q1085 132 1104.5 107Q1124 82 1168 82Q1213 82 1232 107Q1251 132 1251 192Q1251 252 1232 276.5Q1213 301 1168 301ZM237 449Q282 449 301 473.5Q320 498 320 558Q320 618 301 643Q282 668 237 668Q192 668 173 643Q154 618 154 558Q154 498 173 473.5Q192 449 237 449ZM167 0 699 750H818L286 0ZM1168 397Q1265 397 1307.5 345Q1350 293 1350 192Q1350 91 1307.5 39Q1265 -13 1168 -13Q1072 -13 1029.5 39Q987 91 987 192Q987 292 1029.5 344.5Q1072 397 1168 397ZM748 397Q845 397 887.5 345Q930 293 930 192Q930 91 887.5 39Q845 -13 748 -13Q652 -13 609.5 39Q567 91 567 192Q567 292 609.5 344.5Q652 397 748 397ZM237 353Q140 353 97.5 405Q55 457 55 558Q55 659 97.5 711Q140 763 237 763Q333 763 376 710.5Q419 658 419 558Q419 457 376 405Q333 353 237 353Z" glyph-name="perthousand" horiz-adv-x="1405" unicode="&#8240;" /><glyph d="M321 269H366Q377 269 381.5 275Q386 281 386 288Q386 295 381.5 301Q377 307 366 307H321ZM321 194V115H241V385H368Q423 385 445 356.5Q467 328 467 289Q467 270 461.5 253Q456 236 444.5 223Q433 210 414 202Q395 194 368 194ZM340 71Q379 71 411.5 77.5Q444 84 468 103Q492 122 505.5 157.5Q519 193 519 250Q519 307 505.5 342.5Q492 378 468 397Q444 416 411.5 422.5Q379 429 340 429Q301 429 268.5 422.5Q236 416 212 397Q188 378 174.5 342.5Q161 307 161 250Q161 193 174.5 157.5Q188 122 212 103Q236 84 268.5 77.5Q301 71 340 71ZM340 -13Q286 -13 237.5 -2.5Q189 8 152.5 37.5Q116 67 94 118Q72 169 72 250Q72 331 94 382.5Q116 434 152.5 463Q189 492 237.5 502.5Q286 513 340 513Q394 513 442.5 502.5Q491 492 527.5 463Q564 434 586 382.5Q608 331 608 250Q608 169 586 118Q564 67 527.5 37.5Q491 8 442.5 -2.5Q394 -13 340 -13Z" glyph-name="pi" horiz-adv-x="680" unicode="&#960;" /><glyph d="M211 141V292H60V390H211V541H309V390H460V292H309V141Z" glyph-name="plus" horiz-adv-x="520" unicode="+" /><glyph d="M60 43V141H460V43ZM211 191V342H60V440H211V591H309V440H460V342H309V191Z" glyph-name="plusminus" horiz-adv-x="520" unicode="&#177;" /><glyph d="M311 279H351Q359 279 362.5 283.5Q366 288 366 293Q366 298 362.5 302.5Q359 307 351 307H311ZM311 201V115H232V385H350Q406 385 427.5 359Q449 333 449 294Q449 269 442 251Q435 233 418 219L472 115H384L342 201ZM340 71Q379 71 411.5 77.5Q444 84 468 103Q492 122 505.5 157.5Q519 193 519 250Q519 307 505.5 342.5Q492 378 468 397Q444 416 411.5 422.5Q379 429 340 429Q301 429 268.5 422.5Q236 416 212 397Q188 378 174.5 342.5Q161 307 161 250Q161 193 174.5 157.5Q188 122 212 103Q236 84 268.5 77.5Q301 71 340 71ZM340 -13Q286 -13 237.5 -2.5Q189 8 152.5 37.5Q116 67 94 118Q72 169 72 250Q72 331 94 382.5Q116 434 152.5 463Q189 492 237.5 502.5Q286 513 340 513Q394 513 442.5 502.5Q491 492 527.5 463Q564 434 586 382.5Q608 331 608 250Q608 169 586 118Q564 67 527.5 37.5Q491 8 442.5 -2.5Q394 -13 340 -13Z" glyph-name="product" horiz-adv-x="680" unicode="&#8719;" /><glyph glyph-name="punctuationspace" horiz-adv-x="220" unicode="&#8200;" /><glyph d="M353 92Q377 98 390 105V394Q368 405 341 411.5Q314 418 277 418Q240 418 218 404.5Q196 391 184 368Q172 345 168 314.5Q164 284 164 250Q164 216 168 185.5Q172 155 184 132Q196 109 218 95.5Q240 82 277 82Q301 82 319.5 85Q338 88 353 92ZM491 -250H390V14Q360 0 333.5 -6.5Q307 -13 277 -13Q214 -13 172 6Q130 25 105 59.5Q80 94 70 142.5Q60 191 60 250Q60 309 70 357.5Q80 406 105 440.5Q130 475 172 494Q214 513 277 513Q313 513 346.5 502Q380 491 414 472L424 500H491Z" glyph-name="q" horiz-adv-x="561" unicode="q" /><glyph d="M436 250Q436 286 430.5 316.5Q425 347 410.5 369.5Q396 392 370 405Q344 418 303 418Q262 418 236 405Q210 392 195.5 369.5Q181 347 175.5 316.5Q170 286 170 250Q170 214 175.5 183.5Q181 153 195.5 130.5Q210 108 236 95Q262 82 303 82Q344 82 370 95Q396 108 410.5 130.5Q425 153 430.5 183.5Q436 214 436 250ZM536 250Q536 177 516.5 119Q497 61 451 28V27L687 -14V-124L235 -6Q149 17 109.5 78Q70 139 70 250Q70 307 82 355.5Q94 404 121.5 439Q149 474 193.5 493.5Q238 513 303 513Q368 513 412.5 493.5Q457 474 484.5 439Q512 404 524 355.5Q536 307 536 250Z" glyph-name="q.smcp" horiz-adv-x="606" /><glyph d="M110 57Q110 86 130.5 106.5Q151 127 180 127Q209 127 229.5 106.5Q250 86 250 57Q250 28 229.5 7.5Q209 -13 180 -13Q151 -13 130.5 7.5Q110 28 110 57ZM263 345Q242 336 230.5 324.5Q219 313 213 296.5Q207 280 206 258.5Q205 237 205 210H132Q128 231 125 252.5Q122 274 122 291Q122 313 127 333Q132 353 145 371.5Q158 390 180 405.5Q202 421 235 434Q256 442 275 450.5Q294 459 309 471.5Q324 484 333 504Q342 524 342 555Q342 580 336.5 600.5Q331 621 315.5 635.5Q300 650 272 658Q244 666 198 666Q151 666 108 656.5Q65 647 35 636V734Q49 740 69.5 745Q90 750 112.5 754Q135 758 157 760.5Q179 763 197 763Q276 763 324.5 745.5Q373 728 400 698.5Q427 669 436 632Q445 595 445 556Q445 508 432 475Q419 442 395 419Q371 396 337.5 379Q304 362 263 345Z" glyph-name="question" horiz-adv-x="500" unicode="?" /><glyph d="M370 443Q370 414 349.5 393.5Q329 373 300 373Q271 373 250.5 393.5Q230 414 230 443Q230 472 250.5 492.5Q271 513 300 513Q329 513 349.5 492.5Q370 472 370 443ZM217 155Q238 164 249.5 175.5Q261 187 267 203.5Q273 220 274 241.5Q275 263 275 290H348Q352 269 355 247.5Q358 226 358 209Q358 187 353 167Q348 147 335 128.5Q322 110 300 94.5Q278 79 245 66Q224 58 205 49.5Q186 41 171 28.5Q156 16 147 -4Q138 -24 138 -55Q138 -80 143.5 -100.5Q149 -121 164.5 -135.5Q180 -150 208 -158Q236 -166 282 -166Q329 -166 372 -156.5Q415 -147 445 -136V-234Q431 -240 410.5 -245Q390 -250 367.5 -254Q345 -258 323 -260.5Q301 -263 283 -263Q204 -263 155.5 -245.5Q107 -228 80 -198.5Q53 -169 44 -132Q35 -95 35 -56Q35 -8 48 25Q61 58 85 81Q109 104 142.5 121Q176 138 217 155Z" glyph-name="questiondown" horiz-adv-x="500" unicode="&#191;" /><glyph d="M243 500 212 750H348L317 500ZM73 500 42 750H178L147 500Z" glyph-name="quotedbl" horiz-adv-x="390" unicode="&quot;" /><glyph d="M218 -160Q231 -130 240 -91Q248 -58 251.5 -12.5Q255 33 247 90H372Q370 31 354 -15Q338 -61 318 -93Q295 -131 267 -160ZM38 -160Q51 -130 60 -91Q68 -58 71.5 -12.5Q75 33 67 90H192Q190 31 174 -15Q158 -61 138 -93Q115 -131 87 -160Z" glyph-name="quotedblbase" horiz-adv-x="370" unicode="&#8222;" /><glyph d="M332 750Q319 720 310 681Q302 648 298.5 602.5Q295 557 303 500H178Q180 558 196 604.5Q212 651 232 683Q255 721 283 750ZM152 750Q139 720 130 681Q122 648 118.5 602.5Q115 557 123 500H-2Q0 558 16 604.5Q32 651 52 683Q75 721 103 750Z" glyph-name="quotedblleft" horiz-adv-x="370" unicode="&#8220;" /><glyph d="M218 500Q231 530 240 569Q248 602 251.5 647.5Q255 693 247 750H372Q370 691 354 645Q338 599 318 567Q295 529 267 500ZM38 500Q51 530 60 569Q68 602 71.5 647.5Q75 693 67 750H192Q190 691 174 645Q158 599 138 567Q115 529 87 500Z" glyph-name="quotedblright" horiz-adv-x="370" unicode="&#8221;" /><glyph d="M152 750Q139 720 130 681Q122 648 118.5 602.5Q115 557 123 500H-2Q0 558 16 604.5Q32 651 52 683Q75 721 103 750Z" glyph-name="quoteleft" horiz-adv-x="190" unicode="&#8216;" /><glyph d="M38 500Q51 530 60 569Q68 602 71.5 647.5Q75 693 67 750H192Q190 691 174 645Q158 599 138 567Q115 529 87 500Z" glyph-name="quoteright" horiz-adv-x="190" unicode="&#8217;" /><glyph d="M38 -160Q51 -130 60 -91Q68 -58 71.5 -12.5Q75 33 67 90H192Q190 31 174 -15Q158 -61 138 -93Q115 -131 87 -160Z" glyph-name="quotesinglbase" horiz-adv-x="190" unicode="&#8218;" /><glyph d="M73 500 42 750H178L147 500Z" glyph-name="quotesingle" horiz-adv-x="220" unicode="&apos;" /><glyph d="M363 403Q344 410 324 414Q304 418 289 418Q249 418 222 411Q195 404 173 394V0H70V500H139L149 472Q214 513 289 513Q306 513 326 511Q346 509 363 505Z" glyph-name="r" horiz-adv-x="403" unicode="r" /><glyph d="M371 341Q371 354 368.5 366Q366 378 358 387Q350 396 336 401Q322 406 299 406H184V276H299Q322 276 336 281Q350 286 358 295Q366 304 368.5 315.5Q371 327 371 341ZM296 183H184V0H85V500H303Q351 500 384 488Q417 476 437.5 455Q458 434 466.5 405Q475 376 475 342Q475 296 455.5 258Q436 220 395 200L511 0H391Z" glyph-name="r.smcp" horiz-adv-x="551" /><glyph d="M194 575 274 750H395L250 575ZM363 403Q344 410 324 414Q304 418 289 418Q249 418 222 411Q195 404 173 394V0H70V500H139L149 472Q214 513 289 513Q306 513 326 511Q346 509 363 505Z" glyph-name="racute" horiz-adv-x="403" unicode="&#341;" /><glyph d="M238 575 318 750H439L294 575ZM371 341Q371 354 368.5 366Q366 378 358 387Q350 396 336 401Q322 406 299 406H184V276H299Q322 276 336 281Q350 286 358 295Q366 304 368.5 315.5Q371 327 371 341ZM296 183H184V0H85V500H303Q351 500 384 488Q417 476 437.5 455Q458 434 466.5 405Q475 376 475 342Q475 296 455.5 258Q436 220 395 200L511 0H391Z" glyph-name="racute.smcp" horiz-adv-x="551" /><glyph d="M185 400V100H475V400ZM80 500H580V0H80Z" glyph-name="radical" horiz-adv-x="660" unicode="&#8730;" /><glyph d="M400 750 275 575H169L44 750H100L222 645L344 750ZM363 403Q344 410 324 414Q304 418 289 418Q249 418 222 411Q195 404 173 394V0H70V500H139L149 472Q214 513 289 513Q306 513 326 511Q346 509 363 505Z" glyph-name="rcaron" horiz-adv-x="403" unicode="&#345;" /><glyph d="M444 750 319 575H213L88 750H144L266 645L388 750ZM371 341Q371 354 368.5 366Q366 378 358 387Q350 396 336 401Q322 406 299 406H184V276H299Q322 276 336 281Q350 286 358 295Q366 304 368.5 315.5Q371 327 371 341ZM296 183H184V0H85V500H303Q351 500 384 488Q417 476 437.5 455Q458 434 466.5 405Q475 376 475 342Q475 296 455.5 258Q436 220 395 200L511 0H391Z" glyph-name="rcaron.smcp" horiz-adv-x="551" /><glyph d="M79 -250 93 -184Q74 -176 63 -159Q52 -142 52 -120Q52 -91 72.5 -70.5Q93 -50 122 -50Q151 -50 171.5 -70.5Q192 -91 192 -120Q192 -138 184 -154L140 -250ZM363 403Q344 410 324 414Q304 418 289 418Q249 418 222 411Q195 404 173 394V0H70V500H139L149 472Q214 513 289 513Q306 513 326 511Q346 509 363 505Z" glyph-name="rcommaaccent" horiz-adv-x="403" unicode="&#343;" /><glyph d="M241 -250 255 -184Q236 -176 225 -159Q214 -142 214 -120Q214 -91 234.5 -70.5Q255 -50 284 -50Q313 -50 333.5 -70.5Q354 -91 354 -120Q354 -138 346 -154L302 -250ZM371 341Q371 354 368.5 366Q366 378 358 387Q350 396 336 401Q322 406 299 406H184V276H299Q322 276 336 281Q350 286 358 295Q366 304 368.5 315.5Q371 327 371 341ZM296 183H184V0H85V500H303Q351 500 384 488Q417 476 437.5 455Q458 434 466.5 405Q475 376 475 342Q475 296 455.5 258Q436 220 395 200L511 0H391Z" glyph-name="rcommaaccent.smcp" horiz-adv-x="551" /><glyph d="M189 651Q189 656 187 658.5Q185 661 177 661H152V639H177Q185 639 187 642.5Q189 646 189 651ZM152 600V550H112V700H179Q209 700 220.5 686.5Q232 673 232 651Q232 621 213 608L241 550H196L175 600ZM172 721Q151 721 134 717.5Q117 714 104 704Q91 694 84 675Q77 656 77 625Q77 594 84 575Q91 556 104 546Q117 536 134 532.5Q151 529 172 529Q193 529 210 532.5Q227 536 240 546Q253 556 260 575Q267 594 267 625Q267 656 260 675Q253 694 240 704Q227 714 210 717.5Q193 721 172 721ZM172 763Q200 763 225 757.5Q250 752 269.5 737Q289 722 300.5 695Q312 668 312 625Q312 583 300.5 556Q289 529 269.5 513.5Q250 498 225 492.5Q200 487 172 487Q144 487 119 492.5Q94 498 74.5 513.5Q55 529 43.5 556Q32 583 32 625Q32 668 43.5 695Q55 722 74.5 737Q94 752 119 757.5Q144 763 172 763Z" glyph-name="registered" horiz-adv-x="344" unicode="&#174;" /><glyph d="M324 662Q324 688 312.5 697.5Q301 707 280 707Q258 707 247 697.5Q236 688 236 662Q236 638 247 628.5Q258 619 280 619Q301 619 312.5 628.5Q324 638 324 662ZM381 662Q381 610 353 586Q325 562 280 562Q234 562 206 586Q178 610 178 662Q178 715 206 739Q234 763 280 763Q325 763 353 739Q381 715 381 662Z" glyph-name="ring" horiz-adv-x="602" unicode="&#730;" /><glyph d="M157 354Q157 343 160.5 334.5Q164 326 174 320Q184 314 201.5 310Q219 306 248 303Q303 298 337.5 286Q372 274 392 255Q412 236 419.5 210Q427 184 427 151Q427 121 417 91.5Q407 62 383 39Q359 16 319.5 1.5Q280 -13 222 -13Q204 -13 182.5 -10.5Q161 -8 139 -4.5Q117 -1 97.5 4Q78 9 64 15V112Q94 101 134.5 91.5Q175 82 223 82Q253 82 273 88Q293 94 305 103.5Q317 113 322 125Q327 137 327 150Q327 162 324 172.5Q321 183 311.5 191Q302 199 284 204Q266 209 237 212Q181 217 146.5 229.5Q112 242 92.5 260.5Q73 279 66 302.5Q59 326 59 354Q59 382 68.5 410.5Q78 439 100.5 461.5Q123 484 160 498.5Q197 513 251 513Q286 513 325.5 507Q365 501 404 484V389Q367 401 331 409.5Q295 418 250 418Q221 418 203 413Q185 408 174.5 399.5Q164 391 160.5 379Q157 367 157 354Z" glyph-name="s" horiz-adv-x="486" unicode="s" /><glyph d="M162 355Q162 328 187 318Q212 308 271 303Q325 298 362 287.5Q399 277 422 259.5Q445 242 455 215.5Q465 189 465 153Q465 120 453.5 89.5Q442 59 416.5 36.5Q391 14 348.5 0.5Q306 -13 245 -13Q226 -13 201.5 -11Q177 -9 152 -5Q127 -1 106 3.5Q85 8 74 13V107Q86 102 105.5 98Q125 94 148 90Q171 86 196.5 84Q222 82 246 82Q313 82 339.5 100.5Q366 119 366 152Q366 180 343.5 193.5Q321 207 262 212Q207 217 169.5 226.5Q132 236 108.5 252Q85 268 75 292Q65 316 65 350Q65 386 76.5 415.5Q88 445 113 467Q138 489 178 501Q218 513 275 513Q312 513 357.5 508.5Q403 504 442 487V395Q404 407 363 412.5Q322 418 274 418Q211 418 186.5 402.5Q162 387 162 355Z" glyph-name="s.smcp" horiz-adv-x="530" /><glyph d="M215 575 295 750H416L271 575ZM157 354Q157 343 160.5 334.5Q164 326 174 320Q184 314 201.5 310Q219 306 248 303Q303 298 337.5 286Q372 274 392 255Q412 236 419.5 210Q427 184 427 151Q427 121 417 91.5Q407 62 383 39Q359 16 319.5 1.5Q280 -13 222 -13Q204 -13 182.5 -10.5Q161 -8 139 -4.5Q117 -1 97.5 4Q78 9 64 15V112Q94 101 134.5 91.5Q175 82 223 82Q253 82 273 88Q293 94 305 103.5Q317 113 322 125Q327 137 327 150Q327 162 324 172.5Q321 183 311.5 191Q302 199 284 204Q266 209 237 212Q181 217 146.5 229.5Q112 242 92.5 260.5Q73 279 66 302.5Q59 326 59 354Q59 382 68.5 410.5Q78 439 100.5 461.5Q123 484 160 498.5Q197 513 251 513Q286 513 325.5 507Q365 501 404 484V389Q367 401 331 409.5Q295 418 250 418Q221 418 203 413Q185 408 174.5 399.5Q164 391 160.5 379Q157 367 157 354Z" glyph-name="sacute" horiz-adv-x="486" unicode="&#347;" /><glyph d="M229 575 309 750H430L285 575ZM162 355Q162 328 187 318Q212 308 271 303Q325 298 362 287.5Q399 277 422 259.5Q445 242 455 215.5Q465 189 465 153Q465 120 453.5 89.5Q442 59 416.5 36.5Q391 14 348.5 0.5Q306 -13 245 -13Q226 -13 201.5 -11Q177 -9 152 -5Q127 -1 106 3.5Q85 8 74 13V107Q86 102 105.5 98Q125 94 148 90Q171 86 196.5 84Q222 82 246 82Q313 82 339.5 100.5Q366 119 366 152Q366 180 343.5 193.5Q321 207 262 212Q207 217 169.5 226.5Q132 236 108.5 252Q85 268 75 292Q65 316 65 350Q65 386 76.5 415.5Q88 445 113 467Q138 489 178 501Q218 513 275 513Q312 513 357.5 508.5Q403 504 442 487V395Q404 407 363 412.5Q322 418 274 418Q211 418 186.5 402.5Q162 387 162 355Z" glyph-name="sacute.smcp" horiz-adv-x="530" /><glyph d="M421 750 296 575H190L65 750H121L243 645L365 750ZM157 354Q157 343 160.5 334.5Q164 326 174 320Q184 314 201.5 310Q219 306 248 303Q303 298 337.5 286Q372 274 392 255Q412 236 419.5 210Q427 184 427 151Q427 121 417 91.5Q407 62 383 39Q359 16 319.5 1.5Q280 -13 222 -13Q204 -13 182.5 -10.5Q161 -8 139 -4.5Q117 -1 97.5 4Q78 9 64 15V112Q94 101 134.5 91.5Q175 82 223 82Q253 82 273 88Q293 94 305 103.5Q317 113 322 125Q327 137 327 150Q327 162 324 172.5Q321 183 311.5 191Q302 199 284 204Q266 209 237 212Q181 217 146.5 229.5Q112 242 92.5 260.5Q73 279 66 302.5Q59 326 59 354Q59 382 68.5 410.5Q78 439 100.5 461.5Q123 484 160 498.5Q197 513 251 513Q286 513 325.5 507Q365 501 404 484V389Q367 401 331 409.5Q295 418 250 418Q221 418 203 413Q185 408 174.5 399.5Q164 391 160.5 379Q157 367 157 354Z" glyph-name="scaron" horiz-adv-x="486" unicode="&#353;" /><glyph d="M435 750 310 575H204L79 750H135L257 645L379 750ZM162 355Q162 328 187 318Q212 308 271 303Q325 298 362 287.5Q399 277 422 259.5Q445 242 455 215.5Q465 189 465 153Q465 120 453.5 89.5Q442 59 416.5 36.5Q391 14 348.5 0.5Q306 -13 245 -13Q226 -13 201.5 -11Q177 -9 152 -5Q127 -1 106 3.5Q85 8 74 13V107Q86 102 105.5 98Q125 94 148 90Q171 86 196.5 84Q222 82 246 82Q313 82 339.5 100.5Q366 119 366 152Q366 180 343.5 193.5Q321 207 262 212Q207 217 169.5 226.5Q132 236 108.5 252Q85 268 75 292Q65 316 65 350Q65 386 76.5 415.5Q88 445 113 467Q138 489 178 501Q218 513 275 513Q312 513 357.5 508.5Q403 504 442 487V395Q404 407 363 412.5Q322 418 274 418Q211 418 186.5 402.5Q162 387 162 355Z" glyph-name="scaron.smcp" horiz-adv-x="530" /><glyph d="M167 -185Q177 -176 186 -165Q195 -154 199.5 -142.5Q204 -131 202.5 -121.5Q201 -112 191 -106Q173 -97 167 -84.5Q161 -72 162.5 -59Q164 -46 170 -33.5Q176 -21 183 -11Q151 -7 118 -0.5Q85 6 64 15V112Q94 101 134.5 91.5Q175 82 223 82Q253 82 273 88Q293 94 305 103.5Q317 113 322 125Q327 137 327 150Q327 162 324 172.5Q321 183 311.5 191Q302 199 284 204Q266 209 237 212Q181 217 146.5 229.5Q112 242 92.5 260.5Q73 279 66 302.5Q59 326 59 354Q59 382 68.5 410.5Q78 439 100.5 461.5Q123 484 160 498.5Q197 513 251 513Q286 513 325.5 507Q365 501 404 484V389Q367 401 331 409.5Q295 418 250 418Q221 418 203 413Q185 408 174.5 399.5Q164 391 160.5 379Q157 367 157 354Q157 343 160.5 334.5Q164 326 174 320Q184 314 201.5 310Q219 306 248 303Q303 298 337.5 286Q372 274 392 255Q412 236 419.5 210Q427 184 427 151Q427 123 418 96Q409 69 389 46.5Q369 24 336 8.5Q303 -7 254 -11Q243 -26 242 -41.5Q241 -57 264 -71Q289 -85 296 -101Q303 -117 300 -133Q297 -149 287.5 -162.5Q278 -176 269 -185Z" glyph-name="scedilla" horiz-adv-x="486" unicode="&#351;" /><glyph d="M194 -185Q204 -176 213 -165Q222 -154 226.5 -142.5Q231 -131 229.5 -121.5Q228 -112 218 -106Q200 -97 194 -84.5Q188 -72 189 -59Q190 -46 196.5 -33.5Q203 -21 210 -11Q191 -10 171 -7.5Q151 -5 132.5 -2Q114 1 98.5 5Q83 9 74 13V107Q86 102 105.5 98Q125 94 148 90Q171 86 196.5 84Q222 82 246 82Q313 82 339.5 100.5Q366 119 366 152Q366 180 343.5 193.5Q321 207 262 212Q207 217 169.5 226.5Q132 236 108.5 252Q85 268 75 292Q65 316 65 350Q65 386 76.5 415.5Q88 445 113 467Q138 489 178 501Q218 513 275 513Q312 513 357.5 508.5Q403 504 442 487V395Q404 407 363 412.5Q322 418 274 418Q211 418 186.5 402.5Q162 387 162 355Q162 328 187 318Q212 308 271 303Q325 298 362 287.5Q399 277 422 259.5Q445 242 455 215.5Q465 189 465 153Q465 122 455.5 94Q446 66 424 44Q402 22 367 7.5Q332 -7 281 -11Q270 -26 269 -41.5Q268 -57 291 -71Q316 -85 323 -101Q330 -117 327 -133Q324 -149 314.5 -162.5Q305 -176 296 -185Z" glyph-name="scedilla.smcp" horiz-adv-x="530" /><glyph d="M365 575 243 680 121 575H65L190 750H296L421 575ZM157 354Q157 343 160.5 334.5Q164 326 174 320Q184 314 201.5 310Q219 306 248 303Q303 298 337.5 286Q372 274 392 255Q412 236 419.5 210Q427 184 427 151Q427 121 417 91.5Q407 62 383 39Q359 16 319.5 1.5Q280 -13 222 -13Q204 -13 182.5 -10.5Q161 -8 139 -4.5Q117 -1 97.5 4Q78 9 64 15V112Q94 101 134.5 91.5Q175 82 223 82Q253 82 273 88Q293 94 305 103.5Q317 113 322 125Q327 137 327 150Q327 162 324 172.5Q321 183 311.5 191Q302 199 284 204Q266 209 237 212Q181 217 146.5 229.5Q112 242 92.5 260.5Q73 279 66 302.5Q59 326 59 354Q59 382 68.5 410.5Q78 439 100.5 461.5Q123 484 160 498.5Q197 513 251 513Q286 513 325.5 507Q365 501 404 484V389Q367 401 331 409.5Q295 418 250 418Q221 418 203 413Q185 408 174.5 399.5Q164 391 160.5 379Q157 367 157 354Z" glyph-name="scircumflex" horiz-adv-x="486" unicode="&#349;" /><glyph d="M79 575 204 750H310L435 575H379L257 680L135 575ZM162 355Q162 328 187 318Q212 308 271 303Q325 298 362 287.5Q399 277 422 259.5Q445 242 455 215.5Q465 189 465 153Q465 120 453.5 89.5Q442 59 416.5 36.5Q391 14 348.5 0.5Q306 -13 245 -13Q226 -13 201.5 -11Q177 -9 152 -5Q127 -1 106 3.5Q85 8 74 13V107Q86 102 105.5 98Q125 94 148 90Q171 86 196.5 84Q222 82 246 82Q313 82 339.5 100.5Q366 119 366 152Q366 180 343.5 193.5Q321 207 262 212Q207 217 169.5 226.5Q132 236 108.5 252Q85 268 75 292Q65 316 65 350Q65 386 76.5 415.5Q88 445 113 467Q138 489 178 501Q218 513 275 513Q312 513 357.5 508.5Q403 504 442 487V395Q404 407 363 412.5Q322 418 274 418Q211 418 186.5 402.5Q162 387 162 355Z" glyph-name="scircumflex.smcp" horiz-adv-x="530" /><glyph d="M190 -250 204 -184Q185 -176 174 -159Q163 -142 163 -120Q163 -91 183.5 -70.5Q204 -50 233 -50Q262 -50 282.5 -70.5Q303 -91 303 -120Q303 -138 295 -154L251 -250ZM157 354Q157 343 160.5 334.5Q164 326 174 320Q184 314 201.5 310Q219 306 248 303Q303 298 337.5 286Q372 274 392 255Q412 236 419.5 210Q427 184 427 151Q427 121 417 91.5Q407 62 383 39Q359 16 319.5 1.5Q280 -13 222 -13Q204 -13 182.5 -10.5Q161 -8 139 -4.5Q117 -1 97.5 4Q78 9 64 15V112Q94 101 134.5 91.5Q175 82 223 82Q253 82 273 88Q293 94 305 103.5Q317 113 322 125Q327 137 327 150Q327 162 324 172.5Q321 183 311.5 191Q302 199 284 204Q266 209 237 212Q181 217 146.5 229.5Q112 242 92.5 260.5Q73 279 66 302.5Q59 326 59 354Q59 382 68.5 410.5Q78 439 100.5 461.5Q123 484 160 498.5Q197 513 251 513Q286 513 325.5 507Q365 501 404 484V389Q367 401 331 409.5Q295 418 250 418Q221 418 203 413Q185 408 174.5 399.5Q164 391 160.5 379Q157 367 157 354Z" glyph-name="scommaaccent" horiz-adv-x="486" unicode="&#537;" /><glyph d="M206 -250 220 -184Q201 -176 190 -159Q179 -142 179 -120Q179 -91 199.5 -70.5Q220 -50 249 -50Q278 -50 298.5 -70.5Q319 -91 319 -120Q319 -138 311 -154L267 -250ZM162 355Q162 328 187 318Q212 308 271 303Q325 298 362 287.5Q399 277 422 259.5Q445 242 455 215.5Q465 189 465 153Q465 120 453.5 89.5Q442 59 416.5 36.5Q391 14 348.5 0.5Q306 -13 245 -13Q226 -13 201.5 -11Q177 -9 152 -5Q127 -1 106 3.5Q85 8 74 13V107Q86 102 105.5 98Q125 94 148 90Q171 86 196.5 84Q222 82 246 82Q313 82 339.5 100.5Q366 119 366 152Q366 180 343.5 193.5Q321 207 262 212Q207 217 169.5 226.5Q132 236 108.5 252Q85 268 75 292Q65 316 65 350Q65 386 76.5 415.5Q88 445 113 467Q138 489 178 501Q218 513 275 513Q312 513 357.5 508.5Q403 504 442 487V395Q404 407 363 412.5Q322 418 274 418Q211 418 186.5 402.5Q162 387 162 355Z" glyph-name="scommaaccent.smcp" horiz-adv-x="530" /><glyph d="M354 335Q311 343 276.5 351.5Q242 360 215 371Q179 352 165 326Q151 300 151 271Q151 241 159.5 223Q168 205 186 194.5Q204 184 231 178Q258 172 296 165H295Q380 150 434 129Q469 148 483.5 174Q498 200 498 229Q498 259 489.5 277Q481 295 463 305.5Q445 316 417.5 322Q390 328 353 335ZM606 228Q606 187 588.5 141Q571 95 524 59Q548 18 548 -46Q548 -80 537.5 -118Q527 -156 497.5 -188.5Q468 -221 416 -242Q364 -263 282 -263Q214 -263 162.5 -250.5Q111 -238 74 -222V-114Q105 -128 132 -137.5Q159 -147 184 -152.5Q209 -158 233 -160.5Q257 -163 283 -163Q331 -163 361.5 -154Q392 -145 409.5 -129Q427 -113 433.5 -91.5Q440 -70 440 -45Q440 -15 428.5 3.5Q417 22 396 33Q375 44 345 51Q315 58 277 65H278Q209 77 163.5 92Q118 107 91 130Q64 153 53.5 187.5Q43 222 43 272Q43 292 47 314.5Q51 337 60.5 359Q70 381 85.5 402Q101 423 124 441Q101 480 101 546Q101 580 111.5 618Q122 656 151.5 688.5Q181 721 232.5 742Q284 763 367 763Q435 763 486.5 750.5Q538 738 575 722V614Q544 628 517 637.5Q490 647 465 652.5Q440 658 416 660.5Q392 663 366 663Q318 663 287.5 654Q257 645 239.5 629Q222 613 215.5 591.5Q209 570 209 545Q209 515 220.5 496.5Q232 478 253 466.5Q274 455 304 448.5Q334 442 372 435H371Q440 423 485.5 408Q531 393 558 370Q585 347 595.5 312.5Q606 278 606 228Z" glyph-name="section" horiz-adv-x="649" unicode="&#167;" /><glyph d="M40 375Q40 404 60.5 424.5Q81 445 110 445Q139 445 159.5 424.5Q180 404 180 375Q180 346 159.5 325.5Q139 305 110 305Q81 305 60.5 325.5Q40 346 40 375ZM58 -114 81 -7Q62 1 51 18Q40 35 40 57Q40 86 60.5 106.5Q81 127 110 127Q139 127 159.5 106.5Q180 86 180 57Q180 39 172 23L109 -114Z" glyph-name="semicolon" horiz-adv-x="220" unicode=";" /><glyph d="M110 0 442 655H50V750H550V682L225 0Z" glyph-name="seven" horiz-adv-x="600" unicode="7" /><glyph d="M110 0 442 655H50V750H550V682L225 0Z" glyph-name="seven.LP" horiz-adv-x="600" /><glyph d="M54 -250 336 405H21V500H444V432L169 -250Z" glyph-name="seven.OP" horiz-adv-x="465" /><glyph d="M169 230Q169 205 174 179Q179 153 194 131.5Q209 110 236.5 96Q264 82 308 82Q350 82 375 97Q400 112 413.5 134.5Q427 157 431 183Q435 209 435 230Q435 251 431.5 276.5Q428 302 415.5 324.5Q403 347 377.5 362.5Q352 378 308 378Q264 378 236.5 363.5Q209 349 194 327Q179 305 174 279Q169 253 169 230ZM515 635Q473 652 428.5 659Q384 666 333 666Q284 666 252 645.5Q220 625 201 590.5Q182 556 173 510.5Q164 465 160 414Q183 439 220 456Q257 473 308 473Q386 473 431.5 449Q477 425 500.5 389Q524 353 530.5 310.5Q537 268 537 230Q537 192 529 149.5Q521 107 496.5 71Q472 35 427 11Q382 -13 308 -13Q227 -13 178.5 12Q130 37 104.5 83Q79 129 71 193.5Q63 258 63 336Q63 426 73.5 504Q84 582 113.5 639.5Q143 697 195.5 730Q248 763 333 763Q390 763 435.5 755.5Q481 748 515 734Z" glyph-name="six" horiz-adv-x="600" unicode="6" /><glyph d="M169 230Q169 205 174 179Q179 153 194 131.5Q209 110 236.5 96Q264 82 308 82Q350 82 375 97Q400 112 413.5 134.5Q427 157 431 183Q435 209 435 230Q435 251 431.5 276.5Q428 302 415.5 324.5Q403 347 377.5 362.5Q352 378 308 378Q264 378 236.5 363.5Q209 349 194 327Q179 305 174 279Q169 253 169 230ZM515 635Q473 652 428.5 659Q384 666 333 666Q284 666 252 645.5Q220 625 201 590.5Q182 556 173 510.5Q164 465 160 414Q183 439 220 456Q257 473 308 473Q386 473 431.5 449Q477 425 500.5 389Q524 353 530.5 310.5Q537 268 537 230Q537 192 529 149.5Q521 107 496.5 71Q472 35 427 11Q382 -13 308 -13Q227 -13 178.5 12Q130 37 104.5 83Q79 129 71 193.5Q63 258 63 336Q63 426 73.5 504Q84 582 113.5 639.5Q143 697 195.5 730Q248 763 333 763Q390 763 435.5 755.5Q481 748 515 734Z" glyph-name="six.LP" horiz-adv-x="600" /><glyph d="M174 230Q174 205 179 179Q184 153 199 131.5Q214 110 241.5 96Q269 82 313 82Q355 82 380 97Q405 112 418.5 134.5Q432 157 436 183Q440 209 440 230Q440 251 436.5 276.5Q433 302 420.5 324.5Q408 347 382.5 362.5Q357 378 313 378Q269 378 241.5 363.5Q214 349 199 327Q184 305 179 279Q174 253 174 230ZM520 635Q478 652 433.5 659Q389 666 338 666Q289 666 257 645.5Q225 625 206 590.5Q187 556 178 510.5Q169 465 165 414Q188 439 225 456Q262 473 313 473Q391 473 436.5 449Q482 425 505.5 389Q529 353 535.5 310.5Q542 268 542 230Q542 192 534 149.5Q526 107 501.5 71Q477 35 432 11Q387 -13 313 -13Q232 -13 183.5 12Q135 37 109.5 83Q84 129 76 193.5Q68 258 68 336Q68 426 78.5 504Q89 582 118.5 639.5Q148 697 200.5 730Q253 763 338 763Q395 763 440.5 755.5Q486 748 520 734Z" glyph-name="six.OP" horiz-adv-x="605" /><glyph glyph-name="sixperemspace" horiz-adv-x="167" unicode="&#8198;" /><glyph d="M0 -206 351 816H458L107 -206Z" glyph-name="slash" horiz-adv-x="458" unicode="/" /><glyph glyph-name="space" horiz-adv-x="200" unicode=" " /><glyph d="M218 438H471V344H218V94H555V0H50V94H115V344H50V438H115V568Q115 611 127 646.5Q139 682 166 708Q193 734 236 748.5Q279 763 341 763Q359 763 384.5 761Q410 759 437 754.5Q464 750 490.5 743.5Q517 737 536 729V635Q518 641 494 647Q470 653 443.5 657.5Q417 662 390.5 665Q364 668 341 668Q218 668 218 569Z" glyph-name="sterling" horiz-adv-x="600" unicode="&#163;" /><glyph d="M208 303H411V209H208V94H495V0H40V94H105V209H40V303H105V338Q105 377 115 409Q125 441 149 464.5Q173 488 212.5 500.5Q252 513 311 513Q346 513 392 506Q438 499 476 482V388Q441 400 399 409Q357 418 311 418Q254 418 231 399.5Q208 381 208 339Z" glyph-name="sterling.OP" horiz-adv-x="565" /><glyph d="M67 375Q67 455 97.5 526Q128 597 180.5 649.5Q233 702 304 732.5Q375 763 455 763Q535 763 606 732.5Q677 702 729.5 649.5Q782 597 812.5 526Q843 455 843 375Q843 295 812.5 224Q782 153 729.5 100.5Q677 48 606 17.5Q535 -13 455 -13Q375 -13 304 17.5Q233 48 180.5 100.5Q128 153 97.5 224Q67 295 67 375Z" glyph-name="summation" horiz-adv-x="910" unicode="&#8721;" /><glyph d="M348 -7Q329 -12 310.5 -12.5Q292 -13 285 -13Q254 -13 224.5 -5Q195 3 171.5 20Q148 37 134 63.5Q120 90 120 127V412H27V474L120 500V626L221 654V500H369V412H221V136Q221 104 240.5 93Q260 82 293 82Q307 82 323.5 83Q340 84 348 86Z" glyph-name="t" horiz-adv-x="409" unicode="t" /><glyph d="M303 406V0H200V406H45V500H458V406Z" glyph-name="t.smcp" horiz-adv-x="503" /><glyph d="M348 -7Q329 -12 310.5 -12.5Q292 -13 285 -13Q254 -13 224.5 -5Q195 3 171.5 20Q148 37 134 63.5Q120 90 120 127V236H37V319H120V412H27V474L120 500V626L221 654V500H369V412H221V319H345V236H221V136Q221 104 240.5 93Q260 82 293 82Q307 82 323.5 83Q340 84 348 86Z" glyph-name="tbar" horiz-adv-x="409" unicode="&#359;" /><glyph d="M303 406V298H404V215H303V0H200V215H99V298H200V406H45V500H458V406Z" glyph-name="tbar.smcp" horiz-adv-x="503" /><glyph d="M370 750 322 550H266L282 750ZM348 -7Q329 -12 310.5 -12.5Q292 -13 285 -13Q254 -13 224.5 -5Q195 3 171.5 20Q148 37 134 63.5Q120 90 120 127V412H27V474L120 500V626L221 654V500H369V412H221V136Q221 104 240.5 93Q260 82 293 82Q307 82 323.5 83Q340 84 348 86Z" glyph-name="tcaron" horiz-adv-x="409" unicode="&#357;" /><glyph d="M430 750 305 575H199L74 750H130L252 645L374 750ZM303 406V0H200V406H45V500H458V406Z" glyph-name="tcaron.smcp" horiz-adv-x="503" /><glyph d="M192 -250 206 -184Q187 -176 176 -159Q165 -142 165 -120Q165 -91 185.5 -70.5Q206 -50 235 -50Q264 -50 284.5 -70.5Q305 -91 305 -120Q305 -138 297 -154L253 -250ZM348 -7Q329 -12 310.5 -12.5Q292 -13 285 -13Q254 -13 224.5 -5Q195 3 171.5 20Q148 37 134 63.5Q120 90 120 127V412H27V474L120 500V626L221 654V500H369V412H221V136Q221 104 240.5 93Q260 82 293 82Q307 82 323.5 83Q340 84 348 86Z" glyph-name="tcommaaccent" horiz-adv-x="409" unicode="&#355;" /><glyph d="M209 -250 223 -184Q204 -176 193 -159Q182 -142 182 -120Q182 -91 202.5 -70.5Q223 -50 252 -50Q281 -50 301.5 -70.5Q322 -91 322 -120Q322 -138 314 -154L270 -250ZM303 406V0H200V406H45V500H458V406Z" glyph-name="tcommaaccent.smcp" horiz-adv-x="503" /><glyph glyph-name="thinspace" horiz-adv-x="100" unicode="&#8201;" /><glyph d="M208 92Q223 88 241.5 85Q260 82 284 82Q321 82 343 95.5Q365 109 377 132Q389 155 393 185.5Q397 216 397 250Q397 284 393 314.5Q389 345 377 368Q365 391 343 404.5Q321 418 284 418Q247 418 220 411.5Q193 405 171 394V105Q184 98 208 92ZM70 750H171V484Q199 498 226.5 505.5Q254 513 284 513Q347 513 389 494Q431 475 456 440.5Q481 406 491 357.5Q501 309 501 250Q501 191 491 142.5Q481 94 456 59.5Q431 25 389 6Q347 -13 284 -13Q254 -13 227.5 -6.5Q201 0 171 14V-250H70Z" glyph-name="thorn" horiz-adv-x="561" unicode="&#254;" /><glyph d="M362 250Q362 264 359 277Q356 290 348.5 300.5Q341 311 326.5 317.5Q312 324 290 324H184V175H290Q312 175 326.5 181.5Q341 188 348.5 198.5Q356 209 359 222.5Q362 236 362 250ZM184 82V0H85V500H184V418H292Q340 418 373.5 404.5Q407 391 427.5 368Q448 345 457 315Q466 285 466 251Q466 217 457 186.5Q448 156 427 132.5Q406 109 373 95.5Q340 82 292 82Z" glyph-name="thorn.smcp" horiz-adv-x="511" /><glyph d="M266 668Q242 668 213.5 665.5Q185 663 157 658.5Q129 654 104 648Q79 642 61 636V735Q77 741 102 746.5Q127 752 155.5 755.5Q184 759 212 761Q240 763 261 763Q342 763 392.5 746Q443 729 472 699.5Q501 670 511.5 632Q522 594 522 552Q522 531 517.5 508.5Q513 486 504 464.5Q495 443 481.5 425Q468 407 450 395Q475 384 493 365Q511 346 522.5 322Q534 298 539.5 271Q545 244 545 217Q545 172 534 130.5Q523 89 492 57Q461 25 407 6Q353 -13 268 -13Q202 -13 146 -4Q90 5 61 20V116Q94 104 152 93Q210 82 273 82Q328 82 360.5 94Q393 106 410.5 125.5Q428 145 433.5 169Q439 193 439 217Q439 278 407 308.5Q375 339 299 339H144V437H299Q333 437 355.5 448Q378 459 391.5 475.5Q405 492 410.5 512.5Q416 533 416 552Q416 574 411 595Q406 616 390 632Q374 648 344.5 658Q315 668 266 668Z" glyph-name="three" horiz-adv-x="600" unicode="3" /><glyph d="M266 668Q242 668 213.5 665.5Q185 663 157 658.5Q129 654 104 648Q79 642 61 636V735Q77 741 102 746.5Q127 752 155.5 755.5Q184 759 212 761Q240 763 261 763Q342 763 392.5 746Q443 729 472 699.5Q501 670 511.5 632Q522 594 522 552Q522 531 517.5 508.5Q513 486 504 464.5Q495 443 481.5 425Q468 407 450 395Q475 384 493 365Q511 346 522.5 322Q534 298 539.5 271Q545 244 545 217Q545 172 534 130.5Q523 89 492 57Q461 25 407 6Q353 -13 268 -13Q202 -13 146 -4Q90 5 61 20V116Q94 104 152 93Q210 82 273 82Q328 82 360.5 94Q393 106 410.5 125.5Q428 145 433.5 169Q439 193 439 217Q439 278 407 308.5Q375 339 299 339H144V437H299Q333 437 355.5 448Q378 459 391.5 475.5Q405 492 410.5 512.5Q416 533 416 552Q416 574 411 595Q406 616 390 632Q374 648 344.5 658Q315 668 266 668Z" glyph-name="three.LP" horiz-adv-x="600" /><glyph d="M226 418Q186 418 141 408.5Q96 399 61 386V485Q77 491 98 496.5Q119 502 141.5 505.5Q164 509 186 511Q208 513 226 513Q292 513 337.5 496Q383 479 410.5 449.5Q438 420 450 382Q462 344 462 302Q462 281 457.5 258.5Q453 236 444 214.5Q435 193 421.5 175Q408 157 390 145Q415 134 433 115Q451 96 462.5 72Q474 48 479.5 21Q485 -6 485 -33Q485 -78 472 -119.5Q459 -161 429.5 -193Q400 -225 351.5 -244Q303 -263 233 -263Q179 -263 134.5 -254Q90 -245 61 -230V-134Q94 -146 137.5 -157Q181 -168 233 -168Q278 -168 306.5 -156Q335 -144 351 -124.5Q367 -105 373 -81Q379 -57 379 -33Q379 28 347 58.5Q315 89 239 89H119V187H239Q273 187 295.5 198Q318 209 331.5 225.5Q345 242 350.5 262.5Q356 283 356 302Q356 324 350.5 345Q345 366 331 382Q317 398 291.5 408Q266 418 226 418Z" glyph-name="three.OP" horiz-adv-x="550" /><glyph glyph-name="threeperemspace" horiz-adv-x="333" unicode="&#8196;" /><glyph d="M690 292H60V390H690Z" glyph-name="threequarteremdash" horiz-adv-x="750" /><glyph d="M475 724Q474 584 350 587Q319 587 300 597Q281 607 267 618.5Q253 630 240.5 639.5Q228 649 210 649Q195 649 186 644Q177 639 172.5 631.5Q168 624 166.5 614Q165 604 165 594L85 601Q87 673 117 706.5Q147 740 210 739Q241 738 260 728Q279 718 293 706.5Q307 695 319.5 685.5Q332 676 350 676Q365 676 374 681Q383 686 387.5 694Q392 702 393.5 711.5Q395 721 395 731Z" glyph-name="tilde" horiz-adv-x="540" unicode="&#732;" /><glyph d="M154 704V500H102V704H25V750H230V704ZM372 530 308 658 310 500H261V750H316L390 594L466 750H520V500H472L474 658L410 530Z" glyph-name="trademark" horiz-adv-x="575" unicode="&#8482;" /><glyph d="M426 555Q426 578 420.5 598.5Q415 619 400 634Q385 649 358.5 658Q332 667 289 667Q242 667 198.5 658.5Q155 650 95 625V726Q130 742 178 752.5Q226 763 288 763Q367 763 415 742.5Q463 722 488.5 691Q514 660 522 623.5Q530 587 530 555Q530 504 505 456Q480 408 437 362L190 98H540V0H50V70L388 451Q408 474 417 501Q426 528 426 555Z" glyph-name="two" horiz-adv-x="600" unicode="2" /><glyph d="M426 555Q426 578 420.5 598.5Q415 619 400 634Q385 649 358.5 658Q332 667 289 667Q242 667 198.5 658.5Q155 650 95 625V726Q130 742 178 752.5Q226 763 288 763Q367 763 415 742.5Q463 722 488.5 691Q514 660 522 623.5Q530 587 530 555Q530 504 505 456Q480 408 437 362L190 98H540V0H50V70L388 451Q408 474 417 501Q426 528 426 555Z" glyph-name="two.LP" horiz-adv-x="600" /><glyph d="M422 349Q422 314 404.5 284.5Q387 255 354 225.5Q321 196 273.5 165Q226 134 166 95H443V0H25V78L275 268Q305 291 313.5 309Q322 327 322 350Q322 363 317 375Q312 387 300 396.5Q288 406 268 412Q248 418 218 418Q170 418 129.5 408.5Q89 399 59 388V485Q73 491 92.5 496Q112 501 134 504.5Q156 508 177.5 510.5Q199 513 217 513Q275 513 314.5 500Q354 487 378 464.5Q402 442 412 412.5Q422 383 422 349Z" glyph-name="two.OP" horiz-adv-x="500" /><glyph d="M168 146Q168 111 191 96.5Q214 82 249 82Q287 82 316 89Q345 96 365 106V500H468V0H399L389 28Q358 8 321.5 -2.5Q285 -13 249 -13Q156 -13 110.5 29.5Q65 72 65 148V500H168Z" glyph-name="u" horiz-adv-x="538" unicode="u" /><glyph d="M299 -13Q185 -13 132.5 35Q80 83 80 166V500H183V166Q183 120 214.5 101Q246 82 299 82Q352 82 383.5 101Q415 120 415 166V500H518V166Q518 83 465.5 35Q413 -13 299 -13Z" glyph-name="u.smcp" horiz-adv-x="598" /><glyph d="M239 575 319 750H440L295 575ZM168 146Q168 111 191 96.5Q214 82 249 82Q287 82 316 89Q345 96 365 106V500H468V0H399L389 28Q358 8 321.5 -2.5Q285 -13 249 -13Q156 -13 110.5 29.5Q65 72 65 148V500H168Z" glyph-name="uacute" horiz-adv-x="538" unicode="&#250;" /><glyph d="M271 575 351 750H472L327 575ZM299 -13Q185 -13 132.5 35Q80 83 80 166V500H183V166Q183 120 214.5 101Q246 82 299 82Q352 82 383.5 101Q415 120 415 166V500H518V166Q518 83 465.5 35Q413 -13 299 -13Z" glyph-name="uacute.smcp" horiz-adv-x="598" /><glyph d="M266 572Q230 572 200 582.5Q170 593 147.5 614.5Q125 636 112 669.5Q99 703 98 750H165Q166 723 171 705.5Q176 688 187.5 677.5Q199 667 218 662.5Q237 658 266 658Q295 658 314 662.5Q333 667 344.5 677.5Q356 688 361 705.5Q366 723 367 750H434Q433 703 420 669.5Q407 636 384.5 614.5Q362 593 332 582.5Q302 572 266 572ZM168 146Q168 111 191 96.5Q214 82 249 82Q287 82 316 89Q345 96 365 106V500H468V0H399L389 28Q358 8 321.5 -2.5Q285 -13 249 -13Q156 -13 110.5 29.5Q65 72 65 148V500H168Z" glyph-name="ubreve" horiz-adv-x="538" unicode="&#365;" /><glyph d="M299 572Q263 572 233 582.5Q203 593 180.5 614.5Q158 636 145 669.5Q132 703 131 750H198Q199 723 204 705.5Q209 688 220.5 677.5Q232 667 251 662.5Q270 658 299 658Q328 658 347 662.5Q366 667 377.5 677.5Q389 688 394 705.5Q399 723 400 750H467Q466 703 453 669.5Q440 636 417.5 614.5Q395 593 365 582.5Q335 572 299 572ZM299 -13Q185 -13 132.5 35Q80 83 80 166V500H183V166Q183 120 214.5 101Q246 82 299 82Q352 82 383.5 101Q415 120 415 166V500H518V166Q518 83 465.5 35Q413 -13 299 -13Z" glyph-name="ubreve.smcp" horiz-adv-x="598" /><glyph d="M389 575 267 680 145 575H89L214 750H320L445 575ZM168 146Q168 111 191 96.5Q214 82 249 82Q287 82 316 89Q345 96 365 106V500H468V0H399L389 28Q358 8 321.5 -2.5Q285 -13 249 -13Q156 -13 110.5 29.5Q65 72 65 148V500H168Z" glyph-name="ucircumflex" horiz-adv-x="538" unicode="&#251;" /><glyph d="M421 575 299 680 177 575H121L246 750H352L477 575ZM299 -13Q185 -13 132.5 35Q80 83 80 166V500H183V166Q183 120 214.5 101Q246 82 299 82Q352 82 383.5 101Q415 120 415 166V500H518V166Q518 83 465.5 35Q413 -13 299 -13Z" glyph-name="ucircumflex.smcp" horiz-adv-x="598" /><glyph d="M87 667Q87 696 107.5 716.5Q128 737 157 737Q186 737 206.5 716.5Q227 696 227 667Q227 638 206.5 617.5Q186 597 157 597Q128 597 107.5 617.5Q87 638 87 667ZM307 667Q307 696 327.5 716.5Q348 737 377 737Q406 737 426.5 716.5Q447 696 447 667Q447 638 426.5 617.5Q406 597 377 597Q348 597 327.5 617.5Q307 638 307 667ZM168 146Q168 111 191 96.5Q214 82 249 82Q287 82 316 89Q345 96 365 106V500H468V0H399L389 28Q358 8 321.5 -2.5Q285 -13 249 -13Q156 -13 110.5 29.5Q65 72 65 148V500H168Z" glyph-name="udieresis" horiz-adv-x="538" unicode="&#252;" /><glyph d="M119 667Q119 696 139.5 716.5Q160 737 189 737Q218 737 238.5 716.5Q259 696 259 667Q259 638 238.5 617.5Q218 597 189 597Q160 597 139.5 617.5Q119 638 119 667ZM339 667Q339 696 359.5 716.5Q380 737 409 737Q438 737 458.5 716.5Q479 696 479 667Q479 638 458.5 617.5Q438 597 409 597Q380 597 359.5 617.5Q339 638 339 667ZM299 -13Q185 -13 132.5 35Q80 83 80 166V500H183V166Q183 120 214.5 101Q246 82 299 82Q352 82 383.5 101Q415 120 415 166V500H518V166Q518 83 465.5 35Q413 -13 299 -13Z" glyph-name="udieresis.smcp" horiz-adv-x="598" /></font>
</defs>
</svg>
