<?xml version="1.0" encoding="UTF-8" standalone="no"?>
<!-- Created with Inkscape (http://www.inkscape.org/) -->
<svg
   xmlns:dc="http://purl.org/dc/elements/1.1/"
   xmlns:cc="http://creativecommons.org/ns#"
   xmlns:rdf="http://www.w3.org/1999/02/22-rdf-syntax-ns#"
   xmlns:svg="http://www.w3.org/2000/svg"
   xmlns="http://www.w3.org/2000/svg"
   xmlns:sodipodi="http://sodipodi.sourceforge.net/DTD/sodipodi-0.dtd"
   xmlns:inkscape="http://www.inkscape.org/namespaces/inkscape"
   width="32px"
   height="32px"
   id="svg2415"
   sodipodi:version="0.32"
   inkscape:version="0.46"
   sodipodi:docname="blacklist.svg"
   inkscape:output_extension="org.inkscape.output.svg.inkscape">
  <defs
     id="defs2417">
    <inkscape:perspective
       sodipodi:type="inkscape:persp3d"
       inkscape:vp_x="0 : 16 : 1"
       inkscape:vp_y="0 : 1000 : 0"
       inkscape:vp_z="32 : 16 : 1"
       inkscape:persp3d-origin="16 : 10.666667 : 1"
       id="perspective2423" />
  </defs>
  <sodipodi:namedview
     id="base"
     pagecolor="#ffffff"
     bordercolor="#666666"
     borderopacity="1.0"
     inkscape:pageopacity="0.0"
     inkscape:pageshadow="2"
     inkscape:zoom="11.197802"
     inkscape:cx="16"
     inkscape:cy="16"
     inkscape:current-layer="layer1"
     showgrid="true"
     inkscape:grid-bbox="true"
     inkscape:document-units="px"
     inkscape:window-width="921"
     inkscape:window-height="719"
     inkscape:window-x="50"
     inkscape:window-y="25" />
  <metadata
     id="metadata2420">
    <rdf:RDF>
      <cc:Work
         rdf:about="">
        <dc:format>image/svg+xml</dc:format>
        <dc:type
           rdf:resource="http://purl.org/dc/dcmitype/StillImage" />
      </cc:Work>
    </rdf:RDF>
  </metadata>
  <g
     id="layer1"
     inkscape:label="Layer 1"
     inkscape:groupmode="layer">
    <rect
       style="opacity:1;fill:#000000;fill-opacity:1;stroke:#000000;stroke-width:0.41997361;stroke-miterlimit:4;stroke-dasharray:none;stroke-opacity:1"
       id="rect2425"
       width="19.72674"
       height="27.942638"
       x="3.2642069"
       y="2.0434015" />
    <path
       style="fill:#ffffff;fill-rule:evenodd;stroke:#ffffff;stroke-width:0.5;stroke-linecap:butt;stroke-linejoin:miter;stroke-miterlimit:4;stroke-dasharray:none;stroke-opacity:1"
       d="M 4.3758588,5.1197248 L 21.52208,5.1197248"
       id="path3197" />
    <path
       style="fill:#ffffff;fill-rule:evenodd;stroke:#ffffff;stroke-width:0.5;stroke-linecap:butt;stroke-linejoin:miter;stroke-miterlimit:4;stroke-dasharray:none;stroke-opacity:1"
       d="M 4.3758591,8.0667317 L 21.52208,8.0667317"
       id="path3199" />
    <path
       style="fill:#ffffff;fill-rule:evenodd;stroke:#ffffff;stroke-width:0.5;stroke-linecap:butt;stroke-linejoin:miter;stroke-miterlimit:4;stroke-dasharray:none;stroke-opacity:1"
       d="M 4.3762454,11.058391 L 21.522467,11.058391"
       id="path3201" />
    <path
       style="fill:#ffffff;fill-rule:evenodd;stroke:#ffffff;stroke-width:0.5;stroke-linecap:butt;stroke-linejoin:miter;stroke-miterlimit:4;stroke-dasharray:none;stroke-opacity:1"
       d="M 4.3762464,14.005397 L 21.522467,14.005397"
       id="path3203" />
    <path
       style="fill:#ffffff;fill-rule:evenodd;stroke:#ffffff;stroke-width:0.5;stroke-linecap:butt;stroke-linejoin:miter;stroke-miterlimit:4;stroke-dasharray:none;stroke-opacity:1"
       d="M 4.3756658,16.572866 L 21.521886,16.572866"
       id="path3205" />
    <path
       style="fill:#ffffff;fill-rule:evenodd;stroke:#ffffff;stroke-width:0.5;stroke-linecap:butt;stroke-linejoin:miter;stroke-miterlimit:4;stroke-dasharray:none;stroke-opacity:1"
       d="M 4.3756658,19.519873 L 21.521886,19.519873"
       id="path3207" />
    <path
       style="fill:#ffffff;fill-rule:evenodd;stroke:#ffffff;stroke-width:0.5;stroke-linecap:butt;stroke-linejoin:miter;stroke-miterlimit:4;stroke-dasharray:none;stroke-opacity:1"
       d="M 4.3760518,22.511532 L 21.522273,22.511532"
       id="path3209" />
    <path
       style="fill:#ffffff;fill-rule:evenodd;stroke:#ffffff;stroke-width:0.5;stroke-linecap:butt;stroke-linejoin:miter;stroke-miterlimit:4;stroke-dasharray:none;stroke-opacity:1"
       d="M 4.3760528,25.458538 L 21.522273,25.458538"
       id="path3211" />
    <path
       style="fill:#ffffff;fill-rule:evenodd;stroke:#ffffff;stroke-width:0.5;stroke-linecap:butt;stroke-linejoin:miter;stroke-miterlimit:4;stroke-dasharray:none;stroke-opacity:1"
       d="M 4.3758595,27.892051 L 21.522079,27.892051"
       id="path3213" />
    <path
       sodipodi:type="arc"
       style="fill:#00ffff;fill-rule:evenodd;stroke:#000000;stroke-width:1px;stroke-linecap:butt;stroke-linejoin:miter;stroke-opacity:1"
       id="path2397"
       sodipodi:cx="17.235525"
       sodipodi:cy="7.6202154"
       sodipodi:rx="10.269873"
       sodipodi:ry="2.6790972"
       d="M 27.505398,7.6202154 A 10.269873,2.6790972 0 1 1 6.9656525,7.6202154 A 10.269873,2.6790972 0 1 1 27.505398,7.6202154 z"
       transform="matrix(0.5814445,0,0,0.5814445,13.818618,5.6988945)" />
    <path
       style="fill:none;fill-rule:evenodd;stroke:#000000;stroke-width:0.58144444px;stroke-linecap:butt;stroke-linejoin:miter;stroke-opacity:1"
       d="M 17.868759,10.233476 L 17.868759,20.306901"
       id="path2399" />
    <path
       style="fill:none;fill-rule:evenodd;stroke:#000000;stroke-width:0.58144444px;stroke-linecap:butt;stroke-linejoin:miter;stroke-opacity:1"
       d="M 29.811478,10.233679 L 29.811478,20.307105"
       id="path3217" />
    <path
       sodipodi:type="arc"
       style="fill:#ffffff;fill-rule:evenodd;stroke:#000000;stroke-width:1px;stroke-linecap:butt;stroke-linejoin:miter;stroke-opacity:1"
       id="path3219"
       sodipodi:cx="17.235525"
       sodipodi:cy="7.6202154"
       sodipodi:rx="10.269873"
       sodipodi:ry="2.6790972"
       d="M 27.505398,7.6202154 A 10.269873,2.6790972 0 1 1 6.9656525,7.6202154 A 10.269873,2.6790972 0 1 1 27.505398,7.6202154 z"
       transform="matrix(0.5814445,0,0,0.5814445,13.818618,15.77232)" />
    <rect
       style="fill:#00ffff"
       id="rect3209"
       width="11.363735"
       height="3.7634339"
       x="18.151155"
       y="16.447802" />
    <path
       style="fill:#00ffff"
       d="M 23.062728,21.445866 C 20.75216,21.369037 18.759365,20.914596 18.247239,20.347735 C 18.20989,20.306394 18.179331,20.260201 18.179331,20.245085 C 18.179331,20.220737 18.825693,20.2176 23.84284,20.2176 C 26.95777,20.2176 29.50635,20.22214 29.50635,20.227691 C 29.50635,20.256581 29.447128,20.343746 29.393177,20.39426 C 29.069698,20.69714 28.253961,20.992381 27.220752,21.180534 C 25.99472,21.403798 24.556887,21.49555 23.062728,21.445866 L 23.062728,21.445866 z"
       id="path3222" />
    <path
       style="fill:#00ffff"
       d="M 18.160974,13.966628 L 18.160974,11.497448 L 18.8081,11.497502 L 19.455227,11.497557 L 19.712242,11.560448 C 21.493043,11.996207 24.177934,12.10654 26.412991,11.835812 C 26.931922,11.772955 27.594646,11.654538 28.004492,11.55144 L 28.219127,11.497448 L 28.862739,11.497448 L 29.50635,11.497448 L 29.50635,13.966628 L 29.50635,16.435808 L 23.833661,16.435808 L 18.160974,16.435808 L 18.160974,13.966628 z"
       id="path3224" />
    <path
       style="fill:#00ffff"
       d="M 22.649558,21.418525 C 20.768039,21.310488 19.202972,20.978783 18.500763,20.539218 C 18.362071,20.452402 18.18672,20.28692 18.20392,20.259087 C 18.229752,20.217291 29.487993,20.215949 29.487993,20.257744 C 29.487993,20.28923 29.335027,20.438378 29.233782,20.505611 C 28.596874,20.928557 27.165744,21.264575 25.458363,21.392046 C 24.651585,21.452279 23.436811,21.463732 22.649558,21.418527 L 22.649558,21.418525 z"
       id="path3215" />
    <path
       style="fill:#00ffff"
       d="M 18.160974,18.326703 L 18.160974,16.454167 L 23.833661,16.454167 L 29.50635,16.454167 L 29.50635,18.326703 L 29.50635,20.199242 L 23.833661,20.199242 L 18.160974,20.199242 L 18.160974,18.326703 z"
       id="path3227" />
    <path
       style="fill:#00ffff"
       d="M 18.436347,20.216871 C 18.279843,20.211422 20.707946,20.205226 23.832132,20.203103 C 26.956318,20.200979 29.506422,20.205289 29.49903,20.212681 C 29.483706,20.228006 18.871564,20.232026 18.436347,20.216871 L 18.436347,20.216871 z"
       id="path3229" />
    <path
       style="fill:#00ffff"
       d="M 22.92692,20.408719 C 22.882071,20.404983 22.690446,20.393261 22.501086,20.382669 C 20.764506,20.285535 19.194515,19.942275 18.514565,19.51106 C 18.366626,19.417239 18.199464,19.253401 18.225426,19.227672 C 18.235823,19.217367 19.177744,19.203885 20.580307,19.193964 L 22.91786,19.177432 L 20.548594,19.174307 L 18.179331,19.171181 L 18.179331,17.298643 L 18.179331,15.426107 L 23.778587,15.426107 L 29.377843,15.426107 L 29.377843,17.298643 L 29.377843,19.171181 L 28.775334,19.173842 C 28.443953,19.175304 27.708032,19.181939 27.139953,19.188585 L 26.10708,19.20067 L 27.7334,19.204283 C 28.984962,19.207066 29.359723,19.21298 29.359723,19.229945 C 29.359723,19.270125 29.151757,19.457683 29.022225,19.534326 C 28.309579,19.955992 26.967795,20.249468 25.137629,20.383966 C 24.884502,20.402569 23.093792,20.422619 22.92692,20.408719 L 22.92692,20.408719 z"
       id="path3221" />
    <path
       style="fill:#00ffff"
       d="M 18.226422,20.216986 C 18.115274,20.211599 18.406836,20.205403 18.874334,20.203218 C 19.341832,20.20103 19.722338,20.202263 19.719901,20.205954 C 19.712118,20.217741 18.436453,20.227165 18.226422,20.216986 L 18.226422,20.216986 z"
       id="path3223" />
    <path
       style="fill:#00ffff;fill-opacity:1;stroke:#00ffff;stroke-width:0.00183582;stroke-miterlimit:4;stroke-dasharray:none;stroke-opacity:0"
       d="M 18.162847,11.24169 L 18.162847,10.985934 L 18.387736,11.100606 C 18.620678,11.219384 18.943751,11.345657 19.257397,11.440512 L 19.438743,11.495356 L 18.800795,11.496402 L 18.162847,11.497448 L 18.162847,11.24169 z"
       id="path3233" />
    <path
       style="fill:#00ffff;fill-opacity:1;stroke:#00ffff;stroke-width:0.00183582;stroke-miterlimit:4;stroke-dasharray:none;stroke-opacity:0"
       d="M 28.305761,11.476326 C 28.336052,11.466303 28.464102,11.424781 28.590314,11.384055 C 28.868781,11.2942 29.164004,11.17243 29.361402,11.066006 L 29.508224,10.986851 L 29.508224,11.242148 L 29.508224,11.497448 L 28.879456,11.495998 C 28.436837,11.494977 28.266992,11.489153 28.305761,11.476326 z"
       id="path3235" />
    <path
       style="fill:#00ffff;fill-opacity:1;stroke:#00ffff;stroke-width:0.00183582;stroke-miterlimit:4;stroke-dasharray:none;stroke-opacity:0"
       d="M 28.557011,20.222226 C 28.72549,20.2192 29.006371,20.219194 29.181191,20.222215 C 29.356012,20.225234 29.218165,20.227711 28.874867,20.227718 C 28.531567,20.227724 28.388533,20.225252 28.557011,20.222226 L 28.557011,20.222226 z"
       id="path3231" />
    <path
       style="fill:#00ffff;fill-opacity:1;stroke:#00ffff;stroke-width:0.00045896;stroke-miterlimit:4;stroke-dasharray:none;stroke-opacity:0"
       d="M 25.916565,21.362905 C 25.936758,21.360706 26.020403,21.35161 26.102442,21.342693 C 27.33299,21.208944 28.334162,20.972875 28.966277,20.667422 C 29.252528,20.5291 29.42361,20.398585 29.493784,20.264999 C 29.501543,20.250227 29.50789,20.235254 29.50789,20.231725 C 29.50789,20.226396 29.486643,20.225214 29.382825,20.224769 C 29.31404,20.224475 29.244336,20.222724 29.227928,20.22088 C 29.209174,20.218773 29.24838,20.217253 29.333487,20.216786 C 29.407954,20.216381 29.479722,20.214745 29.492974,20.213153 C 29.520679,20.209826 29.520991,20.210435 29.51018,20.246841 C 29.495036,20.297835 29.43115,20.376712 29.350307,20.444228 C 29.275316,20.506857 29.135714,20.594845 29.016808,20.654424 C 28.422585,20.952173 27.459779,21.18921 26.267666,21.331249 C 26.083829,21.353153 25.934035,21.36816 25.905768,21.367505 C 25.880923,21.366929 25.88137,21.366739 25.916565,21.362905 z"
       id="path3238" />
    <path
       style="fill:#00ffff;fill-opacity:1;stroke:#00ffff;stroke-width:0.00045896;stroke-miterlimit:4;stroke-dasharray:none;stroke-opacity:0"
       d="M 29.249728,20.222068 C 29.255407,20.220974 29.264702,20.220974 29.270382,20.222068 C 29.27606,20.223161 29.271414,20.224056 29.260054,20.224056 C 29.248696,20.224056 29.244048,20.223161 29.249728,20.222068 L 29.249728,20.222068 z"
       id="path3240" />
    <path
       style="fill:#00ffff;fill-opacity:1;stroke:#00ffff;stroke-width:0.00045896;stroke-miterlimit:4;stroke-dasharray:none;stroke-opacity:0"
       d="M 29.15318,20.217339 C 29.16634,20.216416 29.189059,20.216407 29.203665,20.217321 C 29.218271,20.218234 29.207503,20.21899 29.179737,20.219 C 29.151971,20.21901 29.14002,20.218262 29.15318,20.217339 L 29.15318,20.217339 z"
       id="path3237" />
    <path
       style="fill:#00ffff;fill-opacity:1;stroke:#00ffff;stroke-width:0.00045896;stroke-miterlimit:4;stroke-dasharray:none;stroke-opacity:0"
       d="M 24.023373,19.481798 L 24.023373,17.595491 L 26.767927,17.595491 L 29.51248,17.595491 L 29.51248,18.903514 L 29.51248,20.211538 L 29.431016,20.212572 L 29.349551,20.213606 L 29.431016,20.214973 L 29.51248,20.216338 L 29.51248,20.228585 C 29.51248,20.239364 29.511795,20.239923 29.506743,20.233247 C 29.502098,20.227106 29.489225,20.225175 29.439047,20.22309 C 29.322272,20.218239 28.422562,20.216136 28.266416,20.220348 C 28.147587,20.223555 28.208336,20.224015 28.521136,20.222276 C 28.954927,20.219865 29.5033,20.227575 29.5033,20.236086 C 29.5033,20.238573 29.496111,20.253687 29.487324,20.269673 C 29.468095,20.304655 29.469818,20.308783 29.489396,20.274645 C 29.496997,20.261392 29.503234,20.253712 29.503257,20.257577 C 29.503282,20.261442 29.495913,20.276415 29.486884,20.290851 C 29.470529,20.316999 29.463086,20.324334 29.468398,20.309066 C 29.470152,20.304024 29.46768,20.305305 29.461754,20.312509 C 29.456563,20.318819 29.440561,20.337992 29.426193,20.355113 C 29.37008,20.421982 29.247687,20.513169 29.114335,20.587455 C 29.085939,20.603276 29.062704,20.617217 29.062704,20.618435 C 29.062704,20.619654 29.078322,20.61203 29.097411,20.601492 C 29.1165,20.590955 29.133199,20.583413 29.134521,20.584734 C 29.140399,20.590614 28.944231,20.689943 28.83552,20.736132 C 28.70572,20.791284 28.560354,20.846494 28.552147,20.843759 C 28.549834,20.842988 28.577537,20.831344 28.61371,20.817881 C 28.700498,20.785579 28.792756,20.74782 28.790471,20.745537 C 28.789467,20.744532 28.772045,20.750816 28.751754,20.759501 C 28.645429,20.80501 28.39743,20.891045 28.222024,20.943274 C 28.06968,20.988636 27.792644,21.06045 27.661121,21.088675 C 27.640261,21.09315 27.63608,21.095332 27.642762,21.098254 C 27.648993,21.100979 27.64756,21.101449 27.637648,21.099937 C 27.617829,21.096911 27.52617,21.116361 27.537288,21.121232 C 27.543349,21.123886 27.541825,21.124356 27.532088,21.122832 C 27.511977,21.119689 27.438325,21.13452 27.449787,21.139406 C 27.455388,21.141793 27.451045,21.142352 27.438002,21.140923 C 27.422076,21.139177 27.41945,21.139725 27.426528,21.14332 C 27.434082,21.147157 27.433072,21.147582 27.42081,21.145718 C 27.412618,21.144473 27.357888,21.152544 27.299188,21.163653 C 26.878186,21.243329 26.402758,21.310468 25.916565,21.358903 C 25.828344,21.367692 25.789739,21.368049 24.924073,21.368075 L 24.023373,21.368105 L 24.023373,19.481798 z M 28.810279,20.739336 C 28.814065,20.73689 28.815097,20.734887 28.812572,20.734887 C 28.810049,20.734887 28.804885,20.73689 28.8011,20.739336 C 28.797313,20.741783 28.79628,20.743786 28.798805,20.743786 C 28.801328,20.743786 28.806492,20.741783 28.810279,20.739336 z M 28.837815,20.727863 C 28.844126,20.724255 28.847225,20.721303 28.8447,20.721303 C 28.842177,20.721303 28.834948,20.724255 28.828636,20.727863 C 28.822326,20.73147 28.819228,20.734422 28.821751,20.734422 C 28.824276,20.734422 28.831505,20.73147 28.837815,20.727863 z M 28.879122,20.709505 C 28.89048,20.703421 28.897709,20.698446 28.895186,20.698446 C 28.892661,20.698446 28.881303,20.703421 28.869943,20.709505 C 28.858583,20.715587 28.851354,20.720563 28.853879,20.720563 C 28.856404,20.720563 28.867762,20.715587 28.879122,20.709505 z M 28.934196,20.684262 C 28.943031,20.679425 28.948193,20.675468 28.94567,20.675468 C 28.943145,20.675468 28.933852,20.679425 28.925017,20.684262 C 28.916182,20.689098 28.91102,20.693057 28.913543,20.693057 C 28.916068,20.693055 28.925361,20.689098 28.934196,20.684262 z"
       id="path3239" />
    <path
       style="fill:#00ffff;fill-opacity:1;stroke:#00ffff;stroke-width:0.00045896;stroke-miterlimit:4;stroke-dasharray:none;stroke-opacity:0"
       d="M 24.023373,19.481798 L 24.023373,17.595491 L 26.767927,17.595491 L 29.51248,17.595491 L 29.51248,18.903361 L 29.51248,20.211227 L 29.463142,20.212703 L 29.413804,20.214179 L 29.463142,20.215153 L 29.51248,20.216128 L 29.51241,20.228748 C 29.51237,20.235787 29.510848,20.239078 29.508967,20.236189 C 29.506949,20.233087 29.501568,20.239994 29.495562,20.253399 C 29.484697,20.277646 29.485015,20.283578 29.496087,20.263171 C 29.499973,20.256007 29.503012,20.253588 29.503117,20.257577 C 29.503367,20.267145 29.469872,20.320076 29.467697,20.313551 C 29.466742,20.310689 29.450844,20.326322 29.432364,20.348291 C 29.373376,20.418423 29.253904,20.509918 29.134989,20.576036 C 29.104134,20.593192 29.091192,20.603925 29.118204,20.589955 C 29.135308,20.58111 29.140755,20.583799 29.125707,20.593658 C 29.103255,20.60837 28.979459,20.671317 28.911748,20.70245 C 28.776801,20.764496 28.563054,20.847166 28.549057,20.842722 C 28.544937,20.841415 28.498246,20.854899 28.445298,20.872688 C 28.327662,20.912208 28.17304,20.959025 28.051436,20.991941 C 27.986398,21.009547 27.962788,21.017659 27.968824,21.020328 C 27.974727,21.022937 27.973058,21.023437 27.963283,21.021981 C 27.955588,21.020836 27.926675,21.025771 27.89903,21.032952 C 27.871386,21.040129 27.853931,21.046326 27.860241,21.046719 C 27.866551,21.047113 27.851156,21.052522 27.82603,21.058741 C 27.800903,21.064959 27.777318,21.068885 27.773618,21.067467 C 27.769919,21.066046 27.755604,21.067411 27.741807,21.070498 C 27.722203,21.074886 27.718612,21.076936 27.725374,21.079883 C 27.73113,21.082389 27.72865,21.082882 27.717965,21.081355 C 27.70913,21.080093 27.695705,21.080925 27.688133,21.083206 C 27.674949,21.087177 27.674852,21.087391 27.685838,21.088218 C 27.695586,21.088953 27.694895,21.089684 27.681248,21.093086 C 27.672413,21.095286 27.658988,21.095983 27.651416,21.094631 C 27.642269,21.093 27.639698,21.093592 27.643755,21.096396 C 27.651814,21.101965 27.625514,21.107498 27.608514,21.10381 C 27.598827,21.101707 27.597748,21.102217 27.603226,21.1063 C 27.608545,21.110263 27.605936,21.110858 27.591752,21.108916 C 27.577534,21.106969 27.575465,21.107445 27.582573,21.111026 C 27.589611,21.11457 27.586934,21.115121 27.571098,21.113385 C 27.555172,21.111639 27.552546,21.112189 27.559624,21.115784 C 27.567134,21.119596 27.566049,21.120025 27.55366,21.118132 C 27.545331,21.116859 27.539618,21.117601 27.540965,21.11978 C 27.544323,21.125216 27.519305,21.129718 27.501109,21.12695 C 27.488837,21.125086 27.48782,21.125511 27.495371,21.129344 C 27.502449,21.13294 27.499825,21.133489 27.483897,21.131744 C 27.46797,21.129998 27.465345,21.130547 27.472424,21.134141 C 27.479933,21.137955 27.478847,21.138383 27.466458,21.13649 C 27.455965,21.134887 27.452292,21.135759 27.454501,21.139331 C 27.456764,21.142996 27.452515,21.143592 27.439812,21.141388 C 27.426991,21.139162 27.423884,21.139612 27.428823,21.142976 C 27.435993,21.14786 27.432352,21.148567 27.392106,21.150102 C 27.383272,21.150438 27.369847,21.151237 27.362275,21.151877 C 27.349943,21.15292 27.349464,21.153497 27.357685,21.157397 C 27.364816,21.160779 27.363403,21.161219 27.351353,21.159364 C 27.342821,21.158052 27.322237,21.159485 27.30561,21.162547 C 27.280523,21.16717 27.277305,21.168722 27.286699,21.171667 C 27.294897,21.174237 27.293117,21.174654 27.280237,21.173179 C 27.270187,21.172031 27.206457,21.181028 27.133694,21.193869 C 26.891773,21.236561 26.593514,21.280988 26.343394,21.31159 C 26.261946,21.321554 26.242028,21.325208 26.256192,21.327583 C 26.267036,21.329401 26.258583,21.33002 26.235539,21.329093 C 26.205418,21.327884 26.200711,21.328428 26.214885,21.331484 C 26.230231,21.334793 26.228451,21.335112 26.204043,21.333431 C 26.187983,21.332326 26.148741,21.334459 26.116841,21.33817 C 26.084941,21.341881 26.006445,21.350134 25.942407,21.356512 L 25.825972,21.368105 L 24.924672,21.368105 L 24.023373,21.368105 L 24.023373,19.481798 z M 27.66834,21.089596 C 27.665027,21.088271 27.661068,21.088433 27.659544,21.089959 C 27.658019,21.091484 27.660729,21.092569 27.665567,21.092369 C 27.670914,21.092149 27.672001,21.091062 27.66834,21.089596 z M 27.787669,21.06206 C 27.784355,21.060733 27.780397,21.060897 27.778872,21.062422 C 27.777346,21.063946 27.780058,21.065032 27.784896,21.064833 C 27.790243,21.064611 27.79133,21.063524 27.787669,21.06206 z M 27.806027,21.05747 C 27.802713,21.056143 27.798754,21.056307 27.79723,21.057833 C 27.795705,21.059358 27.798416,21.060442 27.803254,21.060243 C 27.8086,21.060023 27.809687,21.058935 27.806027,21.05747 z M 27.824384,21.052881 C 27.821072,21.051554 27.817113,21.051718 27.815589,21.053243 C 27.814063,21.054767 27.816773,21.055852 27.821611,21.055654 C 27.826959,21.055434 27.828046,21.054345 27.824384,21.052881 z M 27.842743,21.048291 C 27.83943,21.046966 27.835471,21.047128 27.833947,21.048653 C 27.832422,21.050179 27.835132,21.051263 27.83997,21.051064 C 27.845317,21.050844 27.846404,21.049757 27.842743,21.048291 z M 28.583095,20.828312 C 28.594154,20.823278 28.594605,20.822596 28.58539,20.824858 C 28.579079,20.826406 28.56772,20.830495 28.560147,20.833943 C 28.54909,20.838978 28.548638,20.839658 28.557854,20.837397 C 28.564164,20.835849 28.575522,20.83176 28.583095,20.828312 L 28.583095,20.828312 z M 28.626697,20.811996 C 28.631481,20.809039 28.63008,20.808678 28.622107,20.810811 C 28.615795,20.812499 28.607534,20.815793 28.603748,20.818134 C 28.598964,20.821089 28.600363,20.82145 28.608338,20.819317 C 28.614648,20.817629 28.622909,20.814335 28.626697,20.811996 L 28.626697,20.811996 z M 28.649643,20.803591 C 28.65343,20.801144 28.654463,20.799142 28.65194,20.799142 C 28.649415,20.799142 28.644251,20.801144 28.640464,20.803591 C 28.636678,20.806038 28.635646,20.80804 28.638169,20.80804 C 28.640694,20.80804 28.645858,20.806038 28.649643,20.803591 z M 28.68636,20.789822 C 28.690148,20.787375 28.69118,20.785373 28.688655,20.785373 C 28.68613,20.785373 28.680968,20.787375 28.677181,20.789822 C 28.673395,20.792269 28.672361,20.794271 28.674886,20.794271 C 28.677411,20.794271 28.682575,20.792269 28.68636,20.789822 z M 28.709309,20.780642 C 28.713094,20.778195 28.714127,20.776193 28.711603,20.776193 C 28.709079,20.776193 28.703915,20.778195 28.700129,20.780642 C 28.696342,20.783089 28.69531,20.785091 28.697834,20.785091 C 28.700359,20.785091 28.705521,20.783089 28.709309,20.780642 z M 28.732255,20.771463 C 28.736042,20.769016 28.737075,20.767014 28.73455,20.767014 C 28.732027,20.767014 28.726863,20.769016 28.723077,20.771463 C 28.71929,20.77391 28.718258,20.775912 28.720783,20.775912 C 28.723306,20.775912 28.72847,20.77391 28.732255,20.771463 z M 28.755203,20.762284 C 28.758991,20.759837 28.760023,20.757835 28.757498,20.757835 C 28.754975,20.757835 28.749811,20.759837 28.746024,20.762284 C 28.742238,20.764731 28.741206,20.766733 28.743729,20.766733 C 28.746254,20.766733 28.751418,20.764731 28.755203,20.762284 z M 28.881384,20.707263 C 28.882992,20.70466 28.881149,20.703891 28.877065,20.705459 C 28.869114,20.708509 28.86766,20.711799 28.874261,20.711799 C 28.876637,20.711799 28.879842,20.709758 28.881384,20.707263 L 28.881384,20.707263 z M 28.934196,20.684262 C 28.937983,20.681814 28.939016,20.679813 28.936491,20.679813 C 28.933966,20.679813 28.928804,20.681814 28.925017,20.684262 C 28.921231,20.686709 28.920199,20.688711 28.922722,20.688711 C 28.925247,20.688711 28.930411,20.686709 28.934196,20.684262 z M 29.432163,20.22488 C 29.328052,20.219647 28.54538,20.215319 28.445409,20.219424 C 28.383856,20.22195 28.462475,20.222714 28.684065,20.221743 C 28.865811,20.220947 29.085767,20.222127 29.172853,20.224364 C 29.25994,20.226603 29.368367,20.228361 29.413804,20.228272 L 29.496416,20.22811 L 29.432163,20.22488 z"
       id="path3241" />
    <path
       style="fill:#00ffff;fill-opacity:1;stroke:#00ffff;stroke-width:0.00045896;stroke-miterlimit:4;stroke-dasharray:none;stroke-opacity:0"
       d="M 29.219896,20.22202 C 29.226838,20.220967 29.238196,20.220967 29.245139,20.22202 C 29.252081,20.22307 29.246401,20.223931 29.232516,20.223931 C 29.218633,20.223931 29.212955,20.22307 29.219896,20.22202 z"
       id="path3243" />
    <path
       style="fill:#00ffff;fill-opacity:1;stroke:#00ffff;stroke-width:0.00045896;stroke-miterlimit:4;stroke-dasharray:none;stroke-opacity:0"
       d="M 24.023373,19.481896 L 24.023373,17.595491 L 26.767942,17.595491 L 29.512511,17.595491 L 29.512465,18.917535 C 29.512438,19.644659 29.51067,20.238497 29.50853,20.237177 C 29.506393,20.235855 29.502276,20.239969 29.499382,20.246319 C 29.492993,20.260345 29.492597,20.266895 29.498712,20.257433 C 29.501904,20.252494 29.50318,20.252234 29.503231,20.256513 C 29.503396,20.270603 29.468696,20.323534 29.462003,20.319398 C 29.460048,20.318189 29.45563,20.32079 29.452189,20.325181 C 29.446527,20.332403 29.446694,20.332561 29.453963,20.326862 C 29.45838,20.323397 29.461995,20.322628 29.461995,20.325153 C 29.461995,20.331127 29.450422,20.340712 29.447154,20.337444 C 29.445768,20.336057 29.435632,20.34566 29.424629,20.358782 C 29.38256,20.408962 29.306697,20.467168 29.151625,20.568246 C 29.144334,20.572998 29.144248,20.57345 29.151053,20.571198 C 29.183486,20.560469 29.122979,20.59706 29.024781,20.647556 C 28.888932,20.717415 28.72661,20.785533 28.542749,20.849839 C 28.455895,20.880218 28.432333,20.886957 28.447704,20.877023 C 28.458844,20.869823 28.454426,20.87104 28.355913,20.902308 C 28.304166,20.918732 28.249608,20.93562 28.234673,20.939837 C 28.215298,20.945307 28.209932,20.948351 28.215945,20.950461 C 28.222231,20.952666 28.219021,20.954915 28.203303,20.959316 C 28.191716,20.96256 28.179862,20.963748 28.176961,20.961955 C 28.174061,20.960163 28.150964,20.964485 28.125633,20.971558 C 28.09451,20.980251 28.082339,20.985399 28.08809,20.987441 C 28.094869,20.989847 28.093497,20.991151 28.081358,20.993844 C 28.072974,20.995704 28.064885,20.995997 28.063383,20.994493 C 28.061881,20.99299 28.064437,20.991761 28.069065,20.991761 C 28.073693,20.991761 28.076353,20.990636 28.074978,20.989261 C 28.073602,20.987884 28.062526,20.989264 28.050365,20.992327 C 28.033833,20.99649 28.030437,20.99866 28.036904,21.000929 C 28.048674,21.005058 27.95299,21.028925 27.938023,21.025593 C 27.928808,21.023541 27.928027,21.024056 27.933674,21.028452 C 27.939244,21.032788 27.938159,21.033288 27.927979,21.031068 C 27.912454,21.027682 27.868277,21.037821 27.880251,21.04202 C 27.884938,21.043665 27.861388,21.051122 27.823805,21.059893 C 27.788335,21.06817 27.757189,21.073628 27.754591,21.072024 C 27.751994,21.070417 27.743447,21.070515 27.735599,21.072237 C 27.726832,21.074163 27.723435,21.076671 27.726787,21.078743 C 27.734347,21.083415 27.662094,21.098489 27.651545,21.094441 C 27.646045,21.092331 27.644091,21.092897 27.646033,21.096039 C 27.649771,21.102086 27.621513,21.107947 27.609973,21.103519 C 27.603853,21.10117 27.602691,21.101924 27.605481,21.106438 C 27.608444,21.111231 27.605923,21.111884 27.593613,21.109518 C 27.581831,21.107253 27.579679,21.107726 27.584867,21.111439 C 27.59002,21.115127 27.587134,21.11566 27.573393,21.113559 C 27.559288,21.111401 27.556631,21.111936 27.561919,21.115868 C 27.567439,21.119972 27.566332,21.120594 27.556343,21.119 C 27.549489,21.117908 27.543175,21.119136 27.54231,21.12173 C 27.541444,21.124323 27.530217,21.126605 27.517356,21.1268 C 27.503642,21.127008 27.496162,21.128734 27.499262,21.130976 C 27.502219,21.133113 27.496458,21.133676 27.486192,21.132253 C 27.4726,21.130369 27.469622,21.130959 27.474718,21.134528 C 27.480077,21.138279 27.478842,21.138906 27.469142,21.137359 C 27.462287,21.136267 27.456093,21.136777 27.455373,21.138494 C 27.453151,21.143797 27.381441,21.156297 27.366864,21.153921 C 27.355792,21.152117 27.354444,21.152715 27.35998,21.15697 C 27.36538,21.161121 27.362908,21.161657 27.348506,21.159453 C 27.334563,21.157321 27.331803,21.157855 27.337032,21.161675 C 27.342247,21.165487 27.338908,21.166088 27.323263,21.164157 C 27.30777,21.162243 27.304902,21.162746 27.311788,21.166164 C 27.318757,21.169625 27.315993,21.170178 27.300314,21.168459 C 27.286964,21.166996 27.282854,21.167552 27.28869,21.170032 C 27.295918,21.173103 27.293668,21.174412 27.277399,21.176594 C 27.266225,21.178092 27.250803,21.178384 27.243129,21.177245 C 27.231243,21.175476 27.230535,21.175875 27.238356,21.179933 C 27.245882,21.183841 27.244734,21.184266 27.231978,21.182302 C 27.223215,21.180952 27.164074,21.189003 27.096585,21.20073 C 26.964557,21.223672 26.730896,21.260244 26.609588,21.276953 C 26.551498,21.284954 26.535085,21.288548 26.545335,21.291019 C 26.555172,21.293392 26.553205,21.293753 26.53845,21.292287 C 26.52709,21.291157 26.488882,21.293772 26.453542,21.298101 C 26.402288,21.304376 26.392538,21.306638 26.405352,21.309279 C 26.417045,21.311689 26.414682,21.312063 26.396666,21.310654 C 26.383054,21.30959 26.359303,21.310137 26.343887,21.31187 C 26.317583,21.314828 26.316845,21.315223 26.331919,21.318301 C 26.341939,21.320344 26.335032,21.320953 26.313561,21.319916 C 26.287165,21.31864 26.282884,21.319191 26.295202,21.32228 C 26.308033,21.325496 26.305262,21.325951 26.281433,21.324537 C 26.263727,21.323484 26.256266,21.324171 26.263076,21.326226 C 26.278543,21.330892 26.220014,21.336593 26.185052,21.333827 C 26.166216,21.332336 26.163886,21.33271 26.175875,21.335299 C 26.187104,21.337725 26.178125,21.338807 26.146042,21.338891 C 26.120799,21.338959 26.051612,21.344978 25.992292,21.352266 L 25.884437,21.365519 L 24.953906,21.366909 L 24.023373,21.368299 L 24.023373,19.481896 z M 26.225125,21.328208 C 26.220659,21.327045 26.214463,21.327121 26.211356,21.328378 C 26.208249,21.329636 26.211902,21.330587 26.219475,21.330495 C 26.227048,21.3304 26.229591,21.329371 26.225125,21.328208 L 26.225125,21.328208 z M 27.691288,21.085008 C 27.687974,21.083681 27.684016,21.083845 27.682491,21.085369 C 27.680967,21.086894 27.683677,21.08798 27.688515,21.08778 C 27.693862,21.08756 27.694949,21.086472 27.691288,21.085008 z M 27.709646,21.080417 C 27.706332,21.079092 27.702375,21.079255 27.700849,21.080779 C 27.699324,21.082305 27.702036,21.08339 27.706873,21.08319 C 27.712219,21.08297 27.713308,21.081883 27.709646,21.080417 z M 27.76931,21.06665 C 27.765998,21.065323 27.762038,21.065487 27.760513,21.06701 C 27.758989,21.068536 27.761699,21.069621 27.766537,21.069423 C 27.771885,21.069203 27.772972,21.068114 27.76931,21.06665 z M 27.989608,21.011574 C 27.986296,21.010249 27.982336,21.010411 27.980813,21.011936 C 27.979287,21.013462 27.981997,21.014545 27.986835,21.014347 C 27.992182,21.014127 27.99327,21.01304 27.989608,21.011574 z M 28.01858,21.00553 C 28.024366,21.003045 28.025215,21.001586 28.020875,21.001586 C 28.017088,21.001586 28.009861,21.003361 28.004811,21.00553 C 27.999026,21.008017 27.998177,21.009474 28.002517,21.009474 C 28.006302,21.009474 28.013531,21.007699 28.01858,21.00553 z M 28.197573,20.955046 C 28.203359,20.952559 28.204206,20.951101 28.199868,20.951101 C 28.196081,20.951101 28.188852,20.952876 28.183804,20.955046 C 28.178018,20.957532 28.17717,20.95899 28.181509,20.95899 C 28.185297,20.95899 28.192525,20.957215 28.197573,20.955046 z M 29.140727,20.576172 C 29.140727,20.574909 29.134531,20.577082 29.126958,20.580996 C 29.119385,20.584912 29.113189,20.58915 29.113189,20.590412 C 29.113189,20.591674 29.119385,20.589502 29.126958,20.585586 C 29.134531,20.58167 29.140727,20.577434 29.140727,20.576172 L 29.140727,20.576172 z M 29.446911,20.2265 C 29.432305,20.225585 29.409587,20.225595 29.396427,20.226518 C 29.383266,20.227441 29.395217,20.228189 29.422983,20.228179 C 29.450751,20.228169 29.461517,20.227413 29.446911,20.2265 L 29.446911,20.2265 z M 29.295623,20.221879 C 29.265964,20.22108 29.217429,20.22108 29.18777,20.221879 C 29.158109,20.222678 29.182376,20.223332 29.241696,20.223332 C 29.301017,20.223332 29.325284,20.222678 29.295623,20.221879 z M 28.788477,20.217309 C 28.770177,20.216437 28.74023,20.216437 28.721929,20.217309 C 28.703629,20.218179 28.718602,20.218892 28.755203,20.218892 C 28.791805,20.218892 28.806778,20.218179 28.788477,20.217309 L 28.788477,20.217309 z M 29.495332,20.212897 C 29.489687,20.211806 29.479361,20.21178 29.472384,20.212834 C 29.465408,20.213889 29.470026,20.214779 29.482649,20.214814 C 29.495269,20.214849 29.500977,20.213985 29.495332,20.212897 L 29.495332,20.212897 z"
       id="path3245" />
    <path
       style="fill:#00ffff;fill-opacity:1;stroke:#00ffff;stroke-width:0.00045896;stroke-miterlimit:4;stroke-dasharray:none;stroke-opacity:0"
       d="M 21.652869,21.358564 C 20.401661,21.222663 19.429597,21.003303 18.782103,20.710736 C 18.450563,20.560932 18.223202,20.389717 18.172297,20.251525 C 18.157567,20.211535 18.158123,20.210072 18.186609,20.213831 C 18.199862,20.21558 18.338752,20.21836 18.495257,20.220011 L 18.779808,20.223011 L 18.538857,20.226579 C 18.294123,20.230203 18.187802,20.234898 18.180287,20.242413 C 18.174911,20.247789 18.19346,20.282759 18.219936,20.317164 C 18.252608,20.359626 18.34828,20.447269 18.41035,20.491599 C 18.613444,20.636651 18.9144,20.774655 19.289248,20.894616 C 19.911749,21.09383 20.676775,21.242679 21.60457,21.345099 C 21.729284,21.358866 21.790531,21.367129 21.767608,21.367094 C 21.747415,21.367063 21.695782,21.363224 21.652869,21.358564 L 21.652869,21.358564 z"
       id="path3247" />
    <path
       style="fill:#00ffff;fill-opacity:1;stroke:#00ffff;stroke-width:0.00045896;stroke-miterlimit:4;stroke-dasharray:none;stroke-opacity:0"
       d="M 18.769482,20.221895 C 18.789045,20.221035 18.821057,20.221035 18.84062,20.221895 C 18.860183,20.222754 18.844177,20.223459 18.805051,20.223459 C 18.765925,20.223459 18.749919,20.222754 18.769482,20.221895 L 18.769482,20.221895 z"
       id="path3249" />
    <path
       style="fill:#00ffff;fill-opacity:1;stroke:#00ffff;stroke-width:0.00022713;stroke-miterlimit:4;stroke-dasharray:none;stroke-opacity:0"
       d="M 18.943571,20.778419 C 18.842805,20.73733 18.776148,20.707928 18.702816,20.672227 C 18.429867,20.539339 18.23962,20.392683 18.181983,20.27073 C 18.17102,20.247534 18.162534,20.222168 18.164243,20.217711 C 18.165261,20.215062 18.171199,20.214329 18.193414,20.214108 C 18.208756,20.213955 18.235617,20.213112 18.253106,20.212231 C 18.280662,20.210843 18.276041,20.210579 18.21847,20.210236 L 18.152034,20.209842 L 18.152034,19.565939 L 18.152034,18.922034 L 19.400096,18.922034 L 20.648157,18.922034 L 20.648157,19.855525 L 20.648157,20.789016 L 19.821806,20.789016 L 18.995455,20.789016 L 18.944785,20.768556 C 18.703753,20.671227 18.497225,20.560133 18.37178,20.46033 C 18.363348,20.453621 18.356449,20.448679 18.356449,20.449348 C 18.356449,20.451684 18.401836,20.486693 18.43025,20.506278 C 18.562151,20.597182 18.743327,20.690736 18.939029,20.768995 C 18.964012,20.778985 18.984881,20.787576 18.9854,20.788088 C 18.985922,20.788597 18.982344,20.788925 18.97745,20.788811 C 18.972558,20.7887 18.957313,20.784023 18.943571,20.778419 L 18.943571,20.778419 z M 18.354177,20.447542 C 18.354177,20.447111 18.351877,20.444811 18.349066,20.442432 L 18.343957,20.438105 L 18.348284,20.443216 C 18.352351,20.448019 18.354177,20.449359 18.354177,20.447542 L 18.354177,20.447542 z M 18.257401,20.356908 C 18.231572,20.330007 18.206428,20.297452 18.191283,20.271301 C 18.187261,20.264357 18.183938,20.259638 18.183902,20.260815 C 18.183793,20.264221 18.2017,20.293549 18.214569,20.311034 C 18.225968,20.326524 18.264701,20.368832 18.267482,20.368832 C 18.268235,20.368832 18.263698,20.363466 18.257401,20.356908 z M 18.193009,20.241048 C 18.198579,20.240046 18.212848,20.238293 18.224716,20.237157 L 18.246292,20.235087 L 18.221309,20.236108 C 18.207567,20.23667 18.192492,20.238192 18.187807,20.239491 C 18.18055,20.241505 18.179324,20.242762 18.179516,20.247994 L 18.179743,20.254132 L 18.181311,20.248502 C 18.182564,20.244008 18.184925,20.242503 18.193009,20.241048 L 18.193009,20.241048 z M 18.279717,20.23315 C 18.273117,20.23269 18.262897,20.232695 18.257005,20.233161 C 18.251114,20.233626 18.256514,20.234003 18.269006,20.233997 C 18.281497,20.233992 18.286317,20.233609 18.279717,20.23315 L 18.279717,20.23315 z M 18.341019,20.230866 C 18.331907,20.230434 18.317597,20.230438 18.30922,20.230873 C 18.300844,20.23131 18.308297,20.231662 18.325787,20.231659 C 18.343275,20.231655 18.35013,20.2313 18.341019,20.230866 L 18.341019,20.230866 z M 18.801618,20.225755 C 18.949648,20.224409 19.118288,20.223072 19.176377,20.222786 C 19.234464,20.222499 19.135834,20.222397 18.957199,20.222557 C 18.681855,20.222805 18.515304,20.224642 18.391654,20.228793 C 18.364912,20.229692 18.387762,20.229521 18.801618,20.225755 L 18.801618,20.225755 z"
       id="path3251" />
    <path
       style="fill:#00ffff;fill-opacity:1;stroke:#00ffff;stroke-width:0.00022713;stroke-miterlimit:4;stroke-dasharray:none;stroke-opacity:0"
       d="M 18.927672,20.772161 C 18.577882,20.630212 18.324224,20.471435 18.216195,20.326814 C 18.19014,20.291935 18.160029,20.228696 18.164243,20.217711 C 18.165246,20.215099 18.170768,20.214331 18.190007,20.214131 C 18.203475,20.213992 18.224205,20.213135 18.236071,20.212228 C 18.253412,20.210901 18.24728,20.210506 18.204842,20.21021 L 18.152034,20.209842 L 18.152034,19.565939 L 18.152034,18.922034 L 19.400096,18.922034 L 20.648157,18.922034 L 20.648157,19.855525 L 20.648157,20.789016 L 19.82165,20.789016 L 18.995144,20.789016 L 18.934153,20.764269 C 18.900608,20.750659 18.853323,20.730729 18.829078,20.719979 C 18.787692,20.701634 18.774776,20.696518 18.787989,20.703707 C 18.798653,20.70951 18.888598,20.74828 18.93657,20.767752 C 18.962906,20.778442 18.984881,20.7876 18.9854,20.788103 C 18.985922,20.788604 18.982344,20.788956 18.97745,20.788884 C 18.97189,20.788801 18.953228,20.782532 18.927672,20.772161 L 18.927672,20.772161 z M 18.72979,20.674419 C 18.700902,20.660304 18.662064,20.640887 18.643482,20.63127 C 18.624898,20.621654 18.61174,20.615453 18.614238,20.617492 C 18.619964,20.622166 18.776833,20.700499 18.779985,20.700259 C 18.781264,20.700161 18.758676,20.688533 18.72979,20.674419 L 18.72979,20.674419 z M 18.604017,20.610768 C 18.604017,20.610169 18.599928,20.607593 18.594932,20.605043 C 18.589935,20.602493 18.585847,20.600917 18.585847,20.601535 C 18.585847,20.602156 18.58968,20.604687 18.594364,20.607161 C 18.604002,20.612248 18.604017,20.612253 18.604017,20.610768 z M 18.583575,20.599423 C 18.583575,20.59883 18.580509,20.59676 18.576762,20.594823 C 18.568219,20.590405 18.567703,20.592325 18.576194,20.596931 C 18.583332,20.600802 18.583575,20.600885 18.583575,20.599423 L 18.583575,20.599423 z M 18.563135,20.588089 C 18.563135,20.587508 18.560835,20.585918 18.558024,20.584557 C 18.553117,20.582178 18.553089,20.582221 18.557323,20.585612 C 18.561957,20.589325 18.563135,20.589826 18.563135,20.588089 L 18.563135,20.588089 z M 18.547235,20.579004 C 18.547235,20.578423 18.544935,20.576833 18.542124,20.575472 C 18.537217,20.573093 18.53719,20.573136 18.541423,20.576527 C 18.546057,20.58024 18.547235,20.580741 18.547235,20.579004 L 18.547235,20.579004 z M 18.535878,20.572189 C 18.535878,20.57161 18.533579,20.57002 18.530769,20.568657 C 18.525862,20.566279 18.525834,20.566321 18.530068,20.569714 C 18.5347,20.573425 18.535878,20.573928 18.535878,20.572189 L 18.535878,20.572189 z M 18.521115,20.562787 C 18.515298,20.558303 18.508623,20.554626 18.508623,20.555909 C 18.508623,20.557062 18.522837,20.566372 18.524523,20.566321 C 18.525147,20.566302 18.523613,20.564712 18.521115,20.562787 L 18.521115,20.562787 z M 18.506352,20.554019 C 18.506352,20.553438 18.504054,20.55185 18.501243,20.550487 C 18.496335,20.548109 18.496307,20.548151 18.500541,20.551542 C 18.505174,20.555255 18.506352,20.555758 18.506352,20.554019 L 18.506352,20.554019 z M 18.490604,20.543912 C 18.483739,20.538635 18.470326,20.530894 18.473419,20.533993 C 18.476466,20.537047 18.493475,20.548275 18.494955,20.54821 C 18.495602,20.548184 18.493643,20.546248 18.490604,20.543912 L 18.490604,20.543912 z M 18.456385,20.522403 C 18.456385,20.521921 18.453574,20.519817 18.450139,20.517726 L 18.443892,20.513924 L 18.449254,20.518601 C 18.454487,20.523164 18.456385,20.524177 18.456385,20.522403 L 18.456385,20.522403 z M 18.438215,20.50965 C 18.417244,20.493808 18.378828,20.466887 18.382569,20.470658 C 18.38761,20.475737 18.44096,20.514187 18.442757,20.514036 C 18.443382,20.513983 18.441337,20.512009 18.438215,20.50965 z M 18.37689,20.465638 C 18.37689,20.465166 18.375102,20.463378 18.372916,20.461664 C 18.369313,20.458838 18.369233,20.458919 18.372058,20.462521 C 18.375026,20.466305 18.37689,20.467508 18.37689,20.465638 z M 18.252862,20.352364 C 18.239759,20.338524 18.222485,20.3176 18.211147,20.301829 C 18.199989,20.286308 18.194587,20.280358 18.200838,20.290472 C 18.212459,20.309277 18.256464,20.362019 18.260533,20.362019 C 18.26134,20.362019 18.257889,20.357674 18.252862,20.352364 z M 18.195189,20.27798 C 18.193852,20.275482 18.192247,20.273439 18.191622,20.273439 C 18.190997,20.273439 18.191581,20.275482 18.192918,20.27798 C 18.194254,20.280479 18.195859,20.282524 18.196485,20.282524 C 18.197108,20.282524 18.196526,20.280479 18.195189,20.27798 z M 18.204274,20.238671 C 18.207396,20.238108 18.204344,20.238072 18.197491,20.238591 C 18.190638,20.239111 18.184125,20.240439 18.183022,20.241545 C 18.181857,20.242708 18.184709,20.242741 18.189804,20.241622 C 18.19464,20.240562 18.20115,20.239233 18.204274,20.238671 L 18.204274,20.238671 z M 18.227413,20.235547 C 18.225773,20.23489 18.223814,20.234971 18.22306,20.235726 C 18.222305,20.23648 18.223645,20.237018 18.226041,20.236919 C 18.228687,20.236809 18.229224,20.236272 18.227413,20.235547 z M 18.581872,20.226315 C 18.564071,20.225931 18.534942,20.225931 18.517141,20.226315 C 18.49934,20.226699 18.513905,20.227013 18.549507,20.227013 C 18.585109,20.227013 18.599673,20.226699 18.581872,20.226315 L 18.581872,20.226315 z M 18.975369,20.223593 L 19.088932,20.222081 L 18.982182,20.22196 C 18.92347,20.221892 18.81973,20.222516 18.75165,20.223346 L 18.627865,20.224855 L 18.744836,20.224981 C 18.809169,20.225051 18.912909,20.224425 18.975369,20.223593 L 18.975369,20.223593 z"
       id="path3253" />
  </g>
</svg>
