<?xml version="1.0" encoding="UTF-8" standalone="no"?>
<!-- Created with Inkscape (http://www.inkscape.org/) -->
<svg
   xmlns:dc="http://purl.org/dc/elements/1.1/"
   xmlns:cc="http://creativecommons.org/ns#"
   xmlns:rdf="http://www.w3.org/1999/02/22-rdf-syntax-ns#"
   xmlns:svg="http://www.w3.org/2000/svg"
   xmlns="http://www.w3.org/2000/svg"
   xmlns:sodipodi="http://sodipodi.sourceforge.net/DTD/sodipodi-0.dtd"
   xmlns:inkscape="http://www.inkscape.org/namespaces/inkscape"
   width="32px"
   height="32px"
   id="svg2383"
   sodipodi:version="0.32"
   inkscape:version="0.46"
   sodipodi:docname="out_osd.svg"
   inkscape:output_extension="org.inkscape.output.svg.inkscape">
  <defs
     id="defs2385">
    <inkscape:perspective
       sodipodi:type="inkscape:persp3d"
       inkscape:vp_x="0 : 16 : 1"
       inkscape:vp_y="0 : 1000 : 0"
       inkscape:vp_z="32 : 16 : 1"
       inkscape:persp3d-origin="16 : 10.666667 : 1"
       id="perspective2391" />
  </defs>
  <sodipodi:namedview
     id="base"
     pagecolor="#ffffff"
     bordercolor="#666666"
     borderopacity="1.0"
     inkscape:pageopacity="0.0"
     inkscape:pageshadow="2"
     inkscape:zoom="16"
     inkscape:cx="7.2823362"
     inkscape:cy="13.712442"
     inkscape:current-layer="layer1"
     showgrid="true"
     inkscape:grid-bbox="true"
     inkscape:document-units="px"
     inkscape:window-width="989"
     inkscape:window-height="719"
     inkscape:window-x="100"
     inkscape:window-y="25" />
  <metadata
     id="metadata2388">
    <rdf:RDF>
      <cc:Work
         rdf:about="">
        <dc:format>image/svg+xml</dc:format>
        <dc:type
           rdf:resource="http://purl.org/dc/dcmitype/StillImage" />
      </cc:Work>
    </rdf:RDF>
  </metadata>
  <g
     id="layer1"
     inkscape:label="Layer 1"
     inkscape:groupmode="layer">
    <path
       sodipodi:type="arc"
       style="fill:#cccccc;fill-rule:evenodd;stroke:#000000;stroke-width:1px;stroke-linecap:butt;stroke-linejoin:miter;stroke-opacity:1"
       id="path2397"
       sodipodi:cx="17.235525"
       sodipodi:cy="7.6202154"
       sodipodi:rx="10.269873"
       sodipodi:ry="2.6790972"
       d="M 27.505398,7.6202154 A 10.269873,2.6790972 0 1 1 6.9656525,7.6202154 A 10.269873,2.6790972 0 1 1 27.505398,7.6202154 z"
       transform="translate(-0.625,0.6875)" />
    <path
       style="fill:none;fill-rule:evenodd;stroke:#000000;stroke-width:1px;stroke-linecap:butt;stroke-linejoin:miter;stroke-opacity:1"
       d="M 6.3406527,8.4863219 L 6.3406527,25.81115"
       id="path2399" />
    <path
       style="fill:none;fill-rule:evenodd;stroke:#000000;stroke-width:1px;stroke-linecap:butt;stroke-linejoin:miter;stroke-opacity:1"
       d="M 26.880397,8.4866719 L 26.880397,25.8115"
       id="path3199" />
    <path
       sodipodi:type="arc"
       style="fill:#ffffff;fill-rule:evenodd;stroke:#000000;stroke-width:1px;stroke-linecap:butt;stroke-linejoin:miter;stroke-opacity:1"
       id="path3205"
       sodipodi:cx="17.235525"
       sodipodi:cy="7.6202154"
       sodipodi:rx="10.269873"
       sodipodi:ry="2.6790972"
       d="M 27.505398,7.6202154 A 10.269873,2.6790972 0 1 1 6.9656525,7.6202154 A 10.269873,2.6790972 0 1 1 27.505398,7.6202154 z"
       transform="translate(-0.6249998,18.012328)" />
    <rect
       style="fill:#00ffff"
       id="rect3209"
       width="19.543974"
       height="6.4725599"
       x="6.8263373"
       y="19.174059" />
    <path
       style="fill:#cccccc"
       d="M 15.273526,27.770004 C 11.299686,27.637867 7.872366,26.856295 6.9915854,25.881377 C 6.9273507,25.810276 6.8747945,25.730832 6.8747945,25.704834 C 6.8747945,25.662959 7.9864418,25.657565 16.615208,25.657565 C 21.972435,25.657565 26.355621,25.665374 26.355621,25.674919 C 26.355621,25.724606 26.253768,25.874516 26.160981,25.961394 C 25.604644,26.482303 24.201694,26.990077 22.424725,27.313669 C 20.316126,27.697653 17.843263,27.855451 15.273526,27.770003 L 15.273526,27.770004 z"
       id="path3211" />
    <path
       style="fill:#cccccc"
       d="M 6.843221,14.9068 L 6.843221,10.660169 L 7.9561856,10.660264 L 9.0691502,10.660358 L 9.511179,10.768521 C 12.573897,11.517963 17.19152,11.707721 21.035493,11.242107 C 21.927979,11.134002 23.067767,10.930343 23.772644,10.753028 L 24.141785,10.660169 L 25.248704,10.660169 L 26.355621,10.660169 L 26.355621,14.9068 L 26.355621,19.153431 L 16.599421,19.153431 L 6.843221,19.153431 L 6.843221,14.9068 z"
       id="path3213" />
    <path
       style="fill:#cccccc"
       d="M 14.562933,27.722982 C 11.326995,27.537172 8.6353059,26.966688 7.4276086,26.210701 C 7.1890805,26.061389 6.8874997,25.776785 6.9170843,25.728916 C 6.9615104,25.657033 26.324048,25.654726 26.324048,25.726605 C 26.324048,25.780756 26.06097,26.03727 25.886844,26.152901 C 24.791454,26.880307 22.330117,27.458208 19.393673,27.67744 C 18.006132,27.781033 15.916896,27.80073 14.562933,27.722983 L 14.562933,27.722982 z"
       id="path3215" />
    <path
       style="fill:#cccccc"
       d="M 6.843221,22.405498 L 6.843221,19.185005 L 16.599421,19.185005 L 26.355621,19.185005 L 26.355621,22.405498 L 26.355621,25.625991 L 16.599421,25.625991 L 6.843221,25.625991 L 6.843221,22.405498 z"
       id="path3217" />
    <path
       style="fill:#00ffff"
       d="M 7.316823,25.656311 C 7.0476592,25.646939 11.223644,25.636283 16.59679,25.632631 C 21.969935,25.628979 26.355745,25.636392 26.343032,25.649104 C 26.316676,25.675461 8.0653341,25.682374 7.316823,25.656311 L 7.316823,25.656311 z"
       id="path3219" />
    <path
       style="fill:#cccccc"
       d="M 15.003954,26.236028 C 14.92657,26.229416 14.595934,26.208668 14.269205,26.189921 C 11.272847,26.017996 8.5639285,25.41043 7.3907189,24.647187 C 7.135459,24.481126 6.8470319,24.191136 6.8918271,24.145595 C 6.9097659,24.127355 8.5349909,24.103493 10.955023,24.085935 L 14.988321,24.056672 L 10.900307,24.051141 L 6.8122945,24.04561 L 6.8122945,20.731251 L 6.8122945,17.416891 L 16.47345,17.416891 L 26.134606,17.416891 L 26.134606,20.731251 L 26.134606,24.04561 L 25.095016,24.050317 C 24.523241,24.052905 23.253456,24.064649 22.273271,24.076414 L 20.491116,24.097803 L 23.297228,24.1042 C 25.456715,24.109124 26.103341,24.11959 26.103341,24.149621 C 26.103341,24.220737 25.74451,24.552713 25.52101,24.68837 C 24.291386,25.434712 21.976225,25.954157 18.818391,26.192217 C 18.381637,26.225144 15.29188,26.26063 15.003954,26.236028 L 15.003954,26.236028 z"
       id="path3221" />
    <path
       style="fill:#00ffff"
       d="M 6.9557817,25.656508 C 6.7646254,25.647244 7.2660677,25.636588 8.0700981,25.632828 C 8.8741284,25.629068 9.52854,25.631186 9.52435,25.637535 C 9.510965,25.657808 7.3170063,25.674014 6.9557817,25.656508 L 6.9557817,25.656508 z"
       id="path3223" />
    <path
       style="fill:#cccccc;fill-opacity:1;stroke:#00ffff;stroke-width:0.00315735000000000;stroke-miterlimit:4;stroke-dasharray:none;stroke-opacity:0"
       d="M 6.8464444,10.220304 L 6.8464444,9.7804387 L 7.2332193,9.9776583 C 7.6338449,10.18194 8.1894851,10.399112 8.7289111,10.562248 L 9.0408001,10.656572 L 7.9436222,10.65837 L 6.8464444,10.660169 L 6.8464444,10.220304 z"
       id="path3227" />
    <path
       style="fill:#cccccc;fill-opacity:1;stroke:#00ffff;stroke-width:0.00315735000000000;stroke-miterlimit:4;stroke-dasharray:none;stroke-opacity:0"
       d="M 24.290783,10.623842 C 24.342879,10.606604 24.563104,10.535192 24.780172,10.465149 C 25.259094,10.310612 25.766836,10.101186 26.10633,9.9181537 L 26.358845,9.7820152 L 26.358845,10.221092 L 26.358845,10.660169 L 25.277454,10.657677 C 24.516214,10.655922 24.224106,10.645905 24.290783,10.623842 z"
       id="path3229" />
    <path
       style="fill:#00ffff;fill-opacity:1;stroke:#00ffff;stroke-width:0.00315735;stroke-miterlimit:4;stroke-dasharray:none;stroke-opacity:0"
       d="M 24.722897,25.665521 C 25.012656,25.660315 25.49573,25.660306 25.796395,25.6655 C 26.09706,25.670694 25.859984,25.674953 25.26956,25.674965 C 24.679136,25.674976 24.433138,25.670726 24.722897,25.665521 L 24.722897,25.665521 z"
       id="path3231" />
    <path
       style="fill:#00ffff;fill-opacity:1;stroke:#00ffff;stroke-width:0.00078934;stroke-miterlimit:4;stroke-dasharray:none;stroke-opacity:0"
       d="M 20.181712,27.627323 C 20.216442,27.62354 20.360299,27.607897 20.501393,27.592561 C 22.617756,27.36253 24.339627,26.956526 25.426774,26.431193 C 25.919083,26.193299 26.21332,25.968832 26.334008,25.739083 C 26.347353,25.71368 26.35827,25.687928 26.35827,25.681856 C 26.35827,25.672693 26.321727,25.670661 26.143176,25.669895 C 26.024874,25.669388 25.904994,25.666378 25.876775,25.663206 C 25.844523,25.659581 25.911951,25.656966 26.058322,25.656166 C 26.186392,25.655467 26.309825,25.652654 26.332617,25.649917 C 26.380266,25.644193 26.380801,25.645242 26.362207,25.707854 C 26.336163,25.795557 26.226288,25.931215 26.087248,26.047332 C 25.958274,26.155045 25.718181,26.30637 25.51368,26.408839 C 24.491701,26.920923 22.835817,27.328593 20.785554,27.572879 C 20.469382,27.610551 20.211759,27.63636 20.163141,27.635234 C 20.120413,27.634244 20.121182,27.633916 20.181712,27.627323 z"
       id="path3233" />
    <path
       style="fill:#00ffff;fill-opacity:1;stroke:#00ffff;stroke-width:0.00078934;stroke-miterlimit:4;stroke-dasharray:none;stroke-opacity:0"
       d="M 25.914268,25.665247 C 25.924036,25.663366 25.940021,25.663366 25.949789,25.665247 C 25.959557,25.667129 25.951565,25.668668 25.932029,25.668668 C 25.912492,25.668668 25.9045,25.667129 25.914268,25.665247 L 25.914268,25.665247 z"
       id="path3235" />
    <path
       style="fill:#00ffff;fill-opacity:1;stroke:#00ffff;stroke-width:0.00078934;stroke-miterlimit:4;stroke-dasharray:none;stroke-opacity:0"
       d="M 25.74822,25.657115 C 25.770853,25.655526 25.809925,25.655512 25.835047,25.657083 C 25.860168,25.658654 25.841649,25.659954 25.793895,25.659972 C 25.74614,25.65999 25.725586,25.658704 25.74822,25.657115 L 25.74822,25.657115 z"
       id="path3237" />
    <path
       style="fill:#00ffff;fill-opacity:1;stroke:#00ffff;stroke-width:0.00078934;stroke-miterlimit:4;stroke-dasharray:none;stroke-opacity:0"
       d="M 16.925698,24.392093 L 16.925698,21.147919 L 21.645931,21.147919 L 26.366164,21.147919 L 26.366164,23.397529 L 26.366164,25.647138 L 26.226056,25.648917 L 26.085949,25.650696 L 26.226056,25.653046 L 26.366164,25.655395 L 26.366164,25.676455 C 26.366164,25.694996 26.364984,25.695956 26.356297,25.684475 C 26.348306,25.673913 26.326168,25.670592 26.23987,25.667007 C 26.039033,25.658664 24.491662,25.655046 24.223115,25.662292 C 24.018746,25.667806 24.123226,25.668597 24.661197,25.665607 C 25.407254,25.66146 26.350377,25.674721 26.350377,25.689357 C 26.350377,25.693634 26.338012,25.719629 26.322899,25.747123 C 26.28983,25.807285 26.292791,25.814386 26.326463,25.755672 C 26.339534,25.73288 26.350262,25.719671 26.350303,25.726319 C 26.350344,25.732966 26.337671,25.758719 26.322142,25.783545 C 26.294013,25.828516 26.281211,25.841129 26.290348,25.814872 C 26.293365,25.806201 26.289113,25.808404 26.278923,25.820792 C 26.269996,25.831645 26.242474,25.864619 26.217763,25.894066 C 26.121257,26.00907 25.910758,26.165899 25.681414,26.293663 C 25.632574,26.320872 25.592614,26.344847 25.592614,26.346943 C 25.592614,26.349039 25.619475,26.335926 25.652306,26.317803 C 25.685136,26.29968 25.713856,26.286711 25.716128,26.288982 C 25.726238,26.299093 25.388857,26.469926 25.201892,26.549366 C 24.978653,26.644218 24.728645,26.739172 24.714531,26.734467 C 24.710554,26.733141 24.758199,26.713113 24.820409,26.68996 C 24.969673,26.634407 25.128342,26.569467 25.124412,26.565538 C 25.122686,26.563811 25.092722,26.57462 25.057826,26.589556 C 24.874963,26.667824 24.44844,26.815793 24.146766,26.905618 C 23.884759,26.983633 23.408294,27.107145 23.182095,27.155685 C 23.146219,27.163384 23.139029,27.167136 23.150522,27.172162 C 23.161237,27.176847 23.158773,27.177657 23.141724,27.175055 C 23.107638,27.169851 22.949998,27.203302 22.96912,27.21168 C 22.979543,27.216246 22.976924,27.217052 22.960176,27.214433 C 22.92559,27.209025 22.798917,27.234533 22.818631,27.242937 C 22.828263,27.247042 22.820795,27.248003 22.798362,27.245544 C 22.770971,27.242542 22.766455,27.243486 22.778629,27.249669 C 22.791623,27.256268 22.789883,27.256998 22.768796,27.253793 C 22.754706,27.251652 22.660578,27.265532 22.559622,27.284638 C 21.835562,27.42167 21.017892,27.537138 20.181712,27.620439 C 20.029985,27.635554 19.96359,27.636168 18.474771,27.636216 L 16.925698,27.636266 L 16.925698,24.392093 z M 25.158479,26.554875 C 25.164991,26.550667 25.166767,26.547223 25.162425,26.547223 C 25.158084,26.547223 25.149204,26.550667 25.142692,26.554875 C 25.13618,26.559083 25.134404,26.562527 25.138745,26.562527 C 25.143087,26.562527 25.151967,26.559083 25.158479,26.554875 z M 25.205839,26.535142 C 25.216692,26.528937 25.22202,26.523861 25.217679,26.523861 C 25.213338,26.523861 25.200906,26.528937 25.190052,26.535142 C 25.179199,26.541346 25.173871,26.546422 25.178212,26.546422 C 25.182553,26.546422 25.194985,26.541346 25.205839,26.535142 z M 25.276879,26.503568 C 25.296415,26.493107 25.308847,26.484548 25.304506,26.484548 C 25.300165,26.484548 25.280629,26.493107 25.261092,26.503568 C 25.241556,26.514029 25.229124,26.522588 25.233466,26.522588 C 25.237807,26.522588 25.257343,26.514029 25.276879,26.503568 z M 25.3716,26.460155 C 25.386794,26.451836 25.395674,26.44503 25.391333,26.44503 C 25.386992,26.44503 25.371008,26.451836 25.355813,26.460155 C 25.340618,26.468473 25.331738,26.47528 25.336079,26.47528 C 25.340421,26.475279 25.356405,26.468473 25.3716,26.460155 z"
       id="path3239" />
    <path
       style="fill:#cccccc;fill-opacity:1;stroke:#00ffff;stroke-width:0.00078934000000000;stroke-miterlimit:4;stroke-dasharray:none;stroke-opacity:0"
       d="M 16.925698,24.392093 L 16.925698,21.147919 L 21.645931,21.147919 L 26.366164,21.147919 L 26.366164,23.397262 L 26.366164,25.646604 L 26.28131,25.649141 L 26.196456,25.651679 L 26.28131,25.653355 L 26.366164,25.655031 L 26.366043,25.676738 C 26.365975,25.688842 26.363357,25.694502 26.360123,25.689533 C 26.356651,25.684199 26.347396,25.69608 26.337066,25.719133 C 26.31838,25.760835 26.318928,25.771036 26.337969,25.735938 C 26.344653,25.723619 26.349881,25.719459 26.350061,25.726319 C 26.350491,25.742775 26.292885,25.833809 26.289143,25.822585 C 26.287502,25.817663 26.260158,25.844551 26.228377,25.882335 C 26.126925,26.00295 25.921451,26.16031 25.716934,26.274022 C 25.663866,26.303528 25.641609,26.321986 25.688067,26.297961 C 25.717482,26.28275 25.72685,26.287374 25.700971,26.304331 C 25.662356,26.329633 25.449444,26.43789 25.33299,26.491435 C 25.100904,26.598147 24.733288,26.740325 24.709214,26.732684 C 24.70213,26.730436 24.621828,26.753627 24.530765,26.784221 C 24.328449,26.852191 24.062521,26.932708 23.85338,26.989319 C 23.741524,27.019597 23.70092,27.033549 23.7113,27.038139 C 23.721452,27.042628 23.71858,27.043486 23.701771,27.040983 C 23.688536,27.039013 23.638808,27.047503 23.591263,27.05985 C 23.543719,27.072196 23.513699,27.082852 23.524552,27.083528 C 23.535405,27.084205 23.508928,27.093509 23.465714,27.104204 C 23.4225,27.114899 23.381937,27.121652 23.375574,27.119211 C 23.369211,27.116769 23.344591,27.119116 23.320863,27.124426 C 23.287147,27.131971 23.280972,27.135498 23.292602,27.140564 C 23.302502,27.144876 23.298235,27.145725 23.279858,27.143098 C 23.264663,27.140926 23.241575,27.142359 23.228551,27.146281 C 23.205877,27.153111 23.205709,27.153477 23.224604,27.1549 C 23.241369,27.156163 23.240182,27.157422 23.216711,27.163271 C 23.201516,27.167058 23.178428,27.168254 23.165404,27.165931 C 23.149673,27.163124 23.14525,27.164143 23.152227,27.168965 C 23.166088,27.178543 23.120857,27.188059 23.091619,27.181716 C 23.074958,27.178101 23.073101,27.178976 23.082523,27.185999 C 23.091671,27.192816 23.087184,27.19384 23.06279,27.190499 C 23.038339,27.18715 23.034778,27.187968 23.047003,27.194126 C 23.059108,27.200223 23.054505,27.201169 23.02727,27.198184 C 22.999878,27.195182 22.995362,27.196126 23.007536,27.202309 C 23.02045,27.208867 23.018584,27.209602 22.997277,27.206347 C 22.982952,27.204159 22.973126,27.205435 22.975443,27.209182 C 22.981221,27.218532 22.938193,27.226274 22.906896,27.221516 C 22.885792,27.218308 22.884042,27.219038 22.897029,27.225633 C 22.909203,27.231816 22.904688,27.23276 22.877296,27.229758 C 22.849904,27.226756 22.845389,27.2277 22.857563,27.233882 C 22.870477,27.240441 22.86861,27.241176 22.847303,27.237921 C 22.829256,27.235164 22.822941,27.236665 22.826738,27.242809 C 22.830632,27.249111 22.823324,27.250134 22.801477,27.246344 C 22.779426,27.242519 22.774083,27.243292 22.782576,27.249077 C 22.794908,27.257478 22.788646,27.258693 22.719429,27.261331 C 22.704234,27.26191 22.681146,27.263285 22.668122,27.264386 C 22.646916,27.266179 22.646091,27.26717 22.660228,27.273877 C 22.672493,27.279695 22.670063,27.280451 22.649338,27.277261 C 22.634666,27.275004 22.599264,27.277468 22.570668,27.282737 C 22.527521,27.290687 22.521987,27.293355 22.538144,27.29842 C 22.552245,27.30284 22.549181,27.303557 22.527029,27.301023 C 22.509746,27.299046 22.400138,27.31452 22.274998,27.336604 C 21.858929,27.410029 21.345967,27.486438 20.915795,27.539068 C 20.775719,27.556205 20.74146,27.562489 20.765821,27.566574 C 20.784472,27.569701 20.769934,27.570765 20.7303,27.569172 C 20.678496,27.567091 20.670402,27.568028 20.69478,27.573284 C 20.721172,27.578974 20.718111,27.579524 20.676132,27.576633 C 20.64851,27.574732 20.581022,27.578398 20.526158,27.584781 C 20.471294,27.591164 20.336294,27.605359 20.226156,27.616326 L 20.025906,27.636266 L 18.475802,27.636266 L 16.925698,27.636266 L 16.925698,24.392093 z M 23.194511,27.157272 C 23.188813,27.154992 23.182004,27.155272 23.179382,27.157895 C 23.176759,27.160518 23.181421,27.162384 23.189742,27.162041 C 23.198937,27.161662 23.200807,27.159792 23.194511,27.157272 z M 23.399738,27.109912 C 23.39404,27.107632 23.387232,27.107912 23.384609,27.110535 C 23.381986,27.113158 23.386648,27.115024 23.394969,27.114681 C 23.404165,27.114302 23.406035,27.112432 23.399738,27.109912 z M 23.431312,27.102019 C 23.425614,27.099738 23.418805,27.100019 23.416183,27.102642 C 23.41356,27.105265 23.418222,27.10713 23.426543,27.106787 C 23.435738,27.106409 23.437608,27.104538 23.431312,27.102019 z M 23.462885,27.094125 C 23.457187,27.091845 23.450379,27.092125 23.447756,27.094748 C 23.445133,27.097371 23.449795,27.099237 23.458116,27.098894 C 23.467312,27.098516 23.469182,27.096645 23.462885,27.094125 z M 23.494458,27.086232 C 23.48876,27.083952 23.481952,27.084232 23.47933,27.086855 C 23.476707,27.089478 23.481369,27.091343 23.48969,27.091001 C 23.498885,27.090622 23.500755,27.088752 23.494458,27.086232 z M 24.767757,26.707901 C 24.786775,26.699241 24.787552,26.698071 24.771704,26.701959 C 24.76085,26.704622 24.741314,26.711653 24.72829,26.717583 C 24.709272,26.726243 24.708495,26.727413 24.724344,26.723525 C 24.735197,26.720862 24.754733,26.713832 24.767757,26.707901 L 24.767757,26.707901 z M 24.842744,26.679837 C 24.850973,26.674753 24.848565,26.674132 24.834851,26.6778 C 24.823997,26.680703 24.809789,26.68637 24.803277,26.690394 C 24.795048,26.695478 24.797456,26.696099 24.811171,26.692431 C 24.822024,26.689528 24.836232,26.683861 24.842744,26.679837 L 24.842744,26.679837 z M 24.882211,26.665382 C 24.888723,26.661174 24.890499,26.657731 24.886158,26.657731 C 24.881816,26.65773 24.872936,26.661174 24.866424,26.665382 C 24.859912,26.669591 24.858136,26.673034 24.862477,26.673034 C 24.866819,26.673034 24.875699,26.669591 24.882211,26.665382 z M 24.945358,26.641702 C 24.95187,26.637494 24.953646,26.63405 24.949304,26.63405 C 24.944963,26.63405 24.936083,26.637494 24.929571,26.641702 C 24.923059,26.64591 24.921283,26.649354 24.925624,26.649354 C 24.929966,26.649354 24.938846,26.64591 24.945358,26.641702 z M 24.984825,26.625915 C 24.991337,26.621707 24.993113,26.618264 24.988771,26.618264 C 24.98443,26.618264 24.97555,26.621707 24.969038,26.625915 C 24.962526,26.630124 24.96075,26.633567 24.965091,26.633567 C 24.969433,26.633567 24.978313,26.630124 24.984825,26.625915 z M 25.024291,26.610129 C 25.030803,26.60592 25.032579,26.602477 25.028238,26.602477 C 25.023897,26.602477 25.015017,26.60592 25.008505,26.610129 C 25.001993,26.614337 25.000217,26.61778 25.004558,26.61778 C 25.008899,26.61778 25.017779,26.614337 25.024291,26.610129 z M 25.063758,26.594342 C 25.07027,26.590133 25.072046,26.58669 25.067705,26.58669 C 25.063364,26.58669 25.054484,26.590133 25.047972,26.594342 C 25.04146,26.59855 25.039684,26.601993 25.044025,26.601993 C 25.048366,26.601993 25.057246,26.59855 25.063758,26.594342 z M 25.28077,26.499712 C 25.283536,26.495237 25.280367,26.493914 25.273342,26.49661 C 25.259668,26.501857 25.257166,26.507515 25.26852,26.507515 C 25.272605,26.507515 25.278118,26.504003 25.28077,26.499712 L 25.28077,26.499712 z M 25.3716,26.460155 C 25.378112,26.455946 25.379888,26.452503 25.375546,26.452503 C 25.371205,26.452503 25.362325,26.455946 25.355813,26.460155 C 25.349301,26.464363 25.347525,26.467806 25.351866,26.467806 C 25.356207,26.467806 25.365088,26.464363 25.3716,26.460155 z M 26.22803,25.670086 C 26.048973,25.661085 24.702891,25.65364 24.530956,25.6607 C 24.425095,25.665046 24.560309,25.666361 24.941411,25.66469 C 25.253988,25.66332 25.632278,25.665349 25.782055,25.669198 C 25.931831,25.673047 26.118312,25.676071 26.196456,25.675919 L 26.338537,25.675641 L 26.22803,25.670086 z"
       id="path3241" />
    <path
       style="fill:#00ffff;fill-opacity:1;stroke:#00ffff;stroke-width:0.00078934;stroke-miterlimit:4;stroke-dasharray:none;stroke-opacity:0"
       d="M 25.862962,25.665164 C 25.8749,25.663356 25.894436,25.663356 25.906375,25.665164 C 25.918314,25.666973 25.908546,25.668453 25.884668,25.668453 C 25.860791,25.668453 25.851023,25.666973 25.862962,25.665164 z"
       id="path3243" />
    <path
       style="fill:#cccccc;fill-opacity:1;stroke:#cccccc;stroke-width:0.00101476000000000;stroke-miterlimit:4;stroke-dasharray:none;stroke-opacity:1"
       d="M 14.86321,23.236009 L 14.86321,18.835391 L 20.614707,18.835391 L 26.366204,18.835391 L 26.366107,21.919465 C 26.366054,23.615706 26.362345,25.001017 26.357863,24.997934 C 26.353383,24.994851 26.344756,25.00445 26.338693,25.019264 C 26.325302,25.051981 26.324472,25.067262 26.337287,25.04519 C 26.343975,25.033666 26.346651,25.033062 26.346757,25.043045 C 26.347105,25.075912 26.274386,25.19939 26.260362,25.189742 C 26.256262,25.18692 26.247004,25.19299 26.239793,25.20323 C 26.227929,25.220077 26.228282,25.220451 26.243512,25.207155 C 26.25277,25.199073 26.260344,25.197279 26.260344,25.203167 C 26.260344,25.217104 26.236091,25.239462 26.229244,25.231839 C 26.226338,25.228604 26.205097,25.251005 26.18204,25.281619 C 26.093882,25.398679 25.934902,25.534464 25.609935,25.770258 C 25.594656,25.781343 25.594474,25.782394 25.608736,25.777142 C 25.676704,25.752113 25.549902,25.837474 25.344122,25.955274 C 25.059438,26.118241 24.719275,26.277148 24.333981,26.427161 C 24.151968,26.498027 24.102592,26.513747 24.134802,26.490575 C 24.158147,26.47378 24.148889,26.476619 23.942445,26.549559 C 23.834005,26.587875 23.719674,26.627271 23.688375,26.637109 C 23.647777,26.64987 23.636531,26.656971 23.649132,26.66189 C 23.662305,26.667035 23.655576,26.672282 23.622639,26.682547 C 23.598356,26.690116 23.573516,26.692887 23.567437,26.688705 C 23.561359,26.684525 23.512956,26.694605 23.459875,26.711107 C 23.394653,26.731385 23.369146,26.743398 23.381201,26.74816 C 23.395405,26.753771 23.39253,26.756814 23.367092,26.763095 C 23.349523,26.767433 23.332571,26.768115 23.329422,26.764611 C 23.326274,26.761106 23.331633,26.758238 23.341331,26.758238 C 23.351029,26.758238 23.356605,26.755612 23.353722,26.752403 C 23.350839,26.749194 23.327628,26.752412 23.302143,26.759557 C 23.267499,26.769267 23.260381,26.774331 23.273935,26.779623 C 23.298601,26.789254 23.098084,26.844931 23.066719,26.83716 C 23.04741,26.832375 23.045772,26.833574 23.057605,26.843828 C 23.06928,26.853946 23.067005,26.855109 23.045672,26.849931 C 23.013139,26.842034 22.920562,26.865687 22.945654,26.875484 C 22.955476,26.879319 22.906124,26.896714 22.827364,26.917175 C 22.753035,26.936485 22.687767,26.949219 22.682322,26.945474 C 22.676877,26.941728 22.658968,26.941953 22.642523,26.945973 C 22.624149,26.950466 22.61703,26.956316 22.624056,26.961149 C 22.639896,26.972046 22.488485,27.007213 22.466378,26.99777 C 22.454853,26.992846 22.450759,26.994167 22.454829,27.001496 C 22.46266,27.015602 22.403446,27.029276 22.379261,27.018944 C 22.366435,27.013466 22.364003,27.015225 22.369848,27.025754 C 22.376056,27.036936 22.370774,27.038462 22.344976,27.032941 C 22.320288,27.027658 22.315775,27.028762 22.32665,27.037424 C 22.337448,27.046027 22.331401,27.047269 22.302606,27.042366 C 22.273048,27.037332 22.267477,27.038581 22.27856,27.047756 C 22.290125,27.057328 22.287806,27.058778 22.266873,27.055063 C 22.25251,27.052513 22.239278,27.055378 22.237467,27.061429 C 22.235655,27.067479 22.212123,27.072801 22.185173,27.073256 C 22.156435,27.07374 22.140758,27.077767 22.147257,27.082997 C 22.153454,27.087985 22.141381,27.089298 22.119867,27.085977 C 22.091381,27.081583 22.08514,27.082959 22.095821,27.091282 C 22.107052,27.100034 22.104464,27.101497 22.084135,27.097888 C 22.069772,27.095339 22.056789,27.09653 22.055282,27.100537 C 22.050627,27.112908 21.900348,27.142066 21.869803,27.136526 C 21.846603,27.132317 21.843776,27.13371 21.855376,27.143637 C 21.866694,27.153323 21.861514,27.15457 21.831331,27.149432 C 21.802114,27.144455 21.79633,27.145703 21.807287,27.154615 C 21.818214,27.163505 21.811219,27.164909 21.778433,27.160401 C 21.745966,27.155939 21.739958,27.157109 21.754389,27.165086 C 21.768991,27.173159 21.763198,27.174448 21.730343,27.17044 C 21.702365,27.167026 21.693752,27.168323 21.705983,27.174108 C 21.72113,27.181273 21.716415,27.184325 21.682322,27.189415 C 21.658904,27.192911 21.626588,27.193594 21.610506,27.190932 C 21.585597,27.186807 21.584115,27.187736 21.600503,27.197206 C 21.616277,27.206321 21.61387,27.207316 21.587137,27.202732 C 21.568774,27.199584 21.444839,27.218364 21.303409,27.245721 C 21.026734,27.299242 20.537072,27.384556 20.282863,27.423533 C 20.161128,27.442197 20.126732,27.45058 20.148213,27.456347 C 20.168827,27.461882 20.164707,27.462725 20.133783,27.459303 C 20.109979,27.456669 20.029911,27.462773 19.955853,27.472867 C 19.848444,27.487508 19.828014,27.492785 19.854867,27.498946 C 19.879369,27.504568 19.874417,27.505441 19.836664,27.502154 C 19.808139,27.49967 19.758366,27.500946 19.726059,27.50499 C 19.670939,27.511889 19.669394,27.512814 19.70098,27.51999 C 19.721977,27.524759 19.707502,27.526176 19.66251,27.523756 C 19.607192,27.520781 19.598223,27.522067 19.624038,27.529271 C 19.650925,27.536778 19.645118,27.537837 19.595185,27.534537 C 19.558079,27.532084 19.542442,27.533686 19.556714,27.538479 C 19.589128,27.549361 19.466475,27.562662 19.39321,27.556208 C 19.353735,27.552732 19.348853,27.553604 19.373975,27.559644 C 19.397506,27.565304 19.37869,27.567826 19.311459,27.568025 C 19.25856,27.568181 19.113572,27.582223 18.989261,27.599226 L 18.763242,27.630141 L 16.813226,27.633383 L 14.86321,27.636628 L 14.86321,23.236009 z M 19.477183,27.543103 C 19.467825,27.540388 19.454841,27.540566 19.448329,27.5435 C 19.441818,27.546433 19.449475,27.548653 19.465344,27.548435 C 19.481214,27.548216 19.486541,27.545817 19.477183,27.543103 L 19.477183,27.543103 z M 22.549662,26.975762 C 22.54272,26.972669 22.534424,26.973049 22.531228,26.976607 C 22.528033,26.980165 22.533714,26.982694 22.543852,26.98223 C 22.555057,26.981716 22.557335,26.979179 22.549662,26.975762 z M 22.588135,26.965055 C 22.581192,26.961963 22.572897,26.962344 22.569701,26.9659 C 22.566504,26.969458 22.572185,26.971988 22.582324,26.971523 C 22.593528,26.97101 22.595808,26.968473 22.588135,26.965055 z M 22.713166,26.932935 C 22.706223,26.929843 22.697928,26.930222 22.694732,26.93378 C 22.691537,26.937338 22.697216,26.939869 22.707355,26.939404 C 22.718559,26.938891 22.720838,26.936353 22.713166,26.932935 z M 23.174822,26.804457 C 23.167879,26.801364 23.159584,26.801744 23.156388,26.805302 C 23.153191,26.80886 23.158872,26.811389 23.169011,26.810926 C 23.180216,26.810412 23.182495,26.807875 23.174822,26.804457 z M 23.235534,26.790357 C 23.24766,26.784558 23.249437,26.781156 23.240344,26.781156 C 23.232409,26.781156 23.217262,26.785296 23.206682,26.790357 C 23.194557,26.796157 23.192779,26.799559 23.201872,26.799559 C 23.209807,26.799559 23.224955,26.795418 23.235534,26.790357 z M 23.61063,26.672586 C 23.622755,26.666786 23.624533,26.663384 23.615439,26.663384 C 23.607504,26.663384 23.592356,26.667525 23.581776,26.672586 C 23.569653,26.678386 23.567876,26.681788 23.576969,26.681788 C 23.584903,26.681788 23.600051,26.677646 23.61063,26.672586 z M 25.587096,25.788745 C 25.587096,25.7858 25.574111,25.790866 25.558242,25.800002 C 25.542372,25.809137 25.529388,25.81902 25.529388,25.821965 C 25.529388,25.82491 25.542372,25.819843 25.558242,25.810708 C 25.574111,25.801573 25.587096,25.79169 25.587096,25.788745 L 25.587096,25.788745 z M 26.228735,24.973027 C 26.198126,24.970895 26.150516,24.970916 26.122939,24.973071 C 26.095361,24.975226 26.120404,24.976971 26.178592,24.976946 C 26.23678,24.976922 26.259344,24.975158 26.228735,24.973027 L 26.228735,24.973027 z M 25.911697,24.962248 C 25.849542,24.960384 25.747834,24.960384 25.685679,24.962248 C 25.623522,24.964113 25.674377,24.965639 25.798687,24.965639 C 25.922998,24.965639 25.973852,24.964113 25.911697,24.962248 z M 24.848926,24.951588 C 24.810576,24.949555 24.747819,24.949555 24.709468,24.951588 C 24.671117,24.95362 24.702496,24.955283 24.779197,24.955283 C 24.8559,24.955283 24.887278,24.95362 24.848926,24.951588 L 24.848926,24.951588 z M 26.330205,24.941295 C 26.318377,24.938753 26.296737,24.938688 26.282116,24.941149 C 26.267496,24.94361 26.277175,24.945688 26.303625,24.945769 C 26.330073,24.945849 26.342034,24.943835 26.330205,24.941295 L 26.330205,24.941295 z"
       id="path3245" />
    <path
       style="fill:#cccccc;fill-opacity:1;stroke:#cccccc;stroke-width:0.00078934000000000;stroke-miterlimit:4;stroke-dasharray:none;stroke-opacity:1"
       d="M 12.848775,27.619856 C 10.696878,27.386126 9.0250697,27.008859 7.9114743,26.505687 C 7.3412741,26.248045 6.9502443,25.953581 6.8626973,25.715909 C 6.8373638,25.647134 6.8383187,25.644618 6.8873101,25.651082 C 6.9101022,25.654089 7.1489752,25.658872 7.4181389,25.66171 L 7.9075276,25.666871 L 7.4931259,25.673007 C 7.0722205,25.679239 6.8893635,25.687314 6.8764376,25.70024 C 6.8671934,25.709484 6.8990931,25.769628 6.944627,25.828802 C 7.0008187,25.901828 7.1653628,26.052563 7.2721117,26.128804 C 7.6214041,26.378272 8.1390063,26.615616 8.7836912,26.821932 C 9.8543,27.164554 11.170036,27.420552 12.765707,27.596698 C 12.980199,27.620376 13.085534,27.634586 13.046109,27.634527 C 13.011378,27.634474 12.922578,27.627872 12.848775,27.619856 L 12.848775,27.619856 z"
       id="path3247" />
    <path
       style="fill:#00ffff;fill-opacity:1;stroke:#00ffff;stroke-width:0.00078934;stroke-miterlimit:4;stroke-dasharray:none;stroke-opacity:0"
       d="M 7.8897675,25.664951 C 7.923413,25.663471 7.9784692,25.663471 8.0121147,25.664951 C 8.0457602,25.66643 8.0182321,25.667641 7.9509411,25.667641 C 7.8836502,25.667641 7.8561221,25.66643 7.8897675,25.664951 L 7.8897675,25.664951 z"
       id="path3249" />
    <path
       style="fill:#cccccc;fill-opacity:1;stroke:#00ffff;stroke-width:0.00039063000000000;stroke-miterlimit:4;stroke-dasharray:none;stroke-opacity:0"
       d="M 8.1891765,26.622092 C 8.0158724,26.551424 7.9012315,26.500857 7.775114,26.439456 C 7.3056794,26.210909 6.9784811,25.958681 6.8793554,25.748942 C 6.8604997,25.709045 6.8459037,25.665422 6.8488454,25.657756 C 6.8505937,25.6532 6.860807,25.651938 6.8990148,25.651559 C 6.9254006,25.651297 6.9715983,25.649844 7.0016765,25.64833 C 7.0490679,25.645945 7.0411205,25.645488 6.9421061,25.6449 L 6.8278483,25.644223 L 6.8278483,24.536801 L 6.8278483,23.429379 L 8.9743327,23.429379 L 11.120817,23.429379 L 11.120817,25.034848 L 11.120817,26.640317 L 9.699613,26.640317 L 8.2784086,26.640317 L 8.191264,26.605128 C 7.7767222,26.437736 7.4215269,26.246672 7.205778,26.075024 C 7.1912761,26.063486 7.1794108,26.054987 7.1794108,26.056136 C 7.1794108,26.060154 7.2574677,26.120366 7.3063385,26.154048 C 7.5331887,26.310391 7.8447844,26.471289 8.181364,26.605882 C 8.2243327,26.623064 8.2602214,26.637841 8.2611166,26.63872 C 8.2620117,26.639598 8.2558594,26.640159 8.2474447,26.639965 C 8.2390299,26.639772 8.2128093,26.631729 8.1891765,26.622092 L 8.1891765,26.622092 z M 7.1755046,26.053031 C 7.1755046,26.05229 7.1715495,26.048335 7.1667155,26.044242 L 7.1579265,26.036801 L 7.1653679,26.04559 C 7.1723609,26.05385 7.1755046,26.056157 7.1755046,26.053031 L 7.1755046,26.053031 z M 7.0090626,25.897153 C 6.9646401,25.850887 6.921397,25.794898 6.8953494,25.749923 C 6.8884321,25.737979 6.8827192,25.729863 6.8826541,25.731886 C 6.8824658,25.737747 6.9132665,25.788187 6.9353961,25.818257 C 6.955002,25.844898 7.0216168,25.91766 7.026401,25.91766 C 7.0276947,25.91766 7.0198925,25.908432 7.0090626,25.897153 z M 6.8983177,25.697891 C 6.9078994,25.696167 6.9324382,25.693155 6.9528483,25.691198 L 6.9899577,25.68764 L 6.946989,25.689396 C 6.9233561,25.690362 6.8974284,25.69298 6.8893718,25.695215 C 6.8768915,25.698676 6.874781,25.70084 6.8751127,25.709836 L 6.8755021,25.720395 L 6.8781994,25.71071 C 6.880352,25.702981 6.8844138,25.700393 6.8983177,25.697891 L 6.8983177,25.697891 z M 7.047444,25.684307 C 7.0360926,25.683516 7.0185145,25.683524 7.0083815,25.684326 C 6.9982484,25.685127 7.0075358,25.685775 7.0290202,25.685765 C 7.0505046,25.685755 7.0587953,25.685099 7.047444,25.684307 L 7.047444,25.684307 z M 7.1528727,25.680381 C 7.1372026,25.679638 7.1125932,25.679643 7.0981852,25.680393 C 7.0837773,25.681142 7.0965983,25.68175 7.1266765,25.681744 C 7.1567546,25.681738 7.1685429,25.681125 7.1528727,25.680381 L 7.1528727,25.680381 z M 7.9450358,25.671591 C 8.1996257,25.669274 8.4896647,25.666975 8.5895671,25.666482 C 8.6894694,25.665989 8.5198405,25.665813 8.212614,25.66609 C 7.739063,25.666518 7.4526201,25.669676 7.2399577,25.676815 C 7.193965,25.67836 7.2332656,25.678068 7.9450358,25.671591 L 7.9450358,25.671591 z"
       id="path3251" />
    <path
       style="fill:#cccccc;fill-opacity:1;stroke:#cccccc;stroke-width:0.00033541;stroke-miterlimit:4;stroke-dasharray:none;stroke-opacity:1"
       d="M 8.2977622,25.558384 C 7.6348501,25.395042 7.1541263,25.212335 6.949393,25.045916 C 6.9000173,25.00578 6.8429499,24.933011 6.8509382,24.920371 C 6.8528386,24.917364 6.8633054,24.916481 6.8997648,24.916251 C 6.925289,24.916091 6.9645739,24.915104 6.9870646,24.914061 C 7.0199272,24.912535 7.0083057,24.912079 6.9278787,24.91174 L 6.8278008,24.911317 L 6.8278008,24.170366 L 6.8278008,23.429416 L 9.1930827,23.429416 L 11.558365,23.429416 L 11.558365,24.503598 L 11.558365,25.57778 L 9.9919988,25.57778 L 8.4256326,25.57778 L 8.3100444,25.549304 C 8.2464707,25.533642 8.1568592,25.510708 8.1109075,25.498339 C 8.0324738,25.477227 8.0079986,25.471341 8.03304,25.479614 C 8.0532483,25.486291 8.2237101,25.530904 8.3146241,25.55331 C 8.3645358,25.565612 8.4061799,25.576149 8.4071664,25.576728 C 8.4081527,25.577306 8.4013733,25.577711 8.3921009,25.577627 C 8.3815622,25.577532 8.3461947,25.570318 8.2977622,25.558384 L 8.2977622,25.558384 z M 7.9227412,25.445911 C 7.8679952,25.429668 7.7943896,25.407325 7.7591729,25.396259 C 7.7239561,25.385194 7.6990165,25.378059 7.7037514,25.380405 C 7.714605,25.385782 8.0118976,25.475922 8.0178691,25.475646 C 8.0202943,25.475534 7.9774869,25.462153 7.9227411,25.445911 L 7.9227412,25.445911 z M 7.6843815,25.372666 C 7.6843815,25.371977 7.6766335,25.369013 7.6671638,25.366079 C 7.657694,25.363146 7.6499461,25.36133 7.6499461,25.362044 C 7.6499461,25.362757 7.6572099,25.365669 7.6660877,25.368516 C 7.6843513,25.37437 7.6843815,25.374377 7.6843815,25.372666 z M 7.6456417,25.359613 C 7.6456417,25.358931 7.6398307,25.356548 7.6327284,25.354318 C 7.6165399,25.349235 7.6155604,25.351443 7.6316523,25.356744 C 7.6451792,25.3612 7.6456417,25.361295 7.6456417,25.359613 L 7.6456417,25.359613 z M 7.6069019,25.34657 C 7.6069019,25.345901 7.6025436,25.344073 7.5972169,25.342505 C 7.5879167,25.339769 7.5878639,25.339817 7.5958874,25.34372 C 7.6046697,25.347992 7.6069019,25.34857 7.6069019,25.34657 L 7.6069019,25.34657 z M 7.5767708,25.336115 C 7.5767708,25.335447 7.5724127,25.333618 7.567086,25.332051 C 7.5577856,25.329314 7.5577329,25.329362 7.5657564,25.333266 C 7.5745387,25.337538 7.5767708,25.338115 7.5767708,25.336115 L 7.5767708,25.336115 z M 7.5552488,25.328275 C 7.5552488,25.327607 7.5508905,25.325778 7.5455638,25.32421 C 7.5362636,25.321473 7.5362108,25.321522 7.5442343,25.325425 C 7.5530166,25.329697 7.5552488,25.330274 7.5552488,25.328275 L 7.5552488,25.328275 z M 7.52727,25.317454 C 7.5162444,25.312294 7.5035957,25.308065 7.5035957,25.309539 C 7.5035957,25.310867 7.530532,25.32158 7.5337266,25.321522 C 7.5349104,25.3215 7.5320048,25.31967 7.52727,25.317454 L 7.52727,25.317454 z M 7.4992912,25.307366 C 7.4992912,25.306698 7.494933,25.304869 7.4896063,25.303301 C 7.480306,25.300565 7.4802532,25.300613 7.4882767,25.304516 C 7.4970589,25.308788 7.4992912,25.309366 7.4992912,25.307366 L 7.4992912,25.307366 z M 7.4694446,25.295735 C 7.4564365,25.289663 7.4310146,25.280754 7.436877,25.284321 C 7.4426523,25.287835 7.4748846,25.300755 7.4776922,25.300682 C 7.4789182,25.30065 7.4752068,25.298424 7.4694446,25.295735 L 7.4694446,25.295735 z M 7.4045938,25.270984 C 7.4045938,25.270431 7.3992672,25.268009 7.3927566,25.265602 L 7.3809196,25.261226 L 7.3910814,25.266608 C 7.4009976,25.271861 7.4045938,25.273026 7.4045938,25.270984 L 7.4045938,25.270984 z M 7.3701584,25.25631 C 7.3304169,25.23808 7.2576092,25.207102 7.2647,25.21144 C 7.2742547,25.217286 7.3753612,25.26153 7.3787673,25.261356 C 7.3799511,25.261295 7.376077,25.259024 7.3701584,25.25631 z M 7.253939,25.205664 C 7.253939,25.205122 7.2505492,25.203064 7.2464062,25.20109 C 7.2395791,25.197839 7.2394269,25.197932 7.244781,25.202077 C 7.2504042,25.206431 7.253939,25.207815 7.253939,25.205664 z M 7.0188851,25.075319 C 6.9940514,25.059393 6.9613175,25.035315 6.9398288,25.017167 C 6.9186809,24.999306 6.9084433,24.992459 6.9202909,25.004099 C 6.9423156,25.025737 7.0257138,25.086427 7.0334235,25.086427 C 7.0349536,25.086427 7.0284114,25.081428 7.0188851,25.075319 z M 6.9095849,24.989724 C 6.9070509,24.986849 6.904009,24.984497 6.9028253,24.984497 C 6.9016416,24.984497 6.9027464,24.986849 6.9052804,24.989724 C 6.9078144,24.992599 6.9108563,24.994951 6.91204,24.994951 C 6.9132237,24.994951 6.9121189,24.992599 6.9095849,24.989724 z M 6.9268026,24.944489 C 6.9327212,24.943842 6.9269363,24.943801 6.9139473,24.944398 C 6.9009583,24.944995 6.888618,24.946524 6.8865244,24.947795 C 6.8843187,24.949135 6.8897249,24.949173 6.8993797,24.947886 C 6.9085437,24.946665 6.920884,24.945136 6.9268026,24.944489 L 6.9268026,24.944489 z M 6.9706539,24.940894 C 6.9675467,24.940139 6.9638341,24.940232 6.9624038,24.941101 C 6.9609735,24.941969 6.9635158,24.942587 6.9680534,24.942473 C 6.9730677,24.942348 6.9740877,24.941728 6.9706539,24.940894 z M 7.6424133,24.930271 C 7.6086774,24.929829 7.5534732,24.929829 7.5197372,24.930271 C 7.4860013,24.930713 7.5136034,24.931074 7.5810753,24.931074 C 7.6485472,24.931074 7.6761493,24.930713 7.6424133,24.930271 L 7.6424133,24.930271 z M 8.3881552,24.92714 L 8.6033764,24.925399 L 8.4010684,24.92526 C 8.2897989,24.925183 8.0931944,24.925901 7.9641692,24.926856 L 7.729578,24.928592 L 7.9512559,24.928736 C 8.0731788,24.928816 8.2697834,24.928097 8.3881552,24.92714 L 8.3881552,24.92714 z"
       id="path3253" />
  </g>
</svg>
