<?xml version="1.0" encoding="UTF-8" standalone="no"?>
<!-- Created with Inkscape (http://www.inkscape.org/) -->
<svg
   xmlns:dc="http://purl.org/dc/elements/1.1/"
   xmlns:cc="http://creativecommons.org/ns#"
   xmlns:rdf="http://www.w3.org/1999/02/22-rdf-syntax-ns#"
   xmlns:svg="http://www.w3.org/2000/svg"
   xmlns="http://www.w3.org/2000/svg"
   xmlns:sodipodi="http://sodipodi.sourceforge.net/DTD/sodipodi-0.dtd"
   xmlns:inkscape="http://www.inkscape.org/namespaces/inkscape"
   width="32px"
   height="32px"
   id="svg3327"
   sodipodi:version="0.32"
   inkscape:version="0.46"
   sodipodi:docname="mds.svg"
   inkscape:output_extension="org.inkscape.output.svg.inkscape">
  <defs
     id="defs3329">
    <inkscape:perspective
       sodipodi:type="inkscape:persp3d"
       inkscape:vp_x="0 : 16 : 1"
       inkscape:vp_y="0 : 1000 : 0"
       inkscape:vp_z="32 : 16 : 1"
       inkscape:persp3d-origin="16 : 10.666667 : 1"
       id="perspective3335" />
  </defs>
  <sodipodi:namedview
     id="base"
     pagecolor="#ffffff"
     bordercolor="#666666"
     borderopacity="1.0"
     inkscape:pageopacity="0.0"
     inkscape:pageshadow="2"
     inkscape:zoom="22.395604"
     inkscape:cx="16"
     inkscape:cy="18.74316"
     inkscape:current-layer="layer1"
     showgrid="true"
     inkscape:grid-bbox="true"
     inkscape:document-units="px"
     inkscape:window-width="1280"
     inkscape:window-height="725"
     inkscape:window-x="0"
     inkscape:window-y="25" />
  <metadata
     id="metadata3332">
    <rdf:RDF>
      <cc:Work
         rdf:about="">
        <dc:format>image/svg+xml</dc:format>
        <dc:type
           rdf:resource="http://purl.org/dc/dcmitype/StillImage" />
      </cc:Work>
    </rdf:RDF>
  </metadata>
  <g
     id="layer1"
     inkscape:label="Layer 1"
     inkscape:groupmode="layer">
    <path
       style="fill:none;fill-rule:evenodd;stroke:#000000;stroke-width:1px;stroke-linecap:butt;stroke-linejoin:miter;stroke-opacity:1"
       d="M 14.109912,23.784102 L 23.174191,18.693817 L 23.174191,18.693817 L 23.174191,18.693817"
       id="path3461" />
    <path
       style="fill:none;fill-rule:evenodd;stroke:#000000;stroke-width:1px;stroke-linecap:butt;stroke-linejoin:miter;stroke-opacity:1"
       d="M 14.199215,23.516192 L 14.199215,11.906771 L 14.199215,11.906771"
       id="path3463" />
    <path
       style="fill:none;fill-rule:evenodd;stroke:#000000;stroke-width:1px;stroke-linecap:butt;stroke-linejoin:miter;stroke-opacity:1"
       d="M 5.2688912,9.8974481 L 14.33317,12.263984"
       id="path3465" />
    <path
       style="fill:none;fill-rule:evenodd;stroke:#000000;stroke-width:1px;stroke-linecap:butt;stroke-linejoin:miter;stroke-opacity:1"
       d="M 14.11,12.263984 L 23.174279,7.1736987 L 23.174279,7.1736987 L 23.174279,7.1736987"
       id="path3467" />
    <path
       style="fill:none;fill-rule:evenodd;stroke:#000000;stroke-width:1.02936888px;stroke-linecap:butt;stroke-linejoin:miter;stroke-opacity:1"
       d="M 22.950933,6.7567671 L 22.950933,19.200053"
       id="path3469" />
    <path
       style="fill:none;fill-rule:evenodd;stroke:#000000;stroke-width:1px;stroke-linecap:butt;stroke-linejoin:miter;stroke-opacity:1"
       d="M 5.6484299,9.8974484 L 14.712709,4.8071631 L 14.712709,4.8071631 L 14.712709,4.8071631"
       id="path3471" />
    <path
       style="fill:none;fill-rule:evenodd;stroke:#000000;stroke-width:1.01581013px;stroke-linecap:butt;stroke-linejoin:miter;stroke-opacity:1"
       d="M 5.7154074,21.93745 L 5.7154074,9.9580345 L 5.7154074,9.9580345"
       id="path3473" />
    <path
       style="fill:none;fill-rule:evenodd;stroke:#000000;stroke-width:1px;stroke-linecap:butt;stroke-linejoin:miter;stroke-opacity:1"
       d="M 5.3358686,21.261285 L 14.400147,23.627821"
       id="path3475" />
    <path
       style="fill:none;fill-rule:evenodd;stroke:#000000;stroke-width:0.97621411px;stroke-linecap:butt;stroke-linejoin:miter;stroke-opacity:1"
       d="M 14.388254,4.9068995 L 22.9405,7.2972212"
       id="path3477" />
    <path
       style="fill:#ff8080;fill-opacity:1;stroke:#00ffff;stroke-width:0.00446516;stroke-miterlimit:4;stroke-dasharray:none;stroke-opacity:0"
       d="M 14.740824,17.659947 L 14.740824,12.507608 L 18.544383,10.37057 C 20.636343,9.1952001 22.364445,8.2268073 22.38461,8.218587 C 22.404775,8.2103662 22.41617,10.527073 22.409928,13.366823 L 22.398577,18.530005 L 18.58636,20.671146 C 16.489644,21.848774 14.766649,22.812287 14.757486,22.812287 C 14.74832,22.812287 14.740824,20.493734 14.740824,17.659947 L 14.740824,17.659947 z"
       id="path3479" />
    <path
       style="fill:#ff8080;fill-opacity:1;stroke:#00ffff;stroke-width:0.00446516;stroke-miterlimit:4;stroke-dasharray:none;stroke-opacity:0"
       d="M 9.9296123,21.927995 L 6.2570165,20.964559 L 6.2570165,15.833289 L 6.2570165,10.702016 L 6.3798085,10.731465 C 6.6481098,10.795811 13.21565,12.50819 13.434764,12.570931 L 13.669185,12.638054 L 13.669185,17.769823 C 13.669185,20.592295 13.654116,22.899304 13.635697,22.89651 C 13.617278,22.893715 11.94954,22.457884 9.9296123,21.927994 L 9.9296123,21.927995 z"
       id="path3481" />
    <path
       style="fill:#ff8080;fill-opacity:1;stroke:#00ffff;stroke-width:0.00446516;stroke-miterlimit:4;stroke-dasharray:none;stroke-opacity:0"
       d="M 10.44578,10.719345 C 8.5132772,10.211692 6.9460053,9.7832851 6.9629537,9.7673293 C 6.9799021,9.7513744 8.6980884,8.7816345 10.781146,7.6123537 L 14.568524,5.4863874 L 18.037034,6.4533673 C 19.944716,6.9852056 21.519936,7.4328453 21.537524,7.4481219 C 21.582761,7.4874158 14.207109,11.621382 14.071241,11.632885 C 14.009741,11.638092 12.378283,11.226999 10.44578,10.719346 L 10.44578,10.719345 z"
       id="path3483" />
  </g>
</svg>
