<?xml version="1.0" encoding="UTF-8" standalone="no"?>
<!-- Created with Inkscape (http://www.inkscape.org/) -->
<svg
   xmlns:dc="http://purl.org/dc/elements/1.1/"
   xmlns:cc="http://creativecommons.org/ns#"
   xmlns:rdf="http://www.w3.org/1999/02/22-rdf-syntax-ns#"
   xmlns:svg="http://www.w3.org/2000/svg"
   xmlns="http://www.w3.org/2000/svg"
   xmlns:sodipodi="http://sodipodi.sourceforge.net/DTD/sodipodi-0.dtd"
   xmlns:inkscape="http://www.inkscape.org/namespaces/inkscape"
   width="32px"
   height="32px"
   id="svg2383"
   sodipodi:version="0.32"
   inkscape:version="0.46"
   sodipodi:docname="osd.svg"
   inkscape:output_extension="org.inkscape.output.svg.inkscape">
  <defs
     id="defs2385">
    <inkscape:perspective
       sodipodi:type="inkscape:persp3d"
       inkscape:vp_x="0 : 16 : 1"
       inkscape:vp_y="0 : 1000 : 0"
       inkscape:vp_z="32 : 16 : 1"
       inkscape:persp3d-origin="16 : 10.666667 : 1"
       id="perspective2391" />
  </defs>
  <sodipodi:namedview
     id="base"
     pagecolor="#ffffff"
     bordercolor="#666666"
     borderopacity="1.0"
     inkscape:pageopacity="0.0"
     inkscape:pageshadow="2"
     inkscape:zoom="16"
     inkscape:cx="7.2823362"
     inkscape:cy="13.712442"
     inkscape:current-layer="layer1"
     showgrid="true"
     inkscape:grid-bbox="true"
     inkscape:document-units="px"
     inkscape:window-width="989"
     inkscape:window-height="719"
     inkscape:window-x="100"
     inkscape:window-y="25" />
  <metadata
     id="metadata2388">
    <rdf:RDF>
      <cc:Work
         rdf:about="">
        <dc:format>image/svg+xml</dc:format>
        <dc:type
           rdf:resource="http://purl.org/dc/dcmitype/StillImage" />
      </cc:Work>
    </rdf:RDF>
  </metadata>
  <g
     id="layer1"
     inkscape:label="Layer 1"
     inkscape:groupmode="layer">
    <path
       sodipodi:type="arc"
       style="fill:#00ffff;fill-rule:evenodd;stroke:#000000;stroke-width:1px;stroke-linecap:butt;stroke-linejoin:miter;stroke-opacity:1"
       id="path2397"
       sodipodi:cx="17.235525"
       sodipodi:cy="7.6202154"
       sodipodi:rx="10.269873"
       sodipodi:ry="2.6790972"
       d="M 27.505398,7.6202154 A 10.269873,2.6790972 0 1 1 6.9656525,7.6202154 A 10.269873,2.6790972 0 1 1 27.505398,7.6202154 z"
       transform="translate(-0.625,0.6875)" />
    <path
       style="fill:none;fill-rule:evenodd;stroke:#000000;stroke-width:1px;stroke-linecap:butt;stroke-linejoin:miter;stroke-opacity:1"
       d="M 6.3406527,8.4863219 L 6.3406527,25.81115"
       id="path2399" />
    <path
       style="fill:none;fill-rule:evenodd;stroke:#000000;stroke-width:1px;stroke-linecap:butt;stroke-linejoin:miter;stroke-opacity:1"
       d="M 26.880397,8.4866719 L 26.880397,25.8115"
       id="path3199" />
    <path
       sodipodi:type="arc"
       style="fill:#ffffff;fill-rule:evenodd;stroke:#000000;stroke-width:1px;stroke-linecap:butt;stroke-linejoin:miter;stroke-opacity:1"
       id="path3205"
       sodipodi:cx="17.235525"
       sodipodi:cy="7.6202154"
       sodipodi:rx="10.269873"
       sodipodi:ry="2.6790972"
       d="M 27.505398,7.6202154 A 10.269873,2.6790972 0 1 1 6.9656525,7.6202154 A 10.269873,2.6790972 0 1 1 27.505398,7.6202154 z"
       transform="translate(-0.6249998,18.012328)" />
    <rect
       style="fill:#00ffff"
       id="rect3209"
       width="19.543974"
       height="6.4725599"
       x="6.8263373"
       y="19.174059" />
    <path
       style="fill:#00ffff"
       d="M 15.273526,27.770004 C 11.299686,27.637867 7.872366,26.856295 6.9915854,25.881377 C 6.9273507,25.810276 6.8747945,25.730832 6.8747945,25.704834 C 6.8747945,25.662959 7.9864418,25.657565 16.615208,25.657565 C 21.972435,25.657565 26.355621,25.665374 26.355621,25.674919 C 26.355621,25.724606 26.253768,25.874516 26.160981,25.961394 C 25.604644,26.482303 24.201694,26.990077 22.424725,27.313669 C 20.316126,27.697653 17.843263,27.855451 15.273526,27.770003 L 15.273526,27.770004 z"
       id="path3211" />
    <path
       style="fill:#00ffff"
       d="M 6.843221,14.9068 L 6.843221,10.660169 L 7.9561856,10.660264 L 9.0691502,10.660358 L 9.511179,10.768521 C 12.573897,11.517963 17.19152,11.707721 21.035493,11.242107 C 21.927979,11.134002 23.067767,10.930343 23.772644,10.753028 L 24.141785,10.660169 L 25.248704,10.660169 L 26.355621,10.660169 L 26.355621,14.9068 L 26.355621,19.153431 L 16.599421,19.153431 L 6.843221,19.153431 L 6.843221,14.9068 z"
       id="path3213" />
    <path
       style="fill:#00ffff"
       d="M 14.562933,27.722982 C 11.326995,27.537172 8.6353059,26.966688 7.4276086,26.210701 C 7.1890805,26.061389 6.8874997,25.776785 6.9170843,25.728916 C 6.9615104,25.657033 26.324048,25.654726 26.324048,25.726605 C 26.324048,25.780756 26.06097,26.03727 25.886844,26.152901 C 24.791454,26.880307 22.330117,27.458208 19.393673,27.67744 C 18.006132,27.781033 15.916896,27.80073 14.562933,27.722983 L 14.562933,27.722982 z"
       id="path3215" />
    <path
       style="fill:#00ffff"
       d="M 6.843221,22.405498 L 6.843221,19.185005 L 16.599421,19.185005 L 26.355621,19.185005 L 26.355621,22.405498 L 26.355621,25.625991 L 16.599421,25.625991 L 6.843221,25.625991 L 6.843221,22.405498 z"
       id="path3217" />
    <path
       style="fill:#00ffff"
       d="M 7.316823,25.656311 C 7.0476592,25.646939 11.223644,25.636283 16.59679,25.632631 C 21.969935,25.628979 26.355745,25.636392 26.343032,25.649104 C 26.316676,25.675461 8.0653341,25.682374 7.316823,25.656311 L 7.316823,25.656311 z"
       id="path3219" />
    <path
       style="fill:#00ffff"
       d="M 15.039957,25.986261 C 14.962824,25.979836 14.633257,25.959675 14.307585,25.941459 C 11.320919,25.774403 8.6207627,25.184044 7.4513479,24.442417 C 7.1969137,24.281059 6.9094195,23.999282 6.9540698,23.95503 C 6.9719506,23.937308 8.5919187,23.914121 11.004123,23.89706 L 15.024375,23.868626 L 10.949584,23.863252 L 6.8747945,23.857877 L 6.8747945,20.637384 L 6.8747945,17.416891 L 16.5047,17.416891 L 26.134606,17.416891 L 26.134606,20.637384 L 26.134606,23.857877 L 25.098379,23.862451 C 24.528453,23.864966 23.262775,23.876377 22.285761,23.887808 L 20.50937,23.908592 L 23.306406,23.914808 C 25.458908,23.919592 26.103442,23.929762 26.103442,23.958942 C 26.103442,24.028045 25.745772,24.350618 25.522995,24.482433 C 24.297348,25.207638 21.989676,25.712372 18.842056,25.94369 C 18.406715,25.975684 15.326952,26.010166 15.039957,25.986261 L 15.039957,25.986261 z"
       id="path3221" />
    <path
       style="fill:#00ffff"
       d="M 6.9557817,25.656508 C 6.7646254,25.647244 7.2660677,25.636588 8.0700981,25.632828 C 8.8741284,25.629068 9.52854,25.631186 9.52435,25.637535 C 9.510965,25.657808 7.3170063,25.674014 6.9557817,25.656508 L 6.9557817,25.656508 z"
       id="path3223" />
    <path
       style="fill:#00ffff;fill-opacity:1;stroke:#00ffff;stroke-width:0.00315735;stroke-miterlimit:4;stroke-dasharray:none;stroke-opacity:0"
       d="M 6.8464444,10.220304 L 6.8464444,9.7804387 L 7.2332193,9.9776583 C 7.6338449,10.18194 8.1894851,10.399112 8.7289111,10.562248 L 9.0408001,10.656572 L 7.9436222,10.65837 L 6.8464444,10.660169 L 6.8464444,10.220304 z"
       id="path3227" />
    <path
       style="fill:#00ffff;fill-opacity:1;stroke:#00ffff;stroke-width:0.00315735;stroke-miterlimit:4;stroke-dasharray:none;stroke-opacity:0"
       d="M 24.290783,10.623842 C 24.342879,10.606604 24.563104,10.535192 24.780172,10.465149 C 25.259094,10.310612 25.766836,10.101186 26.10633,9.9181537 L 26.358845,9.7820152 L 26.358845,10.221092 L 26.358845,10.660169 L 25.277454,10.657677 C 24.516214,10.655922 24.224106,10.645905 24.290783,10.623842 z"
       id="path3229" />
    <path
       style="fill:#00ffff;fill-opacity:1;stroke:#00ffff;stroke-width:0.00315735;stroke-miterlimit:4;stroke-dasharray:none;stroke-opacity:0"
       d="M 24.722897,25.665521 C 25.012656,25.660315 25.49573,25.660306 25.796395,25.6655 C 26.09706,25.670694 25.859984,25.674953 25.26956,25.674965 C 24.679136,25.674976 24.433138,25.670726 24.722897,25.665521 L 24.722897,25.665521 z"
       id="path3231" />
    <path
       style="fill:#00ffff;fill-opacity:1;stroke:#00ffff;stroke-width:0.00078934;stroke-miterlimit:4;stroke-dasharray:none;stroke-opacity:0"
       d="M 20.181712,27.627323 C 20.216442,27.62354 20.360299,27.607897 20.501393,27.592561 C 22.617756,27.36253 24.339627,26.956526 25.426774,26.431193 C 25.919083,26.193299 26.21332,25.968832 26.334008,25.739083 C 26.347353,25.71368 26.35827,25.687928 26.35827,25.681856 C 26.35827,25.672693 26.321727,25.670661 26.143176,25.669895 C 26.024874,25.669388 25.904994,25.666378 25.876775,25.663206 C 25.844523,25.659581 25.911951,25.656966 26.058322,25.656166 C 26.186392,25.655467 26.309825,25.652654 26.332617,25.649917 C 26.380266,25.644193 26.380801,25.645242 26.362207,25.707854 C 26.336163,25.795557 26.226288,25.931215 26.087248,26.047332 C 25.958274,26.155045 25.718181,26.30637 25.51368,26.408839 C 24.491701,26.920923 22.835817,27.328593 20.785554,27.572879 C 20.469382,27.610551 20.211759,27.63636 20.163141,27.635234 C 20.120413,27.634244 20.121182,27.633916 20.181712,27.627323 z"
       id="path3233" />
    <path
       style="fill:#00ffff;fill-opacity:1;stroke:#00ffff;stroke-width:0.00078934;stroke-miterlimit:4;stroke-dasharray:none;stroke-opacity:0"
       d="M 25.914268,25.665247 C 25.924036,25.663366 25.940021,25.663366 25.949789,25.665247 C 25.959557,25.667129 25.951565,25.668668 25.932029,25.668668 C 25.912492,25.668668 25.9045,25.667129 25.914268,25.665247 L 25.914268,25.665247 z"
       id="path3235" />
    <path
       style="fill:#00ffff;fill-opacity:1;stroke:#00ffff;stroke-width:0.00078934;stroke-miterlimit:4;stroke-dasharray:none;stroke-opacity:0"
       d="M 25.74822,25.657115 C 25.770853,25.655526 25.809925,25.655512 25.835047,25.657083 C 25.860168,25.658654 25.841649,25.659954 25.793895,25.659972 C 25.74614,25.65999 25.725586,25.658704 25.74822,25.657115 L 25.74822,25.657115 z"
       id="path3237" />
    <path
       style="fill:#00ffff;fill-opacity:1;stroke:#00ffff;stroke-width:0.00078934;stroke-miterlimit:4;stroke-dasharray:none;stroke-opacity:0"
       d="M 16.925698,24.392093 L 16.925698,21.147919 L 21.645931,21.147919 L 26.366164,21.147919 L 26.366164,23.397529 L 26.366164,25.647138 L 26.226056,25.648917 L 26.085949,25.650696 L 26.226056,25.653046 L 26.366164,25.655395 L 26.366164,25.676455 C 26.366164,25.694996 26.364984,25.695956 26.356297,25.684475 C 26.348306,25.673913 26.326168,25.670592 26.23987,25.667007 C 26.039033,25.658664 24.491662,25.655046 24.223115,25.662292 C 24.018746,25.667806 24.123226,25.668597 24.661197,25.665607 C 25.407254,25.66146 26.350377,25.674721 26.350377,25.689357 C 26.350377,25.693634 26.338012,25.719629 26.322899,25.747123 C 26.28983,25.807285 26.292791,25.814386 26.326463,25.755672 C 26.339534,25.73288 26.350262,25.719671 26.350303,25.726319 C 26.350344,25.732966 26.337671,25.758719 26.322142,25.783545 C 26.294013,25.828516 26.281211,25.841129 26.290348,25.814872 C 26.293365,25.806201 26.289113,25.808404 26.278923,25.820792 C 26.269996,25.831645 26.242474,25.864619 26.217763,25.894066 C 26.121257,26.00907 25.910758,26.165899 25.681414,26.293663 C 25.632574,26.320872 25.592614,26.344847 25.592614,26.346943 C 25.592614,26.349039 25.619475,26.335926 25.652306,26.317803 C 25.685136,26.29968 25.713856,26.286711 25.716128,26.288982 C 25.726238,26.299093 25.388857,26.469926 25.201892,26.549366 C 24.978653,26.644218 24.728645,26.739172 24.714531,26.734467 C 24.710554,26.733141 24.758199,26.713113 24.820409,26.68996 C 24.969673,26.634407 25.128342,26.569467 25.124412,26.565538 C 25.122686,26.563811 25.092722,26.57462 25.057826,26.589556 C 24.874963,26.667824 24.44844,26.815793 24.146766,26.905618 C 23.884759,26.983633 23.408294,27.107145 23.182095,27.155685 C 23.146219,27.163384 23.139029,27.167136 23.150522,27.172162 C 23.161237,27.176847 23.158773,27.177657 23.141724,27.175055 C 23.107638,27.169851 22.949998,27.203302 22.96912,27.21168 C 22.979543,27.216246 22.976924,27.217052 22.960176,27.214433 C 22.92559,27.209025 22.798917,27.234533 22.818631,27.242937 C 22.828263,27.247042 22.820795,27.248003 22.798362,27.245544 C 22.770971,27.242542 22.766455,27.243486 22.778629,27.249669 C 22.791623,27.256268 22.789883,27.256998 22.768796,27.253793 C 22.754706,27.251652 22.660578,27.265532 22.559622,27.284638 C 21.835562,27.42167 21.017892,27.537138 20.181712,27.620439 C 20.029985,27.635554 19.96359,27.636168 18.474771,27.636216 L 16.925698,27.636266 L 16.925698,24.392093 z M 25.158479,26.554875 C 25.164991,26.550667 25.166767,26.547223 25.162425,26.547223 C 25.158084,26.547223 25.149204,26.550667 25.142692,26.554875 C 25.13618,26.559083 25.134404,26.562527 25.138745,26.562527 C 25.143087,26.562527 25.151967,26.559083 25.158479,26.554875 z M 25.205839,26.535142 C 25.216692,26.528937 25.22202,26.523861 25.217679,26.523861 C 25.213338,26.523861 25.200906,26.528937 25.190052,26.535142 C 25.179199,26.541346 25.173871,26.546422 25.178212,26.546422 C 25.182553,26.546422 25.194985,26.541346 25.205839,26.535142 z M 25.276879,26.503568 C 25.296415,26.493107 25.308847,26.484548 25.304506,26.484548 C 25.300165,26.484548 25.280629,26.493107 25.261092,26.503568 C 25.241556,26.514029 25.229124,26.522588 25.233466,26.522588 C 25.237807,26.522588 25.257343,26.514029 25.276879,26.503568 z M 25.3716,26.460155 C 25.386794,26.451836 25.395674,26.44503 25.391333,26.44503 C 25.386992,26.44503 25.371008,26.451836 25.355813,26.460155 C 25.340618,26.468473 25.331738,26.47528 25.336079,26.47528 C 25.340421,26.475279 25.356405,26.468473 25.3716,26.460155 z"
       id="path3239" />
    <path
       style="fill:#00ffff;fill-opacity:1;stroke:#00ffff;stroke-width:0.00078934;stroke-miterlimit:4;stroke-dasharray:none;stroke-opacity:0"
       d="M 16.925698,24.392093 L 16.925698,21.147919 L 21.645931,21.147919 L 26.366164,21.147919 L 26.366164,23.397262 L 26.366164,25.646604 L 26.28131,25.649141 L 26.196456,25.651679 L 26.28131,25.653355 L 26.366164,25.655031 L 26.366043,25.676738 C 26.365975,25.688842 26.363357,25.694502 26.360123,25.689533 C 26.356651,25.684199 26.347396,25.69608 26.337066,25.719133 C 26.31838,25.760835 26.318928,25.771036 26.337969,25.735938 C 26.344653,25.723619 26.349881,25.719459 26.350061,25.726319 C 26.350491,25.742775 26.292885,25.833809 26.289143,25.822585 C 26.287502,25.817663 26.260158,25.844551 26.228377,25.882335 C 26.126925,26.00295 25.921451,26.16031 25.716934,26.274022 C 25.663866,26.303528 25.641609,26.321986 25.688067,26.297961 C 25.717482,26.28275 25.72685,26.287374 25.700971,26.304331 C 25.662356,26.329633 25.449444,26.43789 25.33299,26.491435 C 25.100904,26.598147 24.733288,26.740325 24.709214,26.732684 C 24.70213,26.730436 24.621828,26.753627 24.530765,26.784221 C 24.328449,26.852191 24.062521,26.932708 23.85338,26.989319 C 23.741524,27.019597 23.70092,27.033549 23.7113,27.038139 C 23.721452,27.042628 23.71858,27.043486 23.701771,27.040983 C 23.688536,27.039013 23.638808,27.047503 23.591263,27.05985 C 23.543719,27.072196 23.513699,27.082852 23.524552,27.083528 C 23.535405,27.084205 23.508928,27.093509 23.465714,27.104204 C 23.4225,27.114899 23.381937,27.121652 23.375574,27.119211 C 23.369211,27.116769 23.344591,27.119116 23.320863,27.124426 C 23.287147,27.131971 23.280972,27.135498 23.292602,27.140564 C 23.302502,27.144876 23.298235,27.145725 23.279858,27.143098 C 23.264663,27.140926 23.241575,27.142359 23.228551,27.146281 C 23.205877,27.153111 23.205709,27.153477 23.224604,27.1549 C 23.241369,27.156163 23.240182,27.157422 23.216711,27.163271 C 23.201516,27.167058 23.178428,27.168254 23.165404,27.165931 C 23.149673,27.163124 23.14525,27.164143 23.152227,27.168965 C 23.166088,27.178543 23.120857,27.188059 23.091619,27.181716 C 23.074958,27.178101 23.073101,27.178976 23.082523,27.185999 C 23.091671,27.192816 23.087184,27.19384 23.06279,27.190499 C 23.038339,27.18715 23.034778,27.187968 23.047003,27.194126 C 23.059108,27.200223 23.054505,27.201169 23.02727,27.198184 C 22.999878,27.195182 22.995362,27.196126 23.007536,27.202309 C 23.02045,27.208867 23.018584,27.209602 22.997277,27.206347 C 22.982952,27.204159 22.973126,27.205435 22.975443,27.209182 C 22.981221,27.218532 22.938193,27.226274 22.906896,27.221516 C 22.885792,27.218308 22.884042,27.219038 22.897029,27.225633 C 22.909203,27.231816 22.904688,27.23276 22.877296,27.229758 C 22.849904,27.226756 22.845389,27.2277 22.857563,27.233882 C 22.870477,27.240441 22.86861,27.241176 22.847303,27.237921 C 22.829256,27.235164 22.822941,27.236665 22.826738,27.242809 C 22.830632,27.249111 22.823324,27.250134 22.801477,27.246344 C 22.779426,27.242519 22.774083,27.243292 22.782576,27.249077 C 22.794908,27.257478 22.788646,27.258693 22.719429,27.261331 C 22.704234,27.26191 22.681146,27.263285 22.668122,27.264386 C 22.646916,27.266179 22.646091,27.26717 22.660228,27.273877 C 22.672493,27.279695 22.670063,27.280451 22.649338,27.277261 C 22.634666,27.275004 22.599264,27.277468 22.570668,27.282737 C 22.527521,27.290687 22.521987,27.293355 22.538144,27.29842 C 22.552245,27.30284 22.549181,27.303557 22.527029,27.301023 C 22.509746,27.299046 22.400138,27.31452 22.274998,27.336604 C 21.858929,27.410029 21.345967,27.486438 20.915795,27.539068 C 20.775719,27.556205 20.74146,27.562489 20.765821,27.566574 C 20.784472,27.569701 20.769934,27.570765 20.7303,27.569172 C 20.678496,27.567091 20.670402,27.568028 20.69478,27.573284 C 20.721172,27.578974 20.718111,27.579524 20.676132,27.576633 C 20.64851,27.574732 20.581022,27.578398 20.526158,27.584781 C 20.471294,27.591164 20.336294,27.605359 20.226156,27.616326 L 20.025906,27.636266 L 18.475802,27.636266 L 16.925698,27.636266 L 16.925698,24.392093 z M 23.194511,27.157272 C 23.188813,27.154992 23.182004,27.155272 23.179382,27.157895 C 23.176759,27.160518 23.181421,27.162384 23.189742,27.162041 C 23.198937,27.161662 23.200807,27.159792 23.194511,27.157272 z M 23.399738,27.109912 C 23.39404,27.107632 23.387232,27.107912 23.384609,27.110535 C 23.381986,27.113158 23.386648,27.115024 23.394969,27.114681 C 23.404165,27.114302 23.406035,27.112432 23.399738,27.109912 z M 23.431312,27.102019 C 23.425614,27.099738 23.418805,27.100019 23.416183,27.102642 C 23.41356,27.105265 23.418222,27.10713 23.426543,27.106787 C 23.435738,27.106409 23.437608,27.104538 23.431312,27.102019 z M 23.462885,27.094125 C 23.457187,27.091845 23.450379,27.092125 23.447756,27.094748 C 23.445133,27.097371 23.449795,27.099237 23.458116,27.098894 C 23.467312,27.098516 23.469182,27.096645 23.462885,27.094125 z M 23.494458,27.086232 C 23.48876,27.083952 23.481952,27.084232 23.47933,27.086855 C 23.476707,27.089478 23.481369,27.091343 23.48969,27.091001 C 23.498885,27.090622 23.500755,27.088752 23.494458,27.086232 z M 24.767757,26.707901 C 24.786775,26.699241 24.787552,26.698071 24.771704,26.701959 C 24.76085,26.704622 24.741314,26.711653 24.72829,26.717583 C 24.709272,26.726243 24.708495,26.727413 24.724344,26.723525 C 24.735197,26.720862 24.754733,26.713832 24.767757,26.707901 L 24.767757,26.707901 z M 24.842744,26.679837 C 24.850973,26.674753 24.848565,26.674132 24.834851,26.6778 C 24.823997,26.680703 24.809789,26.68637 24.803277,26.690394 C 24.795048,26.695478 24.797456,26.696099 24.811171,26.692431 C 24.822024,26.689528 24.836232,26.683861 24.842744,26.679837 L 24.842744,26.679837 z M 24.882211,26.665382 C 24.888723,26.661174 24.890499,26.657731 24.886158,26.657731 C 24.881816,26.65773 24.872936,26.661174 24.866424,26.665382 C 24.859912,26.669591 24.858136,26.673034 24.862477,26.673034 C 24.866819,26.673034 24.875699,26.669591 24.882211,26.665382 z M 24.945358,26.641702 C 24.95187,26.637494 24.953646,26.63405 24.949304,26.63405 C 24.944963,26.63405 24.936083,26.637494 24.929571,26.641702 C 24.923059,26.64591 24.921283,26.649354 24.925624,26.649354 C 24.929966,26.649354 24.938846,26.64591 24.945358,26.641702 z M 24.984825,26.625915 C 24.991337,26.621707 24.993113,26.618264 24.988771,26.618264 C 24.98443,26.618264 24.97555,26.621707 24.969038,26.625915 C 24.962526,26.630124 24.96075,26.633567 24.965091,26.633567 C 24.969433,26.633567 24.978313,26.630124 24.984825,26.625915 z M 25.024291,26.610129 C 25.030803,26.60592 25.032579,26.602477 25.028238,26.602477 C 25.023897,26.602477 25.015017,26.60592 25.008505,26.610129 C 25.001993,26.614337 25.000217,26.61778 25.004558,26.61778 C 25.008899,26.61778 25.017779,26.614337 25.024291,26.610129 z M 25.063758,26.594342 C 25.07027,26.590133 25.072046,26.58669 25.067705,26.58669 C 25.063364,26.58669 25.054484,26.590133 25.047972,26.594342 C 25.04146,26.59855 25.039684,26.601993 25.044025,26.601993 C 25.048366,26.601993 25.057246,26.59855 25.063758,26.594342 z M 25.28077,26.499712 C 25.283536,26.495237 25.280367,26.493914 25.273342,26.49661 C 25.259668,26.501857 25.257166,26.507515 25.26852,26.507515 C 25.272605,26.507515 25.278118,26.504003 25.28077,26.499712 L 25.28077,26.499712 z M 25.3716,26.460155 C 25.378112,26.455946 25.379888,26.452503 25.375546,26.452503 C 25.371205,26.452503 25.362325,26.455946 25.355813,26.460155 C 25.349301,26.464363 25.347525,26.467806 25.351866,26.467806 C 25.356207,26.467806 25.365088,26.464363 25.3716,26.460155 z M 26.22803,25.670086 C 26.048973,25.661085 24.702891,25.65364 24.530956,25.6607 C 24.425095,25.665046 24.560309,25.666361 24.941411,25.66469 C 25.253988,25.66332 25.632278,25.665349 25.782055,25.669198 C 25.931831,25.673047 26.118312,25.676071 26.196456,25.675919 L 26.338537,25.675641 L 26.22803,25.670086 z"
       id="path3241" />
    <path
       style="fill:#00ffff;fill-opacity:1;stroke:#00ffff;stroke-width:0.00078934;stroke-miterlimit:4;stroke-dasharray:none;stroke-opacity:0"
       d="M 25.862962,25.665164 C 25.8749,25.663356 25.894436,25.663356 25.906375,25.665164 C 25.918314,25.666973 25.908546,25.668453 25.884668,25.668453 C 25.860791,25.668453 25.851023,25.666973 25.862962,25.665164 z"
       id="path3243" />
    <path
       style="fill:#00ffff;fill-opacity:1;stroke:#00ffff;stroke-width:0.00078934;stroke-miterlimit:4;stroke-dasharray:none;stroke-opacity:0"
       d="M 16.925698,24.392259 L 16.925698,21.147919 L 21.645957,21.147919 L 26.366216,21.147919 L 26.366137,23.421642 C 26.366093,24.672189 26.363049,25.693505 26.359371,25.691232 C 26.355694,25.688959 26.348614,25.696036 26.343638,25.706957 C 26.332648,25.731078 26.331967,25.742344 26.342484,25.726072 C 26.347973,25.717576 26.350169,25.71713 26.350256,25.72449 C 26.350542,25.748721 26.290861,25.839755 26.279352,25.832642 C 26.275987,25.830561 26.268389,25.835036 26.262471,25.842586 C 26.252733,25.855007 26.253023,25.855282 26.265523,25.845479 C 26.273121,25.839521 26.279337,25.838198 26.279337,25.842539 C 26.279337,25.852814 26.259433,25.869298 26.253813,25.863678 C 26.251428,25.861293 26.233995,25.877808 26.215073,25.900378 C 26.142721,25.98668 26.012246,26.086787 25.745545,26.260625 C 25.733006,26.268798 25.732856,26.269573 25.744561,26.265701 C 25.800343,26.247248 25.696277,26.31018 25.527392,26.397027 C 25.293752,26.517174 25.01458,26.634328 24.698369,26.744925 C 24.548991,26.79717 24.508467,26.80876 24.534903,26.791676 C 24.554062,26.779294 24.546464,26.781387 24.377035,26.835162 C 24.288038,26.86341 24.194206,26.892455 24.16852,26.899708 C 24.1352,26.909116 24.125971,26.914351 24.136312,26.917978 C 24.147123,26.921771 24.141601,26.925639 24.11457,26.933207 C 24.094641,26.938787 24.074254,26.94083 24.069265,26.937747 C 24.064277,26.934665 24.024553,26.942097 23.980989,26.954263 C 23.927461,26.969213 23.906528,26.978069 23.916421,26.98158 C 23.928078,26.985717 23.925719,26.98796 23.904842,26.992591 C 23.890423,26.995789 23.876511,26.996292 23.873927,26.993708 C 23.871343,26.991124 23.875741,26.98901 23.8837,26.98901 C 23.891659,26.98901 23.896235,26.987074 23.893869,26.984708 C 23.891503,26.982342 23.872454,26.984715 23.851538,26.989982 C 23.823106,26.997141 23.817264,27.000874 23.828388,27.004776 C 23.848631,27.011877 23.684067,27.052924 23.658326,27.047195 C 23.642478,27.043667 23.641134,27.044551 23.650846,27.052111 C 23.660428,27.05957 23.658561,27.060428 23.641052,27.05661 C 23.614352,27.050788 23.538374,27.068226 23.558967,27.075449 C 23.567028,27.078277 23.526525,27.091101 23.461887,27.106186 C 23.400885,27.120422 23.347319,27.12981 23.34285,27.127049 C 23.338382,27.124287 23.323684,27.124453 23.310188,27.127417 C 23.295108,27.130729 23.289266,27.135042 23.295032,27.138605 C 23.308032,27.14664 23.183768,27.172566 23.165625,27.165604 C 23.156167,27.161974 23.152807,27.162948 23.156147,27.168351 C 23.162574,27.178751 23.113977,27.188832 23.094128,27.181215 C 23.083602,27.177176 23.081606,27.178473 23.086403,27.186235 C 23.091498,27.194479 23.087163,27.195604 23.065991,27.191534 C 23.045729,27.187639 23.042025,27.188453 23.05095,27.194839 C 23.059812,27.201181 23.054849,27.202097 23.031217,27.198482 C 23.006959,27.194771 23.002387,27.195692 23.011483,27.202456 C 23.020974,27.209513 23.019071,27.210582 23.001892,27.207843 C 22.990104,27.205963 22.979244,27.208075 22.977757,27.212536 C 22.97627,27.216997 22.956958,27.220921 22.93484,27.221256 C 22.911254,27.221613 22.898388,27.224582 22.903722,27.228438 C 22.908808,27.232115 22.8989,27.233083 22.881243,27.230635 C 22.857865,27.227395 22.852743,27.22841 22.861509,27.234546 C 22.870726,27.240998 22.868602,27.242077 22.851918,27.239416 C 22.84013,27.237537 22.829475,27.238415 22.828238,27.241369 C 22.824418,27.250489 22.701084,27.271986 22.676015,27.267901 C 22.656975,27.264798 22.654655,27.265825 22.664175,27.273144 C 22.673464,27.280285 22.669213,27.281205 22.644442,27.277416 C 22.620463,27.273747 22.615716,27.274667 22.624708,27.281238 C 22.633677,27.287792 22.627936,27.288827 22.601028,27.285504 C 22.574383,27.282214 22.569452,27.283077 22.581295,27.288958 C 22.593279,27.294909 22.588525,27.29586 22.561561,27.292905 C 22.538599,27.290388 22.53153,27.291344 22.541568,27.295609 C 22.554,27.300891 22.550129,27.303141 22.52215,27.306894 C 22.502931,27.309471 22.476408,27.309975 22.46321,27.308012 C 22.442767,27.304971 22.441551,27.305656 22.455001,27.312638 C 22.467946,27.319358 22.465971,27.320091 22.444031,27.316712 C 22.428961,27.314391 22.327247,27.328236 22.211176,27.348405 C 21.984108,27.387863 21.582242,27.450761 21.373612,27.479496 C 21.273704,27.493257 21.245475,27.499437 21.263105,27.503689 C 21.280023,27.507769 21.276642,27.508391 21.251263,27.505868 C 21.231726,27.503926 21.166014,27.508426 21.105235,27.515868 C 21.017084,27.526662 21.000317,27.530552 21.022355,27.535094 C 21.042465,27.539239 21.038401,27.539883 21.007416,27.537459 C 20.984006,27.535628 20.943157,27.536569 20.916643,27.53955 C 20.871405,27.544636 20.870137,27.545318 20.896061,27.550609 C 20.913293,27.554125 20.901413,27.55517 20.864488,27.553386 C 20.819089,27.551192 20.811728,27.55214 20.832914,27.557452 C 20.85498,27.562986 20.850214,27.563767 20.809234,27.561334 C 20.778781,27.559526 20.765948,27.560707 20.777661,27.56424 C 20.804263,27.572263 20.703602,27.582069 20.643473,27.577311 C 20.611076,27.574748 20.60707,27.575391 20.627687,27.579844 C 20.646999,27.584017 20.631557,27.585876 20.57638,27.586023 C 20.532966,27.586138 20.413974,27.59649 20.311952,27.609025 L 20.126458,27.631818 L 18.526078,27.634208 L 16.925698,27.6366 L 16.925698,24.392259 z M 20.71239,27.567649 C 20.70471,27.565648 20.694054,27.565779 20.68871,27.567942 C 20.683366,27.570104 20.68965,27.571741 20.702674,27.57158 C 20.715698,27.571419 20.72007,27.56965 20.71239,27.567649 L 20.71239,27.567649 z M 23.233977,27.149379 C 23.228279,27.147099 23.221471,27.147379 23.218848,27.150002 C 23.216226,27.152625 23.220888,27.15449 23.229208,27.154148 C 23.238404,27.153769 23.240274,27.151898 23.233977,27.149379 z M 23.265551,27.141485 C 23.259853,27.139205 23.253045,27.139486 23.250422,27.142108 C 23.247799,27.144732 23.252461,27.146597 23.260782,27.146254 C 23.269977,27.145876 23.271848,27.144005 23.265551,27.141485 z M 23.368165,27.117805 C 23.362467,27.115525 23.355659,27.115805 23.353036,27.118428 C 23.350413,27.121051 23.355075,27.122917 23.363396,27.122574 C 23.372591,27.122196 23.374461,27.120325 23.368165,27.117805 z M 23.747046,27.023085 C 23.741348,27.020805 23.73454,27.021085 23.731917,27.023708 C 23.729294,27.026331 23.733956,27.028196 23.742277,27.027854 C 23.751473,27.027475 23.753343,27.025605 23.747046,27.023085 z M 23.796873,27.01269 C 23.806824,27.008414 23.808283,27.005906 23.80082,27.005906 C 23.794308,27.005906 23.781876,27.008959 23.773193,27.01269 C 23.763242,27.016966 23.761783,27.019474 23.769246,27.019474 C 23.775758,27.019474 23.78819,27.016421 23.796873,27.01269 z M 24.104714,26.925863 C 24.114665,26.921587 24.116124,26.919079 24.108661,26.919079 C 24.102149,26.919079 24.089717,26.922132 24.081034,26.925863 C 24.071084,26.930139 24.069625,26.932647 24.077088,26.932647 C 24.0836,26.932647 24.096032,26.929594 24.104714,26.925863 z M 25.726801,26.274255 C 25.726801,26.272084 25.716145,26.275819 25.703121,26.282554 C 25.690097,26.289289 25.679441,26.296575 25.679441,26.298746 C 25.679441,26.300917 25.690097,26.297182 25.703121,26.290447 C 25.716145,26.283712 25.726801,26.276426 25.726801,26.274255 L 25.726801,26.274255 z M 26.253395,25.67287 C 26.228274,25.671298 26.189201,25.671313 26.166568,25.672902 C 26.143935,25.674491 26.164488,25.675777 26.212243,25.675759 C 26.259998,25.675741 26.278516,25.674441 26.253395,25.67287 L 26.253395,25.67287 z M 25.993202,25.664923 C 25.942191,25.663549 25.858719,25.663549 25.807708,25.664923 C 25.756697,25.666298 25.798433,25.667423 25.900455,25.667423 C 26.002477,25.667423 26.044213,25.666298 25.993202,25.664923 z M 25.120985,25.657064 C 25.08951,25.655565 25.038006,25.655565 25.006531,25.657064 C 24.975057,25.658562 25.000809,25.659788 25.063758,25.659788 C 25.126708,25.659788 25.15246,25.658562 25.120985,25.657064 L 25.120985,25.657064 z M 26.336672,25.649475 C 26.326964,25.647601 26.309204,25.647553 26.297205,25.649367 C 26.285207,25.651182 26.29315,25.652714 26.314857,25.652774 C 26.336564,25.652833 26.34638,25.651348 26.336672,25.649475 L 26.336672,25.649475 z"
       id="path3245" />
    <path
       style="fill:#00ffff;fill-opacity:1;stroke:#00ffff;stroke-width:0.00078934;stroke-miterlimit:4;stroke-dasharray:none;stroke-opacity:0"
       d="M 12.848775,27.619856 C 10.696878,27.386126 9.0250697,27.008859 7.9114743,26.505687 C 7.3412741,26.248045 6.9502443,25.953581 6.8626973,25.715909 C 6.8373638,25.647134 6.8383187,25.644618 6.8873101,25.651082 C 6.9101022,25.654089 7.1489752,25.658872 7.4181389,25.66171 L 7.9075276,25.666871 L 7.4931259,25.673007 C 7.0722205,25.679239 6.8893635,25.687314 6.8764376,25.70024 C 6.8671934,25.709484 6.8990931,25.769628 6.944627,25.828802 C 7.0008187,25.901828 7.1653628,26.052563 7.2721117,26.128804 C 7.6214041,26.378272 8.1390063,26.615616 8.7836912,26.821932 C 9.8543,27.164554 11.170036,27.420552 12.765707,27.596698 C 12.980199,27.620376 13.085534,27.634586 13.046109,27.634527 C 13.011378,27.634474 12.922578,27.627872 12.848775,27.619856 L 12.848775,27.619856 z"
       id="path3247" />
    <path
       style="fill:#00ffff;fill-opacity:1;stroke:#00ffff;stroke-width:0.00078934;stroke-miterlimit:4;stroke-dasharray:none;stroke-opacity:0"
       d="M 7.8897675,25.664951 C 7.923413,25.663471 7.9784692,25.663471 8.0121147,25.664951 C 8.0457602,25.66643 8.0182321,25.667641 7.9509411,25.667641 C 7.8836502,25.667641 7.8561221,25.66643 7.8897675,25.664951 L 7.8897675,25.664951 z"
       id="path3249" />
    <path
       style="fill:#00ffff;fill-opacity:1;stroke:#00ffff;stroke-width:0.00039063;stroke-miterlimit:4;stroke-dasharray:none;stroke-opacity:0"
       d="M 8.1891765,26.622092 C 8.0158724,26.551424 7.9012315,26.500857 7.775114,26.439456 C 7.3056794,26.210909 6.9784811,25.958681 6.8793554,25.748942 C 6.8604997,25.709045 6.8459037,25.665422 6.8488454,25.657756 C 6.8505937,25.6532 6.860807,25.651938 6.8990148,25.651559 C 6.9254006,25.651297 6.9715983,25.649844 7.0016765,25.64833 C 7.0490679,25.645945 7.0411205,25.645488 6.9421061,25.6449 L 6.8278483,25.644223 L 6.8278483,24.536801 L 6.8278483,23.429379 L 8.9743327,23.429379 L 11.120817,23.429379 L 11.120817,25.034848 L 11.120817,26.640317 L 9.699613,26.640317 L 8.2784086,26.640317 L 8.191264,26.605128 C 7.7767222,26.437736 7.4215269,26.246672 7.205778,26.075024 C 7.1912761,26.063486 7.1794108,26.054987 7.1794108,26.056136 C 7.1794108,26.060154 7.2574677,26.120366 7.3063385,26.154048 C 7.5331887,26.310391 7.8447844,26.471289 8.181364,26.605882 C 8.2243327,26.623064 8.2602214,26.637841 8.2611166,26.63872 C 8.2620117,26.639598 8.2558594,26.640159 8.2474447,26.639965 C 8.2390299,26.639772 8.2128093,26.631729 8.1891765,26.622092 L 8.1891765,26.622092 z M 7.1755046,26.053031 C 7.1755046,26.05229 7.1715495,26.048335 7.1667155,26.044242 L 7.1579265,26.036801 L 7.1653679,26.04559 C 7.1723609,26.05385 7.1755046,26.056157 7.1755046,26.053031 L 7.1755046,26.053031 z M 7.0090626,25.897153 C 6.9646401,25.850887 6.921397,25.794898 6.8953494,25.749923 C 6.8884321,25.737979 6.8827192,25.729863 6.8826541,25.731886 C 6.8824658,25.737747 6.9132665,25.788187 6.9353961,25.818257 C 6.955002,25.844898 7.0216168,25.91766 7.026401,25.91766 C 7.0276947,25.91766 7.0198925,25.908432 7.0090626,25.897153 z M 6.8983177,25.697891 C 6.9078994,25.696167 6.9324382,25.693155 6.9528483,25.691198 L 6.9899577,25.68764 L 6.946989,25.689396 C 6.9233561,25.690362 6.8974284,25.69298 6.8893718,25.695215 C 6.8768915,25.698676 6.874781,25.70084 6.8751127,25.709836 L 6.8755021,25.720395 L 6.8781994,25.71071 C 6.880352,25.702981 6.8844138,25.700393 6.8983177,25.697891 L 6.8983177,25.697891 z M 7.047444,25.684307 C 7.0360926,25.683516 7.0185145,25.683524 7.0083815,25.684326 C 6.9982484,25.685127 7.0075358,25.685775 7.0290202,25.685765 C 7.0505046,25.685755 7.0587953,25.685099 7.047444,25.684307 L 7.047444,25.684307 z M 7.1528727,25.680381 C 7.1372026,25.679638 7.1125932,25.679643 7.0981852,25.680393 C 7.0837773,25.681142 7.0965983,25.68175 7.1266765,25.681744 C 7.1567546,25.681738 7.1685429,25.681125 7.1528727,25.680381 L 7.1528727,25.680381 z M 7.9450358,25.671591 C 8.1996257,25.669274 8.4896647,25.666975 8.5895671,25.666482 C 8.6894694,25.665989 8.5198405,25.665813 8.212614,25.66609 C 7.739063,25.666518 7.4526201,25.669676 7.2399577,25.676815 C 7.193965,25.67836 7.2332656,25.678068 7.9450358,25.671591 L 7.9450358,25.671591 z"
       id="path3251" />
    <path
       style="fill:#00ffff;fill-opacity:1;stroke:#00ffff;stroke-width:0.00039063;stroke-miterlimit:4;stroke-dasharray:none;stroke-opacity:0"
       d="M 8.1618327,26.611328 C 7.5602425,26.367197 7.1239875,26.094124 6.9381928,25.845395 C 6.8933845,25.785408 6.8415961,25.676647 6.8488454,25.657756 C 6.85057,25.653262 6.8600686,25.651942 6.8931554,25.651598 C 6.9163185,25.651358 6.9519694,25.649884 6.9723796,25.648324 C 7.0022023,25.646044 6.9916558,25.645363 6.9186686,25.644855 L 6.8278483,25.644223 L 6.8278483,24.536801 L 6.8278483,23.429379 L 8.9743327,23.429379 L 11.120817,23.429379 L 11.120817,25.034848 L 11.120817,26.640317 L 9.699346,26.640317 L 8.2778746,26.640317 L 8.1729788,26.597757 C 8.1152859,26.574349 8.0339638,26.540072 7.9922628,26.521585 C 7.9210845,26.490031 7.8988734,26.481234 7.9215983,26.493599 C 7.9399373,26.503578 8.0946307,26.570257 8.1771348,26.603745 C 8.2224295,26.622131 8.2602214,26.63788 8.2611166,26.638745 C 8.2620117,26.639609 8.2558594,26.640214 8.2474447,26.640089 C 8.2378809,26.639947 8.205785,26.629164 8.1618327,26.611328 L 8.1618327,26.611328 z M 7.8215026,26.443226 C 7.7718208,26.41895 7.705024,26.385556 7.673065,26.369017 C 7.6411059,26.352478 7.6184733,26.341815 7.6227702,26.345321 C 7.6326198,26.353357 7.9024117,26.488081 7.9078308,26.487668 C 7.9100317,26.487501 7.8711841,26.467502 7.8215025,26.443226 L 7.8215026,26.443226 z M 7.6051921,26.333755 C 7.6051921,26.332725 7.5981608,26.328295 7.5895671,26.32391 C 7.5809733,26.319526 7.5739421,26.316812 7.5739421,26.317878 C 7.5739421,26.318945 7.5805339,26.323297 7.5885905,26.327551 C 7.6051647,26.336301 7.6051921,26.336311 7.6051921,26.333755 z M 7.5700358,26.314245 C 7.5700358,26.313226 7.5647624,26.309665 7.5583171,26.306332 C 7.5436261,26.298735 7.5427372,26.302035 7.5573405,26.309957 C 7.5696161,26.316617 7.5700358,26.316759 7.5700358,26.314245 L 7.5700358,26.314245 z M 7.5348796,26.294751 C 7.5348796,26.293752 7.5309245,26.291019 7.5260905,26.288676 C 7.5176506,26.284586 7.5176027,26.284658 7.524884,26.290492 C 7.5328539,26.296877 7.5348796,26.29774 7.5348796,26.294751 L 7.5348796,26.294751 z M 7.5075358,26.279126 C 7.5075358,26.278127 7.5035808,26.275394 7.4987468,26.273051 C 7.4903068,26.268961 7.4902589,26.269033 7.4975402,26.274867 C 7.5055101,26.281252 7.5075358,26.282115 7.5075358,26.279126 L 7.5075358,26.279126 z M 7.4880046,26.267407 C 7.4880046,26.266409 7.4840495,26.263675 7.4792155,26.261332 C 7.4707756,26.257242 7.4707277,26.257314 7.478009,26.263148 C 7.4859789,26.269533 7.4880046,26.270396 7.4880046,26.267407 L 7.4880046,26.267407 z M 7.462614,26.251234 C 7.4526083,26.243523 7.4411296,26.237202 7.4411296,26.239405 C 7.4411296,26.24139 7.4655742,26.257401 7.4684733,26.257314 C 7.4695476,26.257282 7.4669108,26.254546 7.462614,26.251234 L 7.462614,26.251234 z M 7.4372233,26.236157 C 7.4372233,26.235159 7.4332683,26.232425 7.4284343,26.230082 C 7.4199943,26.225992 7.4199464,26.226064 7.4272277,26.231898 C 7.4351975,26.238283 7.4372233,26.239146 7.4372233,26.236157 L 7.4372233,26.236157 z M 7.4101376,26.218773 C 7.3983328,26.209699 7.3752626,26.196383 7.3805827,26.201714 C 7.3858237,26.206966 7.4150744,26.226277 7.4176223,26.226167 C 7.4187349,26.226119 7.4153668,26.222792 7.4101376,26.218773 L 7.4101376,26.218773 z M 7.3512858,26.181781 C 7.3512858,26.180954 7.3464519,26.177334 7.3405436,26.173737 L 7.3298015,26.167197 L 7.3390233,26.175241 C 7.3480222,26.183091 7.3512858,26.184832 7.3512858,26.181781 L 7.3512858,26.181781 z M 7.3200358,26.159849 C 7.2839705,26.132602 7.2178978,26.086303 7.2243327,26.092787 C 7.2330035,26.101524 7.3247573,26.167651 7.3278483,26.167391 C 7.3289226,26.1673 7.3254069,26.163906 7.3200358,26.159849 z M 7.2145671,26.084154 C 7.2145671,26.083343 7.2114909,26.080267 7.2077311,26.077318 C 7.2015356,26.072459 7.2013974,26.072598 7.2062563,26.078793 C 7.2113593,26.0853 7.2145671,26.087369 7.2145671,26.084154 z M 7.0012566,25.88934 C 6.9787201,25.865537 6.9490142,25.82955 6.9295133,25.802426 C 6.9103217,25.775732 6.9010311,25.765498 6.9117827,25.782895 C 6.9317701,25.815235 7.0074536,25.905942 7.0144501,25.905942 C 7.0158387,25.905942 7.0099017,25.898471 7.0012566,25.88934 z M 6.9020671,25.76141 C 6.8997675,25.757113 6.897007,25.753598 6.8959328,25.753598 C 6.8948586,25.753598 6.8958612,25.757113 6.8981608,25.76141 C 6.9004604,25.765707 6.9032209,25.769223 6.9042951,25.769223 C 6.9053693,25.769223 6.9043667,25.765707 6.9020671,25.76141 z M 6.9176921,25.693802 C 6.9230632,25.692835 6.9178134,25.692774 6.9060259,25.693666 C 6.8942385,25.694559 6.8830397,25.696844 6.8811398,25.698744 C 6.8791381,25.700746 6.8840442,25.700803 6.8928059,25.698879 C 6.9011222,25.697054 6.912321,25.694769 6.9176921,25.693802 L 6.9176921,25.693802 z M 6.957487,25.688429 C 6.9546672,25.687301 6.951298,25.68744 6.95,25.688738 C 6.948702,25.690036 6.9510092,25.690959 6.955127,25.690789 C 6.9596775,25.690602 6.9606031,25.689676 6.957487,25.688429 z M 7.5671061,25.672552 C 7.5364909,25.671892 7.4863933,25.671892 7.455778,25.672552 C 7.4251628,25.673212 7.4502116,25.673752 7.5114421,25.673752 C 7.5726726,25.673752 7.5977214,25.673212 7.5671061,25.672552 L 7.5671061,25.672552 z M 8.243864,25.667872 L 8.4391765,25.665271 L 8.2555827,25.665062 C 8.1546061,25.664947 7.9761882,25.66602 7.8590983,25.667448 L 7.6462077,25.670043 L 7.8473796,25.670258 C 7.9580241,25.670377 8.1364421,25.669303 8.243864,25.667872 L 8.243864,25.667872 z"
       id="path3253" />
  </g>
</svg>
